<svg width="50" height="50" viewBox="0 0 50 50" fill="none" xmlns="http://www.w3.org/2000/svg">
<circle cx="25" cy="25" r="25" fill="white" fill-opacity="0.2"/>
<path d="M16.5 20.875C16.2239 20.875 16 21.0989 16 21.375V28.625C16 28.9011 16.2239 29.125 16.5 29.125H20.5631C20.7077 29.125 20.8452 29.1876 20.9401 29.2966L25.9019 34.9931C26.2055 35.3417 26.7789 35.1269 26.7789 34.6647V15.3353C26.7789 14.8731 26.2055 14.6583 25.9019 15.0069L20.9401 20.7034C20.8452 20.8124 20.7077 20.875 20.5631 20.875H16.5Z" fill="#F1F1F1"/>
<path d="M30.5 25.25C30.5 23.5849 29.7147 22.1551 28.5752 21.459V29.0316C29.7147 28.3449 30.5 26.9151 30.5 25.25ZM28.5752 17V18.9379C30.8003 19.7469 32.4248 22.268 32.4248 25.25C32.4248 28.232 30.8003 30.7531 28.5752 31.5621V33.5C31.6626 32.644 33.9647 29.2762 33.9647 25.25C33.9647 21.2238 31.6626 17.856 28.5752 17Z" fill="#F1F1F1"/>
</svg>
