<svg width="100" height="100" viewBox="0 0 100 100" fill="none" xmlns="http://www.w3.org/2000/svg">
<path d="M66.856 25.328C66.472 26.56 65.84 27.792 65.136 28.592C65.24 28.744 65.4 29.064 65.456 29.208C66.248 28.272 66.96 26.864 67.416 25.48L66.856 25.328ZM66.216 27.288V32.64H66.784V26.752L66.768 26.736L66.216 27.288ZM69.68 25.488C69.08 25.784 68.032 26.088 67.12 26.288C67.192 26.424 67.28 26.624 67.312 26.76C68.256 26.568 69.368 26.288 70.128 25.952L69.68 25.488ZM67.128 27.768V28.304H72.544V27.768H67.128ZM68.464 26.12V31.912C68.464 32.032 68.424 32.064 68.304 32.064C68.192 32.072 67.808 32.072 67.4 32.064C67.48 32.224 67.56 32.472 67.584 32.624C68.136 32.624 68.504 32.616 68.728 32.52C68.952 32.424 69.032 32.264 69.032 31.912V26.12H68.464ZM67.072 30.016L67.232 30.6C68.04 30.376 69.144 30.072 70.176 29.784L70.112 29.248C68.992 29.536 67.824 29.84 67.072 30.016ZM70.248 25.368C70.272 29.296 70.576 32.648 71.92 32.656C72.448 32.656 72.632 32.28 72.72 31.064C72.584 31.008 72.384 30.88 72.264 30.752C72.24 31.688 72.16 32.08 71.984 32.08C71.216 32.08 70.8 29.16 70.84 25.368H70.248ZM71.856 28.688C71.328 30.048 70.384 31.216 69.248 31.936C69.368 32.04 69.568 32.248 69.656 32.36C70.792 31.552 71.792 30.312 72.392 28.832L71.856 28.688ZM71.248 25.768C71.568 26.248 71.92 26.896 72.064 27.296L72.536 27.064C72.384 26.664 72.024 26.04 71.696 25.576L71.248 25.768ZM78.184 26.056H79.56V26.864H78.184V26.056ZM76.288 26.056H77.632V26.864H76.288V26.056ZM74.432 26.056H75.736V26.864H74.432V26.056ZM73.856 25.6V27.328H80.16V25.6H73.856ZM78.752 28.704V32.064H79.288V28.704H78.752ZM77.528 27.376C77.24 28.12 76.776 28.864 76.248 29.36C76.376 29.44 76.6 29.608 76.704 29.704C77.224 29.16 77.744 28.336 78.072 27.512L77.528 27.376ZM77.592 28.392H77.32L77.048 28.672V32.648H77.592V28.888H80.528V28.392H77.592ZM77.328 29.552V30.008H80.336V29.552H77.328ZM77.328 30.688V31.144H80.336V30.688H77.328ZM77.296 31.832V32.328H80.656V31.832H77.296ZM75.68 29.376C75.936 29.816 76.176 30.408 76.256 30.776L76.696 30.6C76.616 30.232 76.36 29.656 76.096 29.224L75.68 29.376ZM74.736 30.968C74.864 31.408 74.976 31.976 74.984 32.36L75.464 32.272C75.448 31.896 75.336 31.336 75.192 30.896L74.736 30.968ZM73.888 30.912C73.816 31.44 73.696 32 73.48 32.384C73.608 32.408 73.84 32.472 73.952 32.512C74.144 32.128 74.296 31.536 74.376 30.976L73.888 30.912ZM73.712 29.256C73.712 29.16 74.104 29.016 74.104 29.016V29C74.568 28.616 75.064 28.064 75.456 27.496L74.928 27.28C74.608 27.832 74.096 28.408 73.944 28.552C73.792 28.696 73.664 28.792 73.52 28.808C73.592 28.936 73.68 29.168 73.712 29.256ZM73.712 29.256C73.856 29.208 74.088 29.16 75.512 29.048C75.52 28.936 75.544 28.752 75.568 28.624L74.016 28.72L73.704 28.88L73.712 29.256ZM73.704 30.672C73.704 30.568 74.096 30.432 74.096 30.432V30.416C74.888 29.848 75.696 29.056 76.376 28.24L75.896 27.976C75.304 28.8 74.424 29.64 74.144 29.848C73.896 30.064 73.696 30.2 73.52 30.224C73.592 30.352 73.68 30.576 73.704 30.672ZM73.704 30.672C73.88 30.6 74.168 30.552 76.328 30.32C76.296 30.224 76.256 30.04 76.248 29.912L73.992 30.12L73.68 30.288L73.704 30.672ZM75.656 30.848C75.88 31.248 76.104 31.784 76.184 32.128L76.648 32.016C76.552 31.664 76.328 31.144 76.088 30.744L75.656 30.848ZM78.488 27.584C78.696 27.952 78.888 28.448 78.96 28.752L79.448 28.584C79.384 28.272 79.176 27.8 78.96 27.44L78.488 27.584ZM81.424 26.352V26.88H85.224V26.352H81.424ZM82.328 27.616V28.104H84.36V27.616H82.328ZM82.328 28.848V29.336H84.384V28.848H82.328ZM81.304 30.152V30.688H85.28V30.152H81.304ZM82.072 25.368V30.384H82.624V25.368H82.072ZM84.096 25.368V30.384H84.656V25.368H84.096ZM82.432 30.856C82.208 31.36 81.824 31.872 81.408 32.216C81.552 32.296 81.784 32.472 81.888 32.576C82.304 32.192 82.736 31.6 83 31.016L82.432 30.856ZM83.528 31.096C83.792 31.416 84.104 31.864 84.24 32.144L84.736 31.88C84.592 31.6 84.28 31.176 84.008 30.864L83.528 31.096ZM85.744 27.976V28.536H88.688V27.976H85.744ZM87.272 28.272V32.648H87.848V28.272H87.272ZM88.144 25.296C87.544 25.608 86.464 25.912 85.536 26.12C85.608 26.248 85.696 26.448 85.728 26.576C86.712 26.384 87.856 26.088 88.624 25.728L88.144 25.296ZM85.536 26.12V28.888C85.536 30.152 85.408 31.376 84.48 32.376C84.616 32.48 84.808 32.64 84.912 32.76C85.928 31.672 86.088 30.36 86.088 28.888V26.12H85.536Z" fill="#FAFAFA"/>
<path d="M17.84 57.352V57.936H20.016V57.352H17.84ZM13.424 52.8V53.384H16.496V52.8H13.424ZM17.568 52.28V58.52H18.152V52.856H19.696V58.464H20.304V52.28H17.568ZM16.336 52.8V52.944C16.28 56.368 16.208 57.552 16.024 57.8C15.952 57.904 15.88 57.928 15.76 57.92C15.608 57.92 15.264 57.92 14.888 57.888C14.992 58.056 15.056 58.32 15.064 58.496C15.424 58.52 15.792 58.52 16.016 58.488C16.256 58.464 16.4 58.392 16.544 58.184C16.8 57.832 16.856 56.664 16.92 53.104C16.92 53.024 16.92 52.8 16.92 52.8H16.336ZM14.56 51.392C14.552 54.192 14.56 56.832 13.224 58.24C13.376 58.328 13.584 58.512 13.688 58.648C15.096 57.12 15.136 54.344 15.144 51.392H14.56ZM21.928 56.104V56.544H28.096V56.104H21.928ZM21.496 57.024V57.472H28.512V57.024H21.496ZM24.696 55.344V58.032C24.696 58.136 24.656 58.168 24.528 58.176C24.4 58.184 23.936 58.184 23.464 58.168C23.536 58.312 23.632 58.504 23.656 58.648C24.312 58.648 24.712 58.648 24.96 58.568C25.208 58.488 25.296 58.36 25.296 58.04V55.344H24.696ZM27.288 55C26.128 55.208 23.904 55.312 22.08 55.328C22.136 55.432 22.192 55.616 22.2 55.728C24.064 55.72 26.312 55.608 27.712 55.36L27.288 55ZM23.2 52.672V53.08H26.832V52.672H23.2ZM23.104 53.888H26.84V54.432H23.104V53.888ZM22.544 53.488V54.824H27.432V53.488H22.544ZM25.2 51.392L24.736 51.64C25.592 52.368 27.12 53.024 28.36 53.328C28.44 53.184 28.608 52.968 28.728 52.856C27.48 52.6 25.968 52.016 25.2 51.392ZM25.008 51.12C24.296 51.896 22.832 52.52 21.272 52.912C21.384 53.016 21.544 53.232 21.624 53.36C23.216 52.912 24.68 52.264 25.528 51.352L25.008 51.12ZM29.496 53.584V54.192H36.528V53.584H29.496ZM33.392 53.824L32.792 53.968C33.392 56.12 34.48 57.808 36.208 58.624C36.312 58.456 36.512 58.2 36.664 58.064C35 57.376 33.912 55.76 33.392 53.824ZM32.688 51.288C32.672 53.208 32.736 56.656 29.336 58.136C29.504 58.256 29.696 58.472 29.792 58.632C33.288 57.032 33.304 53.384 33.336 51.288H32.688Z" fill="#FAFAFA"/>
<path d="M99.4238 55.6873C98.2989 65.4627 94.3006 74.6849 87.9342 82.1878C79.3954 92.2434 67.2136 98.4976 54.0657 99.5758C40.9179 100.654 27.8798 96.4683 17.8167 87.9381C10.3131 81.5728 4.8656 73.1251 2.16311 63.6636C-0.53938 54.2022 -0.375411 44.1518 2.63421 34.7835C5.64383 25.4152 11.3639 17.1498 19.0712 11.0325C26.7784 4.91517 36.1267 1.22077 45.9337 0.416493C55.7406 -0.387781 65.5658 1.73421 74.1667 6.51406C82.7677 11.2939 89.7581 18.5169 94.2538 27.2697C98.7496 36.0225 100.549 45.912 99.4238 55.6873Z" stroke="white" stroke-width="0.5"/>
<path d="M91.2001 21.3315L90.8086 21.1265L91.0883 21.5366L91.2001 21.3315Z" fill="white"/>
<path d="M11.9877 82.3866L13.1435 81.9392L12.9384 81.6968L14.1502 81.3612L14.7841 80.8765L14.1688 80.1307H13.5723V79.7766L13.0875 79.3664L12.0809 78.919L11.6335 79.1614L10.4962 78.919L10.2724 79.3478L9.95555 79.0682H9.41495L9.73185 78.3224L8.76239 77.5581L8.20312 77.4463C9.24093 79.0477 10.374 80.5854 11.5961 82.051L12.0062 81.9205L11.9877 82.3866Z" fill="white"/>
<path d="M30.6299 74.2595L31.0773 74.3713L31.7485 75.0238L32.4942 75.0052L31.357 73.9426L30.6485 73.9053L30.6299 74.2595Z" fill="white"/>
<path d="M28.7283 73.2153L28.3555 73.439L28.691 74.017L29.3249 74.2593L30.0147 74.1102L30.1265 73.7373L29.1571 73.4763L28.7283 73.2153Z" fill="white"/>
<mask id="path-8-inside-1_706_1868" fill="white">
<path d="M8.52024 76.7009L7.96098 76.328L7.84913 75.8061L8.85591 74.7248L8.74395 74.2587L10.0303 72.674L10.9066 72.5249L11.093 72.0402L12.0811 72.5622L12.5845 71.9097L13.5352 72.5436H14.486V72.8792H15.5859L15.3809 73.3079L16.0707 73.8113V74.3332L16.7418 74.7061L16.6299 75.6383L17.1332 75.8806L17.3384 76.9246L17.8603 76.2722L17.4502 75.9925L17.9722 75.5264L18.1773 76.3467L18.9416 76.8128L19.128 77.6144L19.6314 77.7262L19.8364 78.6397H20.2838L20.5822 79.1618L20.0416 80.0193L20.3025 80.3735H20.0043L19.6874 81.0633L20.0043 81.5667L19.6501 81.7717L19.2958 82.6853L19.5382 82.8903L19.4077 83.2446L19.7059 83.4869L21.1041 82.3496L20.9178 82.0514L21.4025 81.809L21.6635 81.1193L21.3838 80.6905L22.5583 79.6837H23.6769L23.9006 79.2176L24.4413 79.5905L25.0379 79.2176L25.9327 79.3295L26.2496 79.6465L27.1445 80.2244L27.4614 79.7956L28.6918 79.0686V78.6397L29.363 77.5025H29.6426L28.9341 78.8449L29.6799 78.5465L29.8291 77.9873L30.407 77.6517L30.2392 78.3228L30.8357 78.4907L31.6187 78.0059L33.2034 78.155L33.5016 78.7329H33.9864L33.6695 78.0059L34.266 77.3534L35.1981 77.5771L35.5896 77.2229H36.3354L37.0065 77.8008L37.4352 77.4094L37.6963 77.6517H38.125V78.211H36.6896V78.677H37.2862L37.5471 78.9008L38.2369 78.7516H39.4487V78.1923L38.6657 78.0805L38.5724 77.5771L37.9945 76.9619L38.3302 76.4585L37.92 76.328L37.6963 76.0111L38.442 76.2722L38.9453 75.8993L38.6098 75.4704L38.1437 75.3214L37.5284 74.8925L36.1302 75.2282L35.8507 75.079L36.615 74.7621L37.9573 74.6129L38.6657 74.9298L39.4114 74.818L40.6232 75.6196V75.9179L41.2011 76.2162H41.7977L42.2451 75.862H42.6552L43.0654 75.4146L42.9162 74.874L42.7857 75.1349H42.4502V74.818L42.3383 74.5569L42.5434 74.2214L42.1891 73.774H41.9282L42.1146 73.2334L41.8909 72.9537L41.4994 73.3639L41.7045 72.8045H40.9961L40.7724 71.9097L40.9961 71.7233C39.2867 69.8775 38.1247 67.5924 37.6403 65.1237L37.4726 65.2729V65.6271L37.2302 65.9626L36.7641 66.0745L36.1117 66.8389V67.454L35.776 67.9015L35.0117 68.1998L34.4151 67.9761L33.8745 68.6659L34.005 68.9641L33.1847 69.9149L32.9424 69.4862L33.2966 69.1319V68.554L32.961 68.2371L32.6627 67.6592L33.0356 67.2677V66.9693L31.9729 65.9253L32.0661 65.5526L31.6374 65.1797L31.7865 64.0238L31.5255 63.5204L30.7798 62.7002L30.9476 62.4578L31.6 62.2341L32.1408 61.7121L31.9543 61.2833L32.3271 61.1342L32.7 61.3579L33.1288 61.0223L33.9304 61.2833L35.3659 60.5748L35.8507 60.9291H36.5218V59.8851L36.8573 59.7919V60.8732H37.2862C37.4227 59.7558 37.6981 58.6598 38.1064 57.6107H37.8081L37.6963 57.8157L36.9133 57.6479L37.5099 57.387V56.6972L37.0252 56.5107V55.6346L36.8201 55.243V54.4973L36.3354 53.994V54.4601H35.8693V53.7516L35.6456 53.4719V52.4279L35.888 52.5771L36.2049 51.9247V51.2908L36.9133 50.3213L37.137 48.5503L36.7455 48.1401V47.4317L36.1489 46.7046L37.0624 45.903L37.2862 44.9708L38.2369 44.2065L38.5724 42.9202L39.0385 43.032L39.5419 41.3355L39.2063 40.3101L39.3742 39.8068L38.7589 39.0984L38.3302 39.378L38.4792 39.9746L37.4539 39.5645L38.0132 39.2103L37.5284 37.495L37.0624 37.9426L36.876 37.495L36.1302 37.0663V38.5764L35.3473 38.073L35.2354 36.7866L34.5456 36.1901L33.6135 36.4138L33.1101 37.1223L32.9237 36.5816L32.2339 36.1901V36.9358L31.8424 36.6189L31.6187 37.4392L31.0221 36.9358V34.8291L30.5747 34.7173L30.6866 35.463L29.9781 36.1715V37.8121L30.4442 38.0358V39.434L31.0221 39.2848L31.8797 40.3661V41.0186L30.9289 39.8441L30.7798 41.2236L31.3391 41.7643L30.7798 42.4168L30.0713 42.9202L30.2205 43.5167L29.7917 43.9082L30.0528 44.5794H28.8596L28.4681 45.2692L28.8969 45.5301L28.5427 46.164L26.6784 47.264L26.9021 47.4504L25.6344 47.9537L25.1497 47.6367L24.0497 48.7367L23.2108 48.8486L22.4651 50.8247L21.1974 51.7755L20.5635 51.5331L21.3465 51.1603L21.0109 50.6942L19.6687 50.8434L18.7552 51.2721L17.8044 50.6569H16.7977L16.1079 50.3586L15.5859 50.6569L15.0825 50.4891L14.2064 51.4213L14.486 51.7382L13.647 52.7076V53.155L12.864 53.3229L11.5964 54.9261L11.8574 56.3616L11.3913 56.7904H10.9811L9.86259 57.7784L9.69475 58.1886L8.6321 58.4869L8.42705 59.8105H7.97964V59.1208H7.53223L7.34574 60.4443L6.86112 61.3393L6.05949 61.8425L6.18989 62.3459L5.44425 63.4459L5.85434 63.7255L6.60009 62.9612L6.4136 62.6256L7.64409 62.2714L8.0915 61.7307L7.71862 61.3206L8.22201 60.724L8.78127 60.8172L9.21002 59.9969L10.7387 58.4123L11.4845 57.9463V58.5987L10.7574 59.6614L10.2727 59.7919L8.96777 62.2154L8.33386 62.4205V63.1104L7.64409 63.7255L7.17802 66L6.26454 66.6338V67.2863L5.68662 67.7337L5.12735 67.5287L4.3816 68.7404L4.54932 69.5235L4.23242 70.1946C5.28435 72.6219 6.53129 74.9599 7.96098 77.1856L8.52024 76.7009ZM29.9968 74.1095L29.3257 74.2587L28.6918 74.0163L28.3376 73.4384L28.7291 73.2147L29.1578 73.4757L30.1273 73.7553L29.9968 74.1095ZM32.4763 75.0044H31.7306L31.0781 74.3519L30.612 74.2401V73.8858H31.3205L32.4763 75.0044ZM27.1072 69.9896L27.8156 70.1386L27.9461 69.6725H28.7478L29.5121 70.5115L29.6612 69.8031L28.6172 68.8336L28.785 68.4235L27.7038 67.9574L28.058 67.5287L27.5173 67.0626H28.1325L28.9528 67.9388H29.6052L30.4629 68.6659L30.6492 69.7472L30.2205 70.1386V70.7912L31.1713 71.425L31.3763 72.0589L31.134 72.7673H30.5374V72.3571H30.1273L29.6799 72.8792L28.9528 72.6368V71.947L29.4002 71.8538L29.251 71.1639L28.4867 70.6233L27.4054 70.8097L27.2004 71.3878H25.8022L27.1072 69.9896Z"/>
</mask>
<path d="M8.52024 76.7009L7.96098 76.328L7.84913 75.8061L8.85591 74.7248L8.74395 74.2587L10.0303 72.674L10.9066 72.5249L11.093 72.0402L12.0811 72.5622L12.5845 71.9097L13.5352 72.5436H14.486V72.8792H15.5859L15.3809 73.3079L16.0707 73.8113V74.3332L16.7418 74.7061L16.6299 75.6383L17.1332 75.8806L17.3384 76.9246L17.8603 76.2722L17.4502 75.9925L17.9722 75.5264L18.1773 76.3467L18.9416 76.8128L19.128 77.6144L19.6314 77.7262L19.8364 78.6397H20.2838L20.5822 79.1618L20.0416 80.0193L20.3025 80.3735H20.0043L19.6874 81.0633L20.0043 81.5667L19.6501 81.7717L19.2958 82.6853L19.5382 82.8903L19.4077 83.2446L19.7059 83.4869L21.1041 82.3496L20.9178 82.0514L21.4025 81.809L21.6635 81.1193L21.3838 80.6905L22.5583 79.6837H23.6769L23.9006 79.2176L24.4413 79.5905L25.0379 79.2176L25.9327 79.3295L26.2496 79.6465L27.1445 80.2244L27.4614 79.7956L28.6918 79.0686V78.6397L29.363 77.5025H29.6426L28.9341 78.8449L29.6799 78.5465L29.8291 77.9873L30.407 77.6517L30.2392 78.3228L30.8357 78.4907L31.6187 78.0059L33.2034 78.155L33.5016 78.7329H33.9864L33.6695 78.0059L34.266 77.3534L35.1981 77.5771L35.5896 77.2229H36.3354L37.0065 77.8008L37.4352 77.4094L37.6963 77.6517H38.125V78.211H36.6896V78.677H37.2862L37.5471 78.9008L38.2369 78.7516H39.4487V78.1923L38.6657 78.0805L38.5724 77.5771L37.9945 76.9619L38.3302 76.4585L37.92 76.328L37.6963 76.0111L38.442 76.2722L38.9453 75.8993L38.6098 75.4704L38.1437 75.3214L37.5284 74.8925L36.1302 75.2282L35.8507 75.079L36.615 74.7621L37.9573 74.6129L38.6657 74.9298L39.4114 74.818L40.6232 75.6196V75.9179L41.2011 76.2162H41.7977L42.2451 75.862H42.6552L43.0654 75.4146L42.9162 74.874L42.7857 75.1349H42.4502V74.818L42.3383 74.5569L42.5434 74.2214L42.1891 73.774H41.9282L42.1146 73.2334L41.8909 72.9537L41.4994 73.3639L41.7045 72.8045H40.9961L40.7724 71.9097L40.9961 71.7233C39.2867 69.8775 38.1247 67.5924 37.6403 65.1237L37.4726 65.2729V65.6271L37.2302 65.9626L36.7641 66.0745L36.1117 66.8389V67.454L35.776 67.9015L35.0117 68.1998L34.4151 67.9761L33.8745 68.6659L34.005 68.9641L33.1847 69.9149L32.9424 69.4862L33.2966 69.1319V68.554L32.961 68.2371L32.6627 67.6592L33.0356 67.2677V66.9693L31.9729 65.9253L32.0661 65.5526L31.6374 65.1797L31.7865 64.0238L31.5255 63.5204L30.7798 62.7002L30.9476 62.4578L31.6 62.2341L32.1408 61.7121L31.9543 61.2833L32.3271 61.1342L32.7 61.3579L33.1288 61.0223L33.9304 61.2833L35.3659 60.5748L35.8507 60.9291H36.5218V59.8851L36.8573 59.7919V60.8732H37.2862C37.4227 59.7558 37.6981 58.6598 38.1064 57.6107H37.8081L37.6963 57.8157L36.9133 57.6479L37.5099 57.387V56.6972L37.0252 56.5107V55.6346L36.8201 55.243V54.4973L36.3354 53.994V54.4601H35.8693V53.7516L35.6456 53.4719V52.4279L35.888 52.5771L36.2049 51.9247V51.2908L36.9133 50.3213L37.137 48.5503L36.7455 48.1401V47.4317L36.1489 46.7046L37.0624 45.903L37.2862 44.9708L38.2369 44.2065L38.5724 42.9202L39.0385 43.032L39.5419 41.3355L39.2063 40.3101L39.3742 39.8068L38.7589 39.0984L38.3302 39.378L38.4792 39.9746L37.4539 39.5645L38.0132 39.2103L37.5284 37.495L37.0624 37.9426L36.876 37.495L36.1302 37.0663V38.5764L35.3473 38.073L35.2354 36.7866L34.5456 36.1901L33.6135 36.4138L33.1101 37.1223L32.9237 36.5816L32.2339 36.1901V36.9358L31.8424 36.6189L31.6187 37.4392L31.0221 36.9358V34.8291L30.5747 34.7173L30.6866 35.463L29.9781 36.1715V37.8121L30.4442 38.0358V39.434L31.0221 39.2848L31.8797 40.3661V41.0186L30.9289 39.8441L30.7798 41.2236L31.3391 41.7643L30.7798 42.4168L30.0713 42.9202L30.2205 43.5167L29.7917 43.9082L30.0528 44.5794H28.8596L28.4681 45.2692L28.8969 45.5301L28.5427 46.164L26.6784 47.264L26.9021 47.4504L25.6344 47.9537L25.1497 47.6367L24.0497 48.7367L23.2108 48.8486L22.4651 50.8247L21.1974 51.7755L20.5635 51.5331L21.3465 51.1603L21.0109 50.6942L19.6687 50.8434L18.7552 51.2721L17.8044 50.6569H16.7977L16.1079 50.3586L15.5859 50.6569L15.0825 50.4891L14.2064 51.4213L14.486 51.7382L13.647 52.7076V53.155L12.864 53.3229L11.5964 54.9261L11.8574 56.3616L11.3913 56.7904H10.9811L9.86259 57.7784L9.69475 58.1886L8.6321 58.4869L8.42705 59.8105H7.97964V59.1208H7.53223L7.34574 60.4443L6.86112 61.3393L6.05949 61.8425L6.18989 62.3459L5.44425 63.4459L5.85434 63.7255L6.60009 62.9612L6.4136 62.6256L7.64409 62.2714L8.0915 61.7307L7.71862 61.3206L8.22201 60.724L8.78127 60.8172L9.21002 59.9969L10.7387 58.4123L11.4845 57.9463V58.5987L10.7574 59.6614L10.2727 59.7919L8.96777 62.2154L8.33386 62.4205V63.1104L7.64409 63.7255L7.17802 66L6.26454 66.6338V67.2863L5.68662 67.7337L5.12735 67.5287L4.3816 68.7404L4.54932 69.5235L4.23242 70.1946C5.28435 72.6219 6.53129 74.9599 7.96098 77.1856L8.52024 76.7009ZM29.9968 74.1095L29.3257 74.2587L28.6918 74.0163L28.3376 73.4384L28.7291 73.2147L29.1578 73.4757L30.1273 73.7553L29.9968 74.1095ZM32.4763 75.0044H31.7306L31.0781 74.3519L30.612 74.2401V73.8858H31.3205L32.4763 75.0044ZM27.1072 69.9896L27.8156 70.1386L27.9461 69.6725H28.7478L29.5121 70.5115L29.6612 69.8031L28.6172 68.8336L28.785 68.4235L27.7038 67.9574L28.058 67.5287L27.5173 67.0626H28.1325L28.9528 67.9388H29.6052L30.4629 68.6659L30.6492 69.7472L30.2205 70.1386V70.7912L31.1713 71.425L31.3763 72.0589L31.134 72.7673H30.5374V72.3571H30.1273L29.6799 72.8792L28.9528 72.6368V71.947L29.4002 71.8538L29.251 71.1639L28.4867 70.6233L27.4054 70.8097L27.2004 71.3878H25.8022L27.1072 69.9896Z" stroke="white" stroke-linejoin="round" mask="url(#path-8-inside-1_706_1868)"/>
<path d="M38.1238 60.9479L38.534 60.575L38.7578 61.1344H39.1865L39.8949 61.3395L40.5847 60.575V59.9226L40.3797 59.7362L40.2118 59.326L39.6154 59.5497L39.2238 59.8481L38.3662 59.6616L39.0001 59.4005L39.5034 58.8599V58.543L39.0373 58.6549V58.1515H39.4848L39.578 57.7227L40.0441 57.5549L40.9576 56.8651L41.8524 57.0702L42.1321 56.8465L41.4237 55.9517L40.6594 56.4177H39.7458L38.6646 57.4431H38.5527C38.1445 58.4922 37.8689 59.5881 37.7324 60.7056H37.9001L38.1238 60.9479Z" fill="white"/>
<path d="M41.4242 70.2142L41.275 69.9532V68.7973L40.8276 69.1142L40.4921 68.9279L39.9142 69.2634L39.5786 68.4618L39.6718 67.5855H40.2311V67.1381L39.8582 66.5975L39.6345 65.9823L38.777 65.0315V64.6027L38.5346 64.3604L37.8262 64.9756C38.3106 67.4443 39.4725 69.7293 41.1819 71.5751L41.4615 71.3141L41.4242 70.2142Z" fill="white"/>
<path d="M25.0377 92.473V91.9136L24.5156 91.5594L23.9004 90.8696L23.3224 91.112L22.409 90.2358L22.0921 90.8138L21.0107 90.3477V90.7019L21.6633 91.2612C22.7632 92.0255 23.9004 92.7153 25.0377 93.3678L25.4104 93.1441L25.0377 92.473Z" fill="white"/>
<path d="M20.4325 87.4392V86.9918L17.7107 83.0022L16.8158 83.0768L15.4922 82.3311L15.9396 83.4496L16.5362 83.5056L17.3565 84.2885L17.2633 84.8478L18.2886 85.8173L18.6801 85.78L18.6428 86.5816L19.5563 87.3646L19.2021 87.8866L20.5071 88.9865L21.663 89.695V89.1357L20.7681 87.4578L20.4325 87.4392Z" fill="white"/>
<path d="M20.8987 84.0469L20.4326 84.5875L20.8987 84.6994V84.0469Z" fill="white"/>
<path d="M22.7066 48.7368L22.2592 48.9232L21.5508 50.0791V50.7316L22.7066 48.7368Z" fill="white"/>
<path d="M26.64 46.8168L26.4163 46.5371L25.3164 47.0778L25.335 47.376L26.64 46.8168Z" fill="white"/>
<path d="M24.7019 46.3691L24.1426 46.7234L24.59 46.742L24.7019 46.3691Z" fill="white"/>
<path d="M38.7402 76.8688L39.1504 77.5958L39.4859 77.5213L39.1317 76.7383L38.7402 76.8688Z" fill="white"/>
<path d="M39.6902 75.1919L39.5225 75.4156L40.1004 75.8071L40.2309 75.5461L39.6902 75.1919Z" fill="white"/>
<path d="M40.2307 78.7148L40.5477 78.7707L40.6595 78.4165L40.1748 78.4538L40.2307 78.7148Z" fill="white"/>
<path d="M31.5996 78.5084L32.0097 78.583L31.9911 78.2847L31.5996 78.5084Z" fill="white"/>
<path d="M44.481 77.4096L44.22 77.1672H43.6607L43.4743 76.0859L42.0574 76.4588L41.2744 77.2604L42.3557 78.2858L43.0455 78.0248L43.2506 78.3044L42.8777 78.64L43.3997 78.901L43.698 78.7705L44.0149 78.9383L44.6301 77.9875L44.2013 77.6333L44.481 77.4096Z" fill="white"/>
<path d="M35.7939 62.4397L36.4278 62.8871L36.7447 62.5143L36.0177 62.1787L35.7939 62.4397Z" fill="white"/>
<path d="M36.9875 64.751L37.4163 64.4713L36.9502 64.3408L36.9875 64.751Z" fill="white"/>
<path d="M36.6143 61.5448V62.0669H37.2482V62.5329L37.621 62.7007C37.621 62.2346 37.621 61.7872 37.621 61.3398V61.2466L36.6143 61.5448Z" fill="white"/>
<path d="M37.5656 62.6067H37.6588L37.7893 62.9982L38.1062 63.166L38.3301 62.7931L38.1062 62.5135V61.8609L37.5098 61.2085C37.5657 61.6932 37.5656 62.1406 37.5656 62.6067Z" fill="white"/>
<path d="M37.8447 56.8648L37.882 57.3681L38.4227 56.7156L38.1244 56.5479L37.8447 56.8648Z" fill="white"/>
<path d="M37.8638 52.2602L37.4909 51.9433V53.2296L37.0062 52.2788L36.5588 52.167L36.3164 53.6398L36.6706 53.6584L37.4536 54.6837L37.5468 55.6905L37.957 55.7464L38.2366 56.287L38.5349 55.504L37.9756 55.3922L37.9383 55.0007L38.8891 53.7703L38.423 53.6584L38.2925 53.2669L38.7773 53.0245L38.3485 52.6703L39.0755 52.3534L37.901 51.5518L37.8638 52.2602Z" fill="white"/>
<path d="M39.3561 55.1875L39.0205 56.1196C39.1697 55.8214 39.356 55.5043 39.5424 55.206L39.3561 55.1875Z" fill="white"/>
<path d="M40.1007 55.1875H39.5601C39.3737 55.4858 39.1872 55.8027 39.0381 56.101L40.3991 55.8586L40.1007 55.1875Z" fill="white"/>
<path d="M38.554 50.3413L37.9761 50.043L37.4541 50.3413L37.9202 51.1988L38.5167 51.0497L39.5607 52.3174L40.0454 52.075L39.7099 51.609L39.7658 51.1056L39.2065 50.3413H38.554Z" fill="white"/>
<path d="M40.9962 52.0551L40.381 51.1416L40.1387 52.6144L40.903 53.3601L40.9962 52.0551Z" fill="white"/>
<path d="M40.4176 53.6027L39.9701 53.0435H39.4668V53.9383L39.8397 54.0501L39.9887 54.479C40.1214 54.2742 40.2711 54.0809 40.4361 53.9011L40.4176 53.6027Z" fill="white"/>
<path d="M40.5472 54.6464L40.7336 55.0753L41.3489 54.5719L40.9387 53.9566L40.6404 54.4414L40.5099 53.938C40.3449 54.1178 40.1952 54.3111 40.0625 54.5159V54.6278L40.5472 54.6464Z" fill="white"/>
<path d="M43.4195 61.3204L43.4568 60.612L43.7364 60.3883L43.4941 59.8103L43.0094 59.9408L42.767 59.568L43.3449 59.3256L42.9721 58.4494L41.8535 57.48L40.8654 57.7596L40.1757 58.3748L40.2129 58.9714L40.8468 59.4188L40.9959 60.0154L41.3874 59.773L42.3009 60.4628L41.8721 60.8357L41.8162 61.4509L41.4061 61.8238L41.8162 61.8983L41.7976 62.439H41.2569L41.5925 62.9237L40.9959 63.6135L40.4926 63.5575L39.6909 62.8678L39.2994 62.9983L39.1689 63.9117L39.6537 64.3219L40.2689 65.6828L40.1011 66.093L40.9773 67.5657L41.4807 66.9878L41.1824 65.9065L41.4807 65.776L41.9094 66.8014L42.4501 66.1489L42.1891 65.3659L42.6551 64.732L43.1026 65.4032L43.6246 65.0117L43.6619 64.3032L43.1212 63.949L43.3076 63.0728L43.7551 63.0915L43.6805 62.644L43.9415 62.3271L43.4195 61.3204Z" fill="white"/>
<path d="M43.3454 56.8098L43.3827 56.5674L42.8607 56.3064L43.2522 55.7285L42.9352 55.5421L43.0098 54.5913L42.6742 54.6659L42.4319 55.4862L41.7607 55.7472L41.9472 56.1759L42.3387 56.1387L42.2827 56.6607L43.1962 57.425L43.5132 58.1521L44.0911 58.0029L43.9979 57.4623L43.3454 56.8098Z" fill="white"/>
<path d="M46.7932 55.4855L47.6694 55.2991L47.8372 54.889L48.9931 54.8517L48.4711 54.0314H47.9304L47.1474 53.1925L46.2526 53.1738L46.2339 53.528L47.2406 54.2924L45.8424 54.1992L45.7492 55.0568L45.3577 54.5348L44.6493 54.9449L45.0967 55.616L44.1086 55.8025L43.4934 55.5415L43.4375 56.0635L43.8476 56.3245L44.1086 56.9024L44.5934 56.7532L44.7239 57.2566L44.9849 57.2752L45.0781 56.6227L45.4323 56.5482L46.4203 55.1686L46.7932 55.4855Z" fill="white"/>
<path d="M45.7682 53.5093L45.4699 52.8755L45.0225 53.5093L44.3141 53.4721L43.7734 54.1246L44.5378 54.311L45.7682 53.5093Z" fill="white"/>
<path d="M53.1314 64.0989L53.1687 63.5209L52.945 63.3345L53.2805 62.943L53.8957 63.3159L54.194 63.0176L53.6534 62.4583L53.6347 61.9363L53.2246 61.9549L53.2992 61.377L54.0635 60.7618L53.5975 60.2212L53.8398 59.8297L53.5602 59.0094L53.2619 59.084L53.467 58.4128L52.9263 57.9095L53.2805 57.1451L52.7585 56.8468L53.15 56.0079L52.5721 55.5232L52.2179 55.952L51.7332 55.5977L52.1806 54.8707L51.3976 54.908L50.857 54.4419L50.596 54.591L50.1113 54.5538L49.1791 55.5605L48.8622 55.374L48.0233 56.0638L47.8928 55.7655L47.4826 55.9147L47.203 56.5672L46.7555 56.5112L45.9912 57.1265L46.159 57.4807L45.5811 57.4993V58.2077L45.9912 58.5433L46.2522 58.1332L47.1098 58.767L47.203 59.1585L46.9233 59.4754L47.3335 59.7365L47.3708 60.1466L47.0725 60.3889L47.3148 60.6872L46.6251 62.2346L47.0911 61.7872L47.3335 63.3532L46.6996 62.943L47.408 64.248L46.9047 64.4531L46.4759 65.6276L46.2895 65.5157L45.5811 66.8394L46.0658 66.7089L46.3454 67.7901L45.8234 68.1816L46.3081 69.2443L46.886 69.4493L46.7183 69.7476L47.3335 70.5493L47.725 70.4188L47.7623 71.0153L48.3775 71.1645L48.9181 69.8222L50.018 68.9087L49.6452 68.3681L50.3723 67.3614L51.0807 67.5478L52.2179 65.814L52.0687 65.3666L52.6094 65.5344L54.455 64.0057L53.5788 63.7819L53.1314 64.0989Z" fill="#F2CC73"/>
<path d="M57.2902 53.9194L56.8614 54.1991L56.7309 54.6651L56.4699 54.3296L56.4326 55.2431L57.2529 55.3736L57.3275 55.0566L57.8495 55.3176L57.8868 54.6092L57.5325 54.4974L57.2902 53.9194Z" fill="white"/>
<path d="M57.2706 53.2661L57.0469 53.5271H57.6062L57.2706 53.2661Z" fill="white"/>
<path d="M58.1282 54.4413L58.4451 54.0684L58.0723 53.7515L58.1282 54.4413Z" fill="white"/>
<path d="M56.8602 65.8706L56.2263 66.6163L56.0026 66.3367L55.5179 66.579L55.4993 66.2807L55.0332 66.2621L54.8281 66.84L55.3501 67.101L55.0891 67.5112L55.8535 67.6976L55.723 67.9586H57.028L57.8296 66.6909L57.4195 65.9638L56.8602 65.8706Z" fill="white"/>
<path d="M51.0072 38.5959L50.5597 37.9434L49.9259 38.1484L49.9072 38.5959L50.3919 38.4467L51.0072 38.5959Z" fill="white"/>
<path d="M52.5349 39.4333L53.0941 39.5265L53.3179 39.2655L52.3484 38.3521L51.5654 38.5012L52.5349 39.4333Z" fill="white"/>
<path d="M51.6972 37.7002L51.3057 37.8307L51.7158 38.0917L51.6972 37.7002Z" fill="white"/>
<path d="M57.0097 43.312L56.6182 43.4425L56.7859 43.6849L57.0097 43.312Z" fill="white"/>
<path d="M57.8293 43.6469L57.2514 43.3486L57.1582 43.9079L57.7734 44.1503L57.8293 43.6469Z" fill="white"/>
<path d="M57.7932 45.4567L58.4271 45.2517L58.0729 44.6924L57.5322 44.7856L57.7932 45.4567Z" fill="white"/>
<path d="M58.7631 44.5229L58.4648 44.5416L58.5953 44.9144L58.7631 44.5229Z" fill="white"/>
<path d="M60.0663 48.3279L60.4205 48.2533L61.6696 49.5024L61.7628 50.043L62.3034 49.8379L62.3967 50.2854L62.7136 50.0057L63.9627 50.5091L64.1118 49.8939L64.5406 49.7074L64.3728 48.8312L64.0932 49.5956L63.7203 49.4837L63.4593 49.8939L62.9559 49.2973L62.7136 49.4651L61.6696 48.8499L60.3459 47.2466L59.6748 47.6008L60.2341 47.8059L60.0663 48.3279Z" fill="white"/>
<mask id="path-51-inside-2_706_1868" fill="white">
<path d="M88.1247 82.3498C92.599 77.0542 95.9311 70.8914 97.9122 64.2477L96.8869 64.8443L96.253 64.5833L95.8429 64.8815L93.6617 65.1612L92.9159 64.7138L92.1143 65.329H91.2195L91.4245 64.863L92.3753 64.7325V64.2291L91.8533 63.8748L91.5177 63.502L92.2262 63.6325L92.7668 64.0985L93.3261 63.6511H94.2768L95.1904 63.0359L95.6565 63.4461L96.4021 62.5885L97.4648 62.1969L98.3224 62.5885C99.8203 56.8181 100.269 50.8255 99.646 44.8965L99.0867 45.9963L98.5274 46.5557L98.7138 47.5437L98.0987 47.3946L97.6698 47.7674L97.3156 47.5437L97.5021 48.6437L97.9868 48.9419L97.8563 49.408L98.1546 49.8368V50.4893L97.7258 50.7689L97.4089 50.508L96.5886 51.0113L96.9055 51.6452L97.2784 51.5147L97.4648 51.8502L97.0919 52.1858L96.1971 52.3536V52.801H95.731L95.3395 53.4908L94.7989 53.584L94.3887 54.1619L93.9786 53.9942L93.5684 54.4789L93.6989 53.584L93.3261 53.4535V52.6518L93.6617 52.3909L93.7549 51.813L94.2955 52.1858L94.6497 51.6452L95.209 51.1978L94.9853 50.8249L95.6378 50.3588V49.5572L96.1598 49.0725L95.8242 47.4879L96.0852 46.9658L96.9429 46.4997L96.4021 44.7473L96.5886 44.5236L96.3648 43.1441L96.7005 42.417L95.675 40.1426L96.4021 39.285V38.5952L96.7377 38.4088L96.6258 37.7563L97.1106 37.5326L97.297 36.6564L96.7937 36.153L97.7258 36.3767V37.0106L97.9682 36.8428V36.358C97.7818 35.6496 97.558 34.9598 97.3343 34.2701H96.9614V33.8413H97.2598C95.8975 29.8178 94.0175 25.9888 91.6669 22.4506L91.5177 22.5438L90.9398 21.6862L91.0517 21.5184L90.772 21.1082L90.3246 20.8845L89.8958 20.5303L89.2619 20.7354L88.8891 19.766L89.3738 19.2066C87.2985 16.5675 84.9626 14.1441 82.4014 11.9732C81.3015 11.0411 80.1457 10.109 78.9898 9.34464H78.7101V9.25145L76.529 7.79726L76.1747 8.09561L74.8884 7.76005L74.441 8.1888L73.9935 7.72273L71.9988 7.238L71.253 7.48036L70.6751 7.18213L70.1717 7.7786L68.3074 8.63621L68.0465 8.4125L67.0397 8.93456L67.2262 9.47516L66.3126 9.90391L66.7602 10.4632H66.1636L66.6483 10.9852L66.4431 11.6563L66.872 11.9174L66.4618 12.9427L67.0397 13.8003L66.6296 14.285L66.0889 14.024L65.3619 14.1359L64.8399 13.8935L64.5975 14.6019H65.3433L65.7907 15.2544L66.5363 15.1425L66.7787 15.5341L66.6483 15.8883L67.1889 16.3357L66.555 17.1L65.9025 16.5594L65.6229 16.8763H63.7586V16.3357H64.1688L64.3179 15.7205H63.4044L62.9943 16.112L62.435 15.5527V15.1425H62.7706L62.6774 14.6019L62.2113 14.3782L61.9689 13.8003L62.2485 13.4833L62.1367 12.8308L62.7146 11.8428L62.435 11.5072L61.4096 11.936H60.9622L60.3842 12.1784L60.7571 12.4953L60.291 12.9427L60.6453 14.7138H61.0368V15.2172L60.6826 15.1053L60.3842 15.329L58.7996 15.5527L57.7743 16.4475L57.5691 16.9136L57.1777 17.0441V16.5407L56.8422 16.1679L55.4066 16.9881L55.2948 17.3424L53.5424 19.2066L52.8526 19.3558L52.2373 21.0709H51.9018L52.1255 22.5624H51.7713L52.6662 24.4267L53.039 23.9979L53.4492 24.1657L53.6355 25.1537L53.9524 25.5266L53.0018 26.1045L52.0696 26.235L52.2001 26.6266L51.3239 27.6332L50.112 28.1925L48.8257 27.7451L48.5088 28.118H47.4648L47.5766 27.7637H46.831L46.1784 28.323L46.6632 28.1925V28.528L46.2344 28.7145V29.4602L45.6378 29.6094L44.948 30.3178L44.743 29.7957L44.2955 29.6839L44.1091 30.4483L43.6617 30.6347L43.5312 31.4363L42.9533 31.1381L43.3448 31.0076V30.616L43.587 30.0941L43.4566 29.5907L44.0346 29.3483L43.9413 28.9009L44.426 28.0061L45.1531 27.8011L44.9667 27.3722L45.1531 27.1485L44.9667 26.7198L44.743 24.0352L44.3701 22.4133L43.7362 23.3641L43.1024 23.4573L42.9906 24.4826L42.6549 24.8555V25.7503L42.4312 25.5826L42.2448 26.1418L42.6736 27.7078L42.394 28.0248V28.528H42.8973L42.4872 29.0128L42.2448 30.2805L41.4991 30.3923V30.9517L41.033 30.8399L40.1568 31.7533L39.8399 32.7973L38.8891 33.9158L39.9518 34.7361L40.4737 34.4379L40.6229 34.8293L40.3246 35.053V35.5564L40.8093 35.4259V35.8174L40.4179 35.9666L39.8958 35.7056L39.4484 36.2462H38.4417L37.752 37.141L38.0315 37.3834H38.4231V37.8309L39.1128 38.2223L39.6908 37.8868L40.6602 38.0546L40.5669 37.7004L41.4991 38.0359L42.2821 37.7563L42.8414 37.8681L43.3075 37.4207H44.0159L44.631 37.1225L43.7549 36.8428L44.0904 36.5631L44.3515 36.7868L44.743 36.4512L45.8055 36.6191L46.6445 35.948L47.3156 36.153L47.5394 36.5259H48.863L49.0308 36.8614H49.4223L49.5714 37.3462L50.429 37.5326L50.7086 37.2157L51.1002 37.6257L51.7341 37.4207L51.3425 37.0106L51.5289 36.6936L51.9018 37.0106L52.2747 36.6749L53.3186 37.197V36.7496H53.7661V37.2902L54.2508 37.6071L54.9032 38.241L54.7914 38.6139L55.3321 39.2663L56.0591 39.4155L56.3388 39.1731L56.5252 39.6019L56.954 39.8816L57.2336 40.1985L57.5133 39.8816L57.8302 40.0493L58.4454 39.8442L58.6131 39.9934L57.5506 40.4781L57.0099 40.5713L56.6743 40.851L56.2642 40.59L56.1151 41.1866H55.854L56.0777 42.1187L56.693 42.2678L56.8422 42.7525L56.6185 43.0322L57.0659 43.1441L57.681 42.5475L58.6505 42.9017V43.461L59.2284 43.6474L59.4149 43.4423L59.9368 43.8898L60.3842 43.7033L60.9063 44.0762L61.1859 43.8525L60.9995 43.1999H61.2418L61.4096 43.5356H61.8011V44.2067H62.379V43.8525L62.7892 43.4051V42.883L63.3298 42.2864H63.5909L63.0688 42.9577L63.1807 43.3678L62.4909 44.188L62.9756 44.5981V43.983L63.5349 44.0949L63.9637 43.3491L64.2993 43.722L63.9264 44.0575V44.5609L63.218 44.4118L62.379 45.288L63.218 45.0642L63.4603 45.5489L64.5975 44.6541L64.9144 44.9151H65.2501L65.0449 44.2812V43.5356L65.6788 43.983L66.0703 43.8525L66.2008 44.2254L65.3619 44.3559L65.6602 44.8778H66.2941L66.7042 45.4931L66.4991 46.0523L66.4059 45.5117L65.6229 45.1202L64.9517 45.3812L64.6348 45.8659L63.8519 46.1269L63.3298 45.7726L62.3417 46.5929H63.1993L63.5349 47.1523L63.8704 46.8726L64.3365 47.0963L64.5602 46.7234L65.0636 46.1269L65.5297 46.4439L64.9704 46.7981L65.1941 47.1709L64.6348 47.6184L65.1381 48.2335L65.3433 47.7674L65.7534 48.3827L65.6602 48.4945L66.2568 49.5385L65.772 49.3335V49.9859L66.0703 50.1538L66.3126 51.0859L66.872 51.291L66.555 51.7757L65.7907 51.5892V52.4468L66.3126 52.1486L66.6483 52.5213L67.0397 52.3909L66.7228 52.7637L67.0584 53.7891H67.5245L67.2634 54.3111L66.9092 54.1806L66.555 54.7213L66.816 54.8517L67.0397 54.5721L67.3008 54.7958L66.7415 55.3551H65.8093L66.7415 54.0314L66.0331 53.3416L65.2128 53.6586L64.7094 54.3484L64.2993 55.3737L63.8146 55.5229L63.479 55.2432L62.9569 55.7279C64.6087 58.6534 65.12 62.0864 64.3925 65.3662L65.1754 66.0374H65.5856L65.4738 66.5034L66.1449 66.895V66.3916L66.7602 66.0933V65.59L66.3873 65.2544L66.6668 64.9375V64.4341L67.1702 65.2544L67.3939 64.8815L67.7855 65.2917H68.2888L68.9413 65.8323L69.3701 65.0867L68.9972 64.2291V63.1664L68.3821 63.0172V61.8801L67.5804 62.4953L67.4685 62.3088L67.8414 61.9732L67.5058 61.6005L66.2008 61.5072L66.4245 61.1344L65.9399 59.531L65.4178 59.2701L65.1568 58.5802H65.4923L65.6602 57.8159L66.555 58.487L66.7974 59.6242L67.4126 60.2208V60.8174L68.1584 61.2463L68.4379 61.0224L68.904 61.2463V60.7987L69.2955 60.6683L69.3887 59.6802L69.9293 59.587L69.7803 59.1023L70.3022 58.7108L70.4701 59.4938L70.1345 59.7734V60.37L69.743 61.0598L70.2277 61.47V60.9292L71.0852 61.6563L70.8615 61.9174H70.4141L70.1345 62.3461L70.6006 62.5698L70.8615 63.2409H71.4767L71.6072 63.6325L71.3275 63.8562L71.7191 64.3596L71.3835 64.546L71.1038 64.3223L70.731 64.6578L70.8615 65.4968L70.6006 66.0188L70.9175 66.1865L70.7869 66.5408L70.3209 66.3357L70.0598 66.7645H69.7056L69.2955 67.7898L68.7548 67.4356V66.9882L68.2702 66.6713L68.0465 66.2797L67.3753 66.0002V67.1933L67.599 67.361V68.0135L68.2329 67.9203L68.8853 68.5729L68.2329 69.6727L68.5311 70.3066H68.8853L68.6058 70.7354L68.699 71.1828L68.2142 71.9659H67.916L68.0092 73.6996L67.3939 74.1097L67.5618 74.3334L67.3008 74.8555H66.9465L66.6483 75.4334L67.3194 75.7316L67.5431 75.4706L68.7922 75.9553L69.4633 77.3536L69.2024 77.8756H68.6058L68.1769 78.7146H67.5618V79.0688L66.6483 79.5907L66.2941 79.4789L66.0144 79.7958L66.35 80.7279L66.872 80.9703L67.6363 82.4617L67.5058 83.282L68.3261 83.4125L69.0159 83.9159L69.4819 83.4685L70.5073 83.6922L71.7751 82.1821L72.558 81.9211V81.2126L72.7258 80.8957L72.5952 80.411L72.8004 79.9263L72.5021 79.2178L72.0546 78.8451L72.3343 78.5281V77.3349L72.8376 76.7384L72.353 76.3282L72.6699 75.8435L72.4834 75.4147H73.1733L73.3037 75.1537L73.8444 75.0605L74.1426 74.4826L74.0494 73.942L74.4968 73.3081V72.7488L75.5782 73.0099H76.3798L78.2441 72.3573L78.6728 72.6183L79.5677 72.4505L80.4252 73.2708L80.5558 72.4691L80.4066 71.6862H79.9033L79.5677 71.3133H79.9778V70.9964L79.5863 70.6795H79.1017L78.6356 71.2015H77.6848V71.4998H76.9018L76.3238 71.2015L75.634 71.4438V71.1083L75.1121 70.9404L75.2798 70.4371L75.7459 70.6422L75.8577 70.0829L76.2866 70.4558H77.1255L78.9898 69.7474L80.8541 69.8406L81.8981 70.3625L82.0845 70.1388L82.3082 70.4185L83.1285 70.2134L82.9608 69.9711L83.2403 69.6541L82.7929 69.188H82.4387L82.6065 68.6661L82.1777 68.3118L81.9353 68.4796L81.376 68.2745V67.6779L81.9353 67.7898L82.1031 67.361L81.5625 67.0068L82.1031 66.8204V66.2052H82.4387L82.5692 65.4968L82.4387 65.2731L82.6065 64.863L82.1218 64.546L81.1523 65.0307L80.3321 64.2477L79.7915 64.1359L79.8846 63.5766L79.3813 63.4274L79.5491 63.1105L79.1202 62.8495L79.6236 62.1597V62.6071L80.2202 61.8987V62.3461L80.6489 61.9546L81.0592 62.1224L81.7303 61.675V60.8734L82.1031 59.8853L81.6744 58.8786L80.6676 59.5124L81.115 58.1328L80.8168 57.0516L81.1897 56.6228L81.5252 56.9956L81.3574 57.499L81.7676 57.6668L81.6184 58.282L81.7862 58.5244L82.4387 57.8719H82.998L83.5572 57.4244L84.4708 57.5549L84.9741 57.0516L85.4402 57.2753L85.6639 58.0023L85.4961 58.5057L84.2843 60.1649L84.4148 60.5564L84.042 60.7802V61.2276H83.7064L83.3149 62.0106L83.0912 62.9427L82.8116 63.2596L83.0912 63.5952L82.6065 64.3782L82.8861 64.7138L82.6624 65.068L82.9793 65.3476V66.3544L83.4082 66.1679L83.9488 66.6153L85.0673 66.8391L85.9249 66.4662L85.8317 65.9255L86.2604 65.5341L86.0367 65.2544L86.4655 64.3036H86.857L87.0434 63.5393L87.3791 62.7003L87.2113 62.4766L87.5468 62.2903L87.3044 61.9174L87.5281 61.4326L87.957 61.8987H88.3112L88.7586 62.458H89.3552L90.1382 63.5952L90.6229 63.8935L90.0637 65.5527L89.6348 65.3849L89.5416 66.5034L89.8585 66.7645L89.5416 67.1373L89.728 67.5847L88.0315 69.5609L87.5655 70.4558H87.0621L86.8384 70.8286H86.3536L85.552 72.0963L85.9436 72.7302V73.1776H86.3723L86.6147 74.1097L84.9369 75.0045L84.6012 75.9367L84.0233 75.6198L82.159 76.5892L81.5625 77.1858H81.3015V77.4841H80.7049L80.5371 76.6824L80.1643 76.2724L79.5677 76.4214V76.0113L79.0457 75.7503L78.7847 76.2724L78.3186 76.0672L78.0017 77.0926L77.5916 77.5773L77.1628 77.4095L77.0509 78.323L76.3611 78.584L76.1934 79.4415L75.1308 80.0381L74.7019 80.9703L74.2731 81.1568L73.4902 82.5176L72.5767 83.1516L71.8123 84.1582L71.3275 83.748L70.7124 84.6988L70.8243 85.5378L70.6751 86.153L70.0785 86.6563L69.8921 87.6258L70.3582 87.7376V88.241L70.7869 88.502V89.1545L69.2209 90.8882L69.4074 91.317L68.4939 93.0509L68.7735 93.2746L68.0651 94.5423L68.2142 95.1202L68.0651 96.6489C75.8418 93.6344 82.7386 88.7181 88.1247 82.3498ZM81.8235 45.5303L82.5506 45.8845L83.1471 45.3252L84.359 46.1642L83.9861 46.6862L84.3775 47.0031L84.0606 47.5811H83.3895L82.6997 47.8421V47.2827L82.1963 47.4132V46.9285L81.3387 46.4252L81.8235 45.5303ZM89.4857 52.54L88.8145 52.857V53.5281H88.0129L87.5655 53.7891L86.6707 53.584L86.7825 52.8942L85.9809 53.1366L86.0927 53.3789L85.0487 54.1992L83.9488 54.3297L83.3895 53.8077L82.2709 54.2552L81.171 52.54L81.3947 50.6757L81.6744 50.3588H82.8302L82.9793 50.6198L82.6997 51.1231H83.0726V51.757L83.4082 51.9994L84.359 51.2723L84.6012 51.5706H85.8876L86.1673 51.0113L85.5707 50.6385L86.652 50.3588L87.0807 50.713L86.6707 51.1978L86.8012 51.5333L87.6215 51.2723L87.901 50.7689L88.3671 50.9927L88.5721 50.6385H89.5976L89.7653 50.8622L89.3924 51.3283L89.4857 52.54Z"/>
</mask>
<path d="M88.1247 82.3498C92.599 77.0542 95.9311 70.8914 97.9122 64.2477L96.8869 64.8443L96.253 64.5833L95.8429 64.8815L93.6617 65.1612L92.9159 64.7138L92.1143 65.329H91.2195L91.4245 64.863L92.3753 64.7325V64.2291L91.8533 63.8748L91.5177 63.502L92.2262 63.6325L92.7668 64.0985L93.3261 63.6511H94.2768L95.1904 63.0359L95.6565 63.4461L96.4021 62.5885L97.4648 62.1969L98.3224 62.5885C99.8203 56.8181 100.269 50.8255 99.646 44.8965L99.0867 45.9963L98.5274 46.5557L98.7138 47.5437L98.0987 47.3946L97.6698 47.7674L97.3156 47.5437L97.5021 48.6437L97.9868 48.9419L97.8563 49.408L98.1546 49.8368V50.4893L97.7258 50.7689L97.4089 50.508L96.5886 51.0113L96.9055 51.6452L97.2784 51.5147L97.4648 51.8502L97.0919 52.1858L96.1971 52.3536V52.801H95.731L95.3395 53.4908L94.7989 53.584L94.3887 54.1619L93.9786 53.9942L93.5684 54.4789L93.6989 53.584L93.3261 53.4535V52.6518L93.6617 52.3909L93.7549 51.813L94.2955 52.1858L94.6497 51.6452L95.209 51.1978L94.9853 50.8249L95.6378 50.3588V49.5572L96.1598 49.0725L95.8242 47.4879L96.0852 46.9658L96.9429 46.4997L96.4021 44.7473L96.5886 44.5236L96.3648 43.1441L96.7005 42.417L95.675 40.1426L96.4021 39.285V38.5952L96.7377 38.4088L96.6258 37.7563L97.1106 37.5326L97.297 36.6564L96.7937 36.153L97.7258 36.3767V37.0106L97.9682 36.8428V36.358C97.7818 35.6496 97.558 34.9598 97.3343 34.2701H96.9614V33.8413H97.2598C95.8975 29.8178 94.0175 25.9888 91.6669 22.4506L91.5177 22.5438L90.9398 21.6862L91.0517 21.5184L90.772 21.1082L90.3246 20.8845L89.8958 20.5303L89.2619 20.7354L88.8891 19.766L89.3738 19.2066C87.2985 16.5675 84.9626 14.1441 82.4014 11.9732C81.3015 11.0411 80.1457 10.109 78.9898 9.34464H78.7101V9.25145L76.529 7.79726L76.1747 8.09561L74.8884 7.76005L74.441 8.1888L73.9935 7.72273L71.9988 7.238L71.253 7.48036L70.6751 7.18213L70.1717 7.7786L68.3074 8.63621L68.0465 8.4125L67.0397 8.93456L67.2262 9.47516L66.3126 9.90391L66.7602 10.4632H66.1636L66.6483 10.9852L66.4431 11.6563L66.872 11.9174L66.4618 12.9427L67.0397 13.8003L66.6296 14.285L66.0889 14.024L65.3619 14.1359L64.8399 13.8935L64.5975 14.6019H65.3433L65.7907 15.2544L66.5363 15.1425L66.7787 15.5341L66.6483 15.8883L67.1889 16.3357L66.555 17.1L65.9025 16.5594L65.6229 16.8763H63.7586V16.3357H64.1688L64.3179 15.7205H63.4044L62.9943 16.112L62.435 15.5527V15.1425H62.7706L62.6774 14.6019L62.2113 14.3782L61.9689 13.8003L62.2485 13.4833L62.1367 12.8308L62.7146 11.8428L62.435 11.5072L61.4096 11.936H60.9622L60.3842 12.1784L60.7571 12.4953L60.291 12.9427L60.6453 14.7138H61.0368V15.2172L60.6826 15.1053L60.3842 15.329L58.7996 15.5527L57.7743 16.4475L57.5691 16.9136L57.1777 17.0441V16.5407L56.8422 16.1679L55.4066 16.9881L55.2948 17.3424L53.5424 19.2066L52.8526 19.3558L52.2373 21.0709H51.9018L52.1255 22.5624H51.7713L52.6662 24.4267L53.039 23.9979L53.4492 24.1657L53.6355 25.1537L53.9524 25.5266L53.0018 26.1045L52.0696 26.235L52.2001 26.6266L51.3239 27.6332L50.112 28.1925L48.8257 27.7451L48.5088 28.118H47.4648L47.5766 27.7637H46.831L46.1784 28.323L46.6632 28.1925V28.528L46.2344 28.7145V29.4602L45.6378 29.6094L44.948 30.3178L44.743 29.7957L44.2955 29.6839L44.1091 30.4483L43.6617 30.6347L43.5312 31.4363L42.9533 31.1381L43.3448 31.0076V30.616L43.587 30.0941L43.4566 29.5907L44.0346 29.3483L43.9413 28.9009L44.426 28.0061L45.1531 27.8011L44.9667 27.3722L45.1531 27.1485L44.9667 26.7198L44.743 24.0352L44.3701 22.4133L43.7362 23.3641L43.1024 23.4573L42.9906 24.4826L42.6549 24.8555V25.7503L42.4312 25.5826L42.2448 26.1418L42.6736 27.7078L42.394 28.0248V28.528H42.8973L42.4872 29.0128L42.2448 30.2805L41.4991 30.3923V30.9517L41.033 30.8399L40.1568 31.7533L39.8399 32.7973L38.8891 33.9158L39.9518 34.7361L40.4737 34.4379L40.6229 34.8293L40.3246 35.053V35.5564L40.8093 35.4259V35.8174L40.4179 35.9666L39.8958 35.7056L39.4484 36.2462H38.4417L37.752 37.141L38.0315 37.3834H38.4231V37.8309L39.1128 38.2223L39.6908 37.8868L40.6602 38.0546L40.5669 37.7004L41.4991 38.0359L42.2821 37.7563L42.8414 37.8681L43.3075 37.4207H44.0159L44.631 37.1225L43.7549 36.8428L44.0904 36.5631L44.3515 36.7868L44.743 36.4512L45.8055 36.6191L46.6445 35.948L47.3156 36.153L47.5394 36.5259H48.863L49.0308 36.8614H49.4223L49.5714 37.3462L50.429 37.5326L50.7086 37.2157L51.1002 37.6257L51.7341 37.4207L51.3425 37.0106L51.5289 36.6936L51.9018 37.0106L52.2747 36.6749L53.3186 37.197V36.7496H53.7661V37.2902L54.2508 37.6071L54.9032 38.241L54.7914 38.6139L55.3321 39.2663L56.0591 39.4155L56.3388 39.1731L56.5252 39.6019L56.954 39.8816L57.2336 40.1985L57.5133 39.8816L57.8302 40.0493L58.4454 39.8442L58.6131 39.9934L57.5506 40.4781L57.0099 40.5713L56.6743 40.851L56.2642 40.59L56.1151 41.1866H55.854L56.0777 42.1187L56.693 42.2678L56.8422 42.7525L56.6185 43.0322L57.0659 43.1441L57.681 42.5475L58.6505 42.9017V43.461L59.2284 43.6474L59.4149 43.4423L59.9368 43.8898L60.3842 43.7033L60.9063 44.0762L61.1859 43.8525L60.9995 43.1999H61.2418L61.4096 43.5356H61.8011V44.2067H62.379V43.8525L62.7892 43.4051V42.883L63.3298 42.2864H63.5909L63.0688 42.9577L63.1807 43.3678L62.4909 44.188L62.9756 44.5981V43.983L63.5349 44.0949L63.9637 43.3491L64.2993 43.722L63.9264 44.0575V44.5609L63.218 44.4118L62.379 45.288L63.218 45.0642L63.4603 45.5489L64.5975 44.6541L64.9144 44.9151H65.2501L65.0449 44.2812V43.5356L65.6788 43.983L66.0703 43.8525L66.2008 44.2254L65.3619 44.3559L65.6602 44.8778H66.2941L66.7042 45.4931L66.4991 46.0523L66.4059 45.5117L65.6229 45.1202L64.9517 45.3812L64.6348 45.8659L63.8519 46.1269L63.3298 45.7726L62.3417 46.5929H63.1993L63.5349 47.1523L63.8704 46.8726L64.3365 47.0963L64.5602 46.7234L65.0636 46.1269L65.5297 46.4439L64.9704 46.7981L65.1941 47.1709L64.6348 47.6184L65.1381 48.2335L65.3433 47.7674L65.7534 48.3827L65.6602 48.4945L66.2568 49.5385L65.772 49.3335V49.9859L66.0703 50.1538L66.3126 51.0859L66.872 51.291L66.555 51.7757L65.7907 51.5892V52.4468L66.3126 52.1486L66.6483 52.5213L67.0397 52.3909L66.7228 52.7637L67.0584 53.7891H67.5245L67.2634 54.3111L66.9092 54.1806L66.555 54.7213L66.816 54.8517L67.0397 54.5721L67.3008 54.7958L66.7415 55.3551H65.8093L66.7415 54.0314L66.0331 53.3416L65.2128 53.6586L64.7094 54.3484L64.2993 55.3737L63.8146 55.5229L63.479 55.2432L62.9569 55.7279C64.6087 58.6534 65.12 62.0864 64.3925 65.3662L65.1754 66.0374H65.5856L65.4738 66.5034L66.1449 66.895V66.3916L66.7602 66.0933V65.59L66.3873 65.2544L66.6668 64.9375V64.4341L67.1702 65.2544L67.3939 64.8815L67.7855 65.2917H68.2888L68.9413 65.8323L69.3701 65.0867L68.9972 64.2291V63.1664L68.3821 63.0172V61.8801L67.5804 62.4953L67.4685 62.3088L67.8414 61.9732L67.5058 61.6005L66.2008 61.5072L66.4245 61.1344L65.9399 59.531L65.4178 59.2701L65.1568 58.5802H65.4923L65.6602 57.8159L66.555 58.487L66.7974 59.6242L67.4126 60.2208V60.8174L68.1584 61.2463L68.4379 61.0224L68.904 61.2463V60.7987L69.2955 60.6683L69.3887 59.6802L69.9293 59.587L69.7803 59.1023L70.3022 58.7108L70.4701 59.4938L70.1345 59.7734V60.37L69.743 61.0598L70.2277 61.47V60.9292L71.0852 61.6563L70.8615 61.9174H70.4141L70.1345 62.3461L70.6006 62.5698L70.8615 63.2409H71.4767L71.6072 63.6325L71.3275 63.8562L71.7191 64.3596L71.3835 64.546L71.1038 64.3223L70.731 64.6578L70.8615 65.4968L70.6006 66.0188L70.9175 66.1865L70.7869 66.5408L70.3209 66.3357L70.0598 66.7645H69.7056L69.2955 67.7898L68.7548 67.4356V66.9882L68.2702 66.6713L68.0465 66.2797L67.3753 66.0002V67.1933L67.599 67.361V68.0135L68.2329 67.9203L68.8853 68.5729L68.2329 69.6727L68.5311 70.3066H68.8853L68.6058 70.7354L68.699 71.1828L68.2142 71.9659H67.916L68.0092 73.6996L67.3939 74.1097L67.5618 74.3334L67.3008 74.8555H66.9465L66.6483 75.4334L67.3194 75.7316L67.5431 75.4706L68.7922 75.9553L69.4633 77.3536L69.2024 77.8756H68.6058L68.1769 78.7146H67.5618V79.0688L66.6483 79.5907L66.2941 79.4789L66.0144 79.7958L66.35 80.7279L66.872 80.9703L67.6363 82.4617L67.5058 83.282L68.3261 83.4125L69.0159 83.9159L69.4819 83.4685L70.5073 83.6922L71.7751 82.1821L72.558 81.9211V81.2126L72.7258 80.8957L72.5952 80.411L72.8004 79.9263L72.5021 79.2178L72.0546 78.8451L72.3343 78.5281V77.3349L72.8376 76.7384L72.353 76.3282L72.6699 75.8435L72.4834 75.4147H73.1733L73.3037 75.1537L73.8444 75.0605L74.1426 74.4826L74.0494 73.942L74.4968 73.3081V72.7488L75.5782 73.0099H76.3798L78.2441 72.3573L78.6728 72.6183L79.5677 72.4505L80.4252 73.2708L80.5558 72.4691L80.4066 71.6862H79.9033L79.5677 71.3133H79.9778V70.9964L79.5863 70.6795H79.1017L78.6356 71.2015H77.6848V71.4998H76.9018L76.3238 71.2015L75.634 71.4438V71.1083L75.1121 70.9404L75.2798 70.4371L75.7459 70.6422L75.8577 70.0829L76.2866 70.4558H77.1255L78.9898 69.7474L80.8541 69.8406L81.8981 70.3625L82.0845 70.1388L82.3082 70.4185L83.1285 70.2134L82.9608 69.9711L83.2403 69.6541L82.7929 69.188H82.4387L82.6065 68.6661L82.1777 68.3118L81.9353 68.4796L81.376 68.2745V67.6779L81.9353 67.7898L82.1031 67.361L81.5625 67.0068L82.1031 66.8204V66.2052H82.4387L82.5692 65.4968L82.4387 65.2731L82.6065 64.863L82.1218 64.546L81.1523 65.0307L80.3321 64.2477L79.7915 64.1359L79.8846 63.5766L79.3813 63.4274L79.5491 63.1105L79.1202 62.8495L79.6236 62.1597V62.6071L80.2202 61.8987V62.3461L80.6489 61.9546L81.0592 62.1224L81.7303 61.675V60.8734L82.1031 59.8853L81.6744 58.8786L80.6676 59.5124L81.115 58.1328L80.8168 57.0516L81.1897 56.6228L81.5252 56.9956L81.3574 57.499L81.7676 57.6668L81.6184 58.282L81.7862 58.5244L82.4387 57.8719H82.998L83.5572 57.4244L84.4708 57.5549L84.9741 57.0516L85.4402 57.2753L85.6639 58.0023L85.4961 58.5057L84.2843 60.1649L84.4148 60.5564L84.042 60.7802V61.2276H83.7064L83.3149 62.0106L83.0912 62.9427L82.8116 63.2596L83.0912 63.5952L82.6065 64.3782L82.8861 64.7138L82.6624 65.068L82.9793 65.3476V66.3544L83.4082 66.1679L83.9488 66.6153L85.0673 66.8391L85.9249 66.4662L85.8317 65.9255L86.2604 65.5341L86.0367 65.2544L86.4655 64.3036H86.857L87.0434 63.5393L87.3791 62.7003L87.2113 62.4766L87.5468 62.2903L87.3044 61.9174L87.5281 61.4326L87.957 61.8987H88.3112L88.7586 62.458H89.3552L90.1382 63.5952L90.6229 63.8935L90.0637 65.5527L89.6348 65.3849L89.5416 66.5034L89.8585 66.7645L89.5416 67.1373L89.728 67.5847L88.0315 69.5609L87.5655 70.4558H87.0621L86.8384 70.8286H86.3536L85.552 72.0963L85.9436 72.7302V73.1776H86.3723L86.6147 74.1097L84.9369 75.0045L84.6012 75.9367L84.0233 75.6198L82.159 76.5892L81.5625 77.1858H81.3015V77.4841H80.7049L80.5371 76.6824L80.1643 76.2724L79.5677 76.4214V76.0113L79.0457 75.7503L78.7847 76.2724L78.3186 76.0672L78.0017 77.0926L77.5916 77.5773L77.1628 77.4095L77.0509 78.323L76.3611 78.584L76.1934 79.4415L75.1308 80.0381L74.7019 80.9703L74.2731 81.1568L73.4902 82.5176L72.5767 83.1516L71.8123 84.1582L71.3275 83.748L70.7124 84.6988L70.8243 85.5378L70.6751 86.153L70.0785 86.6563L69.8921 87.6258L70.3582 87.7376V88.241L70.7869 88.502V89.1545L69.2209 90.8882L69.4074 91.317L68.4939 93.0509L68.7735 93.2746L68.0651 94.5423L68.2142 95.1202L68.0651 96.6489C75.8418 93.6344 82.7386 88.7181 88.1247 82.3498ZM81.8235 45.5303L82.5506 45.8845L83.1471 45.3252L84.359 46.1642L83.9861 46.6862L84.3775 47.0031L84.0606 47.5811H83.3895L82.6997 47.8421V47.2827L82.1963 47.4132V46.9285L81.3387 46.4252L81.8235 45.5303ZM89.4857 52.54L88.8145 52.857V53.5281H88.0129L87.5655 53.7891L86.6707 53.584L86.7825 52.8942L85.9809 53.1366L86.0927 53.3789L85.0487 54.1992L83.9488 54.3297L83.3895 53.8077L82.2709 54.2552L81.171 52.54L81.3947 50.6757L81.6744 50.3588H82.8302L82.9793 50.6198L82.6997 51.1231H83.0726V51.757L83.4082 51.9994L84.359 51.2723L84.6012 51.5706H85.8876L86.1673 51.0113L85.5707 50.6385L86.652 50.3588L87.0807 50.713L86.6707 51.1978L86.8012 51.5333L87.6215 51.2723L87.901 50.7689L88.3671 50.9927L88.5721 50.6385H89.5976L89.7653 50.8622L89.3924 51.3283L89.4857 52.54Z" stroke="white" stroke-linejoin="round" mask="url(#path-51-inside-2_706_1868)"/>
<path d="M62.8257 56.417L62.5088 56.6034V57.4984L62.863 58.6169L62.658 59.1948L63.1054 59.9592L62.9562 60.3693L63.0867 61.4133L63.5155 61.7675L63.7765 63.203L64.112 63.6691L63.702 64.0605L63.8325 64.4521L64.2426 64.6199V65.1792L64.4291 65.3284C65.1566 62.0485 64.6453 58.6154 62.9935 55.6899L62.6393 56.0442L62.8257 56.417Z" fill="white"/>
<path d="M76.3987 75.1341L76.6597 75.5256L76.9953 75.3019L76.697 74.6867H76.4919L76.1377 74.4443L75.9326 74.9104L76.2868 75.2646L76.3987 75.1341Z" fill="white"/>
<path d="M75.6904 74.1662L75.3548 73.9238L75.2803 74.278L75.6531 74.4458L75.6904 74.1662Z" fill="white"/>
<path d="M80.1825 74.2775H80.6858L81.2078 73.942L81.1333 73.6437L80.6486 73.5505L80.5367 73.364L80.2011 73.3081L79.8283 73.7742L79.6232 73.8301L79.1758 74.5199L79.7724 74.5945L80.1825 74.2775Z" fill="white"/>
<path d="M85.8133 68.8889L86.1302 68.7957L86.4658 68.2924L86.3912 67.8263L86.1302 67.6958L85.8505 68.2364L85.6268 68.2924L85.4031 68.7771L84.8625 69.1313L84.8252 69.4109L85.5895 69.2245L85.8133 68.8889Z" fill="white"/>
<path d="M88.1803 64.0612L88.4413 63.5579L88.3108 63.3901L88.3481 63.0545L87.9939 62.8867L87.9193 63.4646L88.0312 63.707L87.8447 64.0985L88.1803 64.0612Z" fill="white"/>
<path d="M64.523 72.9722L64.2061 72.3197L64.2993 71.9841L63.7214 71.6299L62.8452 71.9095L63.1062 72.4688L62.8452 72.3383L62.5469 73.14L62.8265 73.345L62.5655 73.4382L62.8638 73.9602L63.1994 73.8297L63.479 74.1094L63.2926 74.2772L63.4417 74.5941H63.8146L63.9637 74.8551L64.4298 74.4077L64.3925 74.1094L64.9704 73.345L64.523 72.9722Z" fill="white"/>
<path d="M62.6592 70.0082L63.293 70.3997L63.1625 70.7166L63.4795 71.1081L63.6286 70.8658L63.9269 71.4437L64.0574 71.1827L64.2252 71.742L64.7099 72.1149L64.915 71.6488L65.4556 72.1521L65.0827 72.3759L65.2132 72.7673L65.4742 72.8978L65.3624 73.3639L65.6793 73.6249L66.22 73.1589L65.8471 74.3706L66.22 74.5943L66.5555 74.1283L66.6301 73.4944H66.947L67.1334 72.7301L67.4131 72.6368L67.786 72.1335L67.5809 71.6674L67.1894 71.7979L67.3945 71.5183L67.0029 70.8099L66.7792 70.9963L66.4996 70.9404L66.3318 71.2946L66.0335 71.0895L66.1827 70.6421L65.5861 70.6794L65.2319 70.3438L65.0455 70.6234L64.393 70.0269L64.5794 69.8591L64.2252 69.0201L63.8523 69.5235L63.3303 68.8896L63.0693 69.5608L62.7338 69.4116V69.4303L62.6592 70.0082Z" fill="white"/>
<path d="M68.9971 66.448L68.5497 65.8887L68.3633 66.2242L68.848 66.6344L68.9971 66.448Z" fill="white"/>
<path d="M69.8918 63.9126L69.7799 63.0364L69.4443 62.9805L69.5748 63.6516L69.8918 63.9126Z" fill="white"/>
<path d="M69.91 61.6562L69.7422 61.8613L69.9473 62.0664L69.91 61.6562Z" fill="white"/>
<path d="M73.8255 77.8384L73.751 78.2485L74.0865 77.9689L73.8255 77.8384Z" fill="white"/>
<path d="M65.2869 50.8994L65.1191 51.2163L65.4361 51.3841L65.2869 50.8994Z" fill="white"/>
<path d="M64.7096 47.9912L64.5791 48.2522L64.8028 48.4386L64.7096 47.9912Z" fill="white"/>
<path d="M70.1716 6.6225L70.7682 5.93272L70.5818 5.48529L70.6377 4.98193L69.7056 5.20565L69.631 5.61579L69.2395 5.74629L68.5684 6.56657L69.2022 7.014L70.1716 6.6225Z" fill="white"/>
<path d="M42.2819 29.2549L41.7227 29.7955L42.1701 29.721L42.2819 29.2549Z" fill="white"/>
<path d="M51.5105 18.4788L51.175 18.106L51.2495 19.5415L50.7275 19.9516L51.1004 21.3684L50.8953 23.6988L51.2682 24.1089L51.1936 23.2141L51.4733 22.9904L51.2682 22.2633L51.436 21.8345L51.3614 20.8464L51.7715 20.3617L51.5292 19.7838L51.958 18.3856L51.641 18.1246L51.5105 18.4788Z" fill="white"/>
<path d="M50.9874 17.0254L51.1925 17.5474L51.845 17.7525L51.9196 16.6898L52.2738 16.261L52.6466 16.4848L52.9822 15.7577L53.0009 14.751L52.628 14.8815V15.534L51.8823 14.9933L51.6027 15.3103L51.0807 15.0493L50.2417 15.9255L49.757 15.9628L49.7197 16.7644L50.4095 16.6153L50.9874 17.0254Z" fill="white"/>
<path d="M52.1624 13.6692L52.2183 14.359L52.5539 13.9862L53.0386 13.837L52.8894 13.2591L54.791 11.4507L55.2944 11.5999L54.9401 12.1405L55.2944 12.1592L56.0587 11.1338L56.4875 11.4135L57.8671 11.0033L58.4823 11.3389L59.3398 10.7796L59.1534 10.3322L58.7246 10.6305L58.3518 10.2017L57.3637 10.3881L56.7858 10.2763V9.62375L56.2824 9.47461L55.7231 9.92204L55.9469 10.2949L55.6113 10.3881L55.3503 9.79154L54.9588 9.73561L54.791 10.3508L54.3622 9.97797L54.1012 10.4067L53.8775 10.1271L53.2436 10.2203L52.3302 11.3016L52.7403 11.5626L51.9014 13.4455L52.1624 13.6692Z" fill="white"/>
<path d="M58.3898 9.60511L57.5882 9.47461L57.5322 10.0712L58.4271 9.90339L58.3898 9.60511Z" fill="white"/>
<path d="M59.6007 10.2577L59.9735 10.0153L60.4023 10.2763L60.7379 9.45606L60.3837 9.43742L60.9243 8.6917L60.4955 8.31885L59.9922 8.37478L59.3397 9.02727L59.3583 9.66113L58.9668 9.81027L59.6007 10.2577Z" fill="white"/>
<path d="M62.4537 10.1646L61.9131 10.4628L62.5469 10.7052L62.4537 10.1646Z" fill="white"/>
</svg>
