<svg width="530" height="372" viewBox="0 0 530 372" fill="none" xmlns="http://www.w3.org/2000/svg">
<rect width="530" height="371.791" fill="#FAFAFA"/>
<path d="M3.48 33.2205V35.3005H16.44V33.2205H3.48ZM4.46 28.8205V30.9205H15.48V28.8205H4.46ZM1.52 37.7405V39.8805H18.6V37.7405H1.52ZM8.66 29.7605V38.9405H11.2V29.7605H8.66ZM4.36 22.2005V24.4205H11.08V22.2005H4.36ZM8.64 22.2005V23.5005H9.26C11.26 26.2205 14.5 29.0605 18.02 30.7005C18.36 30.0405 19.14 29.0205 19.62 28.5205C16.22 27.2605 12.98 24.7405 11.26 22.2005H8.64ZM9.02 22.2005C7.24 24.7205 3.6 27.4805 0.42 28.7805C0.96 29.2805 1.58 30.1205 1.9 30.7205C5.08 29.1205 8.78 26.1605 10.76 23.4005L9.02 22.2005ZM27.46 24.8205V27.0005H39.32V24.8205H27.46ZM32.08 21.6005V37.6805C32.08 38.0005 31.96 38.1005 31.66 38.1005C31.36 38.1005 30.42 38.1005 29.42 38.0605C29.76 38.7005 30.16 39.7405 30.24 40.3805C31.76 40.3805 32.76 40.2805 33.46 39.8805C34.16 39.5005 34.4 38.8605 34.4 37.6805V21.6005H32.08ZM26.56 36.1205L28 38.2605C29.58 36.8205 31.54 35.0005 33.28 33.2205L32.46 31.5205C30.34 33.2605 27.94 35.1605 26.56 36.1205ZM27.58 28.7205C28.34 29.8605 29.12 31.3805 29.42 32.3405L31.38 31.4205C31.06 30.4405 30.2 28.9805 29.44 27.9005L27.58 28.7205ZM37.14 27.8205C36.4 29.1405 35.08 30.9005 34.08 31.9805L35.74 32.9205C36.8 31.9205 38.1 30.3205 39.22 28.9005L37.14 27.8205ZM35 22.9205C35.84 23.5405 36.86 24.4405 37.34 25.0805L38.74 23.7005C38.22 23.1005 37.16 22.2605 36.34 21.7005L35 22.9205ZM34.32 27.3805L32.34 27.7405C33.26 33.1605 34.72 36.2005 38.18 38.8205C38.48 38.1805 39.1 37.4205 39.66 36.9805C36.52 34.8405 35.14 32.2405 34.32 27.3805ZM20.7 22.7205V24.9605H27.08V22.7205H20.7ZM20.82 28.4805V30.7005H26.78V28.4805H20.82ZM20.42 36.2005L20.9 38.4805C22.82 37.8805 25.22 37.1405 27.46 36.4205L27.1 34.2605C24.68 35.0005 22.12 35.7605 20.42 36.2005ZM22.82 23.6405V36.2805L25.04 35.9205V23.6405H22.82ZM43.58 22.3005V24.4605H59.02V22.3005H43.58ZM43.8 37.8805V39.8605H59.06V37.8805H43.8ZM51.7 34.3605V36.2005H57.34V34.3605H51.7ZM42 22.3005V28.4805C42 31.6405 41.88 36.1405 40.38 39.2205C40.96 39.4205 41.96 39.9805 42.4 40.3205C44.02 37.0205 44.26 31.9005 44.26 28.4805V22.3005H42ZM50.44 32.7205V39.0005H52.76V32.7205H50.44ZM45.96 34.1205V39.0205H48.26V34.1205H45.96ZM44.66 27.5405V29.2005H50.88V27.5405H44.66ZM46.84 25.4805V32.8405H48.8V25.4805H46.84ZM46.6 28.2805C45.96 29.4805 44.76 30.7805 43.62 31.4205C44.04 31.7605 44.62 32.4005 44.9 32.8605C46.08 31.9605 47.26 30.3005 47.9 28.7605L46.6 28.2805ZM51.38 27.5405V29.2005H58.56V27.5405H51.38ZM53.72 25.4805V32.8405H55.72V25.4805H53.72ZM53.24 28.2605C52.66 29.4605 51.48 30.7405 50.34 31.4005C50.76 31.7405 51.34 32.4005 51.64 32.8605C52.82 31.9605 53.96 30.2805 54.56 28.7205L53.24 28.2605ZM48.72 29.0205L47.6 29.8605C48.16 30.3005 49.3 31.3405 49.76 31.8405L50.9 30.4005C50.54 30.1205 49.18 29.2605 48.72 29.0205ZM49.3 24.5805C48.22 25.0005 46.24 25.3005 44.48 25.4205C44.68 25.8005 44.9 26.4005 45 26.7805C46.92 26.6805 49.22 26.3805 50.78 25.7805L49.3 24.5805ZM56.52 24.4805C55.32 24.9405 53.06 25.2405 51.1 25.4005C51.3 25.7405 51.54 26.3805 51.6 26.7405C53.74 26.6405 56.28 26.3205 58 25.6805L56.52 24.4805ZM55.78 29.0605L54.74 30.0405C55.56 30.6405 57.38 32.1005 58.14 32.8405L59.2 31.3005C58.66 30.9005 56.46 29.4405 55.78 29.0605ZM64.96 21.5005C64.1 24.1005 62.54 26.6605 60.74 28.2205C61.32 28.5605 62.34 29.3605 62.8 29.7805C64.58 27.9805 66.34 25.1005 67.4 22.1205L64.96 21.5005ZM65.38 23.7805L64.22 26.1005H78.1V23.7805H65.38ZM63.96 28.5005V34.9405H66.38V30.7405H77.64V28.5005H63.96ZM60.8 33.7605V36.0805H79.2V33.7605H60.8ZM69.84 24.9805V40.3605H72.32V24.9805H69.84ZM81.98 22.8205V25.2005H97.96V22.8205H81.98ZM80.9 31.3005V33.7205H99.12V31.3005H80.9ZM83.18 26.4805C83.82 27.8205 84.46 29.5805 84.66 30.6605L86.98 29.9205C86.76 28.8205 86.06 27.1205 85.36 25.8405L83.18 26.4805ZM94.58 25.7805C94.2 27.1005 93.46 28.8605 92.84 30.0205L94.94 30.6405C95.6 29.6005 96.42 27.9605 97.14 26.4405L94.58 25.7805ZM88.72 23.8205V40.3405H91.22V23.8205H88.72ZM108.44 33.4605V35.6005H115.06V33.4605H108.44ZM108.9 29.0805V31.2205H114.68V29.0805H108.9ZM109.74 24.7805V27.0605H117.38V24.7805H109.74ZM116.64 24.7805V25.3005C116.4 33.6405 116.12 36.9805 115.52 37.6605C115.28 37.9405 115.06 38.0205 114.68 38.0205C114.18 38.0205 113.12 38.0205 111.94 37.9005C112.36 38.6005 112.7 39.6605 112.74 40.3405C113.88 40.3805 115.06 40.4005 115.78 40.2805C116.6 40.1605 117.14 39.9205 117.68 39.1405C118.48 38.1005 118.76 34.8605 119.02 25.9205C119.04 25.6205 119.06 24.7805 119.06 24.7805H116.64ZM110.2 21.5605C109.34 24.3005 107.84 27.0805 106.12 28.7605C106.74 29.0805 107.82 29.7405 108.34 30.1405C109.96 28.2405 111.62 25.2205 112.64 22.2005L110.2 21.5605ZM100.86 26.3605V28.6405H107.26V26.3605H100.86ZM103.04 21.9405V35.3205H105.36V21.9405H103.04ZM100.44 35.9405L101.34 38.3405C103.3 37.3605 105.74 36.1205 107.98 34.9205L107.32 32.7205C104.84 33.9605 102.16 35.2405 100.44 35.9405ZM126.84 31.6405V38.7605H129V33.6605H130.12V38.7605H131.88V33.6605H133.02V38.7605H134.8V33.6605H135.94V38.7605H138.2V31.6405H126.84ZM125.2 37.7005V39.7805H139.44V37.7005H125.2ZM121.6 23.4405C122.78 23.9805 124.3 24.8805 125 25.5605L126.4 23.5805C125.64 22.9205 124.1 22.1205 122.92 21.6605L121.6 23.4405ZM120.54 28.8605C121.74 29.3605 123.24 30.2205 123.94 30.8605L125.34 28.8805C124.56 28.2405 123.04 27.4605 121.86 27.0405L120.54 28.8605ZM120.9 38.7005L123.04 40.1405C124.06 38.1805 125.14 35.8605 126.02 33.7205L124.12 32.2805C123.12 34.6405 121.82 37.1605 120.9 38.7005ZM129.7 24.2205H135.16V28.8205H129.7V24.2205ZM127.54 22.4405V30.6005H137.44V22.4405H127.54ZM131.8 24.3605C131.6 25.6205 130.92 26.9005 129.68 27.5805C129.98 27.8205 130.44 28.3405 130.66 28.6405C132.14 27.8205 133.04 26.2005 133.36 24.5405L131.8 24.3605ZM131.6 26.3805C132.38 27.0605 133.42 28.0205 133.92 28.6205L135.02 27.6005C134.5 27.0405 133.44 26.1405 132.66 25.5005L131.6 26.3805ZM145 27.3205V29.2005H158.9V27.3205H145ZM145.16 33.1405V35.0205H156.14V33.1405H145.16ZM147.72 26.0005V32.3405H156V26.0005H153.64V30.5405H149.98V26.0005H147.72ZM155.52 33.1405V33.4405C153.86 36.5205 149.3 37.8405 144.18 38.2205C144.54 38.7405 144.96 39.6605 145.14 40.2205C150.78 39.6005 155.7 38.0205 157.9 33.8205L156.4 33.0605L155.98 33.1405H155.52ZM148.54 34.5405L146.48 35.3205C148.94 38.3005 152.9 39.8205 158.04 40.3405C158.32 39.7405 158.92 38.7605 159.42 38.2605C154.52 37.9205 150.48 36.7605 148.54 34.5405ZM143.34 23.3005V25.5205H159.1V23.3005H143.34ZM142.22 23.3005V28.6605C142.22 31.7205 142.08 36.2205 140.48 39.2805C141.1 39.4605 142.18 39.9605 142.68 40.3205C144.34 37.0405 144.6 32.0205 144.6 28.6405V23.3005H142.22ZM149.24 21.9605C149.62 22.8405 149.98 24.0405 150.08 24.7805L152.66 24.1605C152.54 23.4205 152.1 22.3005 151.68 21.4205L149.24 21.9605ZM161.9 23.9405V26.0005H178.18V23.9405H161.9ZM162.94 27.0605V29.0405H177.14V27.0605H162.94ZM165.06 37.8605V39.9405H178.62V37.8605H165.06ZM161.04 30.1005V32.2005H178.9V30.1005H161.04ZM166.98 33.2805V35.3405H177.24V33.2805H166.98ZM168.72 25.0405V31.7005H171.2V25.0405H168.72ZM170.5 34.2005V38.8005H172.96V34.2005H170.5ZM164.48 22.4205C165.02 23.1405 165.56 24.1405 165.76 24.8005L167.92 23.8805C167.68 23.2205 167.12 22.3005 166.54 21.6205L164.48 22.4205ZM173.18 21.5405C172.94 22.2805 172.44 23.2805 172.02 23.9805L174.06 24.6005C174.56 24.0005 175.18 23.1205 175.8 22.1805L173.18 21.5405ZM164.92 31.0805C164.28 34.3805 162.8 37.1205 160.44 38.6805C161.02 39.0605 162.04 39.9005 162.48 40.3605C164.9 38.4605 166.6 35.3605 167.46 31.4805L164.92 31.0805ZM191.24 37.9405C193.44 38.7005 195.76 39.7005 197.12 40.4205L199.14 38.7405C197.6 38.0605 195.04 37.0805 192.8 36.3605L191.24 37.9405ZM180.96 34.6405V36.7005H199.1V34.6405H180.96ZM182.2 31.0605V33.1205H197.92V31.0605H182.2ZM185.54 29.3005V35.5205H187.98V29.3005H185.54ZM188.74 23.2805V28.9605H191.08V23.2805H188.74ZM191.98 29.3005V35.5205H194.44V29.3005H191.98ZM185.16 26.8205H194.74V27.9605H185.16V26.8205ZM185.16 24.0605H194.74V25.1605H185.16V24.0605ZM182.84 22.2805V29.7405H197.18V22.2805H182.84ZM186.78 36.4205C185.56 37.2205 183.06 38.1605 181.02 38.6205C181.52 39.1005 182.18 39.8805 182.52 40.4005C184.66 39.8805 187.2 38.9005 188.8 37.8805L186.78 36.4205Z" fill="#404040"/>
<path opacity="0.5" d="M47.4626 314.158H530" stroke="#C7C7C7"/>
<g opacity="0.5">
<path d="M47.4626 262.176H530" stroke="#C7C7C7"/>
<path d="M47.4626 210.192H530" stroke="#C7C7C7"/>
<path d="M47.4626 158.21H530" stroke="#C7C7C7"/>
<path d="M47.4626 106.227H530" stroke="#C7C7C7"/>
</g>
<path d="M5.8045 314.937H9.6445V313.887H5.8045V314.937ZM11.6347 318.597H17.6647V317.457H15.4447V307.602H14.3947C13.8097 307.962 13.1047 308.217 12.1147 308.382V309.267H14.0797V317.457H11.6347V318.597ZM20.705 318.807C21.26 318.807 21.71 318.372 21.71 317.757C21.71 317.127 21.26 316.707 20.705 316.707C20.165 316.707 19.73 317.127 19.73 317.757C19.73 318.372 20.165 318.807 20.705 318.807ZM26.9798 318.807C29.0498 318.807 30.3848 316.902 30.3848 313.062C30.3848 309.252 29.0498 307.407 26.9798 307.407C24.8798 307.407 23.5448 309.252 23.5448 313.062C23.5448 316.902 24.8798 318.807 26.9798 318.807ZM26.9798 317.697C25.7198 317.697 24.8648 316.302 24.8648 313.062C24.8648 309.867 25.7198 308.502 26.9798 308.502C28.2248 308.502 29.0648 309.867 29.0648 313.062C29.0648 316.302 28.2248 317.697 26.9798 317.697Z" fill="#404040"/>
<path d="M5.8045 262.954H9.6445V261.904H5.8045V262.954ZM14.4847 266.824C16.5547 266.824 17.8897 264.919 17.8897 261.079C17.8897 257.269 16.5547 255.424 14.4847 255.424C12.3847 255.424 11.0497 257.269 11.0497 261.079C11.0497 264.919 12.3847 266.824 14.4847 266.824ZM14.4847 265.714C13.2247 265.714 12.3697 264.319 12.3697 261.079C12.3697 257.884 13.2247 256.519 14.4847 256.519C15.7297 256.519 16.5697 257.884 16.5697 261.079C16.5697 264.319 15.7297 265.714 14.4847 265.714ZM20.705 266.824C21.26 266.824 21.71 266.389 21.71 265.774C21.71 265.144 21.26 264.724 20.705 264.724C20.165 264.724 19.73 265.144 19.73 265.774C19.73 266.389 20.165 266.824 20.705 266.824ZM26.7248 266.824C28.5698 266.824 30.3248 265.444 30.3248 263.044C30.3248 260.614 28.8398 259.534 27.0098 259.534C26.3498 259.534 25.8548 259.699 25.3598 259.969L25.6448 256.789H29.7998V255.619H24.4448L24.0998 260.764L24.8348 261.229C25.4648 260.809 25.9298 260.569 26.6648 260.569C28.0298 260.569 28.9298 261.514 28.9298 263.089C28.9298 264.679 27.8948 265.684 26.5898 265.684C25.3298 265.684 24.5198 265.099 23.9048 264.454L23.2148 265.354C23.9648 266.104 25.0148 266.824 26.7248 266.824Z" fill="#404040"/>
<path d="M14.265 214.841C16.335 214.841 17.67 212.936 17.67 209.096C17.67 205.286 16.335 203.441 14.265 203.441C12.165 203.441 10.83 205.286 10.83 209.096C10.83 212.936 12.165 214.841 14.265 214.841ZM14.265 213.731C13.005 213.731 12.15 212.336 12.15 209.096C12.15 205.901 13.005 204.536 14.265 204.536C15.51 204.536 16.35 205.901 16.35 209.096C16.35 212.336 15.51 213.731 14.265 213.731ZM20.4853 214.841C21.0403 214.841 21.4903 214.406 21.4903 213.791C21.4903 213.161 21.0403 212.741 20.4853 212.741C19.9453 212.741 19.5103 213.161 19.5103 213.791C19.5103 214.406 19.9453 214.841 20.4853 214.841ZM26.7601 214.841C28.8301 214.841 30.1651 212.936 30.1651 209.096C30.1651 205.286 28.8301 203.441 26.7601 203.441C24.6601 203.441 23.3251 205.286 23.3251 209.096C23.3251 212.936 24.6601 214.841 26.7601 214.841ZM26.7601 213.731C25.5001 213.731 24.6451 212.336 24.6451 209.096C24.6451 205.901 25.5001 204.536 26.7601 204.536C28.0051 204.536 28.8451 205.901 28.8451 209.096C28.8451 212.336 28.0051 213.731 26.7601 213.731Z" fill="#404040"/>
<path d="M14.265 162.858C16.335 162.858 17.67 160.953 17.67 157.113C17.67 153.303 16.335 151.458 14.265 151.458C12.165 151.458 10.83 153.303 10.83 157.113C10.83 160.953 12.165 162.858 14.265 162.858ZM14.265 161.748C13.005 161.748 12.15 160.353 12.15 157.113C12.15 153.918 13.005 152.553 14.265 152.553C15.51 152.553 16.35 153.918 16.35 157.113C16.35 160.353 15.51 161.748 14.265 161.748ZM20.4853 162.858C21.0403 162.858 21.4903 162.423 21.4903 161.808C21.4903 161.178 21.0403 160.758 20.4853 160.758C19.9453 160.758 19.5103 161.178 19.5103 161.808C19.5103 162.423 19.9453 162.858 20.4853 162.858ZM26.5051 162.858C28.3501 162.858 30.1051 161.478 30.1051 159.078C30.1051 156.648 28.6201 155.568 26.7901 155.568C26.1301 155.568 25.6351 155.733 25.1401 156.003L25.4251 152.823H29.5801V151.653H24.2251L23.8801 156.798L24.6151 157.263C25.2451 156.843 25.7101 156.603 26.4451 156.603C27.8101 156.603 28.7101 157.548 28.7101 159.123C28.7101 160.713 27.6751 161.718 26.3701 161.718C25.1101 161.718 24.3001 161.133 23.6851 160.488L22.9951 161.388C23.7451 162.138 24.7951 162.858 26.5051 162.858Z" fill="#404040"/>
<path d="M11.415 110.665H17.445V109.525H15.225V99.67H14.175C13.59 100.03 12.885 100.285 11.895 100.45V101.335H13.86V109.525H11.415V110.665ZM20.4853 110.875C21.0403 110.875 21.4903 110.44 21.4903 109.825C21.4903 109.195 21.0403 108.775 20.4853 108.775C19.9453 108.775 19.5103 109.195 19.5103 109.825C19.5103 110.44 19.9453 110.875 20.4853 110.875ZM26.7601 110.875C28.8301 110.875 30.1651 108.97 30.1651 105.13C30.1651 101.32 28.8301 99.475 26.7601 99.475C24.6601 99.475 23.3251 101.32 23.3251 105.13C23.3251 108.97 24.6601 110.875 26.7601 110.875ZM26.7601 109.765C25.5001 109.765 24.6451 108.37 24.6451 105.13C24.6451 101.935 25.5001 100.57 26.7601 100.57C28.0051 100.57 28.8451 101.935 28.8451 105.13C28.8451 108.37 28.0051 109.765 26.7601 109.765Z" fill="#404040"/>
<path d="M55.5632 337.808H61.5932V336.668H59.3732V326.813H58.3232C57.7382 327.173 57.0332 327.428 56.0432 327.593V328.478H58.0082V336.668H55.5632V337.808ZM66.7485 338.018C68.8035 338.018 70.1985 336.773 70.1985 335.168C70.1985 333.668 69.2985 332.828 68.3385 332.273V332.198C68.9985 331.688 69.8085 330.713 69.8085 329.543C69.8085 327.863 68.6685 326.663 66.7935 326.663C65.0685 326.663 63.7635 327.773 63.7635 329.438C63.7635 330.593 64.4535 331.433 65.2635 331.988V332.048C64.2585 332.588 63.2385 333.608 63.2385 335.093C63.2385 336.788 64.7235 338.018 66.7485 338.018ZM67.4985 331.853C66.2085 331.343 65.0235 330.758 65.0235 329.438C65.0235 328.388 65.7585 327.668 66.7635 327.668C67.9485 327.668 68.6385 328.538 68.6385 329.618C68.6385 330.443 68.2485 331.193 67.4985 331.853ZM66.7785 336.983C65.4585 336.983 64.4685 336.128 64.4685 334.958C64.4685 333.908 65.0835 333.038 65.9835 332.468C67.5285 333.098 68.8785 333.653 68.8785 335.123C68.8785 336.218 68.0385 336.983 66.7785 336.983ZM74.7988 338.018C76.6438 338.018 78.3988 336.638 78.3988 334.238C78.3988 331.808 76.9138 330.728 75.0838 330.728C74.4238 330.728 73.9288 330.893 73.4338 331.163L73.7188 327.983H77.8738V326.813H72.5188L72.1738 331.958L72.9088 332.423C73.5388 332.003 74.0038 331.763 74.7388 331.763C76.1038 331.763 77.0038 332.708 77.0038 334.283C77.0038 335.873 75.9688 336.878 74.6638 336.878C73.4038 336.878 72.5938 336.293 71.9788 335.648L71.2888 336.548C72.0388 337.298 73.0888 338.018 74.7988 338.018ZM83.3741 338.018C85.4441 338.018 86.7791 336.113 86.7791 332.273C86.7791 328.463 85.4441 326.618 83.3741 326.618C81.2741 326.618 79.9391 328.463 79.9391 332.273C79.9391 336.113 81.2741 338.018 83.3741 338.018ZM83.3741 336.908C82.1141 336.908 81.2591 335.513 81.2591 332.273C81.2591 329.078 82.1141 327.713 83.3741 327.713C84.6191 327.713 85.4591 329.078 85.4591 332.273C85.4591 335.513 84.6191 336.908 83.3741 336.908ZM91.6794 325.163C90.9444 327.188 89.6994 329.138 88.2744 330.383C88.5594 330.533 89.0244 330.908 89.2494 331.103C90.6444 329.753 91.9794 327.668 92.8044 325.448L91.6794 325.163ZM91.4394 327.023L90.8994 328.118H101.114V327.023H91.4394ZM90.7044 330.428V335.033H91.8294V331.478H100.784V330.428H90.7044ZM88.2294 334.463V335.558H101.819V334.463H88.2294ZM95.2044 327.593V339.023H96.3594V327.593H95.2044Z" fill="#404040"/>
<path d="M191.171 337.808H197.201V336.668H194.981V326.813H193.931C193.346 327.173 192.641 327.428 191.651 327.593V328.478H193.616V336.668H191.171V337.808ZM201.681 338.018C203.751 338.018 205.671 336.308 205.671 331.838C205.671 328.343 204.096 326.618 201.981 326.618C200.271 326.618 198.831 328.058 198.831 330.188C198.831 332.468 200.016 333.638 201.861 333.638C202.806 333.638 203.781 333.068 204.471 332.198L204.396 331.103C203.676 332.198 202.821 332.633 202.086 332.633C200.781 332.633 200.121 331.658 200.121 330.188C200.121 328.673 200.931 327.683 201.981 327.683C203.526 327.683 204.381 329.138 204.381 331.838C204.381 335.603 203.106 336.878 201.636 336.878C200.931 336.878 200.256 336.563 199.791 336.023L199.026 336.893C199.641 337.538 200.481 338.018 201.681 338.018ZM210.661 338.018C212.731 338.018 214.066 336.113 214.066 332.273C214.066 328.463 212.731 326.618 210.661 326.618C208.561 326.618 207.226 328.463 207.226 332.273C207.226 336.113 208.561 338.018 210.661 338.018ZM210.661 336.908C209.401 336.908 208.546 335.513 208.546 332.273C208.546 329.078 209.401 327.713 210.661 327.713C211.906 327.713 212.746 329.078 212.746 332.273C212.746 335.513 211.906 336.908 210.661 336.908ZM218.982 338.018C221.052 338.018 222.387 336.113 222.387 332.273C222.387 328.463 221.052 326.618 218.982 326.618C216.882 326.618 215.547 328.463 215.547 332.273C215.547 336.113 216.882 338.018 218.982 338.018ZM218.982 336.908C217.722 336.908 216.867 335.513 216.867 332.273C216.867 329.078 217.722 327.713 218.982 327.713C220.227 327.713 221.067 329.078 221.067 332.273C221.067 335.513 220.227 336.908 218.982 336.908Z" fill="#404040"/>
<path d="M321.128 337.808H327.158V336.668H324.938V326.813H323.888C323.303 327.173 322.598 327.428 321.608 327.593V328.478H323.573V336.668H321.128V337.808ZM331.638 338.018C333.708 338.018 335.628 336.308 335.628 331.838C335.628 328.343 334.053 326.618 331.938 326.618C330.228 326.618 328.788 328.058 328.788 330.188C328.788 332.468 329.973 333.638 331.818 333.638C332.763 333.638 333.738 333.068 334.428 332.198L334.353 331.103C333.633 332.198 332.778 332.633 332.043 332.633C330.738 332.633 330.078 331.658 330.078 330.188C330.078 328.673 330.888 327.683 331.938 327.683C333.483 327.683 334.338 329.138 334.338 331.838C334.338 335.603 333.063 336.878 331.593 336.878C330.888 336.878 330.213 336.563 329.748 336.023L328.983 336.893C329.598 337.538 330.438 338.018 331.638 338.018ZM340.364 338.018C342.209 338.018 343.964 336.638 343.964 334.238C343.964 331.808 342.479 330.728 340.649 330.728C339.989 330.728 339.494 330.893 338.999 331.163L339.284 327.983H343.439V326.813H338.084L337.739 331.958L338.474 332.423C339.104 332.003 339.569 331.763 340.304 331.763C341.669 331.763 342.569 332.708 342.569 334.283C342.569 335.873 341.534 336.878 340.229 336.878C338.969 336.878 338.159 336.293 337.544 335.648L336.854 336.548C337.604 337.298 338.654 338.018 340.364 338.018ZM348.939 338.018C351.009 338.018 352.344 336.113 352.344 332.273C352.344 328.463 351.009 326.618 348.939 326.618C346.839 326.618 345.504 328.463 345.504 332.273C345.504 336.113 346.839 338.018 348.939 338.018ZM348.939 336.908C347.679 336.908 346.824 335.513 346.824 332.273C346.824 329.078 347.679 327.713 348.939 327.713C350.184 327.713 351.024 329.078 351.024 332.273C351.024 335.513 350.184 336.908 348.939 336.908Z" fill="#404040"/>
<path d="M445.905 337.808H452.805V336.638H449.76C449.205 336.638 448.545 336.683 447.96 336.743C450.555 334.298 452.28 332.063 452.28 329.858C452.28 327.893 451.05 326.618 449.085 326.618C447.69 326.618 446.73 327.263 445.83 328.238L446.625 329.003C447.24 328.283 448.02 327.728 448.92 327.728C450.285 327.728 450.93 328.658 450.93 329.918C450.93 331.793 449.355 333.998 445.905 337.013V337.808ZM457.736 338.018C459.806 338.018 461.141 336.113 461.141 332.273C461.141 328.463 459.806 326.618 457.736 326.618C455.636 326.618 454.301 328.463 454.301 332.273C454.301 336.113 455.636 338.018 457.736 338.018ZM457.736 336.908C456.476 336.908 455.621 335.513 455.621 332.273C455.621 329.078 456.476 327.713 457.736 327.713C458.981 327.713 459.821 329.078 459.821 332.273C459.821 335.513 458.981 336.908 457.736 336.908ZM466.056 338.018C468.126 338.018 469.461 336.113 469.461 332.273C469.461 328.463 468.126 326.618 466.056 326.618C463.956 326.618 462.621 328.463 462.621 332.273C462.621 336.113 463.956 338.018 466.056 338.018ZM466.056 336.908C464.796 336.908 463.941 335.513 463.941 332.273C463.941 329.078 464.796 327.713 466.056 327.713C467.301 327.713 468.141 329.078 468.141 332.273C468.141 335.513 467.301 336.908 466.056 336.908ZM474.376 338.018C476.446 338.018 477.781 336.113 477.781 332.273C477.781 328.463 476.446 326.618 474.376 326.618C472.276 326.618 470.941 328.463 470.941 332.273C470.941 336.113 472.276 338.018 474.376 338.018ZM474.376 336.908C473.116 336.908 472.261 335.513 472.261 332.273C472.261 329.078 473.116 327.713 474.376 327.713C475.621 327.713 476.461 329.078 476.461 332.273C476.461 335.513 475.621 336.908 474.376 336.908Z" fill="#404040"/>
<path d="M1.56 71.9639V73.0739H13.38V71.9639H1.56ZM0.78 78.3389V79.4639H14.235V78.3389H0.78ZM2.61 74.1089C3.18 75.2189 3.765 76.6739 3.975 77.5589L5.055 77.1989C4.845 76.3139 4.23 74.8889 3.615 73.7939L2.61 74.1089ZM11.31 73.7339C10.95 74.8139 10.245 76.3589 9.69 77.3039L10.65 77.6189C11.235 76.7189 11.94 75.2789 12.51 74.0639L11.31 73.7339ZM6.885 72.3989V84.7439H8.04V72.3989H6.885ZM21.435 80.0789V81.0989H26.535V80.0789H21.435ZM21.78 76.6589V77.6789H26.28V76.6589H21.78ZM22.23 73.4339V74.5139H28.41V73.4339H22.23ZM28.02 73.4339V73.7039C27.81 80.4089 27.57 82.8989 27.06 83.4389C26.895 83.6339 26.715 83.6789 26.415 83.6789C26.055 83.6789 25.14 83.6789 24.135 83.5739C24.33 83.9039 24.48 84.3989 24.495 84.7139C25.41 84.7739 26.34 84.7889 26.85 84.7439C27.405 84.6839 27.75 84.5489 28.08 84.1139C28.695 83.3789 28.905 80.9639 29.13 74.0339C29.13 73.8839 29.145 73.4339 29.145 73.4339H28.02ZM22.83 70.9589C22.17 73.1339 21.09 75.2789 19.77 76.6289C20.055 76.7939 20.565 77.0939 20.805 77.2739C22.05 75.8189 23.235 73.5689 23.97 71.2439L22.83 70.9589ZM15.75 74.7239V75.8039H20.55V74.7239H15.75ZM17.7 71.2589V81.2489H18.78V71.2589H17.7ZM15.495 81.9389L15.93 83.0639C17.34 82.3739 19.215 81.4739 20.94 80.6039L20.655 79.5689C18.765 80.4689 16.785 81.3989 15.495 81.9389ZM35.1 78.6689V83.8289H36.135V79.6439H37.59V83.8289H38.475V79.6439H39.945V83.8289H40.845V79.6439H42.33V83.8289H43.395V78.6689H35.1ZM33.75 83.3189V84.3089H44.43V83.3189H33.75ZM31.335 71.9039C32.235 72.3389 33.345 73.0589 33.87 73.5989L34.53 72.6839C33.99 72.1589 32.88 71.4839 31.965 71.0789L31.335 71.9039ZM30.555 75.9539C31.485 76.3589 32.595 77.0189 33.135 77.5289L33.795 76.5989C33.225 76.1039 32.1 75.4739 31.185 75.0989L30.555 75.9539ZM30.915 83.8589L31.905 84.5489C32.67 83.1539 33.57 81.2939 34.23 79.7039L33.345 79.0289C32.61 80.7389 31.62 82.7039 30.915 83.8589ZM36.675 72.5339H41.775V76.6589H36.675V72.5339ZM35.655 71.6489V77.5439H42.855V71.6489H35.655ZM38.985 72.8039C38.79 73.9439 38.115 75.1289 36.975 75.7739C37.14 75.9089 37.38 76.1789 37.485 76.3289C38.76 75.6239 39.555 74.2589 39.81 72.8939L38.985 72.8039ZM38.655 74.3489C39.39 74.9489 40.32 75.8039 40.77 76.3289L41.355 75.8039C40.89 75.2939 39.96 74.4839 39.225 73.9139L38.655 74.3489ZM48.375 75.2039V76.1189H59.04V75.2039H48.375ZM48.585 79.5689V80.4989H57.165V79.5689H48.585ZM50.79 73.8989V78.6089H56.61V73.8989H55.515V77.7239H51.855V73.8989H50.79ZM56.865 79.5689V79.7339C55.47 82.2539 51.69 83.3639 47.865 83.7089C48.045 83.9639 48.24 84.3989 48.33 84.6539C52.41 84.1889 56.325 82.9739 58.005 79.9139L57.3 79.5239L57.09 79.5689H56.865ZM50.985 80.3339L50.01 80.7089C51.735 83.0489 54.945 84.2939 58.77 84.7439C58.905 84.4589 59.175 84.0089 59.415 83.7689C55.68 83.4239 52.47 82.3139 50.985 80.3339ZM47.415 72.4439V73.4939H59.22V72.4439H47.415ZM46.89 72.4439V76.5239C46.89 78.7739 46.77 81.9689 45.54 84.2339C45.825 84.3239 46.335 84.5639 46.56 84.7439C47.82 82.3739 48 78.9089 48 76.5239V72.4439H46.89ZM52.095 71.1389C52.425 71.7539 52.77 72.5939 52.905 73.1189L54.09 72.7889C53.955 72.2789 53.565 71.4839 53.22 70.8689L52.095 71.1389ZM63.585 86.4989L64.425 86.1089C63.135 83.9789 62.505 81.4439 62.505 78.8939C62.505 76.3439 63.135 73.8089 64.425 71.6789L63.585 71.2739C62.19 73.5239 61.365 75.9539 61.365 78.8939C61.365 81.8489 62.19 84.2489 63.585 86.4989ZM67.8734 76.3889C68.9984 76.3889 69.9884 75.5489 69.9884 74.2589C69.9884 72.9389 68.9984 72.0989 67.8734 72.0989C66.7484 72.0989 65.7584 72.9389 65.7584 74.2589C65.7584 75.5489 66.7484 76.3889 67.8734 76.3889ZM67.8734 75.6089C67.1234 75.6089 66.6134 75.0389 66.6134 74.2589C66.6134 73.4489 67.1234 72.8789 67.8734 72.8789C68.6084 72.8789 69.1484 73.4489 69.1484 74.2589C69.1484 75.0389 68.6084 75.6089 67.8734 75.6089ZM76.0934 83.7539C77.4734 83.7539 78.5534 83.1839 79.4234 82.1639L78.6134 81.2939C77.9234 82.0589 77.1584 82.4789 76.1234 82.4789C74.0384 82.4789 72.7484 80.7839 72.7484 78.0389C72.7484 75.3239 74.0984 73.6289 76.1834 73.6289C77.0834 73.6289 77.7884 74.0189 78.3734 74.6339L79.1684 73.7339C78.5234 73.0289 77.4734 72.3839 76.1534 72.3839C73.3484 72.3839 71.2634 74.5289 71.2634 78.0839C71.2634 81.6539 73.3034 83.7539 76.0934 83.7539ZM81.5534 86.4989C82.9334 84.2489 83.7584 81.8489 83.7584 78.8939C83.7584 75.9539 82.9334 73.5239 81.5534 71.2739L80.6984 71.6789C81.9884 73.8089 82.6184 76.3439 82.6184 78.8939C82.6184 81.4439 81.9884 83.9789 80.6984 86.1089L81.5534 86.4989ZM86.6517 72.9689V73.9589H98.7117V72.9689H86.6517ZM87.3717 75.2789V76.2389H97.9617V75.2789H87.3717ZM88.7667 83.3789V84.3839H98.9817V83.3789H88.7667ZM85.9617 77.6039V78.6089H99.2817V77.6039H85.9617ZM90.2067 79.7489V80.7389H97.9917V79.7489H90.2067ZM92.0367 73.4639V78.3089H93.1917V73.4639H92.0367ZM93.2367 80.2289V83.8139H94.3767V80.2289H93.2367ZM88.6917 71.3789C89.1717 71.9789 89.6667 72.7739 89.8617 73.3289L90.8817 72.8639C90.6567 72.3389 90.1617 71.5589 89.6667 70.9889L88.6917 71.3789ZM95.4867 70.9289C95.2467 71.5139 94.7667 72.3689 94.3917 72.9239L95.3367 73.2539C95.7417 72.7439 96.2367 71.9939 96.6867 71.2739L95.4867 70.9289ZM89.1567 78.0239C88.6317 80.6189 87.5067 82.7189 85.7067 83.9789C85.9917 84.1589 86.4567 84.5489 86.6517 84.7589C88.4667 83.3339 89.7117 81.0839 90.3267 78.2039L89.1567 78.0239ZM108.882 82.9139C110.577 83.4839 112.332 84.2189 113.382 84.7739L114.312 83.9639C113.172 83.4089 111.312 82.6889 109.602 82.1489L108.882 82.9139ZM100.932 80.9939V81.9839H114.357V80.9939H100.932ZM101.892 78.2789V79.2689H113.472V78.2789H101.892ZM104.547 76.6139V81.4289H105.672V76.6139H104.547ZM107.022 71.9939V76.4789H108.132V71.9939H107.022ZM109.587 76.6139V81.4289H110.727V76.6139H109.587ZM103.482 74.6039H111.777V75.9689H103.482V74.6039ZM103.482 72.4289H111.777V73.7639H103.482V72.4289ZM102.402 71.5439V76.8539H112.917V71.5439H102.402ZM105.492 82.1639C104.517 82.8089 102.582 83.5289 101.037 83.9189C101.277 84.1439 101.592 84.5339 101.757 84.7739C103.347 84.3539 105.267 83.6039 106.497 82.8389L105.492 82.1639ZM121.407 80.7239C122.982 80.1839 124.002 78.9539 124.002 77.3339C124.002 76.2839 123.552 75.5939 122.712 75.5939C122.112 75.5939 121.572 75.9689 121.572 76.6739C121.572 77.3789 122.082 77.7539 122.697 77.7539C122.982 77.7539 123.282 77.6789 123.492 77.4089L122.682 76.2689L122.967 77.5289C122.967 78.6689 122.292 79.4339 121.062 79.9289L121.407 80.7239ZM135.597 73.3139C136.557 74.4239 137.532 75.9689 137.922 77.0039L139.002 76.4189C138.567 75.3989 137.607 73.9139 136.602 72.8189L135.597 73.3139ZM130.662 81.9539L131.067 83.1239C132.732 82.4039 135.012 81.3989 137.097 80.4389L136.842 79.3439C134.592 80.3339 132.192 81.3539 130.662 81.9539ZM139.662 79.9739C141.102 81.4439 142.902 83.4689 143.742 84.7139L144.702 83.8289C143.817 82.5989 141.957 80.6489 140.532 79.2389L139.662 79.9739ZM141.747 71.7239C141.072 78.2489 139.482 81.9239 134.292 83.8139C134.577 84.0539 135.027 84.5489 135.192 84.7889C140.442 82.5989 142.197 78.7739 142.962 71.8439L141.747 71.7239ZM132.492 71.7689L132.747 81.6839L133.902 81.6389L133.647 71.7239L132.492 71.7689ZM146.457 83.5439H152.487V82.4039H150.267V72.5489H149.217C148.632 72.9089 147.927 73.1639 146.937 73.3289V74.2139H148.902V82.4039H146.457V83.5439ZM156.967 83.7539C159.037 83.7539 160.957 82.0439 160.957 77.5739C160.957 74.0789 159.382 72.3539 157.267 72.3539C155.557 72.3539 154.117 73.7939 154.117 75.9239C154.117 78.2039 155.302 79.3739 157.147 79.3739C158.092 79.3739 159.067 78.8039 159.757 77.9339L159.682 76.8389C158.962 77.9339 158.107 78.3689 157.372 78.3689C156.067 78.3689 155.407 77.3939 155.407 75.9239C155.407 74.4089 156.217 73.4189 157.267 73.4189C158.812 73.4189 159.667 74.8739 159.667 77.5739C159.667 81.3389 158.392 82.6139 156.922 82.6139C156.217 82.6139 155.542 82.2989 155.077 81.7589L154.312 82.6289C154.927 83.2739 155.767 83.7539 156.967 83.7539ZM166.292 83.7539C167.987 83.7539 169.442 82.3139 169.442 80.1839C169.442 77.8739 168.242 76.7339 166.382 76.7339C165.497 76.7339 164.477 77.2739 163.802 78.1589L163.847 79.2539C164.582 78.1589 165.467 77.7389 166.172 77.7389C167.492 77.7389 168.152 78.6839 168.152 80.1839C168.152 81.6689 167.342 82.6739 166.292 82.6739C164.747 82.6739 163.892 81.1289 163.892 78.3089C163.892 74.7089 165.182 73.4939 166.727 73.4939C167.387 73.4939 168.062 73.8089 168.482 74.3189L169.247 73.4789C168.647 72.8339 167.807 72.3539 166.667 72.3539C164.537 72.3539 162.602 74.0039 162.602 78.3089C162.602 81.9389 164.177 83.7539 166.292 83.7539ZM174.268 83.7539C176.338 83.7539 177.673 81.8489 177.673 78.0089C177.673 74.1989 176.338 72.3539 174.268 72.3539C172.168 72.3539 170.833 74.1989 170.833 78.0089C170.833 81.8489 172.168 83.7539 174.268 83.7539ZM174.268 82.6439C173.008 82.6439 172.153 81.2489 172.153 78.0089C172.153 74.8139 173.008 73.4489 174.268 73.4489C175.513 73.4489 176.353 74.8139 176.353 78.0089C176.353 81.2489 175.513 82.6439 174.268 82.6439ZM179.108 79.8839H182.948V78.8339H179.108V79.8839ZM184.938 83.5439H190.968V82.4039H188.748V72.5489H187.698C187.113 72.9089 186.408 73.1639 185.418 73.3289V74.2139H187.383V82.4039H184.938V83.5439ZM195.448 83.7539C197.518 83.7539 199.438 82.0439 199.438 77.5739C199.438 74.0789 197.863 72.3539 195.748 72.3539C194.038 72.3539 192.598 73.7939 192.598 75.9239C192.598 78.2039 193.783 79.3739 195.628 79.3739C196.573 79.3739 197.548 78.8039 198.238 77.9339L198.163 76.8389C197.443 77.9339 196.588 78.3689 195.853 78.3689C194.548 78.3689 193.888 77.3939 193.888 75.9239C193.888 74.4089 194.698 73.4189 195.748 73.4189C197.293 73.4189 198.148 74.8739 198.148 77.5739C198.148 81.3389 196.873 82.6139 195.403 82.6139C194.698 82.6139 194.023 82.2989 193.558 81.7589L192.793 82.6289C193.408 83.2739 194.248 83.7539 195.448 83.7539ZM203.769 83.7539C205.839 83.7539 207.759 82.0439 207.759 77.5739C207.759 74.0789 206.184 72.3539 204.069 72.3539C202.359 72.3539 200.919 73.7939 200.919 75.9239C200.919 78.2039 202.104 79.3739 203.949 79.3739C204.894 79.3739 205.869 78.8039 206.559 77.9339L206.484 76.8389C205.764 77.9339 204.909 78.3689 204.174 78.3689C202.869 78.3689 202.209 77.3939 202.209 75.9239C202.209 74.4089 203.019 73.4189 204.069 73.4189C205.614 73.4189 206.469 74.8739 206.469 77.5739C206.469 81.3389 205.194 82.6139 203.724 82.6139C203.019 82.6139 202.344 82.2989 201.879 81.7589L201.114 82.6289C201.729 83.2739 202.569 83.7539 203.769 83.7539ZM212.749 83.7539C214.819 83.7539 216.154 81.8489 216.154 78.0089C216.154 74.1989 214.819 72.3539 212.749 72.3539C210.649 72.3539 209.314 74.1989 209.314 78.0089C209.314 81.8489 210.649 83.7539 212.749 83.7539ZM212.749 82.6439C211.489 82.6439 210.634 81.2489 210.634 78.0089C210.634 74.8139 211.489 73.4489 212.749 73.4489C213.994 73.4489 214.834 74.8139 214.834 78.0089C214.834 81.2489 213.994 82.6439 212.749 82.6439ZM221.054 70.8989C220.319 72.9239 219.074 74.8739 217.649 76.1189C217.934 76.2689 218.399 76.6439 218.624 76.8389C220.019 75.4889 221.354 73.4039 222.179 71.1839L221.054 70.8989ZM220.814 72.7589L220.274 73.8539H230.489V72.7589H220.814ZM220.079 76.1639V80.7689H221.204V77.2139H230.159V76.1639H220.079ZM217.604 80.1989V81.2939H231.194V80.1989H217.604ZM224.579 73.3289V84.7589H225.734V73.3289H224.579ZM235.049 78.9389V79.9289H245.264V78.9389H235.049ZM233.114 73.5239V74.5589H242.924V73.5239H233.114ZM237.344 76.2239V77.2289H244.214V76.2239H237.344ZM244.784 78.9389V79.1189C244.544 82.1039 244.259 83.2889 243.914 83.6339C243.779 83.7539 243.629 83.7839 243.344 83.7839C243.059 83.7839 242.339 83.7839 241.589 83.6939C241.769 83.9939 241.889 84.4289 241.904 84.7439C242.684 84.7739 243.434 84.7889 243.809 84.7589C244.259 84.7289 244.544 84.6239 244.829 84.3389C245.309 83.8439 245.594 82.5989 245.864 79.4339C245.894 79.2689 245.909 78.9389 245.909 78.9389H244.784ZM241.454 80.7389C241.904 81.3689 242.369 82.2389 242.564 82.7789L243.389 82.4339C243.194 81.8939 242.729 81.0539 242.249 80.4389L241.454 80.7389ZM234.974 71.3939C235.559 72.0239 236.189 72.9089 236.444 73.4939L237.494 73.0139C237.194 72.4439 236.534 71.5889 235.949 70.9889L234.974 71.3939ZM237.014 81.1139C237.269 82.0889 237.434 83.3189 237.404 84.1289L238.394 83.9939C238.394 83.1839 238.229 81.9389 237.929 80.9939L237.014 81.1139ZM239.219 80.9789C239.594 81.8039 239.954 82.8989 240.059 83.6189L240.989 83.3639C240.869 82.6589 240.494 81.5939 240.104 80.7689L239.219 80.9789ZM235.094 80.7689C234.794 81.9239 234.224 83.2589 233.384 84.0539L234.254 84.6689C235.169 83.7539 235.694 82.3289 236.039 81.0839L235.094 80.7689ZM239.519 70.9439C238.379 74.8289 236.069 78.6689 232.349 80.7839C232.544 81.0239 232.829 81.4739 232.964 81.7439C236.939 79.3889 239.294 75.4289 240.659 71.2289L239.519 70.9439ZM242.669 73.5239C242.504 74.4839 242.249 75.6839 242.039 76.4789L243.029 76.6139C243.254 75.8039 243.524 74.5589 243.734 73.5239H242.669ZM243.794 76.2239C243.644 77.1839 243.389 78.3989 243.164 79.2089L244.184 79.3289C244.394 78.5189 244.649 77.2589 244.859 76.2239H243.794ZM248.279 72.3989V73.3589H260.564V72.3989H248.279ZM248.759 83.3939V84.3389H260.114V83.3939H248.759ZM251.234 74.3489V75.2039H257.549V74.3489H251.234ZM251.234 76.2389V77.0939H257.549V76.2389H251.234ZM247.574 78.1739V79.1189H261.209V78.1739H247.574ZM250.724 80.8589V81.7889H258.089V80.8589H250.724ZM250.559 70.9589V78.6989H251.684V70.9589H250.559ZM257.159 70.9589V78.6989H258.284V70.9589H257.159ZM253.784 79.5989V83.9189H254.939V79.5989H253.784ZM251.354 78.4289C250.544 79.7489 248.939 81.0389 247.424 81.6389C247.679 81.8489 247.994 82.2389 248.159 82.4939C249.734 81.7589 251.384 80.3339 252.299 78.7889L251.354 78.4289ZM257.489 78.4289L256.604 78.7739C257.474 80.2439 259.064 81.6389 260.654 82.3139C260.819 82.0439 261.149 81.6539 261.404 81.4439C259.844 80.8889 258.284 79.7039 257.489 78.4289ZM263.609 71.7989C264.434 72.1289 265.484 72.6689 266.009 73.0439L266.609 72.1739C266.069 71.7989 265.004 71.3039 264.179 71.0339L263.609 71.7989ZM262.484 74.3639C263.294 74.6489 264.344 75.1589 264.869 75.5189L265.454 74.6489C264.899 74.2889 263.849 73.8389 263.054 73.5689L262.484 74.3639ZM262.904 79.1339L263.684 80.0039C264.599 79.0289 265.604 77.8589 266.459 76.8089L265.859 76.0439C264.884 77.1839 263.699 78.3989 262.904 79.1339ZM262.679 80.7839V81.8039H276.164V80.7839H262.679ZM268.784 79.7039V84.7589H269.939V79.7039H268.784ZM268.454 70.8689C267.794 72.3689 266.669 73.8239 265.484 74.7839C265.739 74.9339 266.189 75.2939 266.384 75.4889C267.554 74.4539 268.754 72.8339 269.504 71.1839L268.454 70.8689ZM267.644 78.3689V79.2989H275.744V78.3689H267.644ZM267.794 74.5739V75.3389H275.024V74.5739H267.794ZM267.794 76.4339V77.2139H275.039V76.4339H267.794ZM271.079 72.9689V78.8939H272.159V72.9689H271.079ZM270.599 71.3039C270.914 71.8739 271.244 72.6389 271.394 73.1039L272.534 72.7589C272.369 72.2939 271.994 71.5589 271.694 71.0189L270.599 71.3039ZM268.364 72.5639H267.944L267.269 73.2689V79.9439H268.364V73.4489H275.489V72.5639H268.364Z" fill="#404040"/>
<path d="M74 249.34L76.26 233.52L79.65 235.21L81.91 239.21L83.61 235.21L87.61 239.21L92.14 258.42H93.83L96.66 240.34L101.18 254.46L105.18 267.46L107.34 239.16L109.6 267.41L112.43 239.16L115.25 236.33L118.08 244.81L119.77 236.33L125.42 239.16L127.68 247.63L129.94 233.51L133.33 245.94L137.33 251.59H140.72L142.41 218.25L144.67 206.39L147.5 233.51H149.76L152.55 230.16L155.38 231.85L161.03 252.76L165.55 249.37L167.24 254.45L173.46 224.51L175.16 256.71L178.55 244.82L180.24 256.68L183.07 261.21L184.76 254.42L188.15 251.6L190.97 230.16L193.79 233.55L196.05 254.45L200.57 231.85L204.57 239.2L206.26 254.45L211.35 267.45L213.04 249.37L216.43 240.37L218.69 256.75L223.78 264.66L226.04 261.28L228.86 267.49L231.12 256.75L233.95 254.49L239.03 224.55L241.86 251.67L244.12 259.58L245.81 244.89L247.51 240.37L250.9 235.28L254.29 227.94L257.07 243.16L259.34 240.34H262.72L267.25 221.69L269.55 231.82H272.38L274.55 249.34L276.81 224.48L279.07 218.26L282.46 224.48L284.72 240.3L286.98 224.48L289.24 227.87L292.63 224.48L294.89 213.74L297.72 211.48L300.55 218.26L302.81 208.66H305.64L307.33 213.74L309.03 211.48L313.55 195.66L317.55 218.26L320.94 213.74L323.77 214.87L327.14 230.16L331.66 209.82L335.05 199.08L338.44 224.51L343.55 240.3L345.81 211.48L348.07 204.14L353.16 216L354.85 206.4L357.68 208.66L361.07 204.14L363.33 235.21L368.98 218.21H372.37L373.5 223.3L377.5 206.35L381.45 231.77L386.54 202.39L388.23 233.47L391.62 224.47L393.88 235.2L396.71 202.43L399.53 218.25L401.23 202.43L406.31 195.65L408.55 211.48L410.76 187.16L414.15 211.45L418.15 214.84L419.84 202.41L422.1 190.55H424.93L426.62 199.02L430.01 178.68L433.4 183.77V199.02L437.92 190.55L441.92 175.29L444.18 192.29L449.83 151.04L452.09 178.73L454.92 180.42L457.66 165.16L461.05 157.25L464.44 163.46L467.83 153.86L472.35 159.51L475.74 169.68L477.44 157.25L480.83 151.03L482.55 167.41L488.77 153.85L492.16 140.85V129.55L496.11 126.73L500.11 148.2L503.5 134.64" stroke="#285F92" stroke-width="2" stroke-linecap="round"/>
</svg>
