<svg width="469" height="329" viewBox="0 0 469 329" fill="none" xmlns="http://www.w3.org/2000/svg">
<rect width="469" height="329" fill="#FAFAFA"/>
<path d="M3.48 31.66V33.74H16.44V31.66H3.48ZM4.46 27.26V29.36H15.48V27.26H4.46ZM1.52 36.18V38.32H18.6V36.18H1.52ZM8.66 28.2V37.38H11.2V28.2H8.66ZM4.36 20.64V22.86H11.08V20.64H4.36ZM8.64 20.64V21.94H9.26C11.26 24.66 14.5 27.5 18.02 29.14C18.36 28.48 19.14 27.46 19.62 26.96C16.22 25.7 12.98 23.18 11.26 20.64H8.64ZM9.02 20.64C7.24 23.16 3.6 25.92 0.42 27.22C0.96 27.72 1.58 28.56 1.9 29.16C5.08 27.56 8.78 24.6 10.76 21.84L9.02 20.64ZM27.46 23.26V25.44H39.32V23.26H27.46ZM32.08 20.04V36.12C32.08 36.44 31.96 36.54 31.66 36.54C31.36 36.54 30.42 36.54 29.42 36.5C29.76 37.14 30.16 38.18 30.24 38.82C31.76 38.82 32.76 38.72 33.46 38.32C34.16 37.94 34.4 37.3 34.4 36.12V20.04H32.08ZM26.56 34.56L28 36.7C29.58 35.26 31.54 33.44 33.28 31.66L32.46 29.96C30.34 31.7 27.94 33.6 26.56 34.56ZM27.58 27.16C28.34 28.3 29.12 29.82 29.42 30.78L31.38 29.86C31.06 28.88 30.2 27.42 29.44 26.34L27.58 27.16ZM37.14 26.26C36.4 27.58 35.08 29.34 34.08 30.42L35.74 31.36C36.8 30.36 38.1 28.76 39.22 27.34L37.14 26.26ZM35 21.36C35.84 21.98 36.86 22.88 37.34 23.52L38.74 22.14C38.22 21.54 37.16 20.7 36.34 20.14L35 21.36ZM34.32 25.82L32.34 26.18C33.26 31.6 34.72 34.64 38.18 37.26C38.48 36.62 39.1 35.86 39.66 35.42C36.52 33.28 35.14 30.68 34.32 25.82ZM20.7 21.16V23.4H27.08V21.16H20.7ZM20.82 26.92V29.14H26.78V26.92H20.82ZM20.42 34.64L20.9 36.92C22.82 36.32 25.22 35.58 27.46 34.86L27.1 32.7C24.68 33.44 22.12 34.2 20.42 34.64ZM22.82 22.08V34.72L25.04 34.36V22.08H22.82ZM43.58 20.74V22.9H59.02V20.74H43.58ZM43.8 36.32V38.3H59.06V36.32H43.8ZM51.7 32.8V34.64H57.34V32.8H51.7ZM42 20.74V26.92C42 30.08 41.88 34.58 40.38 37.66C40.96 37.86 41.96 38.42 42.4 38.76C44.02 35.46 44.26 30.34 44.26 26.92V20.74H42ZM50.44 31.16V37.44H52.76V31.16H50.44ZM45.96 32.56V37.46H48.26V32.56H45.96ZM44.66 25.98V27.64H50.88V25.98H44.66ZM46.84 23.92V31.28H48.8V23.92H46.84ZM46.6 26.72C45.96 27.92 44.76 29.22 43.62 29.86C44.04 30.2 44.62 30.84 44.9 31.3C46.08 30.4 47.26 28.74 47.9 27.2L46.6 26.72ZM51.38 25.98V27.64H58.56V25.98H51.38ZM53.72 23.92V31.28H55.72V23.92H53.72ZM53.24 26.7C52.66 27.9 51.48 29.18 50.34 29.84C50.76 30.18 51.34 30.84 51.64 31.3C52.82 30.4 53.96 28.72 54.56 27.16L53.24 26.7ZM48.72 27.46L47.6 28.3C48.16 28.74 49.3 29.78 49.76 30.28L50.9 28.84C50.54 28.56 49.18 27.7 48.72 27.46ZM49.3 23.02C48.22 23.44 46.24 23.74 44.48 23.86C44.68 24.24 44.9 24.84 45 25.22C46.92 25.12 49.22 24.82 50.78 24.22L49.3 23.02ZM56.52 22.92C55.32 23.38 53.06 23.68 51.1 23.84C51.3 24.18 51.54 24.82 51.6 25.18C53.74 25.08 56.28 24.76 58 24.12L56.52 22.92ZM55.78 27.5L54.74 28.48C55.56 29.08 57.38 30.54 58.14 31.28L59.2 29.74C58.66 29.34 56.46 27.88 55.78 27.5ZM64.96 19.94C64.1 22.54 62.54 25.1 60.74 26.66C61.32 27 62.34 27.8 62.8 28.22C64.58 26.42 66.34 23.54 67.4 20.56L64.96 19.94ZM65.38 22.22L64.22 24.54H78.1V22.22H65.38ZM63.96 26.94V33.38H66.38V29.18H77.64V26.94H63.96ZM60.8 32.2V34.52H79.2V32.2H60.8ZM69.84 23.42V38.8H72.32V23.42H69.84ZM81.98 21.26V23.64H97.96V21.26H81.98ZM80.9 29.74V32.16H99.12V29.74H80.9ZM83.18 24.92C83.82 26.26 84.46 28.02 84.66 29.1L86.98 28.36C86.76 27.26 86.06 25.56 85.36 24.28L83.18 24.92ZM94.58 24.22C94.2 25.54 93.46 27.3 92.84 28.46L94.94 29.08C95.6 28.04 96.42 26.4 97.14 24.88L94.58 24.22ZM88.72 22.26V38.78H91.22V22.26H88.72ZM108.44 31.9V34.04H115.06V31.9H108.44ZM108.9 27.52V29.66H114.68V27.52H108.9ZM109.74 23.22V25.5H117.38V23.22H109.74ZM116.64 23.22V23.74C116.4 32.08 116.12 35.42 115.52 36.1C115.28 36.38 115.06 36.46 114.68 36.46C114.18 36.46 113.12 36.46 111.94 36.34C112.36 37.04 112.7 38.1 112.74 38.78C113.88 38.82 115.06 38.84 115.78 38.72C116.6 38.6 117.14 38.36 117.68 37.58C118.48 36.54 118.76 33.3 119.02 24.36C119.04 24.06 119.06 23.22 119.06 23.22H116.64ZM110.2 20C109.34 22.74 107.84 25.52 106.12 27.2C106.74 27.52 107.82 28.18 108.34 28.58C109.96 26.68 111.62 23.66 112.64 20.64L110.2 20ZM100.86 24.8V27.08H107.26V24.8H100.86ZM103.04 20.38V33.76H105.36V20.38H103.04ZM100.44 34.38L101.34 36.78C103.3 35.8 105.74 34.56 107.98 33.36L107.32 31.16C104.84 32.4 102.16 33.68 100.44 34.38ZM126.84 30.08V37.2H129V32.1H130.12V37.2H131.88V32.1H133.02V37.2H134.8V32.1H135.94V37.2H138.2V30.08H126.84ZM125.2 36.14V38.22H139.44V36.14H125.2ZM121.6 21.88C122.78 22.42 124.3 23.32 125 24L126.4 22.02C125.64 21.36 124.1 20.56 122.92 20.1L121.6 21.88ZM120.54 27.3C121.74 27.8 123.24 28.66 123.94 29.3L125.34 27.32C124.56 26.68 123.04 25.9 121.86 25.48L120.54 27.3ZM120.9 37.14L123.04 38.58C124.06 36.62 125.14 34.3 126.02 32.16L124.12 30.72C123.12 33.08 121.82 35.6 120.9 37.14ZM129.7 22.66H135.16V27.26H129.7V22.66ZM127.54 20.88V29.04H137.44V20.88H127.54ZM131.8 22.8C131.6 24.06 130.92 25.34 129.68 26.02C129.98 26.26 130.44 26.78 130.66 27.08C132.14 26.26 133.04 24.64 133.36 22.98L131.8 22.8ZM131.6 24.82C132.38 25.5 133.42 26.46 133.92 27.06L135.02 26.04C134.5 25.48 133.44 24.58 132.66 23.94L131.6 24.82ZM145 25.76V27.64H158.9V25.76H145ZM145.16 31.58V33.46H156.14V31.58H145.16ZM147.72 24.44V30.78H156V24.44H153.64V28.98H149.98V24.44H147.72ZM155.52 31.58V31.88C153.86 34.96 149.3 36.28 144.18 36.66C144.54 37.18 144.96 38.1 145.14 38.66C150.78 38.04 155.7 36.46 157.9 32.26L156.4 31.5L155.98 31.58H155.52ZM148.54 32.98L146.48 33.76C148.94 36.74 152.9 38.26 158.04 38.78C158.32 38.18 158.92 37.2 159.42 36.7C154.52 36.36 150.48 35.2 148.54 32.98ZM143.34 21.74V23.96H159.1V21.74H143.34ZM142.22 21.74V27.1C142.22 30.16 142.08 34.66 140.48 37.72C141.1 37.9 142.18 38.4 142.68 38.76C144.34 35.48 144.6 30.46 144.6 27.08V21.74H142.22ZM149.24 20.4C149.62 21.28 149.98 22.48 150.08 23.22L152.66 22.6C152.54 21.86 152.1 20.74 151.68 19.86L149.24 20.4ZM161.9 22.38V24.44H178.18V22.38H161.9ZM162.94 25.5V27.48H177.14V25.5H162.94ZM165.06 36.3V38.38H178.62V36.3H165.06ZM161.04 28.54V30.64H178.9V28.54H161.04ZM166.98 31.72V33.78H177.24V31.72H166.98ZM168.72 23.48V30.14H171.2V23.48H168.72ZM170.5 32.64V37.24H172.96V32.64H170.5ZM164.48 20.86C165.02 21.58 165.56 22.58 165.76 23.24L167.92 22.32C167.68 21.66 167.12 20.74 166.54 20.06L164.48 20.86ZM173.18 19.98C172.94 20.72 172.44 21.72 172.02 22.42L174.06 23.04C174.56 22.44 175.18 21.56 175.8 20.62L173.18 19.98ZM164.92 29.52C164.28 32.82 162.8 35.56 160.44 37.12C161.02 37.5 162.04 38.34 162.48 38.8C164.9 36.9 166.6 33.8 167.46 29.92L164.92 29.52ZM191.24 36.38C193.44 37.14 195.76 38.14 197.12 38.86L199.14 37.18C197.6 36.5 195.04 35.52 192.8 34.8L191.24 36.38ZM180.96 33.08V35.14H199.1V33.08H180.96ZM182.2 29.5V31.56H197.92V29.5H182.2ZM185.54 27.74V33.96H187.98V27.74H185.54ZM188.74 21.72V27.4H191.08V21.72H188.74ZM191.98 27.74V33.96H194.44V27.74H191.98ZM185.16 25.26H194.74V26.4H185.16V25.26ZM185.16 22.5H194.74V23.6H185.16V22.5ZM182.84 20.72V28.18H197.18V20.72H182.84ZM186.78 34.86C185.56 35.66 183.06 36.6 181.02 37.06C181.52 37.54 182.18 38.32 182.52 38.84C184.66 38.32 187.2 37.34 188.8 36.32L186.78 34.86Z" fill="#404040"/>
<path opacity="0.5" d="M42 278H469" stroke="#C7C7C7"/>
<g opacity="0.5">
<path d="M42 232H469" stroke="#C7C7C7"/>
<path d="M42 186H469" stroke="#C7C7C7"/>
<path d="M42 140H469" stroke="#C7C7C7"/>
<path d="M42 94H469" stroke="#C7C7C7"/>
</g>
<path d="M2.67438 280.34H6.51438V279.29H2.67438V280.34ZM8.50457 284H14.5346V282.86H12.3146V273.005H11.2646C10.6796 273.365 9.97457 273.62 8.98457 273.785V274.67H10.9496V282.86H8.50457V284ZM17.5749 284.21C18.1299 284.21 18.5799 283.775 18.5799 283.16C18.5799 282.53 18.1299 282.11 17.5749 282.11C17.0349 282.11 16.5999 282.53 16.5999 283.16C16.5999 283.775 17.0349 284.21 17.5749 284.21ZM23.8497 284.21C25.9197 284.21 27.2547 282.305 27.2547 278.465C27.2547 274.655 25.9197 272.81 23.8497 272.81C21.7497 272.81 20.4147 274.655 20.4147 278.465C20.4147 282.305 21.7497 284.21 23.8497 284.21ZM23.8497 283.1C22.5897 283.1 21.7347 281.705 21.7347 278.465C21.7347 275.27 22.5897 273.905 23.8497 273.905C25.0947 273.905 25.9347 275.27 25.9347 278.465C25.9347 281.705 25.0947 283.1 23.8497 283.1Z" fill="#404040"/>
<path d="M2.67438 234.34H6.51438V233.29H2.67438V234.34ZM11.3546 238.21C13.4246 238.21 14.7596 236.305 14.7596 232.465C14.7596 228.655 13.4246 226.81 11.3546 226.81C9.25457 226.81 7.91957 228.655 7.91957 232.465C7.91957 236.305 9.25457 238.21 11.3546 238.21ZM11.3546 237.1C10.0946 237.1 9.23957 235.705 9.23957 232.465C9.23957 229.27 10.0946 227.905 11.3546 227.905C12.5996 227.905 13.4396 229.27 13.4396 232.465C13.4396 235.705 12.5996 237.1 11.3546 237.1ZM17.5749 238.21C18.1299 238.21 18.5799 237.775 18.5799 237.16C18.5799 236.53 18.1299 236.11 17.5749 236.11C17.0349 236.11 16.5999 236.53 16.5999 237.16C16.5999 237.775 17.0349 238.21 17.5749 238.21ZM23.5947 238.21C25.4397 238.21 27.1947 236.83 27.1947 234.43C27.1947 232 25.7097 230.92 23.8797 230.92C23.2197 230.92 22.7247 231.085 22.2297 231.355L22.5147 228.175H26.6697V227.005H21.3147L20.9697 232.15L21.7047 232.615C22.3347 232.195 22.7997 231.955 23.5347 231.955C24.8997 231.955 25.7997 232.9 25.7997 234.475C25.7997 236.065 24.7647 237.07 23.4597 237.07C22.1997 237.07 21.3897 236.485 20.7747 235.84L20.0847 236.74C20.8347 237.49 21.8847 238.21 23.5947 238.21Z" fill="#404040"/>
<path d="M11.3546 192.21C13.4246 192.21 14.7596 190.305 14.7596 186.465C14.7596 182.655 13.4246 180.81 11.3546 180.81C9.25457 180.81 7.91957 182.655 7.91957 186.465C7.91957 190.305 9.25457 192.21 11.3546 192.21ZM11.3546 191.1C10.0946 191.1 9.23957 189.705 9.23957 186.465C9.23957 183.27 10.0946 181.905 11.3546 181.905C12.5996 181.905 13.4396 183.27 13.4396 186.465C13.4396 189.705 12.5996 191.1 11.3546 191.1ZM17.5749 192.21C18.1299 192.21 18.5799 191.775 18.5799 191.16C18.5799 190.53 18.1299 190.11 17.5749 190.11C17.0349 190.11 16.5999 190.53 16.5999 191.16C16.5999 191.775 17.0349 192.21 17.5749 192.21ZM23.8497 192.21C25.9197 192.21 27.2547 190.305 27.2547 186.465C27.2547 182.655 25.9197 180.81 23.8497 180.81C21.7497 180.81 20.4147 182.655 20.4147 186.465C20.4147 190.305 21.7497 192.21 23.8497 192.21ZM23.8497 191.1C22.5897 191.1 21.7347 189.705 21.7347 186.465C21.7347 183.27 22.5897 181.905 23.8497 181.905C25.0947 181.905 25.9347 183.27 25.9347 186.465C25.9347 189.705 25.0947 191.1 23.8497 191.1Z" fill="#404040"/>
<path d="M11.3546 146.21C13.4246 146.21 14.7596 144.305 14.7596 140.465C14.7596 136.655 13.4246 134.81 11.3546 134.81C9.25457 134.81 7.91957 136.655 7.91957 140.465C7.91957 144.305 9.25457 146.21 11.3546 146.21ZM11.3546 145.1C10.0946 145.1 9.23957 143.705 9.23957 140.465C9.23957 137.27 10.0946 135.905 11.3546 135.905C12.5996 135.905 13.4396 137.27 13.4396 140.465C13.4396 143.705 12.5996 145.1 11.3546 145.1ZM17.5749 146.21C18.1299 146.21 18.5799 145.775 18.5799 145.16C18.5799 144.53 18.1299 144.11 17.5749 144.11C17.0349 144.11 16.5999 144.53 16.5999 145.16C16.5999 145.775 17.0349 146.21 17.5749 146.21ZM23.5947 146.21C25.4397 146.21 27.1947 144.83 27.1947 142.43C27.1947 140 25.7097 138.92 23.8797 138.92C23.2197 138.92 22.7247 139.085 22.2297 139.355L22.5147 136.175H26.6697V135.005H21.3147L20.9697 140.15L21.7047 140.615C22.3347 140.195 22.7997 139.955 23.5347 139.955C24.8997 139.955 25.7997 140.9 25.7997 142.475C25.7997 144.065 24.7647 145.07 23.4597 145.07C22.1997 145.07 21.3897 144.485 20.7747 143.84L20.0847 144.74C20.8347 145.49 21.8847 146.21 23.5947 146.21Z" fill="#404040"/>
<path d="M8.50457 100H14.5346V98.86H12.3146V89.005H11.2646C10.6796 89.365 9.97457 89.62 8.98457 89.785V90.67H10.9496V98.86H8.50457V100ZM17.5749 100.21C18.1299 100.21 18.5799 99.775 18.5799 99.16C18.5799 98.53 18.1299 98.11 17.5749 98.11C17.0349 98.11 16.5999 98.53 16.5999 99.16C16.5999 99.775 17.0349 100.21 17.5749 100.21ZM23.8497 100.21C25.9197 100.21 27.2547 98.305 27.2547 94.465C27.2547 90.655 25.9197 88.81 23.8497 88.81C21.7497 88.81 20.4147 90.655 20.4147 94.465C20.4147 98.305 21.7497 100.21 23.8497 100.21ZM23.8497 99.1C22.5897 99.1 21.7347 97.705 21.7347 94.465C21.7347 91.27 22.5897 89.905 23.8497 89.905C25.0947 89.905 25.9347 91.27 25.9347 94.465C25.9347 97.705 25.0947 99.1 23.8497 99.1Z" fill="#404040"/>
<path d="M49.32 301H55.35V299.86H53.13V290.005H52.08C51.495 290.365 50.79 290.62 49.8 290.785V291.67H51.765V299.86H49.32V301ZM60.5053 301.21C62.5603 301.21 63.9553 299.965 63.9553 298.36C63.9553 296.86 63.0553 296.02 62.0953 295.465V295.39C62.7553 294.88 63.5653 293.905 63.5653 292.735C63.5653 291.055 62.4253 289.855 60.5503 289.855C58.8253 289.855 57.5203 290.965 57.5203 292.63C57.5203 293.785 58.2103 294.625 59.0203 295.18V295.24C58.0153 295.78 56.9953 296.8 56.9953 298.285C56.9953 299.98 58.4803 301.21 60.5053 301.21ZM61.2553 295.045C59.9653 294.535 58.7803 293.95 58.7803 292.63C58.7803 291.58 59.5153 290.86 60.5203 290.86C61.7053 290.86 62.3953 291.73 62.3953 292.81C62.3953 293.635 62.0053 294.385 61.2553 295.045ZM60.5353 300.175C59.2153 300.175 58.2253 299.32 58.2253 298.15C58.2253 297.1 58.8403 296.23 59.7403 295.66C61.2853 296.29 62.6353 296.845 62.6353 298.315C62.6353 299.41 61.7953 300.175 60.5353 300.175ZM68.5556 301.21C70.4006 301.21 72.1556 299.83 72.1556 297.43C72.1556 295 70.6706 293.92 68.8406 293.92C68.1806 293.92 67.6856 294.085 67.1906 294.355L67.4756 291.175H71.6306V290.005H66.2756L65.9306 295.15L66.6656 295.615C67.2956 295.195 67.7606 294.955 68.4956 294.955C69.8606 294.955 70.7606 295.9 70.7606 297.475C70.7606 299.065 69.7256 300.07 68.4206 300.07C67.1606 300.07 66.3506 299.485 65.7356 298.84L65.0456 299.74C65.7956 300.49 66.8456 301.21 68.5556 301.21ZM77.1309 301.21C79.2009 301.21 80.5359 299.305 80.5359 295.465C80.5359 291.655 79.2009 289.81 77.1309 289.81C75.0309 289.81 73.6959 291.655 73.6959 295.465C73.6959 299.305 75.0309 301.21 77.1309 301.21ZM77.1309 300.1C75.8709 300.1 75.0159 298.705 75.0159 295.465C75.0159 292.27 75.8709 290.905 77.1309 290.905C78.3759 290.905 79.2159 292.27 79.2159 295.465C79.2159 298.705 78.3759 300.1 77.1309 300.1ZM85.4363 288.355C84.7013 290.38 83.4563 292.33 82.0313 293.575C82.3163 293.725 82.7813 294.1 83.0063 294.295C84.4013 292.945 85.7363 290.86 86.5613 288.64L85.4363 288.355ZM85.1963 290.215L84.6563 291.31H94.8713V290.215H85.1963ZM84.4613 293.62V298.225H85.5863V294.67H94.5413V293.62H84.4613ZM81.9863 297.655V298.75H95.5763V297.655H81.9863ZM88.9613 290.785V302.215H90.1163V290.785H88.9613Z" fill="#404040"/>
<path d="M169.32 301H175.35V299.86H173.13V290.005H172.08C171.495 290.365 170.79 290.62 169.8 290.785V291.67H171.765V299.86H169.32V301ZM179.83 301.21C181.9 301.21 183.82 299.5 183.82 295.03C183.82 291.535 182.245 289.81 180.13 289.81C178.42 289.81 176.98 291.25 176.98 293.38C176.98 295.66 178.165 296.83 180.01 296.83C180.955 296.83 181.93 296.26 182.62 295.39L182.545 294.295C181.825 295.39 180.97 295.825 180.235 295.825C178.93 295.825 178.27 294.85 178.27 293.38C178.27 291.865 179.08 290.875 180.13 290.875C181.675 290.875 182.53 292.33 182.53 295.03C182.53 298.795 181.255 300.07 179.785 300.07C179.08 300.07 178.405 299.755 177.94 299.215L177.175 300.085C177.79 300.73 178.63 301.21 179.83 301.21ZM188.811 301.21C190.881 301.21 192.216 299.305 192.216 295.465C192.216 291.655 190.881 289.81 188.811 289.81C186.711 289.81 185.376 291.655 185.376 295.465C185.376 299.305 186.711 301.21 188.811 301.21ZM188.811 300.1C187.551 300.1 186.696 298.705 186.696 295.465C186.696 292.27 187.551 290.905 188.811 290.905C190.056 290.905 190.896 292.27 190.896 295.465C190.896 298.705 190.056 300.1 188.811 300.1ZM197.131 301.21C199.201 301.21 200.536 299.305 200.536 295.465C200.536 291.655 199.201 289.81 197.131 289.81C195.031 289.81 193.696 291.655 193.696 295.465C193.696 299.305 195.031 301.21 197.131 301.21ZM197.131 300.1C195.871 300.1 195.016 298.705 195.016 295.465C195.016 292.27 195.871 290.905 197.131 290.905C198.376 290.905 199.216 292.27 199.216 295.465C199.216 298.705 198.376 300.1 197.131 300.1Z" fill="#404040"/>
<path d="M284.32 301H290.35V299.86H288.13V290.005H287.08C286.495 290.365 285.79 290.62 284.8 290.785V291.67H286.765V299.86H284.32V301ZM294.83 301.21C296.9 301.21 298.82 299.5 298.82 295.03C298.82 291.535 297.245 289.81 295.13 289.81C293.42 289.81 291.98 291.25 291.98 293.38C291.98 295.66 293.165 296.83 295.01 296.83C295.955 296.83 296.93 296.26 297.62 295.39L297.545 294.295C296.825 295.39 295.97 295.825 295.235 295.825C293.93 295.825 293.27 294.85 293.27 293.38C293.27 291.865 294.08 290.875 295.13 290.875C296.675 290.875 297.53 292.33 297.53 295.03C297.53 298.795 296.255 300.07 294.785 300.07C294.08 300.07 293.405 299.755 292.94 299.215L292.175 300.085C292.79 300.73 293.63 301.21 294.83 301.21ZM303.556 301.21C305.401 301.21 307.156 299.83 307.156 297.43C307.156 295 305.671 293.92 303.841 293.92C303.181 293.92 302.686 294.085 302.191 294.355L302.476 291.175H306.631V290.005H301.276L300.931 295.15L301.666 295.615C302.296 295.195 302.761 294.955 303.496 294.955C304.861 294.955 305.761 295.9 305.761 297.475C305.761 299.065 304.726 300.07 303.421 300.07C302.161 300.07 301.351 299.485 300.736 298.84L300.046 299.74C300.796 300.49 301.846 301.21 303.556 301.21ZM312.131 301.21C314.201 301.21 315.536 299.305 315.536 295.465C315.536 291.655 314.201 289.81 312.131 289.81C310.031 289.81 308.696 291.655 308.696 295.465C308.696 299.305 310.031 301.21 312.131 301.21ZM312.131 300.1C310.871 300.1 310.016 298.705 310.016 295.465C310.016 292.27 310.871 290.905 312.131 290.905C313.376 290.905 314.216 292.27 314.216 295.465C314.216 298.705 313.376 300.1 312.131 300.1Z" fill="#404040"/>
<path d="M394.66 301H401.56V299.83H398.515C397.96 299.83 397.3 299.875 396.715 299.935C399.31 297.49 401.035 295.255 401.035 293.05C401.035 291.085 399.805 289.81 397.84 289.81C396.445 289.81 395.485 290.455 394.585 291.43L395.38 292.195C395.995 291.475 396.775 290.92 397.675 290.92C399.04 290.92 399.685 291.85 399.685 293.11C399.685 294.985 398.11 297.19 394.66 300.205V301ZM406.49 301.21C408.56 301.21 409.895 299.305 409.895 295.465C409.895 291.655 408.56 289.81 406.49 289.81C404.39 289.81 403.055 291.655 403.055 295.465C403.055 299.305 404.39 301.21 406.49 301.21ZM406.49 300.1C405.23 300.1 404.375 298.705 404.375 295.465C404.375 292.27 405.23 290.905 406.49 290.905C407.735 290.905 408.575 292.27 408.575 295.465C408.575 298.705 407.735 300.1 406.49 300.1ZM414.811 301.21C416.881 301.21 418.216 299.305 418.216 295.465C418.216 291.655 416.881 289.81 414.811 289.81C412.711 289.81 411.376 291.655 411.376 295.465C411.376 299.305 412.711 301.21 414.811 301.21ZM414.811 300.1C413.551 300.1 412.696 298.705 412.696 295.465C412.696 292.27 413.551 290.905 414.811 290.905C416.056 290.905 416.896 292.27 416.896 295.465C416.896 298.705 416.056 300.1 414.811 300.1ZM423.131 301.21C425.201 301.21 426.536 299.305 426.536 295.465C426.536 291.655 425.201 289.81 423.131 289.81C421.031 289.81 419.696 291.655 419.696 295.465C419.696 299.305 421.031 301.21 423.131 301.21ZM423.131 300.1C421.871 300.1 421.016 298.705 421.016 295.465C421.016 292.27 421.871 290.905 423.131 290.905C424.376 290.905 425.216 292.27 425.216 295.465C425.216 298.705 424.376 300.1 423.131 300.1Z" fill="#404040"/>
<path d="M1.56 64.42V65.53H13.38V64.42H1.56ZM0.78 70.795V71.92H14.235V70.795H0.78ZM2.61 66.565C3.18 67.675 3.765 69.13 3.975 70.015L5.055 69.655C4.845 68.77 4.23 67.345 3.615 66.25L2.61 66.565ZM11.31 66.19C10.95 67.27 10.245 68.815 9.69 69.76L10.65 70.075C11.235 69.175 11.94 67.735 12.51 66.52L11.31 66.19ZM6.885 64.855V77.2H8.04V64.855H6.885ZM21.435 72.535V73.555H26.535V72.535H21.435ZM21.78 69.115V70.135H26.28V69.115H21.78ZM22.23 65.89V66.97H28.41V65.89H22.23ZM28.02 65.89V66.16C27.81 72.865 27.57 75.355 27.06 75.895C26.895 76.09 26.715 76.135 26.415 76.135C26.055 76.135 25.14 76.135 24.135 76.03C24.33 76.36 24.48 76.855 24.495 77.17C25.41 77.23 26.34 77.245 26.85 77.2C27.405 77.14 27.75 77.005 28.08 76.57C28.695 75.835 28.905 73.42 29.13 66.49C29.13 66.34 29.145 65.89 29.145 65.89H28.02ZM22.83 63.415C22.17 65.59 21.09 67.735 19.77 69.085C20.055 69.25 20.565 69.55 20.805 69.73C22.05 68.275 23.235 66.025 23.97 63.7L22.83 63.415ZM15.75 67.18V68.26H20.55V67.18H15.75ZM17.7 63.715V73.705H18.78V63.715H17.7ZM15.495 74.395L15.93 75.52C17.34 74.83 19.215 73.93 20.94 73.06L20.655 72.025C18.765 72.925 16.785 73.855 15.495 74.395ZM35.1 71.125V76.285H36.135V72.1H37.59V76.285H38.475V72.1H39.945V76.285H40.845V72.1H42.33V76.285H43.395V71.125H35.1ZM33.75 75.775V76.765H44.43V75.775H33.75ZM31.335 64.36C32.235 64.795 33.345 65.515 33.87 66.055L34.53 65.14C33.99 64.615 32.88 63.94 31.965 63.535L31.335 64.36ZM30.555 68.41C31.485 68.815 32.595 69.475 33.135 69.985L33.795 69.055C33.225 68.56 32.1 67.93 31.185 67.555L30.555 68.41ZM30.915 76.315L31.905 77.005C32.67 75.61 33.57 73.75 34.23 72.16L33.345 71.485C32.61 73.195 31.62 75.16 30.915 76.315ZM36.675 64.99H41.775V69.115H36.675V64.99ZM35.655 64.105V70H42.855V64.105H35.655ZM38.985 65.26C38.79 66.4 38.115 67.585 36.975 68.23C37.14 68.365 37.38 68.635 37.485 68.785C38.76 68.08 39.555 66.715 39.81 65.35L38.985 65.26ZM38.655 66.805C39.39 67.405 40.32 68.26 40.77 68.785L41.355 68.26C40.89 67.75 39.96 66.94 39.225 66.37L38.655 66.805ZM48.375 67.66V68.575H59.04V67.66H48.375ZM48.585 72.025V72.955H57.165V72.025H48.585ZM50.79 66.355V71.065H56.61V66.355H55.515V70.18H51.855V66.355H50.79ZM56.865 72.025V72.19C55.47 74.71 51.69 75.82 47.865 76.165C48.045 76.42 48.24 76.855 48.33 77.11C52.41 76.645 56.325 75.43 58.005 72.37L57.3 71.98L57.09 72.025H56.865ZM50.985 72.79L50.01 73.165C51.735 75.505 54.945 76.75 58.77 77.2C58.905 76.915 59.175 76.465 59.415 76.225C55.68 75.88 52.47 74.77 50.985 72.79ZM47.415 64.9V65.95H59.22V64.9H47.415ZM46.89 64.9V68.98C46.89 71.23 46.77 74.425 45.54 76.69C45.825 76.78 46.335 77.02 46.56 77.2C47.82 74.83 48 71.365 48 68.98V64.9H46.89ZM52.095 63.595C52.425 64.21 52.77 65.05 52.905 65.575L54.09 65.245C53.955 64.735 53.565 63.94 53.22 63.325L52.095 63.595ZM63.585 78.955L64.425 78.565C63.135 76.435 62.505 73.9 62.505 71.35C62.505 68.8 63.135 66.265 64.425 64.135L63.585 63.73C62.19 65.98 61.365 68.41 61.365 71.35C61.365 74.305 62.19 76.705 63.585 78.955ZM67.8734 68.845C68.9984 68.845 69.9884 68.005 69.9884 66.715C69.9884 65.395 68.9984 64.555 67.8734 64.555C66.7484 64.555 65.7584 65.395 65.7584 66.715C65.7584 68.005 66.7484 68.845 67.8734 68.845ZM67.8734 68.065C67.1234 68.065 66.6134 67.495 66.6134 66.715C66.6134 65.905 67.1234 65.335 67.8734 65.335C68.6084 65.335 69.1484 65.905 69.1484 66.715C69.1484 67.495 68.6084 68.065 67.8734 68.065ZM76.0934 76.21C77.4734 76.21 78.5534 75.64 79.4234 74.62L78.6134 73.75C77.9234 74.515 77.1584 74.935 76.1234 74.935C74.0384 74.935 72.7484 73.24 72.7484 70.495C72.7484 67.78 74.0984 66.085 76.1834 66.085C77.0834 66.085 77.7884 66.475 78.3734 67.09L79.1684 66.19C78.5234 65.485 77.4734 64.84 76.1534 64.84C73.3484 64.84 71.2634 66.985 71.2634 70.54C71.2634 74.11 73.3034 76.21 76.0934 76.21ZM81.5534 78.955C82.9334 76.705 83.7584 74.305 83.7584 71.35C83.7584 68.41 82.9334 65.98 81.5534 63.73L80.6984 64.135C81.9884 66.265 82.6184 68.8 82.6184 71.35C82.6184 73.9 81.9884 76.435 80.6984 78.565L81.5534 78.955ZM86.6517 65.425V66.415H98.7117V65.425H86.6517ZM87.3717 67.735V68.695H97.9617V67.735H87.3717ZM88.7667 75.835V76.84H98.9817V75.835H88.7667ZM85.9617 70.06V71.065H99.2817V70.06H85.9617ZM90.2067 72.205V73.195H97.9917V72.205H90.2067ZM92.0367 65.92V70.765H93.1917V65.92H92.0367ZM93.2367 72.685V76.27H94.3767V72.685H93.2367ZM88.6917 63.835C89.1717 64.435 89.6667 65.23 89.8617 65.785L90.8817 65.32C90.6567 64.795 90.1617 64.015 89.6667 63.445L88.6917 63.835ZM95.4867 63.385C95.2467 63.97 94.7667 64.825 94.3917 65.38L95.3367 65.71C95.7417 65.2 96.2367 64.45 96.6867 63.73L95.4867 63.385ZM89.1567 70.48C88.6317 73.075 87.5067 75.175 85.7067 76.435C85.9917 76.615 86.4567 77.005 86.6517 77.215C88.4667 75.79 89.7117 73.54 90.3267 70.66L89.1567 70.48ZM108.882 75.37C110.577 75.94 112.332 76.675 113.382 77.23L114.312 76.42C113.172 75.865 111.312 75.145 109.602 74.605L108.882 75.37ZM100.932 73.45V74.44H114.357V73.45H100.932ZM101.892 70.735V71.725H113.472V70.735H101.892ZM104.547 69.07V73.885H105.672V69.07H104.547ZM107.022 64.45V68.935H108.132V64.45H107.022ZM109.587 69.07V73.885H110.727V69.07H109.587ZM103.482 67.06H111.777V68.425H103.482V67.06ZM103.482 64.885H111.777V66.22H103.482V64.885ZM102.402 64V69.31H112.917V64H102.402ZM105.492 74.62C104.517 75.265 102.582 75.985 101.037 76.375C101.277 76.6 101.592 76.99 101.757 77.23C103.347 76.81 105.267 76.06 106.497 75.295L105.492 74.62ZM121.407 73.18C122.982 72.64 124.002 71.41 124.002 69.79C124.002 68.74 123.552 68.05 122.712 68.05C122.112 68.05 121.572 68.425 121.572 69.13C121.572 69.835 122.082 70.21 122.697 70.21C122.982 70.21 123.282 70.135 123.492 69.865L122.682 68.725L122.967 69.985C122.967 71.125 122.292 71.89 121.062 72.385L121.407 73.18ZM135.597 65.77C136.557 66.88 137.532 68.425 137.922 69.46L139.002 68.875C138.567 67.855 137.607 66.37 136.602 65.275L135.597 65.77ZM130.662 74.41L131.067 75.58C132.732 74.86 135.012 73.855 137.097 72.895L136.842 71.8C134.592 72.79 132.192 73.81 130.662 74.41ZM139.662 72.43C141.102 73.9 142.902 75.925 143.742 77.17L144.702 76.285C143.817 75.055 141.957 73.105 140.532 71.695L139.662 72.43ZM141.747 64.18C141.072 70.705 139.482 74.38 134.292 76.27C134.577 76.51 135.027 77.005 135.192 77.245C140.442 75.055 142.197 71.23 142.962 64.3L141.747 64.18ZM132.492 64.225L132.747 74.14L133.902 74.095L133.647 64.18L132.492 64.225ZM146.457 76H152.487V74.86H150.267V65.005H149.217C148.632 65.365 147.927 65.62 146.937 65.785V66.67H148.902V74.86H146.457V76ZM156.967 76.21C159.037 76.21 160.957 74.5 160.957 70.03C160.957 66.535 159.382 64.81 157.267 64.81C155.557 64.81 154.117 66.25 154.117 68.38C154.117 70.66 155.302 71.83 157.147 71.83C158.092 71.83 159.067 71.26 159.757 70.39L159.682 69.295C158.962 70.39 158.107 70.825 157.372 70.825C156.067 70.825 155.407 69.85 155.407 68.38C155.407 66.865 156.217 65.875 157.267 65.875C158.812 65.875 159.667 67.33 159.667 70.03C159.667 73.795 158.392 75.07 156.922 75.07C156.217 75.07 155.542 74.755 155.077 74.215L154.312 75.085C154.927 75.73 155.767 76.21 156.967 76.21ZM166.292 76.21C167.987 76.21 169.442 74.77 169.442 72.64C169.442 70.33 168.242 69.19 166.382 69.19C165.497 69.19 164.477 69.73 163.802 70.615L163.847 71.71C164.582 70.615 165.467 70.195 166.172 70.195C167.492 70.195 168.152 71.14 168.152 72.64C168.152 74.125 167.342 75.13 166.292 75.13C164.747 75.13 163.892 73.585 163.892 70.765C163.892 67.165 165.182 65.95 166.727 65.95C167.387 65.95 168.062 66.265 168.482 66.775L169.247 65.935C168.647 65.29 167.807 64.81 166.667 64.81C164.537 64.81 162.602 66.46 162.602 70.765C162.602 74.395 164.177 76.21 166.292 76.21ZM174.268 76.21C176.338 76.21 177.673 74.305 177.673 70.465C177.673 66.655 176.338 64.81 174.268 64.81C172.168 64.81 170.833 66.655 170.833 70.465C170.833 74.305 172.168 76.21 174.268 76.21ZM174.268 75.1C173.008 75.1 172.153 73.705 172.153 70.465C172.153 67.27 173.008 65.905 174.268 65.905C175.513 65.905 176.353 67.27 176.353 70.465C176.353 73.705 175.513 75.1 174.268 75.1ZM179.108 72.34H182.948V71.29H179.108V72.34ZM184.938 76H190.968V74.86H188.748V65.005H187.698C187.113 65.365 186.408 65.62 185.418 65.785V66.67H187.383V74.86H184.938V76ZM195.448 76.21C197.518 76.21 199.438 74.5 199.438 70.03C199.438 66.535 197.863 64.81 195.748 64.81C194.038 64.81 192.598 66.25 192.598 68.38C192.598 70.66 193.783 71.83 195.628 71.83C196.573 71.83 197.548 71.26 198.238 70.39L198.163 69.295C197.443 70.39 196.588 70.825 195.853 70.825C194.548 70.825 193.888 69.85 193.888 68.38C193.888 66.865 194.698 65.875 195.748 65.875C197.293 65.875 198.148 67.33 198.148 70.03C198.148 73.795 196.873 75.07 195.403 75.07C194.698 75.07 194.023 74.755 193.558 74.215L192.793 75.085C193.408 75.73 194.248 76.21 195.448 76.21ZM203.769 76.21C205.839 76.21 207.759 74.5 207.759 70.03C207.759 66.535 206.184 64.81 204.069 64.81C202.359 64.81 200.919 66.25 200.919 68.38C200.919 70.66 202.104 71.83 203.949 71.83C204.894 71.83 205.869 71.26 206.559 70.39L206.484 69.295C205.764 70.39 204.909 70.825 204.174 70.825C202.869 70.825 202.209 69.85 202.209 68.38C202.209 66.865 203.019 65.875 204.069 65.875C205.614 65.875 206.469 67.33 206.469 70.03C206.469 73.795 205.194 75.07 203.724 75.07C203.019 75.07 202.344 74.755 201.879 74.215L201.114 75.085C201.729 75.73 202.569 76.21 203.769 76.21ZM212.749 76.21C214.819 76.21 216.154 74.305 216.154 70.465C216.154 66.655 214.819 64.81 212.749 64.81C210.649 64.81 209.314 66.655 209.314 70.465C209.314 74.305 210.649 76.21 212.749 76.21ZM212.749 75.1C211.489 75.1 210.634 73.705 210.634 70.465C210.634 67.27 211.489 65.905 212.749 65.905C213.994 65.905 214.834 67.27 214.834 70.465C214.834 73.705 213.994 75.1 212.749 75.1ZM221.054 63.355C220.319 65.38 219.074 67.33 217.649 68.575C217.934 68.725 218.399 69.1 218.624 69.295C220.019 67.945 221.354 65.86 222.179 63.64L221.054 63.355ZM220.814 65.215L220.274 66.31H230.489V65.215H220.814ZM220.079 68.62V73.225H221.204V69.67H230.159V68.62H220.079ZM217.604 72.655V73.75H231.194V72.655H217.604ZM224.579 65.785V77.215H225.734V65.785H224.579ZM235.049 71.395V72.385H245.264V71.395H235.049ZM233.114 65.98V67.015H242.924V65.98H233.114ZM237.344 68.68V69.685H244.214V68.68H237.344ZM244.784 71.395V71.575C244.544 74.56 244.259 75.745 243.914 76.09C243.779 76.21 243.629 76.24 243.344 76.24C243.059 76.24 242.339 76.24 241.589 76.15C241.769 76.45 241.889 76.885 241.904 77.2C242.684 77.23 243.434 77.245 243.809 77.215C244.259 77.185 244.544 77.08 244.829 76.795C245.309 76.3 245.594 75.055 245.864 71.89C245.894 71.725 245.909 71.395 245.909 71.395H244.784ZM241.454 73.195C241.904 73.825 242.369 74.695 242.564 75.235L243.389 74.89C243.194 74.35 242.729 73.51 242.249 72.895L241.454 73.195ZM234.974 63.85C235.559 64.48 236.189 65.365 236.444 65.95L237.494 65.47C237.194 64.9 236.534 64.045 235.949 63.445L234.974 63.85ZM237.014 73.57C237.269 74.545 237.434 75.775 237.404 76.585L238.394 76.45C238.394 75.64 238.229 74.395 237.929 73.45L237.014 73.57ZM239.219 73.435C239.594 74.26 239.954 75.355 240.059 76.075L240.989 75.82C240.869 75.115 240.494 74.05 240.104 73.225L239.219 73.435ZM235.094 73.225C234.794 74.38 234.224 75.715 233.384 76.51L234.254 77.125C235.169 76.21 235.694 74.785 236.039 73.54L235.094 73.225ZM239.519 63.4C238.379 67.285 236.069 71.125 232.349 73.24C232.544 73.48 232.829 73.93 232.964 74.2C236.939 71.845 239.294 67.885 240.659 63.685L239.519 63.4ZM242.669 65.98C242.504 66.94 242.249 68.14 242.039 68.935L243.029 69.07C243.254 68.26 243.524 67.015 243.734 65.98H242.669ZM243.794 68.68C243.644 69.64 243.389 70.855 243.164 71.665L244.184 71.785C244.394 70.975 244.649 69.715 244.859 68.68H243.794ZM248.279 64.855V65.815H260.564V64.855H248.279ZM248.759 75.85V76.795H260.114V75.85H248.759ZM251.234 66.805V67.66H257.549V66.805H251.234ZM251.234 68.695V69.55H257.549V68.695H251.234ZM247.574 70.63V71.575H261.209V70.63H247.574ZM250.724 73.315V74.245H258.089V73.315H250.724ZM250.559 63.415V71.155H251.684V63.415H250.559ZM257.159 63.415V71.155H258.284V63.415H257.159ZM253.784 72.055V76.375H254.939V72.055H253.784ZM251.354 70.885C250.544 72.205 248.939 73.495 247.424 74.095C247.679 74.305 247.994 74.695 248.159 74.95C249.734 74.215 251.384 72.79 252.299 71.245L251.354 70.885ZM257.489 70.885L256.604 71.23C257.474 72.7 259.064 74.095 260.654 74.77C260.819 74.5 261.149 74.11 261.404 73.9C259.844 73.345 258.284 72.16 257.489 70.885ZM263.609 64.255C264.434 64.585 265.484 65.125 266.009 65.5L266.609 64.63C266.069 64.255 265.004 63.76 264.179 63.49L263.609 64.255ZM262.484 66.82C263.294 67.105 264.344 67.615 264.869 67.975L265.454 67.105C264.899 66.745 263.849 66.295 263.054 66.025L262.484 66.82ZM262.904 71.59L263.684 72.46C264.599 71.485 265.604 70.315 266.459 69.265L265.859 68.5C264.884 69.64 263.699 70.855 262.904 71.59ZM262.679 73.24V74.26H276.164V73.24H262.679ZM268.784 72.16V77.215H269.939V72.16H268.784ZM268.454 63.325C267.794 64.825 266.669 66.28 265.484 67.24C265.739 67.39 266.189 67.75 266.384 67.945C267.554 66.91 268.754 65.29 269.504 63.64L268.454 63.325ZM267.644 70.825V71.755H275.744V70.825H267.644ZM267.794 67.03V67.795H275.024V67.03H267.794ZM267.794 68.89V69.67H275.039V68.89H267.794ZM271.079 65.425V71.35H272.159V65.425H271.079ZM270.599 63.76C270.914 64.33 271.244 65.095 271.394 65.56L272.534 65.215C272.369 64.75 271.994 64.015 271.694 63.475L270.599 63.76ZM268.364 65.02H267.944L267.269 65.725V72.4H268.364V65.905H275.489V65.02H268.364Z" fill="#404040"/>
<path d="M65 220.23L67 206.23L70 207.73L72 211.23L73.5 207.73L77 211.23L81 228.23H82.5L85 212.23L89 224.73L92.5 236.23L94.5 211.23L96.5 236.23L99 211.23L101.5 208.73L104 216.23L105.5 208.73L110.5 211.23L112.5 218.73L114.5 206.23L117.5 217.23L121 222.23H124L125.5 192.73L127.5 182.23L130 206.23H132L134.5 203.23L137 204.73L142 223.23L146 220.23L147.5 224.73L153 198.23L154.5 226.73L157.5 216.23L159 226.73L161.5 230.73L163 224.73L166 222.23L168.5 203.23L171 206.23L173 224.73L177 204.73L180.5 211.23L182 224.73L186.5 236.23L188 220.23L191 212.23L193 226.73L197.5 233.73L199.5 230.73L202 236.23L204 226.73L206.5 224.73L211 198.23L213.5 222.23L215.5 229.23L217 216.23L218.5 212.23L221.5 207.73L224.5 201.23L227 214.73L229 212.23H232L236 195.73L238 204.73H240.5L242.5 220.23L244.5 198.23L246.5 192.73L249.5 198.23L251.5 212.23L253.5 198.23L255.5 201.23L258.5 198.23L260.5 188.73L263 186.73L265.5 192.73L267.5 184.23H270L271.5 188.73L273 186.73L277 172.73L280.5 192.73L283.5 188.73L286 189.73L289 203.23L293 185.23L296 175.73L299 198.23L303.5 212.23L305.5 186.73L307.5 180.23L312 190.73L313.5 182.23L316 184.23L319 180.23L321 207.73L326 192.73H329L330 197.23L333.5 182.23L337 204.73L341.5 178.73L343 206.23L346 198.23L348 207.73L350.5 178.73L353 192.73L354.5 178.73L359 172.73L361 186.73L363 165.23L366 186.73L369.5 189.73L371 178.73L373 168.23H375.5L377 175.73L380 157.73L383 162.23V175.73L387 168.23L390.5 154.73L392.5 169.73L397.5 133.23L399.5 157.73L402 159.23L404.5 145.73L407.5 138.73L410.5 144.23L413.5 135.73L417.5 140.73L420.5 149.73L422 138.73L425 133.23L426.5 147.73L432 135.73L435 124.23V114.23L438.5 111.73L442 130.73L445 118.73" stroke="#285F92" stroke-width="2" stroke-linecap="round"/>
</svg>
