<svg width="469" height="329" viewBox="0 0 469 329" fill="none" xmlns="http://www.w3.org/2000/svg">
<rect width="469" height="329" fill="#FAFAFA"/>
<path d="M11.22 22.14V24.18H16.48V22.14H11.22ZM9.14 31.3V38.8H11.36V33.32H15.56V38.74H17.88V31.3H9.14ZM10.04 36.06V38.12H16.82V36.06H10.04ZM11.44 20C10.54 22.36 8.92 24.64 7.1 26.04C7.62 26.4 8.54 27.24 8.94 27.66C10.78 26.02 12.62 23.38 13.72 20.64L11.44 20ZM15.86 22.14V22.52C14.58 26.52 10.9 29.58 6.76 30.86C7.22 31.32 7.82 32.22 8.1 32.8C12.64 31.1 16.54 27.86 18.2 22.74L16.68 22.06L16.28 22.14H15.86ZM11.3 23.52L9.52 24.44C10.94 27.5 13.9 30.8 18.22 32.34C18.54 31.74 19.22 30.8 19.7 30.34C15.46 29.16 12.58 26.2 11.3 23.52ZM0.88 24.14V26.38H8.04V24.14H0.88ZM3.54 20.02V38.8H5.8V20.02H3.54ZM3.48 25.68C2.98 28.24 1.76 31.36 0.4 33.1C0.78 33.68 1.32 34.62 1.52 35.28C3.02 33.22 4.26 29.38 4.86 26.16L3.48 25.68ZM5.72 26.76L4.64 27.76C5.22 28.58 6.4 30.48 6.88 31.46L8.18 29.66C7.82 29.18 6.18 27.2 5.72 26.76ZM31.94 20.02V25.78H34.28V20.02H31.94ZM28.44 21.6V23.52H38.04V21.6H28.44ZM27.18 24.88V26.84H39.22V24.88H27.18ZM29.98 26.52C29.76 27.78 29.2 28.66 27.08 29.2C27.52 29.58 28.08 30.38 28.3 30.9C30.98 29.98 31.76 28.54 32.08 26.52H29.98ZM33.98 26.16V27.48C33.98 29.24 34.38 29.92 36.24 29.92C36.54 29.92 37.44 29.92 37.76 29.92C38.22 29.92 38.72 29.9 39.02 29.78C38.96 29.28 38.9 28.5 38.86 27.96C38.58 28.04 38.02 28.08 37.7 28.08C37.44 28.08 36.64 28.08 36.4 28.08C36.12 28.08 36.06 27.92 36.06 27.5V26.16H33.98ZM31.2 29.04C30.44 31.08 28.86 32.78 26.94 33.82C27.4 34.18 28.2 35.02 28.52 35.44C30.56 34.14 32.38 32.06 33.36 29.54L31.2 29.04ZM30.8 30.84V32.76H36.22V30.84H30.8ZM35.62 30.84V31.24C34.72 34.06 31.48 36.08 26.02 37C26.52 37.5 27.1 38.34 27.36 38.92C33.2 37.76 36.76 35.28 38.08 31.44L36.5 30.76L36.08 30.84H35.62ZM29.48 30.74L27.78 31.58C29.28 34.92 32.6 37.76 38.4 38.74C38.68 38.14 39.26 37.2 39.72 36.72C34.04 36.04 30.8 33.6 29.48 30.74ZM21.3 20.8V38.74H23.38V22.94H25.9V20.8H21.3ZM25.28 20.8V21.48C24.98 22.74 24.36 25.34 23.8 27.12C24.94 28.52 25.18 29.82 25.18 30.78C25.18 31.36 25.08 31.8 24.84 31.98C24.7 32.08 24.5 32.14 24.3 32.14C24.06 32.16 23.78 32.14 23.44 32.12C23.76 32.7 23.94 33.6 23.96 34.18C24.42 34.18 24.9 34.18 25.26 34.14C25.7 34.06 26.08 33.94 26.4 33.7C27.04 33.22 27.3 32.34 27.3 31.04C27.3 29.86 27.04 28.44 25.84 26.86C26.42 25.32 27.06 23.3 27.58 21.62L26 20.72L25.66 20.8H25.28ZM45.08 29.6V30.84H54.96V29.6H45.08ZM48.48 34.72C47.64 35.54 46 36.34 44.58 36.72C44.98 37.06 45.54 37.7 45.82 38.12C47.3 37.56 48.92 36.36 49.84 35.26L48.48 34.72ZM43.32 25.96V27.06H47.62V25.96H43.32ZM52.28 25.96V27.1H56.66V25.96H52.28ZM43.32 24.04V25.4H47.1V27.64H43.32V28.98H49.22V24.04H43.32ZM56.74 24.04H50.56V29.02H56.74V27.64H52.72V25.42H56.74V24.04ZM41.86 24.04V38.8H44.1V24.04H41.86ZM55.88 24.04V36.44C55.88 36.66 55.82 36.74 55.58 36.74C55.38 36.74 54.72 36.74 54.12 36.72C54.4 37.24 54.7 38.1 54.78 38.66C55.92 38.66 56.76 38.64 57.36 38.3C57.98 37.96 58.16 37.44 58.16 36.44V24.04H55.88ZM47.1 32.54H52.8V34.08H47.1V32.54ZM45.56 31.34V35.28H54.4V31.34H45.56ZM47.38 32.92C47.6 33.28 47.9 33.76 48.04 34.08L48.94 33.7C48.78 33.4 48.46 32.92 48.22 32.6L47.38 32.92ZM51.6 32.56C51.46 32.88 51.14 33.4 50.9 33.78L51.66 34.1C51.92 33.8 52.2 33.42 52.52 32.96L51.6 32.56ZM51 34.76L50.14 35.5C50.94 36.04 52.74 37.4 53.4 38.02L54.34 36.7C53.84 36.36 51.64 35.08 51 34.76ZM48.98 28.76V32.04H50.84V28.76H48.98ZM49.18 31.62V34.76H49V38.44H50.84V34.76H50.66V31.62H49.18ZM41.04 20.9V22.88H49.62V20.9H41.04ZM44.68 20V23.72H47.06V20H44.68ZM53.08 20V23.74H55.46V20H53.08ZM50.34 20.9V22.88H58.94V20.9H50.34ZM63.58 20.74V22.9H79.02V20.74H63.58ZM63.8 36.32V38.3H79.06V36.32H63.8ZM71.7 32.8V34.64H77.34V32.8H71.7ZM62 20.74V26.92C62 30.08 61.88 34.58 60.38 37.66C60.96 37.86 61.96 38.42 62.4 38.76C64.02 35.46 64.26 30.34 64.26 26.92V20.74H62ZM70.44 31.16V37.44H72.76V31.16H70.44ZM65.96 32.56V37.46H68.26V32.56H65.96ZM64.66 25.98V27.64H70.88V25.98H64.66ZM66.84 23.92V31.28H68.8V23.92H66.84ZM66.6 26.72C65.96 27.92 64.76 29.22 63.62 29.86C64.04 30.2 64.62 30.84 64.9 31.3C66.08 30.4 67.26 28.74 67.9 27.2L66.6 26.72ZM71.38 25.98V27.64H78.56V25.98H71.38ZM73.72 23.92V31.28H75.72V23.92H73.72ZM73.24 26.7C72.66 27.9 71.48 29.18 70.34 29.84C70.76 30.18 71.34 30.84 71.64 31.3C72.82 30.4 73.96 28.72 74.56 27.16L73.24 26.7ZM68.72 27.46L67.6 28.3C68.16 28.74 69.3 29.78 69.76 30.28L70.9 28.84C70.54 28.56 69.18 27.7 68.72 27.46ZM69.3 23.02C68.22 23.44 66.24 23.74 64.48 23.86C64.68 24.24 64.9 24.84 65 25.22C66.92 25.12 69.22 24.82 70.78 24.22L69.3 23.02ZM76.52 22.92C75.32 23.38 73.06 23.68 71.1 23.84C71.3 24.18 71.54 24.82 71.6 25.18C73.74 25.08 76.28 24.76 78 24.12L76.52 22.92ZM75.78 27.5L74.74 28.48C75.56 29.08 77.38 30.54 78.14 31.28L79.2 29.74C78.66 29.34 76.46 27.88 75.78 27.5ZM84.96 19.94C84.1 22.54 82.54 25.1 80.74 26.66C81.32 27 82.34 27.8 82.8 28.22C84.58 26.42 86.34 23.54 87.4 20.56L84.96 19.94ZM85.38 22.22L84.22 24.54H98.1V22.22H85.38ZM83.96 26.94V33.38H86.38V29.18H97.64V26.94H83.96ZM80.8 32.2V34.52H99.2V32.2H80.8ZM89.84 23.42V38.8H92.32V23.42H89.84ZM101.98 21.26V23.64H117.96V21.26H101.98ZM100.9 29.74V32.16H119.12V29.74H100.9ZM103.18 24.92C103.82 26.26 104.46 28.02 104.66 29.1L106.98 28.36C106.76 27.26 106.06 25.56 105.36 24.28L103.18 24.92ZM114.58 24.22C114.2 25.54 113.46 27.3 112.84 28.46L114.94 29.08C115.6 28.04 116.42 26.4 117.14 24.88L114.58 24.22ZM108.72 22.26V38.78H111.22V22.26H108.72ZM128.44 31.9V34.04H135.06V31.9H128.44ZM128.9 27.52V29.66H134.68V27.52H128.9ZM129.74 23.22V25.5H137.38V23.22H129.74ZM136.64 23.22V23.74C136.4 32.08 136.12 35.42 135.52 36.1C135.28 36.38 135.06 36.46 134.68 36.46C134.18 36.46 133.12 36.46 131.94 36.34C132.36 37.04 132.7 38.1 132.74 38.78C133.88 38.82 135.06 38.84 135.78 38.72C136.6 38.6 137.14 38.36 137.68 37.58C138.48 36.54 138.76 33.3 139.02 24.36C139.04 24.06 139.06 23.22 139.06 23.22H136.64ZM130.2 20C129.34 22.74 127.84 25.52 126.12 27.2C126.74 27.52 127.82 28.18 128.34 28.58C129.96 26.68 131.62 23.66 132.64 20.64L130.2 20ZM120.86 24.8V27.08H127.26V24.8H120.86ZM123.04 20.38V33.76H125.36V20.38H123.04ZM120.44 34.38L121.34 36.78C123.3 35.8 125.74 34.56 127.98 33.36L127.32 31.16C124.84 32.4 122.16 33.68 120.44 34.38ZM146.84 30.08V37.2H149V32.1H150.12V37.2H151.88V32.1H153.02V37.2H154.8V32.1H155.94V37.2H158.2V30.08H146.84ZM145.2 36.14V38.22H159.44V36.14H145.2ZM141.6 21.88C142.78 22.42 144.3 23.32 145 24L146.4 22.02C145.64 21.36 144.1 20.56 142.92 20.1L141.6 21.88ZM140.54 27.3C141.74 27.8 143.24 28.66 143.94 29.3L145.34 27.32C144.56 26.68 143.04 25.9 141.86 25.48L140.54 27.3ZM140.9 37.14L143.04 38.58C144.06 36.62 145.14 34.3 146.02 32.16L144.12 30.72C143.12 33.08 141.82 35.6 140.9 37.14ZM149.7 22.66H155.16V27.26H149.7V22.66ZM147.54 20.88V29.04H157.44V20.88H147.54ZM151.8 22.8C151.6 24.06 150.92 25.34 149.68 26.02C149.98 26.26 150.44 26.78 150.66 27.08C152.14 26.26 153.04 24.64 153.36 22.98L151.8 22.8ZM151.6 24.82C152.38 25.5 153.42 26.46 153.92 27.06L155.02 26.04C154.5 25.48 153.44 24.58 152.66 23.94L151.6 24.82ZM165 25.76V27.64H178.9V25.76H165ZM165.16 31.58V33.46H176.14V31.58H165.16ZM167.72 24.44V30.78H176V24.44H173.64V28.98H169.98V24.44H167.72ZM175.52 31.58V31.88C173.86 34.96 169.3 36.28 164.18 36.66C164.54 37.18 164.96 38.1 165.14 38.66C170.78 38.04 175.7 36.46 177.9 32.26L176.4 31.5L175.98 31.58H175.52ZM168.54 32.98L166.48 33.76C168.94 36.74 172.9 38.26 178.04 38.78C178.32 38.18 178.92 37.2 179.42 36.7C174.52 36.36 170.48 35.2 168.54 32.98ZM163.34 21.74V23.96H179.1V21.74H163.34ZM162.22 21.74V27.1C162.22 30.16 162.08 34.66 160.48 37.72C161.1 37.9 162.18 38.4 162.68 38.76C164.34 35.48 164.6 30.46 164.6 27.08V21.74H162.22ZM169.24 20.4C169.62 21.28 169.98 22.48 170.08 23.22L172.66 22.6C172.54 21.86 172.1 20.74 171.68 19.86L169.24 20.4Z" fill="#404040"/>
<path opacity="0.5" d="M42 278H464" stroke="#C7C7C7"/>
<g opacity="0.5">
<path d="M42 214H463.5" stroke="#C7C7C7"/>
<path d="M42 150H463.5" stroke="#C7C7C7"/>
<path d="M42 85H463.5" stroke="#C7C7C7"/>
</g>
<path d="M56 215.5L62 241.5L67.5 193L72.5 229L78 206.5L89 229H95L100.5 213L107.5 220.5L113 183.5L118 232L122.5 225.5L129.5 211.5L135 222.5L140.5 199L146.5 256L157.5 194.5L163 201.5L169 203L174.5 256L180.5 211.5L186 230L191 219L197.5 239L202.5 193L206.5 201.5L219.5 222.5L225 189.5L230.5 230L237 239L243 268.5L249 232L253 194.5L259.5 208L265 193L270 201.5L276 240L281 220.5L287 217L293 257.5L305 222.5L316 171L322 197L327 183.5L332.5 214L338 194.5L345.5 185.5L351 177.5L354.5 160.5L360 185.5L366 153.5L372.5 187L377.5 193L383 191.5L389 211.5L394 115L400.5 212.5L405.5 160.5L411 201.5L417 182L423 228L429 135.5L433 173.5L439 189.5L445.5 147.5L450 189.5" stroke="#285F92" stroke-width="2" stroke-linecap="round"/>
<path d="M92.32 302H98.35V300.86H96.13V291.005H95.08C94.495 291.365 93.79 291.62 92.8 291.785V292.67H94.765V300.86H92.32V302ZM102.83 302.21C104.9 302.21 106.82 300.5 106.82 296.03C106.82 292.535 105.245 290.81 103.13 290.81C101.42 290.81 99.9803 292.25 99.9803 294.38C99.9803 296.66 101.165 297.83 103.01 297.83C103.955 297.83 104.93 297.26 105.62 296.39L105.545 295.295C104.825 296.39 103.97 296.825 103.235 296.825C101.93 296.825 101.27 295.85 101.27 294.38C101.27 292.865 102.08 291.875 103.13 291.875C104.675 291.875 105.53 293.33 105.53 296.03C105.53 299.795 104.255 301.07 102.785 301.07C102.08 301.07 101.405 300.755 100.94 300.215L100.175 301.085C100.79 301.73 101.63 302.21 102.83 302.21ZM112.156 302.21C113.851 302.21 115.306 300.77 115.306 298.64C115.306 296.33 114.106 295.19 112.246 295.19C111.361 295.19 110.341 295.73 109.666 296.615L109.711 297.71C110.446 296.615 111.331 296.195 112.036 296.195C113.356 296.195 114.016 297.14 114.016 298.64C114.016 300.125 113.206 301.13 112.156 301.13C110.611 301.13 109.756 299.585 109.756 296.765C109.756 293.165 111.046 291.95 112.591 291.95C113.251 291.95 113.926 292.265 114.346 292.775L115.111 291.935C114.511 291.29 113.671 290.81 112.531 290.81C110.401 290.81 108.466 292.46 108.466 296.765C108.466 300.395 110.041 302.21 112.156 302.21ZM120.131 302.21C122.201 302.21 123.536 300.305 123.536 296.465C123.536 292.655 122.201 290.81 120.131 290.81C118.031 290.81 116.696 292.655 116.696 296.465C116.696 300.305 118.031 302.21 120.131 302.21ZM120.131 301.1C118.871 301.1 118.016 299.705 118.016 296.465C118.016 293.27 118.871 291.905 120.131 291.905C121.376 291.905 122.216 293.27 122.216 296.465C122.216 299.705 121.376 301.1 120.131 301.1ZM128.436 289.355C127.701 291.38 126.456 293.33 125.031 294.575C125.316 294.725 125.781 295.1 126.006 295.295C127.401 293.945 128.736 291.86 129.561 289.64L128.436 289.355ZM128.196 291.215L127.656 292.31H137.871V291.215H128.196ZM127.461 294.62V299.225H128.586V295.67H137.541V294.62H127.461ZM124.986 298.655V299.75H138.576V298.655H124.986ZM131.961 291.785V303.215H133.116V291.785H131.961Z" fill="#404040"/>
<path d="M209.32 302H215.35V300.86H213.13V291.005H212.08C211.495 291.365 210.79 291.62 209.8 291.785V292.67H211.765V300.86H209.32V302ZM219.83 302.21C221.9 302.21 223.82 300.5 223.82 296.03C223.82 292.535 222.245 290.81 220.13 290.81C218.42 290.81 216.98 292.25 216.98 294.38C216.98 296.66 218.165 297.83 220.01 297.83C220.955 297.83 221.93 297.26 222.62 296.39L222.545 295.295C221.825 296.39 220.97 296.825 220.235 296.825C218.93 296.825 218.27 295.85 218.27 294.38C218.27 292.865 219.08 291.875 220.13 291.875C221.675 291.875 222.53 293.33 222.53 296.03C222.53 299.795 221.255 301.07 219.785 301.07C219.08 301.07 218.405 300.755 217.94 300.215L217.175 301.085C217.79 301.73 218.63 302.21 219.83 302.21ZM228.826 302.21C230.881 302.21 232.276 300.965 232.276 299.36C232.276 297.86 231.376 297.02 230.416 296.465V296.39C231.076 295.88 231.886 294.905 231.886 293.735C231.886 292.055 230.746 290.855 228.871 290.855C227.146 290.855 225.841 291.965 225.841 293.63C225.841 294.785 226.531 295.625 227.341 296.18V296.24C226.336 296.78 225.316 297.8 225.316 299.285C225.316 300.98 226.801 302.21 228.826 302.21ZM229.576 296.045C228.286 295.535 227.101 294.95 227.101 293.63C227.101 292.58 227.836 291.86 228.841 291.86C230.026 291.86 230.716 292.73 230.716 293.81C230.716 294.635 230.326 295.385 229.576 296.045ZM228.856 301.175C227.536 301.175 226.546 300.32 226.546 299.15C226.546 298.1 227.161 297.23 228.061 296.66C229.606 297.29 230.956 297.845 230.956 299.315C230.956 300.41 230.116 301.175 228.856 301.175ZM237.131 302.21C239.201 302.21 240.536 300.305 240.536 296.465C240.536 292.655 239.201 290.81 237.131 290.81C235.031 290.81 233.696 292.655 233.696 296.465C233.696 300.305 235.031 302.21 237.131 302.21ZM237.131 301.1C235.871 301.1 235.016 299.705 235.016 296.465C235.016 293.27 235.871 291.905 237.131 291.905C238.376 291.905 239.216 293.27 239.216 296.465C239.216 299.705 238.376 301.1 237.131 301.1Z" fill="#404040"/>
<path d="M319.66 302H326.56V300.83H323.515C322.96 300.83 322.3 300.875 321.715 300.935C324.31 298.49 326.035 296.255 326.035 294.05C326.035 292.085 324.805 290.81 322.84 290.81C321.445 290.81 320.485 291.455 319.585 292.43L320.38 293.195C320.995 292.475 321.775 291.92 322.675 291.92C324.04 291.92 324.685 292.85 324.685 294.11C324.685 295.985 323.11 298.19 319.66 301.205V302ZM331.49 302.21C333.56 302.21 334.895 300.305 334.895 296.465C334.895 292.655 333.56 290.81 331.49 290.81C329.39 290.81 328.055 292.655 328.055 296.465C328.055 300.305 329.39 302.21 331.49 302.21ZM331.49 301.1C330.23 301.1 329.375 299.705 329.375 296.465C329.375 293.27 330.23 291.905 331.49 291.905C332.735 291.905 333.575 293.27 333.575 296.465C333.575 299.705 332.735 301.1 331.49 301.1ZM339.811 302.21C341.881 302.21 343.216 300.305 343.216 296.465C343.216 292.655 341.881 290.81 339.811 290.81C337.711 290.81 336.376 292.655 336.376 296.465C336.376 300.305 337.711 302.21 339.811 302.21ZM339.811 301.1C338.551 301.1 337.696 299.705 337.696 296.465C337.696 293.27 338.551 291.905 339.811 291.905C341.056 291.905 341.896 293.27 341.896 296.465C341.896 299.705 341.056 301.1 339.811 301.1ZM348.131 302.21C350.201 302.21 351.536 300.305 351.536 296.465C351.536 292.655 350.201 290.81 348.131 290.81C346.031 290.81 344.696 292.655 344.696 296.465C344.696 300.305 346.031 302.21 348.131 302.21ZM348.131 301.1C346.871 301.1 346.016 299.705 346.016 296.465C346.016 293.27 346.871 291.905 348.131 291.905C349.376 291.905 350.216 293.27 350.216 296.465C350.216 299.705 349.376 301.1 348.131 301.1Z" fill="#404040"/>
<path d="M433.66 302H440.56V300.83H437.515C436.96 300.83 436.3 300.875 435.715 300.935C438.31 298.49 440.035 296.255 440.035 294.05C440.035 292.085 438.805 290.81 436.84 290.81C435.445 290.81 434.485 291.455 433.585 292.43L434.38 293.195C434.995 292.475 435.775 291.92 436.675 291.92C438.04 291.92 438.685 292.85 438.685 294.11C438.685 295.985 437.11 298.19 433.66 301.205V302ZM445.49 302.21C447.56 302.21 448.895 300.305 448.895 296.465C448.895 292.655 447.56 290.81 445.49 290.81C443.39 290.81 442.055 292.655 442.055 296.465C442.055 300.305 443.39 302.21 445.49 302.21ZM445.49 301.1C444.23 301.1 443.375 299.705 443.375 296.465C443.375 293.27 444.23 291.905 445.49 291.905C446.735 291.905 447.575 293.27 447.575 296.465C447.575 299.705 446.735 301.1 445.49 301.1ZM450.301 302H457.201V300.83H454.156C453.601 300.83 452.941 300.875 452.356 300.935C454.951 298.49 456.676 296.255 456.676 294.05C456.676 292.085 455.446 290.81 453.481 290.81C452.086 290.81 451.126 291.455 450.226 292.43L451.021 293.195C451.636 292.475 452.416 291.92 453.316 291.92C454.681 291.92 455.326 292.85 455.326 294.11C455.326 295.985 453.751 298.19 450.301 301.205V302ZM462.131 302.21C464.201 302.21 465.536 300.305 465.536 296.465C465.536 292.655 464.201 290.81 462.131 290.81C460.031 290.81 458.696 292.655 458.696 296.465C458.696 300.305 460.031 302.21 462.131 302.21ZM462.131 301.1C460.871 301.1 460.016 299.705 460.016 296.465C460.016 293.27 460.871 291.905 462.131 291.905C463.376 291.905 464.216 293.27 464.216 296.465C464.216 299.705 463.376 301.1 462.131 301.1Z" fill="#404040"/>
<path d="M1.84918 279.34H5.68918V278.29H1.84918V279.34ZM7.01938 283H13.9194V281.83H10.8744C10.3194 281.83 9.65938 281.875 9.07438 281.935C11.6694 279.49 13.3944 277.255 13.3944 275.05C13.3944 273.085 12.1644 271.81 10.1994 271.81C8.80438 271.81 7.84438 272.455 6.94438 273.43L7.73938 274.195C8.35438 273.475 9.13438 272.92 10.0344 272.92C11.3994 272.92 12.0444 273.85 12.0444 275.11C12.0444 276.985 10.4694 279.19 7.01938 282.205V283ZM15.9997 283H22.0297V281.86H19.8097V272.005H18.7597C18.1747 272.365 17.4697 272.62 16.4797 272.785V273.67H18.4447V281.86H15.9997V283Z" fill="#404040"/>
<path d="M1.84918 215.34H5.68918V214.29H1.84918V215.34ZM7.67938 219H13.7094V217.86H11.4894V208.005H10.4394C9.85438 208.365 9.14938 208.62 8.15938 208.785V209.67H10.1244V217.86H7.67938V219ZM18.1897 219.21C20.2597 219.21 22.1797 217.5 22.1797 213.03C22.1797 209.535 20.6047 207.81 18.4897 207.81C16.7797 207.81 15.3397 209.25 15.3397 211.38C15.3397 213.66 16.5247 214.83 18.3697 214.83C19.3147 214.83 20.2897 214.26 20.9797 213.39L20.9047 212.295C20.1847 213.39 19.3297 213.825 18.5947 213.825C17.2897 213.825 16.6297 212.85 16.6297 211.38C16.6297 209.865 17.4397 208.875 18.4897 208.875C20.0347 208.875 20.8897 210.33 20.8897 213.03C20.8897 216.795 19.6147 218.07 18.1447 218.07C17.4397 218.07 16.7647 217.755 16.2997 217.215L15.5347 218.085C16.1497 218.73 16.9897 219.21 18.1897 219.21Z" fill="#404040"/>
<path d="M1.84918 151.34H5.68918V150.29H1.84918V151.34ZM7.67938 155H13.7094V153.86H11.4894V144.005H10.4394C9.85438 144.365 9.14938 144.62 8.15938 144.785V145.67H10.1244V153.86H7.67938V155ZM17.6347 155H19.0597C19.2397 150.71 19.7047 148.145 22.2847 144.83V144.005H15.4147V145.175H20.7397C18.5797 148.175 17.8297 150.845 17.6347 155Z" fill="#404040"/>
<path d="M1.84918 87.34H5.68918V86.29H1.84918V87.34ZM7.67938 91H13.7094V89.86H11.4894V80.005H10.4394C9.85438 80.365 9.14938 80.62 8.15938 80.785V81.67H10.1244V89.86H7.67938V91ZM18.5947 91.21C20.4397 91.21 22.1947 89.83 22.1947 87.43C22.1947 85 20.7097 83.92 18.8797 83.92C18.2197 83.92 17.7247 84.085 17.2297 84.355L17.5147 81.175H21.6697V80.005H16.3147L15.9697 85.15L16.7047 85.615C17.3347 85.195 17.7997 84.955 18.5347 84.955C19.8997 84.955 20.7997 85.9 20.7997 87.475C20.7997 89.065 19.7647 90.07 18.4597 90.07C17.1997 90.07 16.3897 89.485 15.7747 88.84L15.0847 89.74C15.8347 90.49 16.8847 91.21 18.5947 91.21Z" fill="#404040"/>
<path d="M2.505 57.12V58.155H14.16V57.12H2.505ZM2.715 68.835V69.795H14.205V68.835H2.715ZM8.58 66.075V66.975H12.75V66.075H8.58ZM1.83 57.12V61.56C1.83 63.945 1.71 67.26 0.495 69.63C0.78 69.735 1.245 70.005 1.44 70.17C2.715 67.695 2.895 64.065 2.895 61.575V57.12H1.83ZM7.995 64.56V69.36H9.09V64.56H7.995ZM4.65 65.64V69.375H5.73V65.64H4.65ZM3.36 60.81V61.65H8.01V60.81H3.36ZM5.295 59.13V64.605H6.255V59.13H5.295ZM5.16 61.155C4.665 62.175 3.72 63.3 2.85 63.825C3.06 63.99 3.345 64.305 3.495 64.53C4.38 63.87 5.325 62.595 5.82 61.41L5.16 61.155ZM8.475 60.81V61.65H13.95V60.81H8.475ZM10.515 59.13V64.605H11.49V59.13H10.515ZM10.2 61.155C9.675 62.19 8.64 63.3 7.695 63.825C7.905 63.99 8.19 64.305 8.325 64.545C9.3 63.885 10.335 62.61 10.86 61.41L10.2 61.155ZM6.18 61.695L5.625 62.13C6.045 62.445 7.035 63.315 7.365 63.69L7.95 62.97C7.665 62.715 6.54 61.905 6.18 61.695ZM7.035 58.515C6.24 58.86 4.71 59.115 3.39 59.25C3.495 59.445 3.615 59.745 3.675 59.925C5.055 59.82 6.735 59.55 7.8 59.115L7.035 58.515ZM12.45 58.47C11.595 58.83 9.915 59.07 8.505 59.205C8.61 59.385 8.73 59.715 8.775 59.895C10.275 59.79 12.075 59.52 13.23 59.085L12.45 58.47ZM11.475 61.77L10.95 62.25C11.565 62.685 13.11 63.945 13.65 64.47L14.19 63.705C13.77 63.36 11.985 62.085 11.475 61.77ZM19.155 56.355C18.42 58.38 17.175 60.33 15.75 61.575C16.035 61.725 16.5 62.1 16.725 62.295C18.12 60.945 19.455 58.86 20.28 56.64L19.155 56.355ZM18.915 58.215L18.375 59.31H28.59V58.215H18.915ZM18.18 61.62V66.225H19.305V62.67H28.26V61.62H18.18ZM15.705 65.655V66.75H29.295V65.655H15.705ZM22.68 58.785V70.215H23.835V58.785H22.68ZM31.56 57.42V58.53H43.38V57.42H31.56ZM30.78 63.795V64.92H44.235V63.795H30.78ZM32.61 59.565C33.18 60.675 33.765 62.13 33.975 63.015L35.055 62.655C34.845 61.77 34.23 60.345 33.615 59.25L32.61 59.565ZM41.31 59.19C40.95 60.27 40.245 61.815 39.69 62.76L40.65 63.075C41.235 62.175 41.94 60.735 42.51 59.52L41.31 59.19ZM36.885 57.855V70.2H38.04V57.855H36.885ZM51.435 65.535V66.555H56.535V65.535H51.435ZM51.78 62.115V63.135H56.28V62.115H51.78ZM52.23 58.89V59.97H58.41V58.89H52.23ZM58.02 58.89V59.16C57.81 65.865 57.57 68.355 57.06 68.895C56.895 69.09 56.715 69.135 56.415 69.135C56.055 69.135 55.14 69.135 54.135 69.03C54.33 69.36 54.48 69.855 54.495 70.17C55.41 70.23 56.34 70.245 56.85 70.2C57.405 70.14 57.75 70.005 58.08 69.57C58.695 68.835 58.905 66.42 59.13 59.49C59.13 59.34 59.145 58.89 59.145 58.89H58.02ZM52.83 56.415C52.17 58.59 51.09 60.735 49.77 62.085C50.055 62.25 50.565 62.55 50.805 62.73C52.05 61.275 53.235 59.025 53.97 56.7L52.83 56.415ZM45.75 60.18V61.26H50.55V60.18H45.75ZM47.7 56.715V66.705H48.78V56.715H47.7ZM45.495 67.395L45.93 68.52C47.34 67.83 49.215 66.93 50.94 66.06L50.655 65.025C48.765 65.925 46.785 66.855 45.495 67.395ZM65.1 64.125V69.285H66.135V65.1H67.59V69.285H68.475V65.1H69.945V69.285H70.845V65.1H72.33V69.285H73.395V64.125H65.1ZM63.75 68.775V69.765H74.43V68.775H63.75ZM61.335 57.36C62.235 57.795 63.345 58.515 63.87 59.055L64.53 58.14C63.99 57.615 62.88 56.94 61.965 56.535L61.335 57.36ZM60.555 61.41C61.485 61.815 62.595 62.475 63.135 62.985L63.795 62.055C63.225 61.56 62.1 60.93 61.185 60.555L60.555 61.41ZM60.915 69.315L61.905 70.005C62.67 68.61 63.57 66.75 64.23 65.16L63.345 64.485C62.61 66.195 61.62 68.16 60.915 69.315ZM66.675 57.99H71.775V62.115H66.675V57.99ZM65.655 57.105V63H72.855V57.105H65.655ZM68.985 58.26C68.79 59.4 68.115 60.585 66.975 61.23C67.14 61.365 67.38 61.635 67.485 61.785C68.76 61.08 69.555 59.715 69.81 58.35L68.985 58.26ZM68.655 59.805C69.39 60.405 70.32 61.26 70.77 61.785L71.355 61.26C70.89 60.75 69.96 59.94 69.225 59.37L68.655 59.805ZM78.375 60.66V61.575H89.04V60.66H78.375ZM78.585 65.025V65.955H87.165V65.025H78.585ZM80.79 59.355V64.065H86.61V59.355H85.515V63.18H81.855V59.355H80.79ZM86.865 65.025V65.19C85.47 67.71 81.69 68.82 77.865 69.165C78.045 69.42 78.24 69.855 78.33 70.11C82.41 69.645 86.325 68.43 88.005 65.37L87.3 64.98L87.09 65.025H86.865ZM80.985 65.79L80.01 66.165C81.735 68.505 84.945 69.75 88.77 70.2C88.905 69.915 89.175 69.465 89.415 69.225C85.68 68.88 82.47 67.77 80.985 65.79ZM77.415 57.9V58.95H89.22V57.9H77.415ZM76.89 57.9V61.98C76.89 64.23 76.77 67.425 75.54 69.69C75.825 69.78 76.335 70.02 76.56 70.2C77.82 67.83 78 64.365 78 61.98V57.9H76.89ZM82.095 56.595C82.425 57.21 82.77 58.05 82.905 58.575L84.09 58.245C83.955 57.735 83.565 56.94 83.22 56.325L82.095 56.595ZM93.585 71.955L94.425 71.565C93.135 69.435 92.505 66.9 92.505 64.35C92.505 61.8 93.135 59.265 94.425 57.135L93.585 56.73C92.19 58.98 91.365 61.41 91.365 64.35C91.365 67.305 92.19 69.705 93.585 71.955ZM97.8734 61.845C98.9984 61.845 99.9884 61.005 99.9884 59.715C99.9884 58.395 98.9984 57.555 97.8734 57.555C96.7484 57.555 95.7584 58.395 95.7584 59.715C95.7584 61.005 96.7484 61.845 97.8734 61.845ZM97.8734 61.065C97.1234 61.065 96.6134 60.495 96.6134 59.715C96.6134 58.905 97.1234 58.335 97.8734 58.335C98.6084 58.335 99.1484 58.905 99.1484 59.715C99.1484 60.495 98.6084 61.065 97.8734 61.065ZM106.093 69.21C107.473 69.21 108.553 68.64 109.423 67.62L108.613 66.75C107.923 67.515 107.158 67.935 106.123 67.935C104.038 67.935 102.748 66.24 102.748 63.495C102.748 60.78 104.098 59.085 106.183 59.085C107.083 59.085 107.788 59.475 108.373 60.09L109.168 59.19C108.523 58.485 107.473 57.84 106.153 57.84C103.348 57.84 101.263 59.985 101.263 63.54C101.263 67.11 103.303 69.21 106.093 69.21ZM111.553 71.955C112.933 69.705 113.758 67.305 113.758 64.35C113.758 61.41 112.933 58.98 111.553 56.73L110.698 57.135C111.988 59.265 112.618 61.8 112.618 64.35C112.618 66.9 111.988 69.435 110.698 71.565L111.553 71.955Z" fill="#404040"/>
</svg>
