<svg width="362" height="362" viewBox="0 0 362 362" fill="none" xmlns="http://www.w3.org/2000/svg">
<rect width="362" height="362" fill="#FAFAFA"/>
<path d="M18.22 23.3441V25.3841H23.48V23.3441H18.22ZM16.14 32.5041V40.0041H18.36V34.5241H22.56V39.9441H24.88V32.5041H16.14ZM17.04 37.2641V39.3241H23.82V37.2641H17.04ZM18.44 21.2041C17.54 23.5641 15.92 25.8441 14.1 27.2441C14.62 27.6041 15.54 28.4441 15.94 28.8641C17.78 27.2241 19.62 24.5841 20.72 21.8441L18.44 21.2041ZM22.86 23.3441V23.7241C21.58 27.7241 17.9 30.7841 13.76 32.0641C14.22 32.5241 14.82 33.4241 15.1 34.0041C19.64 32.3041 23.54 29.0641 25.2 23.9441L23.68 23.2641L23.28 23.3441H22.86ZM18.3 24.7241L16.52 25.6441C17.94 28.7041 20.9 32.0041 25.22 33.5441C25.54 32.9441 26.22 32.0041 26.7 31.5441C22.46 30.3641 19.58 27.4041 18.3 24.7241ZM7.88 25.3441V27.5841H15.04V25.3441H7.88ZM10.54 21.2241V40.0041H12.8V21.2241H10.54ZM10.48 26.8841C9.98 29.4441 8.76 32.5641 7.4 34.3041C7.78 34.8841 8.32 35.8241 8.52 36.4841C10.02 34.4241 11.26 30.5841 11.86 27.3641L10.48 26.8841ZM12.72 27.9641L11.64 28.9641C12.22 29.7841 13.4 31.6841 13.88 32.6641L15.18 30.8641C14.82 30.3841 13.18 28.4041 12.72 27.9641ZM38.94 21.2241V26.9841H41.28V21.2241H38.94ZM35.44 22.8041V24.7241H45.04V22.8041H35.44ZM34.18 26.0841V28.0441H46.22V26.0841H34.18ZM36.98 27.7241C36.76 28.9841 36.2 29.8641 34.08 30.4041C34.52 30.7841 35.08 31.5841 35.3 32.1041C37.98 31.1841 38.76 29.7441 39.08 27.7241H36.98ZM40.98 27.3641V28.6841C40.98 30.4441 41.38 31.1241 43.24 31.1241C43.54 31.1241 44.44 31.1241 44.76 31.1241C45.22 31.1241 45.72 31.1041 46.02 30.9841C45.96 30.4841 45.9 29.7041 45.86 29.1641C45.58 29.2441 45.02 29.2841 44.7 29.2841C44.44 29.2841 43.64 29.2841 43.4 29.2841C43.12 29.2841 43.06 29.1241 43.06 28.7041V27.3641H40.98ZM38.2 30.2441C37.44 32.2841 35.86 33.9841 33.94 35.0241C34.4 35.3841 35.2 36.2241 35.52 36.6441C37.56 35.3441 39.38 33.2641 40.36 30.7441L38.2 30.2441ZM37.8 32.0441V33.9641H43.22V32.0441H37.8ZM42.62 32.0441V32.4441C41.72 35.2641 38.48 37.2841 33.02 38.2041C33.52 38.7041 34.1 39.5441 34.36 40.1241C40.2 38.9641 43.76 36.4841 45.08 32.6441L43.5 31.9641L43.08 32.0441H42.62ZM36.48 31.9441L34.78 32.7841C36.28 36.1241 39.6 38.9641 45.4 39.9441C45.68 39.3441 46.26 38.4041 46.72 37.9241C41.04 37.2441 37.8 34.8041 36.48 31.9441ZM28.3 22.0041V39.9441H30.38V24.1441H32.9V22.0041H28.3ZM32.28 22.0041V22.6841C31.98 23.9441 31.36 26.5441 30.8 28.3241C31.94 29.7241 32.18 31.0241 32.18 31.9841C32.18 32.5641 32.08 33.0041 31.84 33.1841C31.7 33.2841 31.5 33.3441 31.3 33.3441C31.06 33.3641 30.78 33.3441 30.44 33.3241C30.76 33.9041 30.94 34.8041 30.96 35.3841C31.42 35.3841 31.9 35.3841 32.26 35.3441C32.7 35.2641 33.08 35.1441 33.4 34.9041C34.04 34.4241 34.3 33.5441 34.3 32.2441C34.3 31.0641 34.04 29.6441 32.84 28.0641C33.42 26.5241 34.06 24.5041 34.58 22.8241L33 21.9241L32.66 22.0041H32.28ZM52.08 30.8041V32.0441H61.96V30.8041H52.08ZM55.48 35.9241C54.64 36.7441 53 37.5441 51.58 37.9241C51.98 38.2641 52.54 38.9041 52.82 39.3241C54.3 38.7641 55.92 37.5641 56.84 36.4641L55.48 35.9241ZM50.32 27.1641V28.2641H54.62V27.1641H50.32ZM59.28 27.1641V28.3041H63.66V27.1641H59.28ZM50.32 25.2441V26.6041H54.1V28.8441H50.32V30.1841H56.22V25.2441H50.32ZM63.74 25.2441H57.56V30.2241H63.74V28.8441H59.72V26.6241H63.74V25.2441ZM48.86 25.2441V40.0041H51.1V25.2441H48.86ZM62.88 25.2441V37.6441C62.88 37.8641 62.82 37.9441 62.58 37.9441C62.38 37.9441 61.72 37.9441 61.12 37.9241C61.4 38.4441 61.7 39.3041 61.78 39.8641C62.92 39.8641 63.76 39.8441 64.36 39.5041C64.98 39.1641 65.16 38.6441 65.16 37.6441V25.2441H62.88ZM54.1 33.7441H59.8V35.2841H54.1V33.7441ZM52.56 32.5441V36.4841H61.4V32.5441H52.56ZM54.38 34.1241C54.6 34.4841 54.9 34.9641 55.04 35.2841L55.94 34.9041C55.78 34.6041 55.46 34.1241 55.22 33.8041L54.38 34.1241ZM58.6 33.7641C58.46 34.0841 58.14 34.6041 57.9 34.9841L58.66 35.3041C58.92 35.0041 59.2 34.6241 59.52 34.1641L58.6 33.7641ZM58 35.9641L57.14 36.7041C57.94 37.2441 59.74 38.6041 60.4 39.2241L61.34 37.9041C60.84 37.5641 58.64 36.2841 58 35.9641ZM55.98 29.9641V33.2441H57.84V29.9641H55.98ZM56.18 32.8241V35.9641H56V39.6441H57.84V35.9641H57.66V32.8241H56.18ZM48.04 22.1041V24.0841H56.62V22.1041H48.04ZM51.68 21.2041V24.9241H54.06V21.2041H51.68ZM60.08 21.2041V24.9441H62.46V21.2041H60.08ZM57.34 22.1041V24.0841H65.94V22.1041H57.34ZM70.58 21.9441V24.1041H86.02V21.9441H70.58ZM70.8 37.5241V39.5041H86.06V37.5241H70.8ZM78.7 34.0041V35.8441H84.34V34.0041H78.7ZM69 21.9441V28.1241C69 31.2841 68.88 35.7841 67.38 38.8641C67.96 39.0641 68.96 39.6241 69.4 39.9641C71.02 36.6641 71.26 31.5441 71.26 28.1241V21.9441H69ZM77.44 32.3641V38.6441H79.76V32.3641H77.44ZM72.96 33.7641V38.6641H75.26V33.7641H72.96ZM71.66 27.1841V28.8441H77.88V27.1841H71.66ZM73.84 25.1241V32.4841H75.8V25.1241H73.84ZM73.6 27.9241C72.96 29.1241 71.76 30.4241 70.62 31.0641C71.04 31.4041 71.62 32.0441 71.9 32.5041C73.08 31.6041 74.26 29.9441 74.9 28.4041L73.6 27.9241ZM78.38 27.1841V28.8441H85.56V27.1841H78.38ZM80.72 25.1241V32.4841H82.72V25.1241H80.72ZM80.24 27.9041C79.66 29.1041 78.48 30.3841 77.34 31.0441C77.76 31.3841 78.34 32.0441 78.64 32.5041C79.82 31.6041 80.96 29.9241 81.56 28.3641L80.24 27.9041ZM75.72 28.6641L74.6 29.5041C75.16 29.9441 76.3 30.9841 76.76 31.4841L77.9 30.0441C77.54 29.7641 76.18 28.9041 75.72 28.6641ZM76.3 24.2241C75.22 24.6441 73.24 24.9441 71.48 25.0641C71.68 25.4441 71.9 26.0441 72 26.4241C73.92 26.3241 76.22 26.0241 77.78 25.4241L76.3 24.2241ZM83.52 24.1241C82.32 24.5841 80.06 24.8841 78.1 25.0441C78.3 25.3841 78.54 26.0241 78.6 26.3841C80.74 26.2841 83.28 25.9641 85 25.3241L83.52 24.1241ZM82.78 28.7041L81.74 29.6841C82.56 30.2841 84.38 31.7441 85.14 32.4841L86.2 30.9441C85.66 30.5441 83.46 29.0841 82.78 28.7041ZM91.96 21.1441C91.1 23.7441 89.54 26.3041 87.74 27.8641C88.32 28.2041 89.34 29.0041 89.8 29.4241C91.58 27.6241 93.34 24.7441 94.4 21.7641L91.96 21.1441ZM92.38 23.4241L91.22 25.7441H105.1V23.4241H92.38ZM90.96 28.1441V34.5841H93.38V30.3841H104.64V28.1441H90.96ZM87.8 33.4041V35.7241H106.2V33.4041H87.8ZM96.84 24.6241V40.0041H99.32V24.6241H96.84ZM108.98 22.4641V24.8441H124.96V22.4641H108.98ZM107.9 30.9441V33.3641H126.12V30.9441H107.9ZM110.18 26.1241C110.82 27.4641 111.46 29.2241 111.66 30.3041L113.98 29.5641C113.76 28.4641 113.06 26.7641 112.36 25.4841L110.18 26.1241ZM121.58 25.4241C121.2 26.7441 120.46 28.5041 119.84 29.6641L121.94 30.2841C122.6 29.2441 123.42 27.6041 124.14 26.0841L121.58 25.4241ZM115.72 23.4641V39.9841H118.22V23.4641H115.72ZM135.44 33.1041V35.2441H142.06V33.1041H135.44ZM135.9 28.7241V30.8641H141.68V28.7241H135.9ZM136.74 24.4241V26.7041H144.38V24.4241H136.74ZM143.64 24.4241V24.9441C143.4 33.2841 143.12 36.6241 142.52 37.3041C142.28 37.5841 142.06 37.6641 141.68 37.6641C141.18 37.6641 140.12 37.6641 138.94 37.5441C139.36 38.2441 139.7 39.3041 139.74 39.9841C140.88 40.0241 142.06 40.0441 142.78 39.9241C143.6 39.8041 144.14 39.5641 144.68 38.7841C145.48 37.7441 145.76 34.5041 146.02 25.5641C146.04 25.2641 146.06 24.4241 146.06 24.4241H143.64ZM137.2 21.2041C136.34 23.9441 134.84 26.7241 133.12 28.4041C133.74 28.7241 134.82 29.3841 135.34 29.7841C136.96 27.8841 138.62 24.8641 139.64 21.8441L137.2 21.2041ZM127.86 26.0041V28.2841H134.26V26.0041H127.86ZM130.04 21.5841V34.9641H132.36V21.5841H130.04ZM127.44 35.5841L128.34 37.9841C130.3 37.0041 132.74 35.7641 134.98 34.5641L134.32 32.3641C131.84 33.6041 129.16 34.8841 127.44 35.5841ZM153.84 31.2841V38.4041H156V33.3041H157.12V38.4041H158.88V33.3041H160.02V38.4041H161.8V33.3041H162.94V38.4041H165.2V31.2841H153.84ZM152.2 37.3441V39.4241H166.44V37.3441H152.2ZM148.6 23.0841C149.78 23.6241 151.3 24.5241 152 25.2041L153.4 23.2241C152.64 22.5641 151.1 21.7641 149.92 21.3041L148.6 23.0841ZM147.54 28.5041C148.74 29.0041 150.24 29.8641 150.94 30.5041L152.34 28.5241C151.56 27.8841 150.04 27.1041 148.86 26.6841L147.54 28.5041ZM147.9 38.3441L150.04 39.7841C151.06 37.8241 152.14 35.5041 153.02 33.3641L151.12 31.9241C150.12 34.2841 148.82 36.8041 147.9 38.3441ZM156.7 23.8641H162.16V28.4641H156.7V23.8641ZM154.54 22.0841V30.2441H164.44V22.0841H154.54ZM158.8 24.0041C158.6 25.2641 157.92 26.5441 156.68 27.2241C156.98 27.4641 157.44 27.9841 157.66 28.2841C159.14 27.4641 160.04 25.8441 160.36 24.1841L158.8 24.0041ZM158.6 26.0241C159.38 26.7041 160.42 27.6641 160.92 28.2641L162.02 27.2441C161.5 26.6841 160.44 25.7841 159.66 25.1441L158.6 26.0241ZM172 26.9641V28.8441H185.9V26.9641H172ZM172.16 32.7841V34.6641H183.14V32.7841H172.16ZM174.72 25.6441V31.9841H183V25.6441H180.64V30.1841H176.98V25.6441H174.72ZM182.52 32.7841V33.0841C180.86 36.1641 176.3 37.4841 171.18 37.8641C171.54 38.3841 171.96 39.3041 172.14 39.8641C177.78 39.2441 182.7 37.6641 184.9 33.4641L183.4 32.7041L182.98 32.7841H182.52ZM175.54 34.1841L173.48 34.9641C175.94 37.9441 179.9 39.4641 185.04 39.9841C185.32 39.3841 185.92 38.4041 186.42 37.9041C181.52 37.5641 177.48 36.4041 175.54 34.1841ZM170.34 22.9441V25.1641H186.1V22.9441H170.34ZM169.22 22.9441V28.3041C169.22 31.3641 169.08 35.8641 167.48 38.9241C168.1 39.1041 169.18 39.6041 169.68 39.9641C171.34 36.6841 171.6 31.6641 171.6 28.2841V22.9441H169.22ZM176.24 21.6041C176.62 22.4841 176.98 23.6841 177.08 24.4241L179.66 23.8041C179.54 23.0641 179.1 21.9441 178.68 21.0641L176.24 21.6041Z" fill="#404040"/>
<path opacity="0.5" d="M32.418 305.885H358.141" stroke="#C7C7C7"/>
<g opacity="0.5">
<path d="M32.418 235.466H357.755" stroke="#C7C7C7"/>
<path d="M32.418 165.047H357.755" stroke="#C7C7C7"/>
<path d="M32.418 93.5264H357.755" stroke="#C7C7C7"/>
</g>
<path d="M43.2239 237.116L47.855 265.724L52.1002 212.359L55.9595 251.97L60.2047 227.213L68.6951 251.97H73.3262L77.5714 234.365L82.9744 242.617L87.2196 201.906L91.0789 255.271L94.5522 248.119L99.9552 232.714L104.2 244.818L108.446 218.961L113.077 281.678L121.567 214.009L125.812 221.711L130.443 223.362L134.689 281.678L139.32 232.714L143.565 253.07L147.424 240.967L152.441 262.973L156.301 212.359L159.388 221.711L169.422 244.818L173.667 208.508L177.913 253.07L182.93 262.973L187.561 295.432L192.192 255.271L195.279 214.009L200.296 228.863L204.542 212.359L208.401 221.711L213.032 264.073L216.891 242.617L221.522 238.766L226.154 283.328L235.416 244.818L243.906 188.152L248.537 216.76L252.397 201.906L256.642 235.465L260.887 214.009L266.676 204.107L270.921 195.304L273.623 176.599L277.868 204.107L282.499 168.897L287.516 205.757L291.375 212.359L295.62 210.708L300.252 232.714L304.111 126.535L309.128 233.815L312.987 176.599L317.232 221.711L321.864 200.256L326.495 250.87L331.126 149.091L334.213 190.903L338.844 208.508L343.861 162.295L347.335 208.508" stroke="#285F92" stroke-width="2" stroke-linecap="round"/>
<path d="M61.32 330.487H67.35V329.347H65.13V319.492H64.08C63.495 319.852 62.79 320.107 61.8 320.272V321.157H63.765V329.347H61.32V330.487ZM71.8303 330.697C73.9003 330.697 75.8203 328.987 75.8203 324.517C75.8203 321.022 74.2453 319.297 72.1303 319.297C70.4203 319.297 68.9803 320.737 68.9803 322.867C68.9803 325.147 70.1653 326.317 72.0103 326.317C72.9553 326.317 73.9303 325.747 74.6203 324.877L74.5453 323.782C73.8253 324.877 72.9703 325.312 72.2353 325.312C70.9303 325.312 70.2703 324.337 70.2703 322.867C70.2703 321.352 71.0803 320.362 72.1303 320.362C73.6753 320.362 74.5303 321.817 74.5303 324.517C74.5303 328.282 73.2553 329.557 71.7853 329.557C71.0803 329.557 70.4053 329.242 69.9403 328.702L69.1753 329.572C69.7903 330.217 70.6303 330.697 71.8303 330.697ZM81.1556 330.697C82.8506 330.697 84.3056 329.257 84.3056 327.127C84.3056 324.817 83.1056 323.677 81.2456 323.677C80.3606 323.677 79.3406 324.217 78.6656 325.102L78.7106 326.197C79.4456 325.102 80.3306 324.682 81.0356 324.682C82.3556 324.682 83.0156 325.627 83.0156 327.127C83.0156 328.612 82.2056 329.617 81.1556 329.617C79.6106 329.617 78.7556 328.072 78.7556 325.252C78.7556 321.652 80.0456 320.437 81.5906 320.437C82.2506 320.437 82.9256 320.752 83.3456 321.262L84.1106 320.422C83.5106 319.777 82.6706 319.297 81.5306 319.297C79.4006 319.297 77.4656 320.947 77.4656 325.252C77.4656 328.882 79.0406 330.697 81.1556 330.697ZM89.1309 330.697C91.2009 330.697 92.5359 328.792 92.5359 324.952C92.5359 321.142 91.2009 319.297 89.1309 319.297C87.0309 319.297 85.6959 321.142 85.6959 324.952C85.6959 328.792 87.0309 330.697 89.1309 330.697ZM89.1309 329.587C87.8709 329.587 87.0159 328.192 87.0159 324.952C87.0159 321.757 87.8709 320.392 89.1309 320.392C90.3759 320.392 91.2159 321.757 91.2159 324.952C91.2159 328.192 90.3759 329.587 89.1309 329.587ZM97.4363 317.842C96.7013 319.867 95.4563 321.817 94.0313 323.062C94.3163 323.212 94.7813 323.587 95.0063 323.782C96.4013 322.432 97.7363 320.347 98.5613 318.127L97.4363 317.842ZM97.1963 319.702L96.6563 320.797H106.871V319.702H97.1963ZM96.4613 323.107V327.712H97.5863V324.157H106.541V323.107H96.4613ZM93.9863 327.142V328.237H107.576V327.142H93.9863ZM100.961 320.272V331.702H102.116V320.272H100.961Z" fill="#404040"/>
<path d="M151.627 330.487H157.657V329.347H155.437V319.492H154.387C153.802 319.852 153.097 320.107 152.107 320.272V321.157H154.072V329.347H151.627V330.487ZM162.137 330.697C164.207 330.697 166.127 328.987 166.127 324.517C166.127 321.022 164.552 319.297 162.437 319.297C160.727 319.297 159.287 320.737 159.287 322.867C159.287 325.147 160.472 326.317 162.317 326.317C163.262 326.317 164.237 325.747 164.927 324.877L164.852 323.782C164.132 324.877 163.277 325.312 162.542 325.312C161.237 325.312 160.577 324.337 160.577 322.867C160.577 321.352 161.387 320.362 162.437 320.362C163.982 320.362 164.837 321.817 164.837 324.517C164.837 328.282 163.562 329.557 162.092 329.557C161.387 329.557 160.712 329.242 160.247 328.702L159.482 329.572C160.097 330.217 160.937 330.697 162.137 330.697ZM171.133 330.697C173.188 330.697 174.583 329.452 174.583 327.847C174.583 326.347 173.683 325.507 172.723 324.952V324.877C173.383 324.367 174.193 323.392 174.193 322.222C174.193 320.542 173.053 319.342 171.178 319.342C169.453 319.342 168.148 320.452 168.148 322.117C168.148 323.272 168.838 324.112 169.648 324.667V324.727C168.643 325.267 167.623 326.287 167.623 327.772C167.623 329.467 169.108 330.697 171.133 330.697ZM171.883 324.532C170.593 324.022 169.408 323.437 169.408 322.117C169.408 321.067 170.143 320.347 171.148 320.347C172.333 320.347 173.023 321.217 173.023 322.297C173.023 323.122 172.633 323.872 171.883 324.532ZM171.163 329.662C169.843 329.662 168.853 328.807 168.853 327.637C168.853 326.587 169.468 325.717 170.368 325.147C171.913 325.777 173.263 326.332 173.263 327.802C173.263 328.897 172.423 329.662 171.163 329.662ZM179.438 330.697C181.508 330.697 182.843 328.792 182.843 324.952C182.843 321.142 181.508 319.297 179.438 319.297C177.338 319.297 176.003 321.142 176.003 324.952C176.003 328.792 177.338 330.697 179.438 330.697ZM179.438 329.587C178.178 329.587 177.323 328.192 177.323 324.952C177.323 321.757 178.178 320.392 179.438 320.392C180.683 320.392 181.523 321.757 181.523 324.952C181.523 328.192 180.683 329.587 179.438 329.587Z" fill="#404040"/>
<path d="M236.643 330.487H243.543V329.317H240.498C239.943 329.317 239.283 329.362 238.698 329.422C241.293 326.977 243.018 324.742 243.018 322.537C243.018 320.572 241.788 319.297 239.823 319.297C238.428 319.297 237.468 319.942 236.568 320.917L237.363 321.682C237.978 320.962 238.758 320.407 239.658 320.407C241.023 320.407 241.668 321.337 241.668 322.597C241.668 324.472 240.093 326.677 236.643 329.692V330.487ZM248.473 330.697C250.543 330.697 251.878 328.792 251.878 324.952C251.878 321.142 250.543 319.297 248.473 319.297C246.373 319.297 245.038 321.142 245.038 324.952C245.038 328.792 246.373 330.697 248.473 330.697ZM248.473 329.587C247.213 329.587 246.358 328.192 246.358 324.952C246.358 321.757 247.213 320.392 248.473 320.392C249.718 320.392 250.558 321.757 250.558 324.952C250.558 328.192 249.718 329.587 248.473 329.587ZM256.794 330.697C258.864 330.697 260.199 328.792 260.199 324.952C260.199 321.142 258.864 319.297 256.794 319.297C254.694 319.297 253.359 321.142 253.359 324.952C253.359 328.792 254.694 330.697 256.794 330.697ZM256.794 329.587C255.534 329.587 254.679 328.192 254.679 324.952C254.679 321.757 255.534 320.392 256.794 320.392C258.039 320.392 258.879 321.757 258.879 324.952C258.879 328.192 258.039 329.587 256.794 329.587ZM265.114 330.697C267.184 330.697 268.519 328.792 268.519 324.952C268.519 321.142 267.184 319.297 265.114 319.297C263.014 319.297 261.679 321.142 261.679 324.952C261.679 328.792 263.014 330.697 265.114 330.697ZM265.114 329.587C263.854 329.587 262.999 328.192 262.999 324.952C262.999 321.757 263.854 320.392 265.114 320.392C266.359 320.392 267.199 321.757 267.199 324.952C267.199 328.192 266.359 329.587 265.114 329.587Z" fill="#404040"/>
<path d="M324.634 330.487H331.534V329.317H328.489C327.934 329.317 327.274 329.362 326.689 329.422C329.284 326.977 331.009 324.742 331.009 322.537C331.009 320.572 329.779 319.297 327.814 319.297C326.419 319.297 325.459 319.942 324.559 320.917L325.354 321.682C325.969 320.962 326.749 320.407 327.649 320.407C329.014 320.407 329.659 321.337 329.659 322.597C329.659 324.472 328.084 326.677 324.634 329.692V330.487ZM336.465 330.697C338.535 330.697 339.87 328.792 339.87 324.952C339.87 321.142 338.535 319.297 336.465 319.297C334.365 319.297 333.03 321.142 333.03 324.952C333.03 328.792 334.365 330.697 336.465 330.697ZM336.465 329.587C335.205 329.587 334.35 328.192 334.35 324.952C334.35 321.757 335.205 320.392 336.465 320.392C337.71 320.392 338.55 321.757 338.55 324.952C338.55 328.192 337.71 329.587 336.465 329.587ZM341.275 330.487H348.175V329.317H345.13C344.575 329.317 343.915 329.362 343.33 329.422C345.925 326.977 347.65 324.742 347.65 322.537C347.65 320.572 346.42 319.297 344.455 319.297C343.06 319.297 342.1 319.942 341.2 320.917L341.995 321.682C342.61 320.962 343.39 320.407 344.29 320.407C345.655 320.407 346.3 321.337 346.3 322.597C346.3 324.472 344.725 326.677 341.275 329.692V330.487ZM353.105 330.697C355.175 330.697 356.51 328.792 356.51 324.952C356.51 321.142 355.175 319.297 353.105 319.297C351.005 319.297 349.67 321.142 349.67 324.952C349.67 328.792 351.005 330.697 353.105 330.697ZM353.105 329.587C351.845 329.587 350.99 328.192 350.99 324.952C350.99 321.757 351.845 320.392 353.105 320.392C354.35 320.392 355.19 321.757 355.19 324.952C355.19 328.192 354.35 329.587 353.105 329.587Z" fill="#404040"/>
<path d="M7.84918 305.92H11.6892V304.87H7.84918V305.92ZM13.0194 309.58H19.9194V308.41H16.8744C16.3194 308.41 15.6594 308.455 15.0744 308.515C17.6694 306.07 19.3944 303.835 19.3944 301.63C19.3944 299.665 18.1644 298.39 16.1994 298.39C14.8044 298.39 13.8444 299.035 12.9444 300.01L13.7394 300.775C14.3544 300.055 15.1344 299.5 16.0344 299.5C17.3994 299.5 18.0444 300.43 18.0444 301.69C18.0444 303.565 16.4694 305.77 13.0194 308.785V309.58ZM21.9997 309.58H28.0297V308.44H25.8097V298.585H24.7597C24.1747 298.945 23.4697 299.2 22.4797 299.365V300.25H24.4447V308.44H21.9997V309.58Z" fill="#404040"/>
<path d="M7.84918 235.501H11.6892V234.451H7.84918V235.501ZM13.6794 239.161H19.7094V238.021H17.4894V228.166H16.4394C15.8544 228.526 15.1494 228.781 14.1594 228.946V229.831H16.1244V238.021H13.6794V239.161ZM24.1897 239.371C26.2597 239.371 28.1797 237.661 28.1797 233.191C28.1797 229.696 26.6047 227.971 24.4897 227.971C22.7797 227.971 21.3397 229.411 21.3397 231.541C21.3397 233.821 22.5247 234.991 24.3697 234.991C25.3147 234.991 26.2897 234.421 26.9797 233.551L26.9047 232.456C26.1847 233.551 25.3297 233.986 24.5947 233.986C23.2897 233.986 22.6297 233.011 22.6297 231.541C22.6297 230.026 23.4397 229.036 24.4897 229.036C26.0347 229.036 26.8897 230.491 26.8897 233.191C26.8897 236.956 25.6147 238.231 24.1447 238.231C23.4397 238.231 22.7647 237.916 22.2997 237.376L21.5347 238.246C22.1497 238.891 22.9897 239.371 24.1897 239.371Z" fill="#404040"/>
<path d="M7.84918 165.08H11.6892V164.03H7.84918V165.08ZM13.6794 168.74H19.7094V167.6H17.4894V157.745H16.4394C15.8544 158.105 15.1494 158.36 14.1594 158.525V159.41H16.1244V167.6H13.6794V168.74ZM23.6347 168.74H25.0597C25.2397 164.45 25.7047 161.885 28.2847 158.57V157.745H21.4147V158.915H26.7397C24.5797 161.915 23.8297 164.585 23.6347 168.74Z" fill="#404040"/>
<path d="M7.84918 94.6613H11.6892V93.6113H7.84918V94.6613ZM13.6794 98.3213H19.7094V97.1813H17.4894V87.3263H16.4394C15.8544 87.6863 15.1494 87.9413 14.1594 88.1063V88.9913H16.1244V97.1813H13.6794V98.3213ZM24.5947 98.5313C26.4397 98.5313 28.1947 97.1513 28.1947 94.7513C28.1947 92.3213 26.7097 91.2413 24.8797 91.2413C24.2197 91.2413 23.7247 91.4063 23.2297 91.6763L23.5147 88.4963H27.6697V87.3263H22.3147L21.9697 92.4713L22.7047 92.9363C23.3347 92.5163 23.7997 92.2763 24.5347 92.2763C25.8997 92.2763 26.7997 93.2213 26.7997 94.7963C26.7997 96.3863 25.7647 97.3913 24.4597 97.3913C23.1997 97.3913 22.3897 96.8063 21.7747 96.1613L21.0847 97.0613C21.8347 97.8113 22.8847 98.5313 24.5947 98.5313Z" fill="#404040"/>
<path d="M9.505 62.2352V63.2702H21.16V62.2352H9.505ZM9.715 73.9502V74.9102H21.205V73.9502H9.715ZM15.58 71.1902V72.0902H19.75V71.1902H15.58ZM8.83 62.2352V66.6752C8.83 69.0602 8.71 72.3752 7.495 74.7452C7.78 74.8502 8.245 75.1202 8.44 75.2852C9.715 72.8102 9.895 69.1802 9.895 66.6902V62.2352H8.83ZM14.995 69.6752V74.4752H16.09V69.6752H14.995ZM11.65 70.7552V74.4902H12.73V70.7552H11.65ZM10.36 65.9252V66.7652H15.01V65.9252H10.36ZM12.295 64.2452V69.7202H13.255V64.2452H12.295ZM12.16 66.2702C11.665 67.2902 10.72 68.4152 9.85 68.9402C10.06 69.1052 10.345 69.4202 10.495 69.6452C11.38 68.9852 12.325 67.7102 12.82 66.5252L12.16 66.2702ZM15.475 65.9252V66.7652H20.95V65.9252H15.475ZM17.515 64.2452V69.7202H18.49V64.2452H17.515ZM17.2 66.2702C16.675 67.3052 15.64 68.4152 14.695 68.9402C14.905 69.1052 15.19 69.4202 15.325 69.6602C16.3 69.0002 17.335 67.7252 17.86 66.5252L17.2 66.2702ZM13.18 66.8102L12.625 67.2452C13.045 67.5602 14.035 68.4302 14.365 68.8052L14.95 68.0852C14.665 67.8302 13.54 67.0202 13.18 66.8102ZM14.035 63.6302C13.24 63.9752 11.71 64.2302 10.39 64.3652C10.495 64.5602 10.615 64.8602 10.675 65.0402C12.055 64.9352 13.735 64.6652 14.8 64.2302L14.035 63.6302ZM19.45 63.5852C18.595 63.9452 16.915 64.1852 15.505 64.3202C15.61 64.5002 15.73 64.8302 15.775 65.0102C17.275 64.9052 19.075 64.6352 20.23 64.2002L19.45 63.5852ZM18.475 66.8852L17.95 67.3652C18.565 67.8002 20.11 69.0602 20.65 69.5852L21.19 68.8202C20.77 68.4752 18.985 67.2002 18.475 66.8852ZM26.155 61.4702C25.42 63.4952 24.175 65.4452 22.75 66.6902C23.035 66.8402 23.5 67.2152 23.725 67.4102C25.12 66.0602 26.455 63.9752 27.28 61.7552L26.155 61.4702ZM25.915 63.3302L25.375 64.4252H35.59V63.3302H25.915ZM25.18 66.7352V71.3402H26.305V67.7852H35.26V66.7352H25.18ZM22.705 70.7702V71.8652H36.295V70.7702H22.705ZM29.68 63.9002V75.3302H30.835V63.9002H29.68ZM38.56 62.5352V63.6452H50.38V62.5352H38.56ZM37.78 68.9102V70.0352H51.235V68.9102H37.78ZM39.61 64.6802C40.18 65.7902 40.765 67.2452 40.975 68.1302L42.055 67.7702C41.845 66.8852 41.23 65.4602 40.615 64.3652L39.61 64.6802ZM48.31 64.3052C47.95 65.3852 47.245 66.9302 46.69 67.8752L47.65 68.1902C48.235 67.2902 48.94 65.8502 49.51 64.6352L48.31 64.3052ZM43.885 62.9702V75.3152H45.04V62.9702H43.885ZM58.435 70.6502V71.6702H63.535V70.6502H58.435ZM58.78 67.2302V68.2502H63.28V67.2302H58.78ZM59.23 64.0052V65.0852H65.41V64.0052H59.23ZM65.02 64.0052V64.2752C64.81 70.9802 64.57 73.4702 64.06 74.0102C63.895 74.2052 63.715 74.2502 63.415 74.2502C63.055 74.2502 62.14 74.2502 61.135 74.1452C61.33 74.4752 61.48 74.9702 61.495 75.2852C62.41 75.3452 63.34 75.3602 63.85 75.3152C64.405 75.2552 64.75 75.1202 65.08 74.6852C65.695 73.9502 65.905 71.5352 66.13 64.6052C66.13 64.4552 66.145 64.0052 66.145 64.0052H65.02ZM59.83 61.5302C59.17 63.7052 58.09 65.8502 56.77 67.2002C57.055 67.3652 57.565 67.6652 57.805 67.8452C59.05 66.3902 60.235 64.1402 60.97 61.8152L59.83 61.5302ZM52.75 65.2952V66.3752H57.55V65.2952H52.75ZM54.7 61.8302V71.8202H55.78V61.8302H54.7ZM52.495 72.5102L52.93 73.6352C54.34 72.9452 56.215 72.0452 57.94 71.1752L57.655 70.1402C55.765 71.0402 53.785 71.9702 52.495 72.5102ZM72.1 69.2402V74.4002H73.135V70.2152H74.59V74.4002H75.475V70.2152H76.945V74.4002H77.845V70.2152H79.33V74.4002H80.395V69.2402H72.1ZM70.75 73.8902V74.8802H81.43V73.8902H70.75ZM68.335 62.4752C69.235 62.9102 70.345 63.6302 70.87 64.1702L71.53 63.2552C70.99 62.7302 69.88 62.0552 68.965 61.6502L68.335 62.4752ZM67.555 66.5252C68.485 66.9302 69.595 67.5902 70.135 68.1002L70.795 67.1702C70.225 66.6752 69.1 66.0452 68.185 65.6702L67.555 66.5252ZM67.915 74.4302L68.905 75.1202C69.67 73.7252 70.57 71.8652 71.23 70.2752L70.345 69.6002C69.61 71.3102 68.62 73.2752 67.915 74.4302ZM73.675 63.1052H78.775V67.2302H73.675V63.1052ZM72.655 62.2202V68.1152H79.855V62.2202H72.655ZM75.985 63.3752C75.79 64.5152 75.115 65.7002 73.975 66.3452C74.14 66.4802 74.38 66.7502 74.485 66.9002C75.76 66.1952 76.555 64.8302 76.81 63.4652L75.985 63.3752ZM75.655 64.9202C76.39 65.5202 77.32 66.3752 77.77 66.9002L78.355 66.3752C77.89 65.8652 76.96 65.0552 76.225 64.4852L75.655 64.9202ZM85.375 65.7752V66.6902H96.04V65.7752H85.375ZM85.585 70.1402V71.0702H94.165V70.1402H85.585ZM87.79 64.4702V69.1802H93.61V64.4702H92.515V68.2952H88.855V64.4702H87.79ZM93.865 70.1402V70.3052C92.47 72.8252 88.69 73.9352 84.865 74.2802C85.045 74.5352 85.24 74.9702 85.33 75.2252C89.41 74.7602 93.325 73.5452 95.005 70.4852L94.3 70.0952L94.09 70.1402H93.865ZM87.985 70.9052L87.01 71.2802C88.735 73.6202 91.945 74.8652 95.77 75.3152C95.905 75.0302 96.175 74.5802 96.415 74.3402C92.68 73.9952 89.47 72.8852 87.985 70.9052ZM84.415 63.0152V64.0652H96.22V63.0152H84.415ZM83.89 63.0152V67.0952C83.89 69.3452 83.77 72.5402 82.54 74.8052C82.825 74.8952 83.335 75.1352 83.56 75.3152C84.82 72.9452 85 69.4802 85 67.0952V63.0152H83.89ZM89.095 61.7102C89.425 62.3252 89.77 63.1652 89.905 63.6902L91.09 63.3602C90.955 62.8502 90.565 62.0552 90.22 61.4402L89.095 61.7102ZM100.585 77.0702L101.425 76.6802C100.135 74.5502 99.505 72.0152 99.505 69.4652C99.505 66.9152 100.135 64.3802 101.425 62.2502L100.585 61.8452C99.19 64.0952 98.365 66.5252 98.365 69.4652C98.365 72.4202 99.19 74.8202 100.585 77.0702ZM104.873 66.9602C105.998 66.9602 106.988 66.1202 106.988 64.8302C106.988 63.5102 105.998 62.6702 104.873 62.6702C103.748 62.6702 102.758 63.5102 102.758 64.8302C102.758 66.1202 103.748 66.9602 104.873 66.9602ZM104.873 66.1802C104.123 66.1802 103.613 65.6102 103.613 64.8302C103.613 64.0202 104.123 63.4502 104.873 63.4502C105.608 63.4502 106.148 64.0202 106.148 64.8302C106.148 65.6102 105.608 66.1802 104.873 66.1802ZM113.093 74.3252C114.473 74.3252 115.553 73.7552 116.423 72.7352L115.613 71.8652C114.923 72.6302 114.158 73.0502 113.123 73.0502C111.038 73.0502 109.748 71.3552 109.748 68.6102C109.748 65.8952 111.098 64.2002 113.183 64.2002C114.083 64.2002 114.788 64.5902 115.373 65.2052L116.168 64.3052C115.523 63.6002 114.473 62.9552 113.153 62.9552C110.348 62.9552 108.263 65.1002 108.263 68.6552C108.263 72.2252 110.303 74.3252 113.093 74.3252ZM118.553 77.0702C119.933 74.8202 120.758 72.4202 120.758 69.4652C120.758 66.5252 119.933 64.0952 118.553 61.8452L117.698 62.2502C118.988 64.3802 119.618 66.9152 119.618 69.4652C119.618 72.0152 118.988 74.5502 117.698 76.6802L118.553 77.0702Z" fill="#404040"/>
</svg>
