<svg width="362" height="362" viewBox="0 0 362 362" fill="none" xmlns="http://www.w3.org/2000/svg">
<path d="M251.863 116.724H258.763V115.554H255.718C255.163 115.554 254.503 115.599 253.918 115.659C256.513 113.214 258.238 110.979 258.238 108.774C258.238 106.809 257.008 105.534 255.043 105.534C253.648 105.534 252.688 106.179 251.788 107.154L252.583 107.919C253.198 107.199 253.978 106.644 254.878 106.644C256.243 106.644 256.888 107.574 256.888 108.834C256.888 110.709 255.313 112.914 251.863 115.929V116.724ZM263.693 116.934C265.763 116.934 267.098 115.029 267.098 111.189C267.098 107.379 265.763 105.534 263.693 105.534C261.593 105.534 260.258 107.379 260.258 111.189C260.258 115.029 261.593 116.934 263.693 116.934ZM263.693 115.824C262.433 115.824 261.578 114.429 261.578 111.189C261.578 107.994 262.433 106.629 263.693 106.629C264.938 106.629 265.778 107.994 265.778 111.189C265.778 114.429 264.938 115.824 263.693 115.824ZM269.163 116.724H275.193V115.584H272.973V105.729H271.923C271.338 106.089 270.633 106.344 269.643 106.509V107.394H271.608V115.584H269.163V116.724ZM280.333 116.934C282.403 116.934 283.738 115.029 283.738 111.189C283.738 107.379 282.403 105.534 280.333 105.534C278.233 105.534 276.898 107.379 276.898 111.189C276.898 115.029 278.233 116.934 280.333 116.934ZM280.333 115.824C279.073 115.824 278.218 114.429 278.218 111.189C278.218 107.994 279.073 106.629 280.333 106.629C281.578 106.629 282.418 107.994 282.418 111.189C282.418 114.429 281.578 115.824 280.333 115.824ZM288.639 104.079C287.904 106.104 286.659 108.054 285.234 109.299C285.519 109.449 285.984 109.824 286.209 110.019C287.604 108.669 288.939 106.584 289.764 104.364L288.639 104.079ZM288.399 105.939L287.859 107.034H298.074V105.939H288.399ZM287.664 109.344V113.949H288.789V110.394H297.744V109.344H287.664ZM285.189 113.379V114.474H298.779V113.379H285.189ZM292.164 106.509V117.939H293.319V106.509H292.164ZM300.174 113.064H304.014V112.014H300.174V113.064ZM306.004 116.724H312.034V115.584H309.814V105.729H308.764C308.179 106.089 307.474 106.344 306.484 106.509V107.394H308.449V115.584H306.004V116.724ZM316.919 116.934C318.764 116.934 320.519 115.554 320.519 113.154C320.519 110.724 319.034 109.644 317.204 109.644C316.544 109.644 316.049 109.809 315.554 110.079L315.839 106.899H319.994V105.729H314.639L314.294 110.874L315.029 111.339C315.659 110.919 316.124 110.679 316.859 110.679C318.224 110.679 319.124 111.624 319.124 113.199C319.124 114.789 318.089 115.794 316.784 115.794C315.524 115.794 314.714 115.209 314.099 114.564L313.409 115.464C314.159 116.214 315.209 116.934 316.919 116.934ZM323.395 116.934C323.95 116.934 324.4 116.499 324.4 115.884C324.4 115.254 323.95 114.834 323.395 114.834C322.855 114.834 322.42 115.254 322.42 115.884C322.42 116.499 322.855 116.934 323.395 116.934ZM328.454 116.724H329.879C330.059 112.434 330.524 109.869 333.104 106.554V105.729H326.234V106.899H331.559C329.399 109.899 328.649 112.569 328.454 116.724ZM337.33 116.934C339.4 116.934 341.32 115.224 341.32 110.754C341.32 107.259 339.745 105.534 337.63 105.534C335.92 105.534 334.48 106.974 334.48 109.104C334.48 111.384 335.665 112.554 337.51 112.554C338.455 112.554 339.43 111.984 340.12 111.114L340.045 110.019C339.325 111.114 338.47 111.549 337.735 111.549C336.43 111.549 335.77 110.574 335.77 109.104C335.77 107.589 336.58 106.599 337.63 106.599C339.175 106.599 340.03 108.054 340.03 110.754C340.03 114.519 338.755 115.794 337.285 115.794C336.58 115.794 335.905 115.479 335.44 114.939L334.675 115.809C335.29 116.454 336.13 116.934 337.33 116.934ZM345.515 108.384V109.299H356.18V108.384H345.515ZM345.725 112.749V113.679H354.305V112.749H345.725ZM347.93 107.079V111.789H353.75V107.079H352.655V110.904H348.995V107.079H347.93ZM354.005 112.749V112.914C352.61 115.434 348.83 116.544 345.005 116.889C345.185 117.144 345.38 117.579 345.47 117.834C349.55 117.369 353.465 116.154 355.145 113.094L354.44 112.704L354.23 112.749H354.005ZM348.125 113.514L347.15 113.889C348.875 116.229 352.085 117.474 355.91 117.924C356.045 117.639 356.315 117.189 356.555 116.949C352.82 116.604 349.61 115.494 348.125 113.514ZM344.555 105.624V106.674H356.36V105.624H344.555ZM344.03 105.624V109.704C344.03 111.954 343.91 115.149 342.68 117.414C342.965 117.504 343.475 117.744 343.7 117.924C344.96 115.554 345.14 112.089 345.14 109.704V105.624H344.03ZM349.235 104.319C349.565 104.934 349.91 105.774 350.045 106.299L351.23 105.969C351.095 105.459 350.705 104.664 350.36 104.049L349.235 104.319Z" fill="#404040"/>
<path d="M190.42 292.139C190.42 293.719 189.14 294.999 187.561 294.999C185.982 294.999 184.701 293.719 184.701 292.139C184.701 290.56 185.982 289.279 187.561 289.279C189.14 289.279 190.42 290.56 190.42 292.139Z" fill="#FAFAFA" stroke="#285F92" stroke-width="2"/>
<path d="M306.97 129.295C306.97 130.874 305.69 132.155 304.111 132.155C302.532 132.155 301.252 130.874 301.252 129.295C301.252 127.715 302.532 126.435 304.111 126.435C305.69 126.435 306.97 127.715 306.97 129.295Z" fill="#FAFAFA" stroke="#285F92" stroke-width="2"/>
<rect x="251" y="78.0576" width="106" height="21" fill="#D5B15A"/>
<path d="M267.775 95H270.01C270.205 90.665 270.535 88.385 273.115 85.235V83.9H265.75V85.745H270.745C268.615 88.685 267.985 91.16 267.775 95ZM278.273 95.21C280.523 95.21 282.023 93.245 282.023 89.405C282.023 85.58 280.523 83.705 278.273 83.705C276.008 83.705 274.508 85.58 274.508 89.405C274.508 93.245 276.008 95.21 278.273 95.21ZM278.273 93.485C277.313 93.485 276.593 92.525 276.593 89.405C276.593 86.3 277.313 85.4 278.273 85.4C279.233 85.4 279.938 86.3 279.938 89.405C279.938 92.525 279.233 93.485 278.273 93.485ZM286.415 82.205C285.77 84.155 284.6 86.075 283.25 87.245C283.685 87.5 284.45 88.1 284.795 88.415C286.13 87.065 287.45 84.905 288.245 82.67L286.415 82.205ZM286.73 83.915L285.86 85.655H296.27V83.915H286.73ZM285.665 87.455V92.285H287.48V89.135H295.925V87.455H285.665ZM283.295 91.4V93.14H297.095V91.4H283.295ZM290.075 84.815V96.35H291.935V84.815H290.075ZM299.945 82.715V87.575H301.685V83.975H308.66V87.575H310.49V82.715H299.945ZM302.165 84.56V85.625H308.18V84.56H302.165ZM302.165 86.195V87.32H308.135V86.195H302.165ZM298.445 87.92V89.36H311.9V87.92H298.445ZM305.285 89.915V91.295H310.22V89.915H305.285ZM300.755 89.945V91.19H304.16V89.945H300.755ZM300.755 91.805V93.05H304.16V91.805H300.755ZM307.16 91.16L305.72 91.565C306.755 93.905 308.54 95.585 311.12 96.335C311.36 95.915 311.825 95.255 312.185 94.94C309.785 94.37 308.015 92.99 307.16 91.16ZM309.815 89.915V90.17C309.14 92.495 307.19 94.205 304.82 94.91C305.15 95.255 305.585 95.9 305.78 96.32C308.495 95.33 310.625 93.425 311.54 90.275L310.43 89.855L310.13 89.915H309.815ZM298.295 94.055L298.46 95.57C300.05 95.42 302.195 95.21 304.235 94.97L304.205 93.59C302.045 93.785 299.795 93.965 298.295 94.055ZM303.245 88.385V96.35H304.955V88.385H303.245ZM299.63 88.415V94.52H301.265V88.415H299.63ZM313.505 83.66V85.175H326.81V83.66H313.505ZM317.3 86.96H323.135V87.77H317.3V86.96ZM315.5 85.745V88.985H325.04V85.745H315.5ZM313.925 89.585V96.35H315.665V91.055H325.955V89.585H313.925ZM324.665 89.585V94.7C324.665 94.895 324.575 94.94 324.365 94.955C324.17 94.955 323.36 94.97 322.76 94.925C322.97 95.285 323.21 95.825 323.3 96.23C324.35 96.245 325.16 96.23 325.715 96.035C326.285 95.825 326.48 95.48 326.48 94.7V89.585H324.665ZM318.95 82.61C319.175 83.27 319.49 84.17 319.61 84.71L321.56 84.17C321.41 83.66 321.065 82.79 320.795 82.16L318.95 82.61ZM317.795 91.595V92.84H321.785V93.71H317.795V94.955H323.375V91.595H317.795ZM316.805 91.595V95.57H318.47V91.595H316.805ZM332.825 89.81V95.15H334.445V91.325H335.285V95.15H336.605V91.325H337.46V95.15H338.795V91.325H339.65V95.15H341.345V89.81H332.825ZM331.595 94.355V95.915H342.275V94.355H331.595ZM328.895 83.66C329.78 84.065 330.92 84.74 331.445 85.25L332.495 83.765C331.925 83.27 330.77 82.67 329.885 82.325L328.895 83.66ZM328.1 87.725C329 88.1 330.125 88.745 330.65 89.225L331.7 87.74C331.115 87.26 329.975 86.675 329.09 86.36L328.1 87.725ZM328.37 95.105L329.975 96.185C330.74 94.715 331.55 92.975 332.21 91.37L330.785 90.29C330.035 92.06 329.06 93.95 328.37 95.105ZM334.97 84.245H339.065V87.695H334.97V84.245ZM333.35 82.91V89.03H340.775V82.91H333.35ZM336.545 84.35C336.395 85.295 335.885 86.255 334.955 86.765C335.18 86.945 335.525 87.335 335.69 87.56C336.8 86.945 337.475 85.73 337.715 84.485L336.545 84.35ZM336.395 85.865C336.98 86.375 337.76 87.095 338.135 87.545L338.96 86.78C338.57 86.36 337.775 85.685 337.19 85.205L336.395 85.865Z" fill="#FAFAFA"/>
<path d="M139.972 181.993H146.002V180.853H143.782V170.998H142.732C142.147 171.358 141.442 171.613 140.452 171.778V172.663H142.417V180.853H139.972V181.993ZM150.483 182.203C152.553 182.203 154.473 180.493 154.473 176.023C154.473 172.528 152.898 170.803 150.783 170.803C149.073 170.803 147.633 172.243 147.633 174.373C147.633 176.653 148.818 177.823 150.663 177.823C151.608 177.823 152.583 177.253 153.273 176.383L153.198 175.288C152.478 176.383 151.623 176.818 150.888 176.818C149.583 176.818 148.923 175.843 148.923 174.373C148.923 172.858 149.733 171.868 150.783 171.868C152.328 171.868 153.183 173.323 153.183 176.023C153.183 179.788 151.908 181.063 150.438 181.063C149.733 181.063 149.058 180.748 148.593 180.208L147.828 181.078C148.443 181.723 149.283 182.203 150.483 182.203ZM159.478 182.203C161.533 182.203 162.928 180.958 162.928 179.353C162.928 177.853 162.028 177.013 161.068 176.458V176.383C161.728 175.873 162.538 174.898 162.538 173.728C162.538 172.048 161.398 170.848 159.523 170.848C157.798 170.848 156.493 171.958 156.493 173.623C156.493 174.778 157.183 175.618 157.993 176.173V176.233C156.988 176.773 155.968 177.793 155.968 179.278C155.968 180.973 157.453 182.203 159.478 182.203ZM160.228 176.038C158.938 175.528 157.753 174.943 157.753 173.623C157.753 172.573 158.488 171.853 159.493 171.853C160.678 171.853 161.368 172.723 161.368 173.803C161.368 174.628 160.978 175.378 160.228 176.038ZM159.508 181.168C158.188 181.168 157.198 180.313 157.198 179.143C157.198 178.093 157.813 177.223 158.713 176.653C160.258 177.283 161.608 177.838 161.608 179.308C161.608 180.403 160.768 181.168 159.508 181.168ZM167.558 182.203C169.523 182.203 171.098 181.018 171.098 179.068C171.098 177.553 170.048 176.578 168.758 176.263V176.203C169.928 175.783 170.708 174.898 170.708 173.563C170.708 171.808 169.358 170.803 167.513 170.803C166.253 170.803 165.278 171.358 164.453 172.108L165.188 172.993C165.803 172.363 166.583 171.913 167.468 171.913C168.608 171.913 169.313 172.603 169.313 173.653C169.313 174.853 168.548 175.753 166.283 175.753V176.818C168.818 176.818 169.703 177.688 169.703 179.008C169.703 180.268 168.773 181.063 167.468 181.063C166.208 181.063 165.383 180.463 164.738 179.788L164.048 180.688C164.768 181.483 165.833 182.203 167.558 182.203ZM176.089 169.348C175.354 171.373 174.109 173.323 172.684 174.568C172.969 174.718 173.434 175.093 173.659 175.288C175.054 173.938 176.389 171.853 177.214 169.633L176.089 169.348ZM175.849 171.208L175.309 172.303H185.524V171.208H175.849ZM175.114 174.613V179.218H176.239V175.663H185.194V174.613H175.114ZM172.639 178.648V179.743H186.229V178.648H172.639ZM179.614 171.778V183.208H180.769V171.778H179.614ZM187.624 178.333H191.464V177.283H187.624V178.333ZM192.794 181.993H199.694V180.823H196.649C196.094 180.823 195.434 180.868 194.849 180.928C197.444 178.483 199.169 176.248 199.169 174.043C199.169 172.078 197.939 170.803 195.974 170.803C194.579 170.803 193.619 171.448 192.719 172.423L193.514 173.188C194.129 172.468 194.909 171.913 195.809 171.913C197.174 171.913 197.819 172.843 197.819 174.103C197.819 175.978 196.244 178.183 192.794 181.198V181.993ZM204.624 182.203C206.694 182.203 208.029 180.298 208.029 176.458C208.029 172.648 206.694 170.803 204.624 170.803C202.524 170.803 201.189 172.648 201.189 176.458C201.189 180.298 202.524 182.203 204.624 182.203ZM204.624 181.093C203.364 181.093 202.509 179.698 202.509 176.458C202.509 173.263 203.364 171.898 204.624 171.898C205.869 171.898 206.709 173.263 206.709 176.458C206.709 179.698 205.869 181.093 204.624 181.093ZM210.845 182.203C211.4 182.203 211.85 181.768 211.85 181.153C211.85 180.523 211.4 180.103 210.845 180.103C210.305 180.103 209.87 180.523 209.87 181.153C209.87 181.768 210.305 182.203 210.845 182.203ZM217.464 182.203C219.159 182.203 220.614 180.763 220.614 178.633C220.614 176.323 219.414 175.183 217.554 175.183C216.669 175.183 215.649 175.723 214.974 176.608L215.019 177.703C215.754 176.608 216.639 176.188 217.344 176.188C218.664 176.188 219.324 177.133 219.324 178.633C219.324 180.118 218.514 181.123 217.464 181.123C215.919 181.123 215.064 179.578 215.064 176.758C215.064 173.158 216.354 171.943 217.899 171.943C218.559 171.943 219.234 172.258 219.654 172.768L220.419 171.928C219.819 171.283 218.979 170.803 217.839 170.803C215.709 170.803 213.774 172.453 213.774 176.758C213.774 180.388 215.349 182.203 217.464 182.203ZM224.645 173.653V174.568H235.31V173.653H224.645ZM224.855 178.018V178.948H233.435V178.018H224.855ZM227.06 172.348V177.058H232.88V172.348H231.785V176.173H228.125V172.348H227.06ZM233.135 178.018V178.183C231.74 180.703 227.96 181.813 224.135 182.158C224.315 182.413 224.51 182.848 224.6 183.103C228.68 182.638 232.595 181.423 234.275 178.363L233.57 177.973L233.36 178.018H233.135ZM227.255 178.783L226.28 179.158C228.005 181.498 231.215 182.743 235.04 183.193C235.175 182.908 235.445 182.458 235.685 182.218C231.95 181.873 228.74 180.763 227.255 178.783ZM223.685 170.893V171.943H235.49V170.893H223.685ZM223.16 170.893V174.973C223.16 177.223 223.04 180.418 221.81 182.683C222.095 182.773 222.605 183.013 222.83 183.193C224.09 180.823 224.27 177.358 224.27 174.973V170.893H223.16ZM228.365 169.588C228.695 170.203 229.04 171.043 229.175 171.568L230.36 171.238C230.225 170.728 229.835 169.933 229.49 169.318L228.365 169.588Z" fill="#404040"/>
<rect x="136" y="144.015" width="104" height="21" fill="#96B1BA"/>
<path d="M151.775 161H154.01C154.205 156.665 154.535 154.385 157.115 151.235V149.9H149.75V151.745H154.745C152.615 154.685 151.985 157.16 151.775 161ZM162.273 161.21C164.523 161.21 166.023 159.245 166.023 155.405C166.023 151.58 164.523 149.705 162.273 149.705C160.008 149.705 158.508 151.58 158.508 155.405C158.508 159.245 160.008 161.21 162.273 161.21ZM162.273 159.485C161.313 159.485 160.593 158.525 160.593 155.405C160.593 152.3 161.313 151.4 162.273 151.4C163.233 151.4 163.938 152.3 163.938 155.405C163.938 158.525 163.233 159.485 162.273 159.485ZM170.415 148.205C169.77 150.155 168.6 152.075 167.25 153.245C167.685 153.5 168.45 154.1 168.795 154.415C170.13 153.065 171.45 150.905 172.245 148.67L170.415 148.205ZM170.73 149.915L169.86 151.655H180.27V149.915H170.73ZM169.665 153.455V158.285H171.48V155.135H179.925V153.455H169.665ZM167.295 157.4V159.14H181.095V157.4H167.295ZM174.075 150.815V162.35H175.935V150.815H174.075ZM183.945 148.715V153.575H185.685V149.975H192.66V153.575H194.49V148.715H183.945ZM186.165 150.56V151.625H192.18V150.56H186.165ZM186.165 152.195V153.32H192.135V152.195H186.165ZM182.445 153.92V155.36H195.9V153.92H182.445ZM189.285 155.915V157.295H194.22V155.915H189.285ZM184.755 155.945V157.19H188.16V155.945H184.755ZM184.755 157.805V159.05H188.16V157.805H184.755ZM191.16 157.16L189.72 157.565C190.755 159.905 192.54 161.585 195.12 162.335C195.36 161.915 195.825 161.255 196.185 160.94C193.785 160.37 192.015 158.99 191.16 157.16ZM193.815 155.915V156.17C193.14 158.495 191.19 160.205 188.82 160.91C189.15 161.255 189.585 161.9 189.78 162.32C192.495 161.33 194.625 159.425 195.54 156.275L194.43 155.855L194.13 155.915H193.815ZM182.295 160.055L182.46 161.57C184.05 161.42 186.195 161.21 188.235 160.97L188.205 159.59C186.045 159.785 183.795 159.965 182.295 160.055ZM187.245 154.385V162.35H188.955V154.385H187.245ZM183.63 154.415V160.52H185.265V154.415H183.63ZM200.265 148.325C199.5 150.47 198.21 152.6 196.845 153.965C197.145 154.4 197.64 155.39 197.805 155.825C199.44 154.115 201 151.415 201.96 148.85L200.265 148.325ZM198.795 152.465V162.335H200.52V150.77L200.505 150.755L198.795 152.465ZM203.565 153.83V155.495H211.02V153.83H203.565ZM209.34 148.19C207.615 148.85 204.795 149.45 202.23 149.81C202.425 150.185 202.665 150.815 202.74 151.22C205.395 150.875 208.44 150.32 210.675 149.54L209.34 148.19ZM206.505 150.125C206.73 157.01 207.57 162.155 209.775 162.17C210.375 162.17 211.05 161.585 211.41 159.2C211.14 159.065 210.48 158.63 210.21 158.285C210.135 159.5 209.985 160.16 209.775 160.16C209.04 160.145 208.245 155.42 208.14 150.125H206.505ZM202.14 160.925C202.515 160.7 203.085 160.49 206.355 159.605C206.31 159.23 206.295 158.555 206.34 158.09L202.695 158.945L201.99 159.47L202.14 160.925ZM202.14 160.925C202.14 160.37 203.91 159.575 203.91 159.575V150.275L202.23 149.81V158.45C202.23 159.065 201.84 159.365 201.51 159.515C201.765 159.845 202.05 160.535 202.14 160.925ZM203.655 160.535V161.99H207.705V160.535H203.655ZM216.825 155.81V161.15H218.445V157.325H219.285V161.15H220.605V157.325H221.46V161.15H222.795V157.325H223.65V161.15H225.345V155.81H216.825ZM215.595 160.355V161.915H226.275V160.355H215.595ZM212.895 149.66C213.78 150.065 214.92 150.74 215.445 151.25L216.495 149.765C215.925 149.27 214.77 148.67 213.885 148.325L212.895 149.66ZM212.1 153.725C213 154.1 214.125 154.745 214.65 155.225L215.7 153.74C215.115 153.26 213.975 152.675 213.09 152.36L212.1 153.725ZM212.37 161.105L213.975 162.185C214.74 160.715 215.55 158.975 216.21 157.37L214.785 156.29C214.035 158.06 213.06 159.95 212.37 161.105ZM218.97 150.245H223.065V153.695H218.97V150.245ZM217.35 148.91V155.03H224.775V148.91H217.35ZM220.545 150.35C220.395 151.295 219.885 152.255 218.955 152.765C219.18 152.945 219.525 153.335 219.69 153.56C220.8 152.945 221.475 151.73 221.715 150.485L220.545 150.35ZM220.395 151.865C220.98 152.375 221.76 153.095 222.135 153.545L222.96 152.78C222.57 152.36 221.775 151.685 221.19 151.205L220.395 151.865Z" fill="#FAFAFA"/>
</svg>
