<svg width="530" height="372" viewBox="0 0 530 372" fill="none" xmlns="http://www.w3.org/2000/svg">
<path d="M410.213 187.026L407.953 211.322V314.158H502.879V134.478L499.488 148.039L495.533 126.567L491.578 129.393V140.693L488.188 153.689L481.972 167.25L480.277 150.864L476.887 157.079L475.192 169.51L471.802 159.339L467.281 153.689L463.891 163.294L460.501 157.079L457.111 164.99L454.286 180.245L451.461 178.55L449.2 150.864L443.55 192.111L441.29 175.16L437.335 190.416L432.815 198.891V183.636L429.424 178.55L426.034 198.891L424.339 190.416H421.514L419.254 202.282L417.559 214.712L413.603 211.322L410.213 187.026Z" fill="#E6EAEC"/>
<path d="M175.32 296.476H181.35V295.336H179.13V285.481H178.08C177.495 285.841 176.79 286.096 175.8 286.261V287.146H177.765V295.336H175.32V296.476ZM185.83 296.686C187.9 296.686 189.82 294.976 189.82 290.506C189.82 287.011 188.245 285.286 186.13 285.286C184.42 285.286 182.98 286.726 182.98 288.856C182.98 291.136 184.165 292.306 186.01 292.306C186.955 292.306 187.93 291.736 188.62 290.866L188.545 289.771C187.825 290.866 186.97 291.301 186.235 291.301C184.93 291.301 184.27 290.326 184.27 288.856C184.27 287.341 185.08 286.351 186.13 286.351C187.675 286.351 188.53 287.806 188.53 290.506C188.53 294.271 187.255 295.546 185.785 295.546C185.08 295.546 184.405 295.231 183.94 294.691L183.175 295.561C183.79 296.206 184.63 296.686 185.83 296.686ZM191.961 296.476H197.991V295.336H195.771V285.481H194.721C194.136 285.841 193.431 286.096 192.441 286.261V287.146H194.406V295.336H191.961V296.476ZM200.281 296.476H206.311V295.336H204.091V285.481H203.041C202.456 285.841 201.751 286.096 200.761 286.261V287.146H202.726V295.336H200.281V296.476ZM211.436 283.831C210.701 285.856 209.456 287.806 208.031 289.051C208.316 289.201 208.781 289.576 209.006 289.771C210.401 288.421 211.736 286.336 212.561 284.116L211.436 283.831ZM211.196 285.691L210.656 286.786H220.871V285.691H211.196ZM210.461 289.096V293.701H211.586V290.146H220.541V289.096H210.461ZM207.986 293.131V294.226H221.576V293.131H207.986ZM214.961 286.261V297.691H216.116V286.261H214.961ZM222.971 292.816H226.811V291.766H222.971V292.816ZM231.651 296.686C233.721 296.686 235.056 294.781 235.056 290.941C235.056 287.131 233.721 285.286 231.651 285.286C229.551 285.286 228.216 287.131 228.216 290.941C228.216 294.781 229.551 296.686 231.651 296.686ZM231.651 295.576C230.391 295.576 229.536 294.181 229.536 290.941C229.536 287.746 230.391 286.381 231.651 286.381C232.896 286.381 233.736 287.746 233.736 290.941C233.736 294.181 232.896 295.576 231.651 295.576ZM237.872 296.686C238.427 296.686 238.877 296.251 238.877 295.636C238.877 295.006 238.427 294.586 237.872 294.586C237.332 294.586 236.897 295.006 236.897 295.636C236.897 296.251 237.332 296.686 237.872 296.686ZM243.892 296.686C245.737 296.686 247.492 295.306 247.492 292.906C247.492 290.476 246.007 289.396 244.177 289.396C243.517 289.396 243.022 289.561 242.527 289.831L242.812 286.651H246.967V285.481H241.612L241.267 290.626L242.002 291.091C242.632 290.671 243.097 290.431 243.832 290.431C245.197 290.431 246.097 291.376 246.097 292.951C246.097 294.541 245.062 295.546 243.757 295.546C242.497 295.546 241.687 294.961 241.072 294.316L240.382 295.216C241.132 295.966 242.182 296.686 243.892 296.686ZM253.382 296.476H254.672V285.481H253.157L248.582 292.546V293.446H256.142V292.366H250.022L252.527 288.616C252.827 288.076 253.127 287.521 253.397 286.981H253.472C253.427 287.551 253.382 288.436 253.382 288.991V296.476ZM261.702 296.476H262.992V285.481H261.477L256.902 292.546V293.446H264.462V292.366H258.342L260.847 288.616C261.147 288.076 261.447 287.521 261.717 286.981H261.792C261.747 287.551 261.702 288.436 261.702 288.991V296.476ZM268.313 288.136V289.051H278.978V288.136H268.313ZM268.523 292.501V293.431H277.103V292.501H268.523ZM270.728 286.831V291.541H276.548V286.831H275.453V290.656H271.793V286.831H270.728ZM276.803 292.501V292.666C275.408 295.186 271.628 296.296 267.803 296.641C267.983 296.896 268.178 297.331 268.268 297.586C272.348 297.121 276.263 295.906 277.943 292.846L277.238 292.456L277.028 292.501H276.803ZM270.923 293.266L269.948 293.641C271.673 295.981 274.883 297.226 278.708 297.676C278.843 297.391 279.113 296.941 279.353 296.701C275.618 296.356 272.408 295.246 270.923 293.266ZM267.353 285.376V286.426H279.158V285.376H267.353ZM266.828 285.376V289.456C266.828 291.706 266.708 294.901 265.478 297.166C265.763 297.256 266.273 297.496 266.498 297.676C267.758 295.306 267.938 291.841 267.938 289.456V285.376H266.828ZM272.033 284.071C272.363 284.686 272.708 285.526 272.843 286.051L274.028 285.721C273.893 285.211 273.503 284.416 273.158 283.801L272.033 284.071Z" fill="#404040"/>
<path d="M463.66 91.2832H470.56V90.1132H467.515C466.96 90.1132 466.3 90.1582 465.715 90.2182C468.31 87.7732 470.035 85.5382 470.035 83.3332C470.035 81.3682 468.805 80.0932 466.84 80.0932C465.445 80.0932 464.485 80.7382 463.585 81.7132L464.38 82.4782C464.995 81.7582 465.775 81.2032 466.675 81.2032C468.04 81.2032 468.685 82.1332 468.685 83.3932C468.685 85.2682 467.11 87.4732 463.66 90.4882V91.2832ZM475.49 91.4932C477.56 91.4932 478.895 89.5882 478.895 85.7482C478.895 81.9382 477.56 80.0932 475.49 80.0932C473.39 80.0932 472.055 81.9382 472.055 85.7482C472.055 89.5882 473.39 91.4932 475.49 91.4932ZM475.49 90.3832C474.23 90.3832 473.375 88.9882 473.375 85.7482C473.375 82.5532 474.23 81.1882 475.49 81.1882C476.735 81.1882 477.575 82.5532 477.575 85.7482C477.575 88.9882 476.735 90.3832 475.49 90.3832ZM480.961 91.2832H486.991V90.1432H484.771V80.2882H483.721C483.136 80.6482 482.431 80.9032 481.441 81.0682V81.9532H483.406V90.1432H480.961V91.2832ZM492.476 91.4932C494.171 91.4932 495.626 90.0532 495.626 87.9232C495.626 85.6132 494.426 84.4732 492.566 84.4732C491.681 84.4732 490.661 85.0132 489.986 85.8982L490.031 86.9932C490.766 85.8982 491.651 85.4782 492.356 85.4782C493.676 85.4782 494.336 86.4232 494.336 87.9232C494.336 89.4082 493.526 90.4132 492.476 90.4132C490.931 90.4132 490.076 88.8682 490.076 86.0482C490.076 82.4482 491.366 81.2332 492.911 81.2332C493.571 81.2332 494.246 81.5482 494.666 82.0582L495.431 81.2182C494.831 80.5732 493.991 80.0932 492.851 80.0932C490.721 80.0932 488.786 81.7432 488.786 86.0482C488.786 89.6782 490.361 91.4932 492.476 91.4932ZM500.436 78.6382C499.701 80.6632 498.456 82.6132 497.031 83.8582C497.316 84.0082 497.781 84.3832 498.006 84.5782C499.401 83.2282 500.736 81.1432 501.561 78.9232L500.436 78.6382ZM500.196 80.4982L499.656 81.5932H509.871V80.4982H500.196ZM499.461 83.9032V88.5082H500.586V84.9532H509.541V83.9032H499.461ZM496.986 87.9382V89.0332H510.576V87.9382H496.986ZM503.961 81.0682V92.4982H505.116V81.0682H503.961ZM466.6 111.543H467.71V108.273H470.755V107.253H467.71V103.968H466.6V107.253H463.555V108.273H466.6V111.543ZM475.49 113.493C477.56 113.493 478.895 111.588 478.895 107.748C478.895 103.938 477.56 102.093 475.49 102.093C473.39 102.093 472.055 103.938 472.055 107.748C472.055 111.588 473.39 113.493 475.49 113.493ZM475.49 112.383C474.23 112.383 473.375 110.988 473.375 107.748C473.375 104.553 474.23 103.188 475.49 103.188C476.735 103.188 477.575 104.553 477.575 107.748C477.575 110.988 476.735 112.383 475.49 112.383ZM481.711 113.493C482.266 113.493 482.716 113.058 482.716 112.443C482.716 111.813 482.266 111.393 481.711 111.393C481.171 111.393 480.736 111.813 480.736 112.443C480.736 113.058 481.171 113.493 481.711 113.493ZM486.77 113.283H488.195C488.375 108.993 488.84 106.428 491.42 103.113V102.288H484.55V103.458H489.875C487.715 106.458 486.965 109.128 486.77 113.283ZM495.646 113.493C497.716 113.493 499.636 111.783 499.636 107.313C499.636 103.818 498.061 102.093 495.946 102.093C494.236 102.093 492.796 103.533 492.796 105.663C492.796 107.943 493.981 109.113 495.826 109.113C496.771 109.113 497.746 108.543 498.436 107.673L498.361 106.578C497.641 107.673 496.786 108.108 496.051 108.108C494.746 108.108 494.086 107.133 494.086 105.663C494.086 104.148 494.896 103.158 495.946 103.158C497.491 103.158 498.346 104.613 498.346 107.313C498.346 111.078 497.071 112.353 495.601 112.353C494.896 112.353 494.221 112.038 493.756 111.498L492.991 112.368C493.606 113.013 494.446 113.493 495.646 113.493ZM503.411 113.283H504.836C505.016 108.993 505.481 106.428 508.061 103.113V102.288H501.191V103.458H506.516C504.356 106.458 503.606 109.128 503.411 113.283ZM512.151 104.943V105.858H522.816V104.943H512.151ZM512.361 109.308V110.238H520.941V109.308H512.361ZM514.566 103.638V108.348H520.386V103.638H519.291V107.463H515.631V103.638H514.566ZM520.641 109.308V109.473C519.246 111.993 515.466 113.103 511.641 113.448C511.821 113.703 512.016 114.138 512.106 114.393C516.186 113.928 520.101 112.713 521.781 109.653L521.076 109.263L520.866 109.308H520.641ZM514.761 110.073L513.786 110.448C515.511 112.788 518.721 114.033 522.546 114.483C522.681 114.198 522.951 113.748 523.191 113.508C519.456 113.163 516.246 112.053 514.761 110.073ZM511.191 102.183V103.233H522.996V102.183H511.191ZM510.666 102.183V106.263C510.666 108.513 510.546 111.708 509.316 113.973C509.601 114.063 510.111 114.303 510.336 114.483C511.596 112.113 511.776 108.648 511.776 106.263V102.183H510.666ZM515.871 100.878C516.201 101.493 516.546 102.333 516.681 102.858L517.866 102.528C517.731 102.018 517.341 101.223 516.996 100.608L515.871 100.878Z" fill="#404040"/>
<path opacity="0.7" d="M407.953 89.2754L407.953 314.158" stroke="black"/>
<circle cx="226.65" cy="267.825" r="4.65032" fill="#FAFAFA" stroke="#285F92" stroke-width="2"/>
<circle cx="492.65" cy="128.827" r="4.65032" fill="#FAFAFA" stroke="#285F92" stroke-width="2"/>
<rect x="378" y="67" width="60" height="22" fill="#285F92"/>
<path d="M384.215 84H390.905V82.215H388.82V72.9H387.185C386.465 73.335 385.715 73.62 384.59 73.83V75.195H386.615V82.215H384.215V84ZM395.673 84.21C397.878 84.21 399.933 82.395 399.933 78.195C399.933 74.355 398.043 72.705 395.928 72.705C394.038 72.705 392.448 74.115 392.448 76.41C392.448 78.765 393.768 79.89 395.628 79.89C396.408 79.89 397.413 79.395 398.013 78.57L397.893 77.07C397.353 77.985 396.663 78.33 396.033 78.33C395.088 78.33 394.458 77.7 394.458 76.41C394.458 75.03 395.133 74.355 395.973 74.355C397.053 74.355 397.908 75.36 397.908 78.195C397.908 81.375 396.843 82.425 395.538 82.425C394.878 82.425 394.203 82.08 393.783 81.615L392.613 82.95C393.288 83.64 394.278 84.21 395.673 84.21ZM405.105 84.21C407.34 84.21 408.84 82.935 408.84 81.255C408.84 79.725 408 78.84 406.98 78.285V78.21C407.7 77.685 408.405 76.77 408.405 75.66C408.405 73.89 407.145 72.72 405.18 72.72C403.245 72.72 401.82 73.86 401.82 75.645C401.82 76.815 402.45 77.67 403.29 78.285V78.345C402.27 78.885 401.4 79.83 401.4 81.255C401.4 82.995 402.975 84.21 405.105 84.21ZM405.81 77.67C404.64 77.205 403.77 76.68 403.77 75.645C403.77 74.76 404.37 74.265 405.135 74.265C406.05 74.265 406.605 74.895 406.605 75.81C406.605 76.47 406.35 77.1 405.81 77.67ZM405.15 82.65C404.115 82.65 403.29 82.005 403.29 81C403.29 80.175 403.71 79.425 404.325 78.945C405.75 79.545 406.785 80.01 406.785 81.165C406.785 82.125 406.11 82.65 405.15 82.65ZM413.968 84.21C416.218 84.21 417.718 82.245 417.718 78.405C417.718 74.58 416.218 72.705 413.968 72.705C411.703 72.705 410.203 74.58 410.203 78.405C410.203 82.245 411.703 84.21 413.968 84.21ZM413.968 82.485C413.008 82.485 412.288 81.525 412.288 78.405C412.288 75.3 413.008 74.4 413.968 74.4C414.928 74.4 415.633 75.3 415.633 78.405C415.633 81.525 414.928 82.485 413.968 82.485ZM422.111 71.205C421.466 73.155 420.296 75.075 418.946 76.245C419.381 76.5 420.146 77.1 420.491 77.415C421.826 76.065 423.146 73.905 423.941 71.67L422.111 71.205ZM422.426 72.915L421.556 74.655H431.966V72.915H422.426ZM421.361 76.455V81.285H423.176V78.135H431.621V76.455H421.361ZM418.991 80.4V82.14H432.791V80.4H418.991ZM425.771 73.815V85.35H427.631V73.815H425.771Z" fill="#FAFAFA"/>
</svg>
