<svg width="363" height="362" viewBox="0 0 363 362" fill="none" xmlns="http://www.w3.org/2000/svg">
<path d="M103.32 286H109.35V284.86H107.13V275.005H106.08C105.495 275.365 104.79 275.62 103.8 275.785V276.67H105.765V284.86H103.32V286ZM113.83 286.21C115.9 286.21 117.82 284.5 117.82 280.03C117.82 276.535 116.245 274.81 114.13 274.81C112.42 274.81 110.98 276.25 110.98 278.38C110.98 280.66 112.165 281.83 114.01 281.83C114.955 281.83 115.93 281.26 116.62 280.39L116.545 279.295C115.825 280.39 114.97 280.825 114.235 280.825C112.93 280.825 112.27 279.85 112.27 278.38C112.27 276.865 113.08 275.875 114.13 275.875C115.675 275.875 116.53 277.33 116.53 280.03C116.53 283.795 115.255 285.07 113.785 285.07C113.08 285.07 112.405 284.755 111.94 284.215L111.175 285.085C111.79 285.73 112.63 286.21 113.83 286.21ZM119.961 286H125.991V284.86H123.771V275.005H122.721C122.136 275.365 121.431 275.62 120.441 275.785V276.67H122.406V284.86H119.961V286ZM128.281 286H134.311V284.86H132.091V275.005H131.041C130.456 275.365 129.751 275.62 128.761 275.785V276.67H130.726V284.86H128.281V286ZM139.436 273.355C138.701 275.38 137.456 277.33 136.031 278.575C136.316 278.725 136.781 279.1 137.006 279.295C138.401 277.945 139.736 275.86 140.561 273.64L139.436 273.355ZM139.196 275.215L138.656 276.31H148.871V275.215H139.196ZM138.461 278.62V283.225H139.586V279.67H148.541V278.62H138.461ZM135.986 282.655V283.75H149.576V282.655H135.986ZM142.961 275.785V287.215H144.116V275.785H142.961ZM150.971 282.34H154.811V281.29H150.971V282.34ZM159.651 286.21C161.721 286.21 163.056 284.305 163.056 280.465C163.056 276.655 161.721 274.81 159.651 274.81C157.551 274.81 156.216 276.655 156.216 280.465C156.216 284.305 157.551 286.21 159.651 286.21ZM159.651 285.1C158.391 285.1 157.536 283.705 157.536 280.465C157.536 277.27 158.391 275.905 159.651 275.905C160.896 275.905 161.736 277.27 161.736 280.465C161.736 283.705 160.896 285.1 159.651 285.1ZM165.872 286.21C166.427 286.21 166.877 285.775 166.877 285.16C166.877 284.53 166.427 284.11 165.872 284.11C165.332 284.11 164.897 284.53 164.897 285.16C164.897 285.775 165.332 286.21 165.872 286.21ZM171.892 286.21C173.737 286.21 175.492 284.83 175.492 282.43C175.492 280 174.007 278.92 172.177 278.92C171.517 278.92 171.022 279.085 170.527 279.355L170.812 276.175H174.967V275.005H169.612L169.267 280.15L170.002 280.615C170.632 280.195 171.097 279.955 171.832 279.955C173.197 279.955 174.097 280.9 174.097 282.475C174.097 284.065 173.062 285.07 171.757 285.07C170.497 285.07 169.687 284.485 169.072 283.84L168.382 284.74C169.132 285.49 170.182 286.21 171.892 286.21ZM181.382 286H182.672V275.005H181.157L176.582 282.07V282.97H184.142V281.89H178.022L180.527 278.14C180.827 277.6 181.127 277.045 181.397 276.505H181.472C181.427 277.075 181.382 277.96 181.382 278.515V286ZM189.702 286H190.992V275.005H189.477L184.902 282.07V282.97H192.462V281.89H186.342L188.847 278.14C189.147 277.6 189.447 277.045 189.717 276.505H189.792C189.747 277.075 189.702 277.96 189.702 278.515V286ZM196.313 277.66V278.575H206.978V277.66H196.313ZM196.523 282.025V282.955H205.103V282.025H196.523ZM198.728 276.355V281.065H204.548V276.355H203.453V280.18H199.793V276.355H198.728ZM204.803 282.025V282.19C203.408 284.71 199.628 285.82 195.803 286.165C195.983 286.42 196.178 286.855 196.268 287.11C200.348 286.645 204.263 285.43 205.943 282.37L205.238 281.98L205.028 282.025H204.803ZM198.923 282.79L197.948 283.165C199.673 285.505 202.883 286.75 206.708 287.2C206.843 286.915 207.113 286.465 207.353 286.225C203.618 285.88 200.408 284.77 198.923 282.79ZM195.353 274.9V275.95H207.158V274.9H195.353ZM194.828 274.9V278.98C194.828 281.23 194.708 284.425 193.478 286.69C193.763 286.78 194.273 287.02 194.498 287.2C195.758 284.83 195.938 281.365 195.938 278.98V274.9H194.828ZM200.033 273.595C200.363 274.21 200.708 275.05 200.843 275.575L202.028 275.245C201.893 274.735 201.503 273.94 201.158 273.325L200.033 273.595Z" fill="#404040"/>
<path d="M302.66 89H309.56V87.83H306.515C305.96 87.83 305.3 87.875 304.715 87.935C307.31 85.49 309.035 83.255 309.035 81.05C309.035 79.085 307.805 77.81 305.84 77.81C304.445 77.81 303.485 78.455 302.585 79.43L303.38 80.195C303.995 79.475 304.775 78.92 305.675 78.92C307.04 78.92 307.685 79.85 307.685 81.11C307.685 82.985 306.11 85.19 302.66 88.205V89ZM314.49 89.21C316.56 89.21 317.895 87.305 317.895 83.465C317.895 79.655 316.56 77.81 314.49 77.81C312.39 77.81 311.055 79.655 311.055 83.465C311.055 87.305 312.39 89.21 314.49 89.21ZM314.49 88.1C313.23 88.1 312.375 86.705 312.375 83.465C312.375 80.27 313.23 78.905 314.49 78.905C315.735 78.905 316.575 80.27 316.575 83.465C316.575 86.705 315.735 88.1 314.49 88.1ZM319.961 89H325.991V87.86H323.771V78.005H322.721C322.136 78.365 321.431 78.62 320.441 78.785V79.67H322.406V87.86H319.961V89ZM331.476 89.21C333.171 89.21 334.626 87.77 334.626 85.64C334.626 83.33 333.426 82.19 331.566 82.19C330.681 82.19 329.661 82.73 328.986 83.615L329.031 84.71C329.766 83.615 330.651 83.195 331.356 83.195C332.676 83.195 333.336 84.14 333.336 85.64C333.336 87.125 332.526 88.13 331.476 88.13C329.931 88.13 329.076 86.585 329.076 83.765C329.076 80.165 330.366 78.95 331.911 78.95C332.571 78.95 333.246 79.265 333.666 79.775L334.431 78.935C333.831 78.29 332.991 77.81 331.851 77.81C329.721 77.81 327.786 79.46 327.786 83.765C327.786 87.395 329.361 89.21 331.476 89.21ZM339.436 76.355C338.701 78.38 337.456 80.33 336.031 81.575C336.316 81.725 336.781 82.1 337.006 82.295C338.401 80.945 339.736 78.86 340.561 76.64L339.436 76.355ZM339.196 78.215L338.656 79.31H348.871V78.215H339.196ZM338.461 81.62V86.225H339.586V82.67H348.541V81.62H338.461ZM335.986 85.655V86.75H349.576V85.655H335.986ZM342.961 78.785V90.215H344.116V78.785H342.961ZM305.6 109.26H306.71V105.99H309.755V104.97H306.71V101.685H305.6V104.97H302.555V105.99H305.6V109.26ZM314.49 111.21C316.56 111.21 317.895 109.305 317.895 105.465C317.895 101.655 316.56 99.81 314.49 99.81C312.39 99.81 311.055 101.655 311.055 105.465C311.055 109.305 312.39 111.21 314.49 111.21ZM314.49 110.1C313.23 110.1 312.375 108.705 312.375 105.465C312.375 102.27 313.23 100.905 314.49 100.905C315.735 100.905 316.575 102.27 316.575 105.465C316.575 108.705 315.735 110.1 314.49 110.1ZM320.711 111.21C321.266 111.21 321.716 110.775 321.716 110.16C321.716 109.53 321.266 109.11 320.711 109.11C320.171 109.11 319.736 109.53 319.736 110.16C319.736 110.775 320.171 111.21 320.711 111.21ZM325.77 111H327.195C327.375 106.71 327.84 104.145 330.42 100.83V100.005H323.55V101.175H328.875C326.715 104.175 325.965 106.845 325.77 111ZM334.646 111.21C336.716 111.21 338.636 109.5 338.636 105.03C338.636 101.535 337.061 99.81 334.946 99.81C333.236 99.81 331.796 101.25 331.796 103.38C331.796 105.66 332.981 106.83 334.826 106.83C335.771 106.83 336.746 106.26 337.436 105.39L337.361 104.295C336.641 105.39 335.786 105.825 335.051 105.825C333.746 105.825 333.086 104.85 333.086 103.38C333.086 101.865 333.896 100.875 334.946 100.875C336.491 100.875 337.346 102.33 337.346 105.03C337.346 108.795 336.071 110.07 334.601 110.07C333.896 110.07 333.221 109.755 332.756 109.215L331.991 110.085C332.606 110.73 333.446 111.21 334.646 111.21ZM342.411 111H343.836C344.016 106.71 344.481 104.145 347.061 100.83V100.005H340.191V101.175H345.516C343.356 104.175 342.606 106.845 342.411 111ZM351.151 102.66V103.575H361.816V102.66H351.151ZM351.361 107.025V107.955H359.941V107.025H351.361ZM353.566 101.355V106.065H359.386V101.355H358.291V105.18H354.631V101.355H353.566ZM359.641 107.025V107.19C358.246 109.71 354.466 110.82 350.641 111.165C350.821 111.42 351.016 111.855 351.106 112.11C355.186 111.645 359.101 110.43 360.781 107.37L360.076 106.98L359.866 107.025H359.641ZM353.761 107.79L352.786 108.165C354.511 110.505 357.721 111.75 361.546 112.2C361.681 111.915 361.951 111.465 362.191 111.225C358.456 110.88 355.246 109.77 353.761 107.79ZM350.191 99.9V100.95H361.996V99.9H350.191ZM349.666 99.9V103.98C349.666 106.23 349.546 109.425 348.316 111.69C348.601 111.78 349.111 112.02 349.336 112.2C350.596 109.83 350.776 106.365 350.776 103.98V99.9H349.666ZM354.871 98.595C355.201 99.21 355.546 100.05 355.681 100.575L356.866 100.245C356.731 99.735 356.341 98.94 355.996 98.325L354.871 98.595Z" fill="#404040"/>
<path d="M341.98 144.08L340 144.03L337.56 125.17L336.59 126.16L336.57 136.93L334.22 149.71L329.98 162.92L328.03 162.68L327.2 151.21L326.53 152.94L325.39 164.91L323.42 165.04L321.14 155.27L319.36 152.1L316.88 162.09L314.47 155.8L313.03 160.62L310.87 177.23L307.21 174.1L306.39 159.74L303.78 186.91H301.79L300.92 177.65L299.47 185.52L296.39 193.77L294.45 193.42V178.79L293.72 177.22L291.81 193.53L289.83 193.56L288.79 186.17H288.61L287.18 196.85L285.79 211.33L281.36 205.92L280.21 194.17L279.47 205.59L278.47 205.6V305.65H343.3V136.5L341.98 144.08Z" fill="#E6EAEC"/>
<path opacity="0.7" d="M279 131.149L279 306.49" stroke="black"/>
<rect x="232" y="113.063" width="61" height="21" fill="#285F92"/>
<path d="M238.215 130H244.905V128.215H242.82V118.9H241.185C240.465 119.335 239.715 119.62 238.59 119.83V121.195H240.615V128.215H238.215V130ZM249.673 130.21C251.878 130.21 253.933 128.395 253.933 124.195C253.933 120.355 252.043 118.705 249.928 118.705C248.038 118.705 246.448 120.115 246.448 122.41C246.448 124.765 247.768 125.89 249.628 125.89C250.408 125.89 251.413 125.395 252.013 124.57L251.893 123.07C251.353 123.985 250.663 124.33 250.033 124.33C249.088 124.33 248.458 123.7 248.458 122.41C248.458 121.03 249.133 120.355 249.973 120.355C251.053 120.355 251.908 121.36 251.908 124.195C251.908 127.375 250.843 128.425 249.538 128.425C248.878 128.425 248.203 128.08 247.783 127.615L246.613 128.95C247.288 129.64 248.278 130.21 249.673 130.21ZM259.105 130.21C261.34 130.21 262.84 128.935 262.84 127.255C262.84 125.725 262 124.84 260.98 124.285V124.21C261.7 123.685 262.405 122.77 262.405 121.66C262.405 119.89 261.145 118.72 259.18 118.72C257.245 118.72 255.82 119.86 255.82 121.645C255.82 122.815 256.45 123.67 257.29 124.285V124.345C256.27 124.885 255.4 125.83 255.4 127.255C255.4 128.995 256.975 130.21 259.105 130.21ZM259.81 123.67C258.64 123.205 257.77 122.68 257.77 121.645C257.77 120.76 258.37 120.265 259.135 120.265C260.05 120.265 260.605 120.895 260.605 121.81C260.605 122.47 260.35 123.1 259.81 123.67ZM259.15 128.65C258.115 128.65 257.29 128.005 257.29 127C257.29 126.175 257.71 125.425 258.325 124.945C259.75 125.545 260.785 126.01 260.785 127.165C260.785 128.125 260.11 128.65 259.15 128.65ZM267.968 130.21C270.218 130.21 271.718 128.245 271.718 124.405C271.718 120.58 270.218 118.705 267.968 118.705C265.703 118.705 264.203 120.58 264.203 124.405C264.203 128.245 265.703 130.21 267.968 130.21ZM267.968 128.485C267.008 128.485 266.288 127.525 266.288 124.405C266.288 121.3 267.008 120.4 267.968 120.4C268.928 120.4 269.633 121.3 269.633 124.405C269.633 127.525 268.928 128.485 267.968 128.485ZM276.111 117.205C275.466 119.155 274.296 121.075 272.946 122.245C273.381 122.5 274.146 123.1 274.491 123.415C275.826 122.065 277.146 119.905 277.941 117.67L276.111 117.205ZM276.426 118.915L275.556 120.655H285.966V118.915H276.426ZM275.361 122.455V127.285H277.176V124.135H285.621V122.455H275.361ZM272.991 126.4V128.14H286.791V126.4H272.991ZM279.771 119.815V131.35H281.631V119.815H279.771Z" fill="#FAFAFA"/>
<path d="M341.704 123.793C341.704 125.372 340.423 126.653 338.844 126.653C337.265 126.653 335.985 125.372 335.985 123.793C335.985 122.213 337.265 120.933 338.844 120.933C340.423 120.933 341.704 122.213 341.704 123.793Z" fill="#FAFAFA" stroke="#285F92" stroke-width="2"/>
<path d="M157.719 259.131C157.719 260.71 156.438 261.991 154.859 261.991C153.28 261.991 152 260.71 152 259.131C152 257.551 153.28 256.271 154.859 256.271C156.438 256.271 157.719 257.551 157.719 259.131Z" fill="#FAFAFA" stroke="#285F92" stroke-width="2"/>
</svg>
