<svg width="530" height="372" viewBox="0 0 530 372" fill="none" xmlns="http://www.w3.org/2000/svg">
<rect width="530" height="371.791" fill="#FAFAFA"/>
<path d="M11.22 23.7005V25.7405H16.48V23.7005H11.22ZM9.14 32.8605V40.3605H11.36V34.8805H15.56V40.3005H17.88V32.8605H9.14ZM10.04 37.6205V39.6805H16.82V37.6205H10.04ZM11.44 21.5605C10.54 23.9205 8.92 26.2005 7.1 27.6005C7.62 27.9605 8.54 28.8005 8.94 29.2205C10.78 27.5805 12.62 24.9405 13.72 22.2005L11.44 21.5605ZM15.86 23.7005V24.0805C14.58 28.0805 10.9 31.1405 6.76 32.4205C7.22 32.8805 7.82 33.7805 8.1 34.3605C12.64 32.6605 16.54 29.4205 18.2 24.3005L16.68 23.6205L16.28 23.7005H15.86ZM11.3 25.0805L9.52 26.0005C10.94 29.0605 13.9 32.3605 18.22 33.9005C18.54 33.3005 19.22 32.3605 19.7 31.9005C15.46 30.7205 12.58 27.7605 11.3 25.0805ZM0.88 25.7005V27.9405H8.04V25.7005H0.88ZM3.54 21.5805V40.3605H5.8V21.5805H3.54ZM3.48 27.2405C2.98 29.8005 1.76 32.9205 0.4 34.6605C0.78 35.2405 1.32 36.1805 1.52 36.8405C3.02 34.7805 4.26 30.9405 4.86 27.7205L3.48 27.2405ZM5.72 28.3205L4.64 29.3205C5.22 30.1405 6.4 32.0405 6.88 33.0205L8.18 31.2205C7.82 30.7405 6.18 28.7605 5.72 28.3205ZM31.94 21.5805V27.3405H34.28V21.5805H31.94ZM28.44 23.1605V25.0805H38.04V23.1605H28.44ZM27.18 26.4405V28.4005H39.22V26.4405H27.18ZM29.98 28.0805C29.76 29.3405 29.2 30.2205 27.08 30.7605C27.52 31.1405 28.08 31.9405 28.3 32.4605C30.98 31.5405 31.76 30.1005 32.08 28.0805H29.98ZM33.98 27.7205V29.0405C33.98 30.8005 34.38 31.4805 36.24 31.4805C36.54 31.4805 37.44 31.4805 37.76 31.4805C38.22 31.4805 38.72 31.4605 39.02 31.3405C38.96 30.8405 38.9 30.0605 38.86 29.5205C38.58 29.6005 38.02 29.6405 37.7 29.6405C37.44 29.6405 36.64 29.6405 36.4 29.6405C36.12 29.6405 36.06 29.4805 36.06 29.0605V27.7205H33.98ZM31.2 30.6005C30.44 32.6405 28.86 34.3405 26.94 35.3805C27.4 35.7405 28.2 36.5805 28.52 37.0005C30.56 35.7005 32.38 33.6205 33.36 31.1005L31.2 30.6005ZM30.8 32.4005V34.3205H36.22V32.4005H30.8ZM35.62 32.4005V32.8005C34.72 35.6205 31.48 37.6405 26.02 38.5605C26.52 39.0605 27.1 39.9005 27.36 40.4805C33.2 39.3205 36.76 36.8405 38.08 33.0005L36.5 32.3205L36.08 32.4005H35.62ZM29.48 32.3005L27.78 33.1405C29.28 36.4805 32.6 39.3205 38.4 40.3005C38.68 39.7005 39.26 38.7605 39.72 38.2805C34.04 37.6005 30.8 35.1605 29.48 32.3005ZM21.3 22.3605V40.3005H23.38V24.5005H25.9V22.3605H21.3ZM25.28 22.3605V23.0405C24.98 24.3005 24.36 26.9005 23.8 28.6805C24.94 30.0805 25.18 31.3805 25.18 32.3405C25.18 32.9205 25.08 33.3605 24.84 33.5405C24.7 33.6405 24.5 33.7005 24.3 33.7005C24.06 33.7205 23.78 33.7005 23.44 33.6805C23.76 34.2605 23.94 35.1605 23.96 35.7405C24.42 35.7405 24.9 35.7405 25.26 35.7005C25.7 35.6205 26.08 35.5005 26.4 35.2605C27.04 34.7805 27.3 33.9005 27.3 32.6005C27.3 31.4205 27.04 30.0005 25.84 28.4205C26.42 26.8805 27.06 24.8605 27.58 23.1805L26 22.2805L25.66 22.3605H25.28ZM45.08 31.1605V32.4005H54.96V31.1605H45.08ZM48.48 36.2805C47.64 37.1005 46 37.9005 44.58 38.2805C44.98 38.6205 45.54 39.2605 45.82 39.6805C47.3 39.1205 48.92 37.9205 49.84 36.8205L48.48 36.2805ZM43.32 27.5205V28.6205H47.62V27.5205H43.32ZM52.28 27.5205V28.6605H56.66V27.5205H52.28ZM43.32 25.6005V26.9605H47.1V29.2005H43.32V30.5405H49.22V25.6005H43.32ZM56.74 25.6005H50.56V30.5805H56.74V29.2005H52.72V26.9805H56.74V25.6005ZM41.86 25.6005V40.3605H44.1V25.6005H41.86ZM55.88 25.6005V38.0005C55.88 38.2205 55.82 38.3005 55.58 38.3005C55.38 38.3005 54.72 38.3005 54.12 38.2805C54.4 38.8005 54.7 39.6605 54.78 40.2205C55.92 40.2205 56.76 40.2005 57.36 39.8605C57.98 39.5205 58.16 39.0005 58.16 38.0005V25.6005H55.88ZM47.1 34.1005H52.8V35.6405H47.1V34.1005ZM45.56 32.9005V36.8405H54.4V32.9005H45.56ZM47.38 34.4805C47.6 34.8405 47.9 35.3205 48.04 35.6405L48.94 35.2605C48.78 34.9605 48.46 34.4805 48.22 34.1605L47.38 34.4805ZM51.6 34.1205C51.46 34.4405 51.14 34.9605 50.9 35.3405L51.66 35.6605C51.92 35.3605 52.2 34.9805 52.52 34.5205L51.6 34.1205ZM51 36.3205L50.14 37.0605C50.94 37.6005 52.74 38.9605 53.4 39.5805L54.34 38.2605C53.84 37.9205 51.64 36.6405 51 36.3205ZM48.98 30.3205V33.6005H50.84V30.3205H48.98ZM49.18 33.1805V36.3205H49V40.0005H50.84V36.3205H50.66V33.1805H49.18ZM41.04 22.4605V24.4405H49.62V22.4605H41.04ZM44.68 21.5605V25.2805H47.06V21.5605H44.68ZM53.08 21.5605V25.3005H55.46V21.5605H53.08ZM50.34 22.4605V24.4405H58.94V22.4605H50.34ZM63.58 22.3005V24.4605H79.02V22.3005H63.58ZM63.8 37.8805V39.8605H79.06V37.8805H63.8ZM71.7 34.3605V36.2005H77.34V34.3605H71.7ZM62 22.3005V28.4805C62 31.6405 61.88 36.1405 60.38 39.2205C60.96 39.4205 61.96 39.9805 62.4 40.3205C64.02 37.0205 64.26 31.9005 64.26 28.4805V22.3005H62ZM70.44 32.7205V39.0005H72.76V32.7205H70.44ZM65.96 34.1205V39.0205H68.26V34.1205H65.96ZM64.66 27.5405V29.2005H70.88V27.5405H64.66ZM66.84 25.4805V32.8405H68.8V25.4805H66.84ZM66.6 28.2805C65.96 29.4805 64.76 30.7805 63.62 31.4205C64.04 31.7605 64.62 32.4005 64.9 32.8605C66.08 31.9605 67.26 30.3005 67.9 28.7605L66.6 28.2805ZM71.38 27.5405V29.2005H78.56V27.5405H71.38ZM73.72 25.4805V32.8405H75.72V25.4805H73.72ZM73.24 28.2605C72.66 29.4605 71.48 30.7405 70.34 31.4005C70.76 31.7405 71.34 32.4005 71.64 32.8605C72.82 31.9605 73.96 30.2805 74.56 28.7205L73.24 28.2605ZM68.72 29.0205L67.6 29.8605C68.16 30.3005 69.3 31.3405 69.76 31.8405L70.9 30.4005C70.54 30.1205 69.18 29.2605 68.72 29.0205ZM69.3 24.5805C68.22 25.0005 66.24 25.3005 64.48 25.4205C64.68 25.8005 64.9 26.4005 65 26.7805C66.92 26.6805 69.22 26.3805 70.78 25.7805L69.3 24.5805ZM76.52 24.4805C75.32 24.9405 73.06 25.2405 71.1 25.4005C71.3 25.7405 71.54 26.3805 71.6 26.7405C73.74 26.6405 76.28 26.3205 78 25.6805L76.52 24.4805ZM75.78 29.0605L74.74 30.0405C75.56 30.6405 77.38 32.1005 78.14 32.8405L79.2 31.3005C78.66 30.9005 76.46 29.4405 75.78 29.0605ZM84.96 21.5005C84.1 24.1005 82.54 26.6605 80.74 28.2205C81.32 28.5605 82.34 29.3605 82.8 29.7805C84.58 27.9805 86.34 25.1005 87.4 22.1205L84.96 21.5005ZM85.38 23.7805L84.22 26.1005H98.1V23.7805H85.38ZM83.96 28.5005V34.9405H86.38V30.7405H97.64V28.5005H83.96ZM80.8 33.7605V36.0805H99.2V33.7605H80.8ZM89.84 24.9805V40.3605H92.32V24.9805H89.84ZM101.98 22.8205V25.2005H117.96V22.8205H101.98ZM100.9 31.3005V33.7205H119.12V31.3005H100.9ZM103.18 26.4805C103.82 27.8205 104.46 29.5805 104.66 30.6605L106.98 29.9205C106.76 28.8205 106.06 27.1205 105.36 25.8405L103.18 26.4805ZM114.58 25.7805C114.2 27.1005 113.46 28.8605 112.84 30.0205L114.94 30.6405C115.6 29.6005 116.42 27.9605 117.14 26.4405L114.58 25.7805ZM108.72 23.8205V40.3405H111.22V23.8205H108.72ZM128.44 33.4605V35.6005H135.06V33.4605H128.44ZM128.9 29.0805V31.2205H134.68V29.0805H128.9ZM129.74 24.7805V27.0605H137.38V24.7805H129.74ZM136.64 24.7805V25.3005C136.4 33.6405 136.12 36.9805 135.52 37.6605C135.28 37.9405 135.06 38.0205 134.68 38.0205C134.18 38.0205 133.12 38.0205 131.94 37.9005C132.36 38.6005 132.7 39.6605 132.74 40.3405C133.88 40.3805 135.06 40.4005 135.78 40.2805C136.6 40.1605 137.14 39.9205 137.68 39.1405C138.48 38.1005 138.76 34.8605 139.02 25.9205C139.04 25.6205 139.06 24.7805 139.06 24.7805H136.64ZM130.2 21.5605C129.34 24.3005 127.84 27.0805 126.12 28.7605C126.74 29.0805 127.82 29.7405 128.34 30.1405C129.96 28.2405 131.62 25.2205 132.64 22.2005L130.2 21.5605ZM120.86 26.3605V28.6405H127.26V26.3605H120.86ZM123.04 21.9405V35.3205H125.36V21.9405H123.04ZM120.44 35.9405L121.34 38.3405C123.3 37.3605 125.74 36.1205 127.98 34.9205L127.32 32.7205C124.84 33.9605 122.16 35.2405 120.44 35.9405ZM146.84 31.6405V38.7605H149V33.6605H150.12V38.7605H151.88V33.6605H153.02V38.7605H154.8V33.6605H155.94V38.7605H158.2V31.6405H146.84ZM145.2 37.7005V39.7805H159.44V37.7005H145.2ZM141.6 23.4405C142.78 23.9805 144.3 24.8805 145 25.5605L146.4 23.5805C145.64 22.9205 144.1 22.1205 142.92 21.6605L141.6 23.4405ZM140.54 28.8605C141.74 29.3605 143.24 30.2205 143.94 30.8605L145.34 28.8805C144.56 28.2405 143.04 27.4605 141.86 27.0405L140.54 28.8605ZM140.9 38.7005L143.04 40.1405C144.06 38.1805 145.14 35.8605 146.02 33.7205L144.12 32.2805C143.12 34.6405 141.82 37.1605 140.9 38.7005ZM149.7 24.2205H155.16V28.8205H149.7V24.2205ZM147.54 22.4405V30.6005H157.44V22.4405H147.54ZM151.8 24.3605C151.6 25.6205 150.92 26.9005 149.68 27.5805C149.98 27.8205 150.44 28.3405 150.66 28.6405C152.14 27.8205 153.04 26.2005 153.36 24.5405L151.8 24.3605ZM151.6 26.3805C152.38 27.0605 153.42 28.0205 153.92 28.6205L155.02 27.6005C154.5 27.0405 153.44 26.1405 152.66 25.5005L151.6 26.3805ZM165 27.3205V29.2005H178.9V27.3205H165ZM165.16 33.1405V35.0205H176.14V33.1405H165.16ZM167.72 26.0005V32.3405H176V26.0005H173.64V30.5405H169.98V26.0005H167.72ZM175.52 33.1405V33.4405C173.86 36.5205 169.3 37.8405 164.18 38.2205C164.54 38.7405 164.96 39.6605 165.14 40.2205C170.78 39.6005 175.7 38.0205 177.9 33.8205L176.4 33.0605L175.98 33.1405H175.52ZM168.54 34.5405L166.48 35.3205C168.94 38.3005 172.9 39.8205 178.04 40.3405C178.32 39.7405 178.92 38.7605 179.42 38.2605C174.52 37.9205 170.48 36.7605 168.54 34.5405ZM163.34 23.3005V25.5205H179.1V23.3005H163.34ZM162.22 23.3005V28.6605C162.22 31.7205 162.08 36.2205 160.48 39.2805C161.1 39.4605 162.18 39.9605 162.68 40.3205C164.34 37.0405 164.6 32.0205 164.6 28.6405V23.3005H162.22ZM169.24 21.9605C169.62 22.8405 169.98 24.0405 170.08 24.7805L172.66 24.1605C172.54 23.4205 172.1 22.3005 171.68 21.4205L169.24 21.9605Z" fill="#404040"/>
<path opacity="0.5" d="M47.4626 314.158H524.35" stroke="#C7C7C7"/>
<g opacity="0.5">
<path d="M47.4626 241.833H523.785" stroke="#C7C7C7"/>
<path d="M47.4626 169.51H523.785" stroke="#C7C7C7"/>
<path d="M47.4626 96.0557H523.785" stroke="#C7C7C7"/>
</g>
<path d="M63.2837 243.528L70.0641 272.91L76.2794 218.102L81.9297 258.784L88.1451 233.358L100.576 258.784H107.356L113.572 240.703L121.482 249.179L127.697 207.366L133.348 262.175L138.433 254.829L146.343 239.008L152.559 251.439L158.774 224.882L165.554 289.296L177.985 219.797L184.201 227.708L190.981 229.403L197.196 289.296L203.977 239.008L210.192 259.914L215.842 247.484L223.188 270.085L228.838 218.102L233.358 227.708L248.049 251.439L254.265 214.147L260.48 259.914L267.825 270.085L274.606 303.422L281.386 262.175L285.906 219.797L293.252 235.053L299.467 218.102L305.117 227.708L311.898 271.215L317.548 249.179L324.328 245.224L331.109 290.991L344.67 251.439L357.1 193.241L363.881 222.622L369.531 207.366L375.746 241.833L381.962 219.797L390.437 209.627L396.653 200.586L400.608 181.375L406.823 209.627L413.604 173.464L420.949 211.322L426.599 218.102L432.815 216.407L439.595 239.008L445.245 129.957L452.591 240.138L458.241 181.375L464.456 227.708L471.237 205.671L478.017 257.654L484.798 153.123L489.318 196.066L496.098 214.147L503.444 166.684L508.529 214.147" stroke="#285F92" stroke-width="2" stroke-linecap="round"/>
<path d="M104.156 338.938H110.186V337.797H107.966V327.942H106.916C106.331 328.302 105.626 328.557 104.636 328.722V329.607H106.601V337.797H104.156V338.938ZM114.666 339.148C116.736 339.148 118.656 337.437 118.656 332.967C118.656 329.472 117.081 327.747 114.966 327.747C113.256 327.747 111.816 329.187 111.816 331.317C111.816 333.597 113.001 334.767 114.846 334.767C115.791 334.767 116.766 334.197 117.456 333.327L117.381 332.232C116.661 333.327 115.806 333.762 115.071 333.762C113.766 333.762 113.106 332.787 113.106 331.317C113.106 329.802 113.916 328.812 114.966 328.812C116.511 328.812 117.366 330.267 117.366 332.967C117.366 336.733 116.091 338.007 114.621 338.007C113.916 338.007 113.241 337.692 112.776 337.152L112.011 338.022C112.626 338.667 113.466 339.148 114.666 339.148ZM123.992 339.148C125.687 339.148 127.142 337.707 127.142 335.577C127.142 333.267 125.942 332.127 124.082 332.127C123.197 332.127 122.177 332.667 121.502 333.552L121.547 334.647C122.282 333.552 123.167 333.132 123.872 333.132C125.192 333.132 125.852 334.077 125.852 335.577C125.852 337.062 125.042 338.067 123.992 338.067C122.447 338.067 121.592 336.522 121.592 333.702C121.592 330.102 122.882 328.887 124.427 328.887C125.087 328.887 125.762 329.202 126.182 329.712L126.947 328.872C126.347 328.227 125.507 327.747 124.367 327.747C122.237 327.747 120.302 329.397 120.302 333.702C120.302 337.332 121.877 339.148 123.992 339.148ZM131.967 339.148C134.037 339.148 135.372 337.242 135.372 333.402C135.372 329.592 134.037 327.747 131.967 327.747C129.867 327.747 128.532 329.592 128.532 333.402C128.532 337.242 129.867 339.148 131.967 339.148ZM131.967 338.037C130.707 338.037 129.852 336.642 129.852 333.402C129.852 330.207 130.707 328.842 131.967 328.842C133.212 328.842 134.052 330.207 134.052 333.402C134.052 336.642 133.212 338.037 131.967 338.037ZM140.272 326.292C139.537 328.317 138.292 330.267 136.867 331.512C137.152 331.662 137.617 332.037 137.842 332.232C139.237 330.882 140.572 328.797 141.397 326.577L140.272 326.292ZM140.032 328.152L139.492 329.247H149.707V328.152H140.032ZM139.297 331.557V336.162H140.422V332.607H149.377V331.557H139.297ZM136.822 335.592V336.687H150.412V335.592H136.822ZM143.797 328.722V340.153H144.952V328.722H143.797Z" fill="#404040"/>
<path d="M236.373 338.938H242.403V337.797H240.183V327.942H239.133C238.548 328.302 237.843 328.557 236.853 328.722V329.607H238.818V337.797H236.373V338.938ZM246.884 339.148C248.954 339.148 250.874 337.437 250.874 332.967C250.874 329.472 249.299 327.747 247.184 327.747C245.474 327.747 244.034 329.187 244.034 331.317C244.034 333.597 245.219 334.767 247.064 334.767C248.009 334.767 248.984 334.197 249.674 333.327L249.599 332.232C248.879 333.327 248.024 333.762 247.289 333.762C245.984 333.762 245.324 332.787 245.324 331.317C245.324 329.802 246.134 328.812 247.184 328.812C248.729 328.812 249.584 330.267 249.584 332.967C249.584 336.733 248.309 338.007 246.839 338.007C246.134 338.007 245.459 337.692 244.994 337.152L244.229 338.022C244.844 338.667 245.684 339.148 246.884 339.148ZM255.879 339.148C257.934 339.148 259.329 337.902 259.329 336.297C259.329 334.797 258.429 333.957 257.469 333.402V333.327C258.129 332.817 258.939 331.842 258.939 330.673C258.939 328.992 257.799 327.792 255.924 327.792C254.199 327.792 252.894 328.902 252.894 330.567C252.894 331.722 253.584 332.562 254.394 333.117V333.177C253.389 333.717 252.369 334.737 252.369 336.222C252.369 337.917 253.854 339.148 255.879 339.148ZM256.629 332.982C255.339 332.472 254.154 331.887 254.154 330.567C254.154 329.517 254.889 328.797 255.894 328.797C257.079 328.797 257.769 329.667 257.769 330.747C257.769 331.572 257.379 332.322 256.629 332.982ZM255.909 338.112C254.589 338.112 253.599 337.257 253.599 336.087C253.599 335.037 254.214 334.167 255.114 333.597C256.659 334.227 258.009 334.782 258.009 336.252C258.009 337.347 257.169 338.112 255.909 338.112ZM264.184 339.148C266.254 339.148 267.589 337.242 267.589 333.402C267.589 329.592 266.254 327.747 264.184 327.747C262.084 327.747 260.749 329.592 260.749 333.402C260.749 337.242 262.084 339.148 264.184 339.148ZM264.184 338.037C262.924 338.037 262.069 336.642 262.069 333.402C262.069 330.207 262.924 328.842 264.184 328.842C265.429 328.842 266.269 330.207 266.269 333.402C266.269 336.642 265.429 338.037 264.184 338.037Z" fill="#404040"/>
<path d="M361.15 338.938H368.05V337.767H365.005C364.45 337.767 363.79 337.812 363.205 337.872C365.8 335.427 367.525 333.192 367.525 330.987C367.525 329.022 366.295 327.747 364.33 327.747C362.935 327.747 361.975 328.392 361.075 329.367L361.87 330.132C362.485 329.412 363.265 328.857 364.165 328.857C365.53 328.857 366.175 329.787 366.175 331.047C366.175 332.922 364.6 335.127 361.15 338.142V338.938ZM372.981 339.148C375.051 339.148 376.386 337.242 376.386 333.402C376.386 329.592 375.051 327.747 372.981 327.747C370.881 327.747 369.546 329.592 369.546 333.402C369.546 337.242 370.881 339.148 372.981 339.148ZM372.981 338.037C371.721 338.037 370.866 336.642 370.866 333.402C370.866 330.207 371.721 328.842 372.981 328.842C374.226 328.842 375.066 330.207 375.066 333.402C375.066 336.642 374.226 338.037 372.981 338.037ZM381.301 339.148C383.371 339.148 384.706 337.242 384.706 333.402C384.706 329.592 383.371 327.747 381.301 327.747C379.201 327.747 377.866 329.592 377.866 333.402C377.866 337.242 379.201 339.148 381.301 339.148ZM381.301 338.037C380.041 338.037 379.186 336.642 379.186 333.402C379.186 330.207 380.041 328.842 381.301 328.842C382.546 328.842 383.386 330.207 383.386 333.402C383.386 336.642 382.546 338.037 381.301 338.037ZM389.621 339.148C391.691 339.148 393.026 337.242 393.026 333.402C393.026 329.592 391.691 327.747 389.621 327.747C387.521 327.747 386.186 329.592 386.186 333.402C386.186 337.242 387.521 339.148 389.621 339.148ZM389.621 338.037C388.361 338.037 387.506 336.642 387.506 333.402C387.506 330.207 388.361 328.842 389.621 328.842C390.866 328.842 391.706 330.207 391.706 333.402C391.706 336.642 390.866 338.037 389.621 338.037Z" fill="#404040"/>
<path d="M489.978 338.938H496.878V337.767H493.833C493.278 337.767 492.618 337.812 492.033 337.872C494.628 335.427 496.353 333.192 496.353 330.987C496.353 329.022 495.123 327.747 493.158 327.747C491.763 327.747 490.803 328.392 489.903 329.367L490.698 330.132C491.313 329.412 492.093 328.857 492.993 328.857C494.358 328.857 495.003 329.787 495.003 331.047C495.003 332.922 493.428 335.127 489.978 338.142V338.938ZM501.808 339.148C503.878 339.148 505.213 337.242 505.213 333.402C505.213 329.592 503.878 327.747 501.808 327.747C499.708 327.747 498.373 329.592 498.373 333.402C498.373 337.242 499.708 339.148 501.808 339.148ZM501.808 338.037C500.548 338.037 499.693 336.642 499.693 333.402C499.693 330.207 500.548 328.842 501.808 328.842C503.053 328.842 503.893 330.207 503.893 333.402C503.893 336.642 503.053 338.037 501.808 338.037ZM506.618 338.938H513.518V337.767H510.473C509.918 337.767 509.258 337.812 508.673 337.872C511.268 335.427 512.993 333.192 512.993 330.987C512.993 329.022 511.763 327.747 509.798 327.747C508.403 327.747 507.443 328.392 506.543 329.367L507.338 330.132C507.953 329.412 508.733 328.857 509.633 328.857C510.998 328.857 511.643 329.787 511.643 331.047C511.643 332.922 510.068 335.127 506.618 338.142V338.938ZM518.449 339.148C520.519 339.148 521.854 337.242 521.854 333.402C521.854 329.592 520.519 327.747 518.449 327.747C516.349 327.747 515.014 329.592 515.014 333.402C515.014 337.242 516.349 339.148 518.449 339.148ZM518.449 338.037C517.189 338.037 516.334 336.642 516.334 333.402C516.334 330.207 517.189 328.842 518.449 328.842C519.694 328.842 520.534 330.207 520.534 333.402C520.534 336.642 519.694 338.037 518.449 338.037Z" fill="#404040"/>
<path d="M3.97931 313.806H7.81931V312.756H3.97931V313.806ZM9.1495 317.466H16.0495V316.296H13.0045C12.4495 316.296 11.7895 316.341 11.2045 316.401C13.7995 313.956 15.5245 311.721 15.5245 309.516C15.5245 307.551 14.2945 306.276 12.3295 306.276C10.9345 306.276 9.9745 306.921 9.0745 307.896L9.8695 308.661C10.4845 307.941 11.2645 307.386 12.1645 307.386C13.5295 307.386 14.1745 308.316 14.1745 309.576C14.1745 311.451 12.5995 313.656 9.1495 316.671V317.466ZM18.1298 317.466H24.1598V316.326H21.9398V306.471H20.8898C20.3048 306.831 19.5998 307.086 18.6098 307.251V308.136H20.5748V316.326H18.1298V317.466Z" fill="#404040"/>
<path d="M3.97931 241.482H7.81931V240.432H3.97931V241.482ZM9.8095 245.142H15.8395V244.002H13.6195V234.147H12.5695C11.9845 234.507 11.2795 234.762 10.2895 234.927V235.812H12.2545V244.002H9.8095V245.142ZM20.3198 245.352C22.3898 245.352 24.3098 243.642 24.3098 239.172C24.3098 235.677 22.7348 233.952 20.6198 233.952C18.9098 233.952 17.4698 235.392 17.4698 237.522C17.4698 239.802 18.6548 240.972 20.4998 240.972C21.4448 240.972 22.4198 240.402 23.1098 239.532L23.0348 238.437C22.3148 239.532 21.4598 239.967 20.7248 239.967C19.4198 239.967 18.7598 238.992 18.7598 237.522C18.7598 236.007 19.5698 235.017 20.6198 235.017C22.1648 235.017 23.0198 236.472 23.0198 239.172C23.0198 242.937 21.7448 244.212 20.2748 244.212C19.5698 244.212 18.8948 243.897 18.4298 243.357L17.6648 244.227C18.2798 244.872 19.1198 245.352 20.3198 245.352Z" fill="#404040"/>
<path d="M3.97931 169.158H7.81931V168.108H3.97931V169.158ZM9.8095 172.818H15.8395V171.678H13.6195V161.823H12.5695C11.9845 162.183 11.2795 162.438 10.2895 162.603V163.488H12.2545V171.678H9.8095V172.818ZM19.7648 172.818H21.1898C21.3698 168.528 21.8348 165.963 24.4148 162.648V161.823H17.5448V162.993H22.8698C20.7098 165.993 19.9598 168.663 19.7648 172.818Z" fill="#404040"/>
<path d="M3.97931 96.8341H7.81931V95.7841H3.97931V96.8341ZM9.8095 100.494H15.8395V99.3541H13.6195V89.4991H12.5695C11.9845 89.8591 11.2795 90.1141 10.2895 90.2791V91.1641H12.2545V99.3541H9.8095V100.494ZM20.7248 100.704C22.5698 100.704 24.3248 99.3241 24.3248 96.9241C24.3248 94.4941 22.8398 93.4141 21.0098 93.4141C20.3498 93.4141 19.8548 93.5791 19.3598 93.8491L19.6448 90.6691H23.7998V89.4991H18.4448L18.0998 94.6441L18.8348 95.1091C19.4648 94.6891 19.9298 94.4491 20.6648 94.4491C22.0298 94.4491 22.9298 95.3941 22.9298 96.9691C22.9298 98.5591 21.8948 99.5641 20.5898 99.5641C19.3298 99.5641 18.5198 98.9791 17.9048 98.3341L17.2148 99.2341C17.9648 99.9841 19.0148 100.704 20.7248 100.704Z" fill="#404040"/>
<path d="M2.505 63.7528V64.7878H14.16V63.7528H2.505ZM2.715 75.4678V76.4278H14.205V75.4678H2.715ZM8.58 72.7078V73.6078H12.75V72.7078H8.58ZM1.83 63.7528V68.1928C1.83 70.5778 1.71 73.8928 0.495 76.2628C0.78 76.3678 1.245 76.6378 1.44 76.8028C2.715 74.3278 2.895 70.6978 2.895 68.2078V63.7528H1.83ZM7.995 71.1928V75.9928H9.09V71.1928H7.995ZM4.65 72.2728V76.0078H5.73V72.2728H4.65ZM3.36 67.4428V68.2828H8.01V67.4428H3.36ZM5.295 65.7628V71.2378H6.255V65.7628H5.295ZM5.16 67.7878C4.665 68.8078 3.72 69.9328 2.85 70.4578C3.06 70.6228 3.345 70.9378 3.495 71.1628C4.38 70.5028 5.325 69.2278 5.82 68.0428L5.16 67.7878ZM8.475 67.4428V68.2828H13.95V67.4428H8.475ZM10.515 65.7628V71.2378H11.49V65.7628H10.515ZM10.2 67.7878C9.675 68.8228 8.64 69.9328 7.695 70.4578C7.905 70.6228 8.19 70.9378 8.325 71.1778C9.3 70.5178 10.335 69.2428 10.86 68.0428L10.2 67.7878ZM6.18 68.3278L5.625 68.7628C6.045 69.0778 7.035 69.9478 7.365 70.3228L7.95 69.6028C7.665 69.3478 6.54 68.5378 6.18 68.3278ZM7.035 65.1478C6.24 65.4928 4.71 65.7478 3.39 65.8828C3.495 66.0778 3.615 66.3778 3.675 66.5578C5.055 66.4528 6.735 66.1828 7.8 65.7478L7.035 65.1478ZM12.45 65.1028C11.595 65.4628 9.915 65.7028 8.505 65.8378C8.61 66.0178 8.73 66.3478 8.775 66.5278C10.275 66.4228 12.075 66.1528 13.23 65.7178L12.45 65.1028ZM11.475 68.4028L10.95 68.8828C11.565 69.3178 13.11 70.5778 13.65 71.1028L14.19 70.3378C13.77 69.9928 11.985 68.7178 11.475 68.4028ZM19.155 62.9878C18.42 65.0128 17.175 66.9628 15.75 68.2078C16.035 68.3578 16.5 68.7328 16.725 68.9278C18.12 67.5778 19.455 65.4928 20.28 63.2728L19.155 62.9878ZM18.915 64.8478L18.375 65.9428H28.59V64.8478H18.915ZM18.18 68.2528V72.8578H19.305V69.3028H28.26V68.2528H18.18ZM15.705 72.2878V73.3828H29.295V72.2878H15.705ZM22.68 65.4178V76.8478H23.835V65.4178H22.68ZM31.56 64.0528V65.1628H43.38V64.0528H31.56ZM30.78 70.4278V71.5528H44.235V70.4278H30.78ZM32.61 66.1978C33.18 67.3078 33.765 68.7628 33.975 69.6478L35.055 69.2878C34.845 68.4028 34.23 66.9778 33.615 65.8828L32.61 66.1978ZM41.31 65.8228C40.95 66.9028 40.245 68.4478 39.69 69.3928L40.65 69.7078C41.235 68.8078 41.94 67.3678 42.51 66.1528L41.31 65.8228ZM36.885 64.4878V76.8328H38.04V64.4878H36.885ZM51.435 72.1678V73.1878H56.535V72.1678H51.435ZM51.78 68.7478V69.7678H56.28V68.7478H51.78ZM52.23 65.5228V66.6028H58.41V65.5228H52.23ZM58.02 65.5228V65.7928C57.81 72.4978 57.57 74.9878 57.06 75.5278C56.895 75.7228 56.715 75.7678 56.415 75.7678C56.055 75.7678 55.14 75.7678 54.135 75.6628C54.33 75.9928 54.48 76.4878 54.495 76.8028C55.41 76.8628 56.34 76.8778 56.85 76.8328C57.405 76.7728 57.75 76.6378 58.08 76.2028C58.695 75.4678 58.905 73.0528 59.13 66.1228C59.13 65.9728 59.145 65.5228 59.145 65.5228H58.02ZM52.83 63.0478C52.17 65.2228 51.09 67.3678 49.77 68.7178C50.055 68.8828 50.565 69.1828 50.805 69.3628C52.05 67.9078 53.235 65.6578 53.97 63.3328L52.83 63.0478ZM45.75 66.8128V67.8928H50.55V66.8128H45.75ZM47.7 63.3478V73.3378H48.78V63.3478H47.7ZM45.495 74.0278L45.93 75.1528C47.34 74.4628 49.215 73.5628 50.94 72.6928L50.655 71.6578C48.765 72.5578 46.785 73.4878 45.495 74.0278ZM65.1 70.7578V75.9178H66.135V71.7328H67.59V75.9178H68.475V71.7328H69.945V75.9178H70.845V71.7328H72.33V75.9178H73.395V70.7578H65.1ZM63.75 75.4078V76.3978H74.43V75.4078H63.75ZM61.335 63.9928C62.235 64.4278 63.345 65.1478 63.87 65.6878L64.53 64.7728C63.99 64.2478 62.88 63.5728 61.965 63.1678L61.335 63.9928ZM60.555 68.0428C61.485 68.4478 62.595 69.1078 63.135 69.6178L63.795 68.6878C63.225 68.1928 62.1 67.5628 61.185 67.1878L60.555 68.0428ZM60.915 75.9478L61.905 76.6378C62.67 75.2428 63.57 73.3828 64.23 71.7928L63.345 71.1178C62.61 72.8278 61.62 74.7928 60.915 75.9478ZM66.675 64.6228H71.775V68.7478H66.675V64.6228ZM65.655 63.7378V69.6328H72.855V63.7378H65.655ZM68.985 64.8928C68.79 66.0328 68.115 67.2178 66.975 67.8628C67.14 67.9978 67.38 68.2678 67.485 68.4178C68.76 67.7128 69.555 66.3478 69.81 64.9828L68.985 64.8928ZM68.655 66.4378C69.39 67.0378 70.32 67.8928 70.77 68.4178L71.355 67.8928C70.89 67.3828 69.96 66.5728 69.225 66.0028L68.655 66.4378ZM78.375 67.2928V68.2078H89.04V67.2928H78.375ZM78.585 71.6578V72.5878H87.165V71.6578H78.585ZM80.79 65.9878V70.6978H86.61V65.9878H85.515V69.8128H81.855V65.9878H80.79ZM86.865 71.6578V71.8228C85.47 74.3428 81.69 75.4528 77.865 75.7978C78.045 76.0528 78.24 76.4878 78.33 76.7428C82.41 76.2778 86.325 75.0628 88.005 72.0028L87.3 71.6128L87.09 71.6578H86.865ZM80.985 72.4228L80.01 72.7978C81.735 75.1378 84.945 76.3828 88.77 76.8328C88.905 76.5478 89.175 76.0978 89.415 75.8578C85.68 75.5128 82.47 74.4028 80.985 72.4228ZM77.415 64.5328V65.5828H89.22V64.5328H77.415ZM76.89 64.5328V68.6128C76.89 70.8628 76.77 74.0578 75.54 76.3228C75.825 76.4128 76.335 76.6528 76.56 76.8328C77.82 74.4628 78 70.9978 78 68.6128V64.5328H76.89ZM82.095 63.2278C82.425 63.8428 82.77 64.6828 82.905 65.2078L84.09 64.8778C83.955 64.3678 83.565 63.5728 83.22 62.9578L82.095 63.2278ZM93.585 78.5878L94.425 78.1978C93.135 76.0678 92.505 73.5328 92.505 70.9828C92.505 68.4328 93.135 65.8978 94.425 63.7678L93.585 63.3628C92.19 65.6128 91.365 68.0428 91.365 70.9828C91.365 73.9378 92.19 76.3378 93.585 78.5878ZM97.8734 68.4778C98.9984 68.4778 99.9884 67.6378 99.9884 66.3478C99.9884 65.0278 98.9984 64.1878 97.8734 64.1878C96.7484 64.1878 95.7584 65.0278 95.7584 66.3478C95.7584 67.6378 96.7484 68.4778 97.8734 68.4778ZM97.8734 67.6978C97.1234 67.6978 96.6134 67.1278 96.6134 66.3478C96.6134 65.5378 97.1234 64.9678 97.8734 64.9678C98.6084 64.9678 99.1484 65.5378 99.1484 66.3478C99.1484 67.1278 98.6084 67.6978 97.8734 67.6978ZM106.093 75.8428C107.473 75.8428 108.553 75.2728 109.423 74.2528L108.613 73.3828C107.923 74.1478 107.158 74.5678 106.123 74.5678C104.038 74.5678 102.748 72.8728 102.748 70.1278C102.748 67.4128 104.098 65.7178 106.183 65.7178C107.083 65.7178 107.788 66.1078 108.373 66.7228L109.168 65.8228C108.523 65.1178 107.473 64.4728 106.153 64.4728C103.348 64.4728 101.263 66.6178 101.263 70.1728C101.263 73.7428 103.303 75.8428 106.093 75.8428ZM111.553 78.5878C112.933 76.3378 113.758 73.9378 113.758 70.9828C113.758 68.0428 112.933 65.6128 111.553 63.3628L110.698 63.7678C111.988 65.8978 112.618 68.4328 112.618 70.9828C112.618 73.5328 111.988 76.0678 110.698 78.1978L111.553 78.5878Z" fill="#404040"/>
</svg>
