<svg width="469" height="329" viewBox="0 0 469 329" fill="none" xmlns="http://www.w3.org/2000/svg">
<path d="M363 165.5L361 187V278H445V119L442 131L438.5 112L435 114.5V124.5L432 136L426.5 148L425 133.5L422 139L420.5 150L417.5 141L413.5 136L410.5 144.5L407.5 139L404.5 146L402 159.5L399.5 158L397.5 133.5L392.5 170L390.5 155L387 168.5L383 176V162.5L380 158L377 176L375.5 168.5H373L371 179L369.5 190L366 187L363 165.5Z" fill="#E6EAEC"/>
<path d="M151.32 265H157.35V263.86H155.13V254.005H154.08C153.495 254.365 152.79 254.62 151.8 254.785V255.67H153.765V263.86H151.32V265ZM161.83 265.21C163.9 265.21 165.82 263.5 165.82 259.03C165.82 255.535 164.245 253.81 162.13 253.81C160.42 253.81 158.98 255.25 158.98 257.38C158.98 259.66 160.165 260.83 162.01 260.83C162.955 260.83 163.93 260.26 164.62 259.39L164.545 258.295C163.825 259.39 162.97 259.825 162.235 259.825C160.93 259.825 160.27 258.85 160.27 257.38C160.27 255.865 161.08 254.875 162.13 254.875C163.675 254.875 164.53 256.33 164.53 259.03C164.53 262.795 163.255 264.07 161.785 264.07C161.08 264.07 160.405 263.755 159.94 263.215L159.175 264.085C159.79 264.73 160.63 265.21 161.83 265.21ZM167.961 265H173.991V263.86H171.771V254.005H170.721C170.136 254.365 169.431 254.62 168.441 254.785V255.67H170.406V263.86H167.961V265ZM176.281 265H182.311V263.86H180.091V254.005H179.041C178.456 254.365 177.751 254.62 176.761 254.785V255.67H178.726V263.86H176.281V265ZM187.436 252.355C186.701 254.38 185.456 256.33 184.031 257.575C184.316 257.725 184.781 258.1 185.006 258.295C186.401 256.945 187.736 254.86 188.561 252.64L187.436 252.355ZM187.196 254.215L186.656 255.31H196.871V254.215H187.196ZM186.461 257.62V262.225H187.586V258.67H196.541V257.62H186.461ZM183.986 261.655V262.75H197.576V261.655H183.986ZM190.961 254.785V266.215H192.116V254.785H190.961ZM198.971 261.34H202.811V260.29H198.971V261.34ZM207.651 265.21C209.721 265.21 211.056 263.305 211.056 259.465C211.056 255.655 209.721 253.81 207.651 253.81C205.551 253.81 204.216 255.655 204.216 259.465C204.216 263.305 205.551 265.21 207.651 265.21ZM207.651 264.1C206.391 264.1 205.536 262.705 205.536 259.465C205.536 256.27 206.391 254.905 207.651 254.905C208.896 254.905 209.736 256.27 209.736 259.465C209.736 262.705 208.896 264.1 207.651 264.1ZM213.872 265.21C214.427 265.21 214.877 264.775 214.877 264.16C214.877 263.53 214.427 263.11 213.872 263.11C213.332 263.11 212.897 263.53 212.897 264.16C212.897 264.775 213.332 265.21 213.872 265.21ZM219.892 265.21C221.737 265.21 223.492 263.83 223.492 261.43C223.492 259 222.007 257.92 220.177 257.92C219.517 257.92 219.022 258.085 218.527 258.355L218.812 255.175H222.967V254.005H217.612L217.267 259.15L218.002 259.615C218.632 259.195 219.097 258.955 219.832 258.955C221.197 258.955 222.097 259.9 222.097 261.475C222.097 263.065 221.062 264.07 219.757 264.07C218.497 264.07 217.687 263.485 217.072 262.84L216.382 263.74C217.132 264.49 218.182 265.21 219.892 265.21ZM229.382 265H230.672V254.005H229.157L224.582 261.07V261.97H232.142V260.89H226.022L228.527 257.14C228.827 256.6 229.127 256.045 229.397 255.505H229.472C229.427 256.075 229.382 256.96 229.382 257.515V265ZM237.702 265H238.992V254.005H237.477L232.902 261.07V261.97H240.462V260.89H234.342L236.847 257.14C237.147 256.6 237.447 256.045 237.717 255.505H237.792C237.747 256.075 237.702 256.96 237.702 257.515V265ZM244.313 256.66V257.575H254.978V256.66H244.313ZM244.523 261.025V261.955H253.103V261.025H244.523ZM246.728 255.355V260.065H252.548V255.355H251.453V259.18H247.793V255.355H246.728ZM252.803 261.025V261.19C251.408 263.71 247.628 264.82 243.803 265.165C243.983 265.42 244.178 265.855 244.268 266.11C248.348 265.645 252.263 264.43 253.943 261.37L253.238 260.98L253.028 261.025H252.803ZM246.923 261.79L245.948 262.165C247.673 264.505 250.883 265.75 254.708 266.2C254.843 265.915 255.113 265.465 255.353 265.225C251.618 264.88 248.408 263.77 246.923 261.79ZM243.353 253.9V254.95H255.158V253.9H243.353ZM242.828 253.9V257.98C242.828 260.23 242.708 263.425 241.478 265.69C241.763 265.78 242.273 266.02 242.498 266.2C243.758 263.83 243.938 260.365 243.938 257.98V253.9H242.828ZM248.033 252.595C248.363 253.21 248.708 254.05 248.843 254.575L250.028 254.245C249.893 253.735 249.503 252.94 249.158 252.325L248.033 252.595Z" fill="#404040"/>
<path d="M406.66 78H413.56V76.83H410.515C409.96 76.83 409.3 76.875 408.715 76.935C411.31 74.49 413.035 72.255 413.035 70.05C413.035 68.085 411.805 66.81 409.84 66.81C408.445 66.81 407.485 67.455 406.585 68.43L407.38 69.195C407.995 68.475 408.775 67.92 409.675 67.92C411.04 67.92 411.685 68.85 411.685 70.11C411.685 71.985 410.11 74.19 406.66 77.205V78ZM418.49 78.21C420.56 78.21 421.895 76.305 421.895 72.465C421.895 68.655 420.56 66.81 418.49 66.81C416.39 66.81 415.055 68.655 415.055 72.465C415.055 76.305 416.39 78.21 418.49 78.21ZM418.49 77.1C417.23 77.1 416.375 75.705 416.375 72.465C416.375 69.27 417.23 67.905 418.49 67.905C419.735 67.905 420.575 69.27 420.575 72.465C420.575 75.705 419.735 77.1 418.49 77.1ZM423.961 78H429.991V76.86H427.771V67.005H426.721C426.136 67.365 425.431 67.62 424.441 67.785V68.67H426.406V76.86H423.961V78ZM435.476 78.21C437.171 78.21 438.626 76.77 438.626 74.64C438.626 72.33 437.426 71.19 435.566 71.19C434.681 71.19 433.661 71.73 432.986 72.615L433.031 73.71C433.766 72.615 434.651 72.195 435.356 72.195C436.676 72.195 437.336 73.14 437.336 74.64C437.336 76.125 436.526 77.13 435.476 77.13C433.931 77.13 433.076 75.585 433.076 72.765C433.076 69.165 434.366 67.95 435.911 67.95C436.571 67.95 437.246 68.265 437.666 68.775L438.431 67.935C437.831 67.29 436.991 66.81 435.851 66.81C433.721 66.81 431.786 68.46 431.786 72.765C431.786 76.395 433.361 78.21 435.476 78.21ZM443.436 65.355C442.701 67.38 441.456 69.33 440.031 70.575C440.316 70.725 440.781 71.1 441.006 71.295C442.401 69.945 443.736 67.86 444.561 65.64L443.436 65.355ZM443.196 67.215L442.656 68.31H452.871V67.215H443.196ZM442.461 70.62V75.225H443.586V71.67H452.541V70.62H442.461ZM439.986 74.655V75.75H453.576V74.655H439.986ZM446.961 67.785V79.215H448.116V67.785H446.961ZM409.6 98.26H410.71V94.99H413.755V93.97H410.71V90.685H409.6V93.97H406.555V94.99H409.6V98.26ZM418.49 100.21C420.56 100.21 421.895 98.305 421.895 94.465C421.895 90.655 420.56 88.81 418.49 88.81C416.39 88.81 415.055 90.655 415.055 94.465C415.055 98.305 416.39 100.21 418.49 100.21ZM418.49 99.1C417.23 99.1 416.375 97.705 416.375 94.465C416.375 91.27 417.23 89.905 418.49 89.905C419.735 89.905 420.575 91.27 420.575 94.465C420.575 97.705 419.735 99.1 418.49 99.1ZM424.711 100.21C425.266 100.21 425.716 99.775 425.716 99.16C425.716 98.53 425.266 98.11 424.711 98.11C424.171 98.11 423.736 98.53 423.736 99.16C423.736 99.775 424.171 100.21 424.711 100.21ZM429.77 100H431.195C431.375 95.71 431.84 93.145 434.42 89.83V89.005H427.55V90.175H432.875C430.715 93.175 429.965 95.845 429.77 100ZM438.646 100.21C440.716 100.21 442.636 98.5 442.636 94.03C442.636 90.535 441.061 88.81 438.946 88.81C437.236 88.81 435.796 90.25 435.796 92.38C435.796 94.66 436.981 95.83 438.826 95.83C439.771 95.83 440.746 95.26 441.436 94.39L441.361 93.295C440.641 94.39 439.786 94.825 439.051 94.825C437.746 94.825 437.086 93.85 437.086 92.38C437.086 90.865 437.896 89.875 438.946 89.875C440.491 89.875 441.346 91.33 441.346 94.03C441.346 97.795 440.071 99.07 438.601 99.07C437.896 99.07 437.221 98.755 436.756 98.215L435.991 99.085C436.606 99.73 437.446 100.21 438.646 100.21ZM446.411 100H447.836C448.016 95.71 448.481 93.145 451.061 89.83V89.005H444.191V90.175H449.516C447.356 93.175 446.606 95.845 446.411 100ZM455.151 91.66V92.575H465.816V91.66H455.151ZM455.361 96.025V96.955H463.941V96.025H455.361ZM457.566 90.355V95.065H463.386V90.355H462.291V94.18H458.631V90.355H457.566ZM463.641 96.025V96.19C462.246 98.71 458.466 99.82 454.641 100.165C454.821 100.42 455.016 100.855 455.106 101.11C459.186 100.645 463.101 99.43 464.781 96.37L464.076 95.98L463.866 96.025H463.641ZM457.761 96.79L456.786 97.165C458.511 99.505 461.721 100.75 465.546 101.2C465.681 100.915 465.951 100.465 466.191 100.225C462.456 99.88 459.246 98.77 457.761 96.79ZM454.191 88.9V89.95H465.996V88.9H454.191ZM453.666 88.9V92.98C453.666 95.23 453.546 98.425 452.316 100.69C452.601 100.78 453.111 101.02 453.336 101.2C454.596 98.83 454.776 95.365 454.776 92.98V88.9H453.666ZM458.871 87.595C459.201 88.21 459.546 89.05 459.681 89.575L460.866 89.245C460.731 88.735 460.341 87.94 459.996 87.325L458.871 87.595Z" fill="#404040"/>
<path opacity="0.7" d="M361 79L361 278" stroke="black"/>
<circle cx="203" cy="237" r="4" fill="#FAFAFA" stroke="#285F92" stroke-width="2"/>
<circle cx="436" cy="114" r="4" fill="#FAFAFA" stroke="#285F92" stroke-width="2"/>
<rect x="331" y="59" width="60" height="22" fill="#285F92"/>
<path d="M337.215 76H343.905V74.215H341.82V64.9H340.185C339.465 65.335 338.715 65.62 337.59 65.83V67.195H339.615V74.215H337.215V76ZM348.673 76.21C350.878 76.21 352.933 74.395 352.933 70.195C352.933 66.355 351.043 64.705 348.928 64.705C347.038 64.705 345.448 66.115 345.448 68.41C345.448 70.765 346.768 71.89 348.628 71.89C349.408 71.89 350.413 71.395 351.013 70.57L350.893 69.07C350.353 69.985 349.663 70.33 349.033 70.33C348.088 70.33 347.458 69.7 347.458 68.41C347.458 67.03 348.133 66.355 348.973 66.355C350.053 66.355 350.908 67.36 350.908 70.195C350.908 73.375 349.843 74.425 348.538 74.425C347.878 74.425 347.203 74.08 346.783 73.615L345.613 74.95C346.288 75.64 347.278 76.21 348.673 76.21ZM358.105 76.21C360.34 76.21 361.84 74.935 361.84 73.255C361.84 71.725 361 70.84 359.98 70.285V70.21C360.7 69.685 361.405 68.77 361.405 67.66C361.405 65.89 360.145 64.72 358.18 64.72C356.245 64.72 354.82 65.86 354.82 67.645C354.82 68.815 355.45 69.67 356.29 70.285V70.345C355.27 70.885 354.4 71.83 354.4 73.255C354.4 74.995 355.975 76.21 358.105 76.21ZM358.81 69.67C357.64 69.205 356.77 68.68 356.77 67.645C356.77 66.76 357.37 66.265 358.135 66.265C359.05 66.265 359.605 66.895 359.605 67.81C359.605 68.47 359.35 69.1 358.81 69.67ZM358.15 74.65C357.115 74.65 356.29 74.005 356.29 73C356.29 72.175 356.71 71.425 357.325 70.945C358.75 71.545 359.785 72.01 359.785 73.165C359.785 74.125 359.11 74.65 358.15 74.65ZM366.968 76.21C369.218 76.21 370.718 74.245 370.718 70.405C370.718 66.58 369.218 64.705 366.968 64.705C364.703 64.705 363.203 66.58 363.203 70.405C363.203 74.245 364.703 76.21 366.968 76.21ZM366.968 74.485C366.008 74.485 365.288 73.525 365.288 70.405C365.288 67.3 366.008 66.4 366.968 66.4C367.928 66.4 368.633 67.3 368.633 70.405C368.633 73.525 367.928 74.485 366.968 74.485ZM375.111 63.205C374.466 65.155 373.296 67.075 371.946 68.245C372.381 68.5 373.146 69.1 373.491 69.415C374.826 68.065 376.146 65.905 376.941 63.67L375.111 63.205ZM375.426 64.915L374.556 66.655H384.966V64.915H375.426ZM374.361 68.455V73.285H376.176V70.135H384.621V68.455H374.361ZM371.991 72.4V74.14H385.791V72.4H371.991ZM378.771 65.815V77.35H380.631V65.815H378.771Z" fill="#FAFAFA"/>
</svg>
