<svg width="362" height="362" viewBox="0 0 362 362" fill="none" xmlns="http://www.w3.org/2000/svg">
<rect width="362" height="362" fill="#FAFAFA"/>
<path d="M7.48 32.8641V34.9441H20.44V32.8641H7.48ZM8.46 28.4641V30.5641H19.48V28.4641H8.46ZM5.52 37.3841V39.5241H22.6V37.3841H5.52ZM12.66 29.4041V38.5841H15.2V29.4041H12.66ZM8.36 21.8441V24.0641H15.08V21.8441H8.36ZM12.64 21.8441V23.1441H13.26C15.26 25.8641 18.5 28.7041 22.02 30.3441C22.36 29.6841 23.14 28.6641 23.62 28.1641C20.22 26.9041 16.98 24.3841 15.26 21.8441H12.64ZM13.02 21.8441C11.24 24.3641 7.6 27.1241 4.42 28.4241C4.96 28.9241 5.58 29.7641 5.9 30.3641C9.08 28.7641 12.78 25.8041 14.76 23.0441L13.02 21.8441ZM31.46 24.4641V26.6441H43.32V24.4641H31.46ZM36.08 21.2441V37.3241C36.08 37.6441 35.96 37.7441 35.66 37.7441C35.36 37.7441 34.42 37.7441 33.42 37.7041C33.76 38.3441 34.16 39.3841 34.24 40.0241C35.76 40.0241 36.76 39.9241 37.46 39.5241C38.16 39.1441 38.4 38.5041 38.4 37.3241V21.2441H36.08ZM30.56 35.7641L32 37.9041C33.58 36.4641 35.54 34.6441 37.28 32.8641L36.46 31.1641C34.34 32.9041 31.94 34.8041 30.56 35.7641ZM31.58 28.3641C32.34 29.5041 33.12 31.0241 33.42 31.9841L35.38 31.0641C35.06 30.0841 34.2 28.6241 33.44 27.5441L31.58 28.3641ZM41.14 27.4641C40.4 28.7841 39.08 30.5441 38.08 31.6241L39.74 32.5641C40.8 31.5641 42.1 29.9641 43.22 28.5441L41.14 27.4641ZM39 22.5641C39.84 23.1841 40.86 24.0841 41.34 24.7241L42.74 23.3441C42.22 22.7441 41.16 21.9041 40.34 21.3441L39 22.5641ZM38.32 27.0241L36.34 27.3841C37.26 32.8041 38.72 35.8441 42.18 38.4641C42.48 37.8241 43.1 37.0641 43.66 36.6241C40.52 34.4841 39.14 31.8841 38.32 27.0241ZM24.7 22.3641V24.6041H31.08V22.3641H24.7ZM24.82 28.1241V30.3441H30.78V28.1241H24.82ZM24.42 35.8441L24.9 38.1241C26.82 37.5241 29.22 36.7841 31.46 36.0641L31.1 33.9041C28.68 34.6441 26.12 35.4041 24.42 35.8441ZM26.82 23.2841V35.9241L29.04 35.5641V23.2841H26.82ZM47.58 21.9441V24.1041H63.02V21.9441H47.58ZM47.8 37.5241V39.5041H63.06V37.5241H47.8ZM55.7 34.0041V35.8441H61.34V34.0041H55.7ZM46 21.9441V28.1241C46 31.2841 45.88 35.7841 44.38 38.8641C44.96 39.0641 45.96 39.6241 46.4 39.9641C48.02 36.6641 48.26 31.5441 48.26 28.1241V21.9441H46ZM54.44 32.3641V38.6441H56.76V32.3641H54.44ZM49.96 33.7641V38.6641H52.26V33.7641H49.96ZM48.66 27.1841V28.8441H54.88V27.1841H48.66ZM50.84 25.1241V32.4841H52.8V25.1241H50.84ZM50.6 27.9241C49.96 29.1241 48.76 30.4241 47.62 31.0641C48.04 31.4041 48.62 32.0441 48.9 32.5041C50.08 31.6041 51.26 29.9441 51.9 28.4041L50.6 27.9241ZM55.38 27.1841V28.8441H62.56V27.1841H55.38ZM57.72 25.1241V32.4841H59.72V25.1241H57.72ZM57.24 27.9041C56.66 29.1041 55.48 30.3841 54.34 31.0441C54.76 31.3841 55.34 32.0441 55.64 32.5041C56.82 31.6041 57.96 29.9241 58.56 28.3641L57.24 27.9041ZM52.72 28.6641L51.6 29.5041C52.16 29.9441 53.3 30.9841 53.76 31.4841L54.9 30.0441C54.54 29.7641 53.18 28.9041 52.72 28.6641ZM53.3 24.2241C52.22 24.6441 50.24 24.9441 48.48 25.0641C48.68 25.4441 48.9 26.0441 49 26.4241C50.92 26.3241 53.22 26.0241 54.78 25.4241L53.3 24.2241ZM60.52 24.1241C59.32 24.5841 57.06 24.8841 55.1 25.0441C55.3 25.3841 55.54 26.0241 55.6 26.3841C57.74 26.2841 60.28 25.9641 62 25.3241L60.52 24.1241ZM59.78 28.7041L58.74 29.6841C59.56 30.2841 61.38 31.7441 62.14 32.4841L63.2 30.9441C62.66 30.5441 60.46 29.0841 59.78 28.7041ZM68.96 21.1441C68.1 23.7441 66.54 26.3041 64.74 27.8641C65.32 28.2041 66.34 29.0041 66.8 29.4241C68.58 27.6241 70.34 24.7441 71.4 21.7641L68.96 21.1441ZM69.38 23.4241L68.22 25.7441H82.1V23.4241H69.38ZM67.96 28.1441V34.5841H70.38V30.3841H81.64V28.1441H67.96ZM64.8 33.4041V35.7241H83.2V33.4041H64.8ZM73.84 24.6241V40.0041H76.32V24.6241H73.84ZM85.98 22.4641V24.8441H101.96V22.4641H85.98ZM84.9 30.9441V33.3641H103.12V30.9441H84.9ZM87.18 26.1241C87.82 27.4641 88.46 29.2241 88.66 30.3041L90.98 29.5641C90.76 28.4641 90.06 26.7641 89.36 25.4841L87.18 26.1241ZM98.58 25.4241C98.2 26.7441 97.46 28.5041 96.84 29.6641L98.94 30.2841C99.6 29.2441 100.42 27.6041 101.14 26.0841L98.58 25.4241ZM92.72 23.4641V39.9841H95.22V23.4641H92.72ZM112.44 33.1041V35.2441H119.06V33.1041H112.44ZM112.9 28.7241V30.8641H118.68V28.7241H112.9ZM113.74 24.4241V26.7041H121.38V24.4241H113.74ZM120.64 24.4241V24.9441C120.4 33.2841 120.12 36.6241 119.52 37.3041C119.28 37.5841 119.06 37.6641 118.68 37.6641C118.18 37.6641 117.12 37.6641 115.94 37.5441C116.36 38.2441 116.7 39.3041 116.74 39.9841C117.88 40.0241 119.06 40.0441 119.78 39.9241C120.6 39.8041 121.14 39.5641 121.68 38.7841C122.48 37.7441 122.76 34.5041 123.02 25.5641C123.04 25.2641 123.06 24.4241 123.06 24.4241H120.64ZM114.2 21.2041C113.34 23.9441 111.84 26.7241 110.12 28.4041C110.74 28.7241 111.82 29.3841 112.34 29.7841C113.96 27.8841 115.62 24.8641 116.64 21.8441L114.2 21.2041ZM104.86 26.0041V28.2841H111.26V26.0041H104.86ZM107.04 21.5841V34.9641H109.36V21.5841H107.04ZM104.44 35.5841L105.34 37.9841C107.3 37.0041 109.74 35.7641 111.98 34.5641L111.32 32.3641C108.84 33.6041 106.16 34.8841 104.44 35.5841ZM130.84 31.2841V38.4041H133V33.3041H134.12V38.4041H135.88V33.3041H137.02V38.4041H138.8V33.3041H139.94V38.4041H142.2V31.2841H130.84ZM129.2 37.3441V39.4241H143.44V37.3441H129.2ZM125.6 23.0841C126.78 23.6241 128.3 24.5241 129 25.2041L130.4 23.2241C129.64 22.5641 128.1 21.7641 126.92 21.3041L125.6 23.0841ZM124.54 28.5041C125.74 29.0041 127.24 29.8641 127.94 30.5041L129.34 28.5241C128.56 27.8841 127.04 27.1041 125.86 26.6841L124.54 28.5041ZM124.9 38.3441L127.04 39.7841C128.06 37.8241 129.14 35.5041 130.02 33.3641L128.12 31.9241C127.12 34.2841 125.82 36.8041 124.9 38.3441ZM133.7 23.8641H139.16V28.4641H133.7V23.8641ZM131.54 22.0841V30.2441H141.44V22.0841H131.54ZM135.8 24.0041C135.6 25.2641 134.92 26.5441 133.68 27.2241C133.98 27.4641 134.44 27.9841 134.66 28.2841C136.14 27.4641 137.04 25.8441 137.36 24.1841L135.8 24.0041ZM135.6 26.0241C136.38 26.7041 137.42 27.6641 137.92 28.2641L139.02 27.2441C138.5 26.6841 137.44 25.7841 136.66 25.1441L135.6 26.0241ZM149 26.9641V28.8441H162.9V26.9641H149ZM149.16 32.7841V34.6641H160.14V32.7841H149.16ZM151.72 25.6441V31.9841H160V25.6441H157.64V30.1841H153.98V25.6441H151.72ZM159.52 32.7841V33.0841C157.86 36.1641 153.3 37.4841 148.18 37.8641C148.54 38.3841 148.96 39.3041 149.14 39.8641C154.78 39.2441 159.7 37.6641 161.9 33.4641L160.4 32.7041L159.98 32.7841H159.52ZM152.54 34.1841L150.48 34.9641C152.94 37.9441 156.9 39.4641 162.04 39.9841C162.32 39.3841 162.92 38.4041 163.42 37.9041C158.52 37.5641 154.48 36.4041 152.54 34.1841ZM147.34 22.9441V25.1641H163.1V22.9441H147.34ZM146.22 22.9441V28.3041C146.22 31.3641 146.08 35.8641 144.48 38.9241C145.1 39.1041 146.18 39.6041 146.68 39.9641C148.34 36.6841 148.6 31.6641 148.6 28.2841V22.9441H146.22ZM153.24 21.6041C153.62 22.4841 153.98 23.6841 154.08 24.4241L156.66 23.8041C156.54 23.0641 156.1 21.9441 155.68 21.0641L153.24 21.6041ZM165.9 23.5841V25.6441H182.18V23.5841H165.9ZM166.94 26.7041V28.6841H181.14V26.7041H166.94ZM169.06 37.5041V39.5841H182.62V37.5041H169.06ZM165.04 29.7441V31.8441H182.9V29.7441H165.04ZM170.98 32.9241V34.9841H181.24V32.9241H170.98ZM172.72 24.6841V31.3441H175.2V24.6841H172.72ZM174.5 33.8441V38.4441H176.96V33.8441H174.5ZM168.48 22.0641C169.02 22.7841 169.56 23.7841 169.76 24.4441L171.92 23.5241C171.68 22.8641 171.12 21.9441 170.54 21.2641L168.48 22.0641ZM177.18 21.1841C176.94 21.9241 176.44 22.9241 176.02 23.6241L178.06 24.2441C178.56 23.6441 179.18 22.7641 179.8 21.8241L177.18 21.1841ZM168.92 30.7241C168.28 34.0241 166.8 36.7641 164.44 38.3241C165.02 38.7041 166.04 39.5441 166.48 40.0041C168.9 38.1041 170.6 35.0041 171.46 31.1241L168.92 30.7241ZM195.24 37.5841C197.44 38.3441 199.76 39.3441 201.12 40.0641L203.14 38.3841C201.6 37.7041 199.04 36.7241 196.8 36.0041L195.24 37.5841ZM184.96 34.2841V36.3441H203.1V34.2841H184.96ZM186.2 30.7041V32.7641H201.92V30.7041H186.2ZM189.54 28.9441V35.1641H191.98V28.9441H189.54ZM192.74 22.9241V28.6041H195.08V22.9241H192.74ZM195.98 28.9441V35.1641H198.44V28.9441H195.98ZM189.16 26.4641H198.74V27.6041H189.16V26.4641ZM189.16 23.7041H198.74V24.8041H189.16V23.7041ZM186.84 21.9241V29.3841H201.18V21.9241H186.84ZM190.78 36.0641C189.56 36.8641 187.06 37.8041 185.02 38.2641C185.52 38.7441 186.18 39.5241 186.52 40.0441C188.66 39.5241 191.2 38.5441 192.8 37.5241L190.78 36.0641Z" fill="#404040"/>
<path opacity="0.5" d="M32.418 305.885H362" stroke="#C7C7C7"/>
<g opacity="0.5">
<path d="M32.418 255.27H362" stroke="#C7C7C7"/>
<path d="M32.418 204.655H362" stroke="#C7C7C7"/>
<path d="M32.418 154.041H362" stroke="#C7C7C7"/>
<path d="M32.418 103.428H362" stroke="#C7C7C7"/>
</g>
<path d="M4.67438 307.021H8.51438V305.971H4.67438V307.021ZM10.5046 310.681H16.5346V309.541H14.3146V299.686H13.2646C12.6796 300.046 11.9746 300.301 10.9846 300.466V301.351H12.9496V309.541H10.5046V310.681ZM19.5749 310.891C20.1299 310.891 20.5799 310.456 20.5799 309.841C20.5799 309.211 20.1299 308.791 19.5749 308.791C19.0349 308.791 18.5999 309.211 18.5999 309.841C18.5999 310.456 19.0349 310.891 19.5749 310.891ZM25.8497 310.891C27.9197 310.891 29.2547 308.986 29.2547 305.146C29.2547 301.336 27.9197 299.491 25.8497 299.491C23.7497 299.491 22.4147 301.336 22.4147 305.146C22.4147 308.986 23.7497 310.891 25.8497 310.891ZM25.8497 309.781C24.5897 309.781 23.7347 308.386 23.7347 305.146C23.7347 301.951 24.5897 300.586 25.8497 300.586C27.0947 300.586 27.9347 301.951 27.9347 305.146C27.9347 308.386 27.0947 309.781 25.8497 309.781Z" fill="#404040"/>
<path d="M4.67438 256.406H8.51438V255.356H4.67438V256.406ZM13.3546 260.276C15.4246 260.276 16.7596 258.371 16.7596 254.531C16.7596 250.721 15.4246 248.876 13.3546 248.876C11.2546 248.876 9.91957 250.721 9.91957 254.531C9.91957 258.371 11.2546 260.276 13.3546 260.276ZM13.3546 259.166C12.0946 259.166 11.2396 257.771 11.2396 254.531C11.2396 251.336 12.0946 249.971 13.3546 249.971C14.5996 249.971 15.4396 251.336 15.4396 254.531C15.4396 257.771 14.5996 259.166 13.3546 259.166ZM19.5749 260.276C20.1299 260.276 20.5799 259.841 20.5799 259.226C20.5799 258.596 20.1299 258.176 19.5749 258.176C19.0349 258.176 18.5999 258.596 18.5999 259.226C18.5999 259.841 19.0349 260.276 19.5749 260.276ZM25.5947 260.276C27.4397 260.276 29.1947 258.896 29.1947 256.496C29.1947 254.066 27.7097 252.986 25.8797 252.986C25.2197 252.986 24.7247 253.151 24.2297 253.421L24.5147 250.241H28.6697V249.071H23.3147L22.9697 254.216L23.7047 254.681C24.3347 254.261 24.7997 254.021 25.5347 254.021C26.8997 254.021 27.7997 254.966 27.7997 256.541C27.7997 258.131 26.7647 259.136 25.4597 259.136C24.1997 259.136 23.3897 258.551 22.7747 257.906L22.0847 258.806C22.8347 259.556 23.8847 260.276 25.5947 260.276Z" fill="#404040"/>
<path d="M13.9857 209.663C16.0557 209.663 17.3907 207.758 17.3907 203.918C17.3907 200.108 16.0557 198.263 13.9857 198.263C11.8857 198.263 10.5507 200.108 10.5507 203.918C10.5507 207.758 11.8857 209.663 13.9857 209.663ZM13.9857 208.553C12.7257 208.553 11.8707 207.158 11.8707 203.918C11.8707 200.723 12.7257 199.358 13.9857 199.358C15.2307 199.358 16.0707 200.723 16.0707 203.918C16.0707 207.158 15.2307 208.553 13.9857 208.553ZM20.206 209.663C20.761 209.663 21.211 209.228 21.211 208.613C21.211 207.983 20.761 207.563 20.206 207.563C19.666 207.563 19.231 207.983 19.231 208.613C19.231 209.228 19.666 209.663 20.206 209.663ZM26.4808 209.663C28.5508 209.663 29.8858 207.758 29.8858 203.918C29.8858 200.108 28.5508 198.263 26.4808 198.263C24.3808 198.263 23.0458 200.108 23.0458 203.918C23.0458 207.758 24.3808 209.663 26.4808 209.663ZM26.4808 208.553C25.2208 208.553 24.3658 207.158 24.3658 203.918C24.3658 200.723 25.2208 199.358 26.4808 199.358C27.7258 199.358 28.5658 200.723 28.5658 203.918C28.5658 207.158 27.7258 208.553 26.4808 208.553Z" fill="#404040"/>
<path d="M13.9857 159.048C16.0557 159.048 17.3907 157.143 17.3907 153.303C17.3907 149.493 16.0557 147.648 13.9857 147.648C11.8857 147.648 10.5507 149.493 10.5507 153.303C10.5507 157.143 11.8857 159.048 13.9857 159.048ZM13.9857 157.938C12.7257 157.938 11.8707 156.543 11.8707 153.303C11.8707 150.108 12.7257 148.743 13.9857 148.743C15.2307 148.743 16.0707 150.108 16.0707 153.303C16.0707 156.543 15.2307 157.938 13.9857 157.938ZM20.206 159.048C20.761 159.048 21.211 158.613 21.211 157.998C21.211 157.368 20.761 156.948 20.206 156.948C19.666 156.948 19.231 157.368 19.231 157.998C19.231 158.613 19.666 159.048 20.206 159.048ZM26.2258 159.048C28.0708 159.048 29.8258 157.668 29.8258 155.268C29.8258 152.838 28.3408 151.758 26.5108 151.758C25.8508 151.758 25.3558 151.923 24.8608 152.193L25.1458 149.013H29.3008V147.843H23.9458L23.6008 152.988L24.3358 153.453C24.9658 153.033 25.4308 152.793 26.1658 152.793C27.5308 152.793 28.4308 153.738 28.4308 155.313C28.4308 156.903 27.3958 157.908 26.0908 157.908C24.8308 157.908 24.0208 157.323 23.4058 156.678L22.7158 157.578C23.4658 158.328 24.5158 159.048 26.2258 159.048Z" fill="#404040"/>
<path d="M11.1357 108.225H17.1657V107.085H14.9457V97.2296H13.8957C13.3107 97.5896 12.6057 97.8446 11.6157 98.0096V98.8946H13.5807V107.085H11.1357V108.225ZM20.206 108.435C20.761 108.435 21.211 108 21.211 107.385C21.211 106.755 20.761 106.335 20.206 106.335C19.666 106.335 19.231 106.755 19.231 107.385C19.231 108 19.666 108.435 20.206 108.435ZM26.4808 108.435C28.5508 108.435 29.8858 106.53 29.8858 102.69C29.8858 98.8796 28.5508 97.0346 26.4808 97.0346C24.3808 97.0346 23.0458 98.8796 23.0458 102.69C23.0458 106.53 24.3808 108.435 26.4808 108.435ZM26.4808 107.325C25.2208 107.325 24.3658 105.93 24.3658 102.69C24.3658 99.4946 25.2208 98.1296 26.4808 98.1296C27.7258 98.1296 28.5658 99.4946 28.5658 102.69C28.5658 105.93 27.7258 107.325 26.4808 107.325Z" fill="#404040"/>
<path d="M38.3691 329.387H44.3991V328.247H42.1791V318.392H41.1291C40.5441 318.752 39.8391 319.007 38.8491 319.172V320.057H40.8141V328.247H38.3691V329.387ZM49.5544 329.597C51.6094 329.597 53.0044 328.352 53.0044 326.747C53.0044 325.247 52.1044 324.407 51.1444 323.852V323.777C51.8044 323.267 52.6144 322.292 52.6144 321.122C52.6144 319.442 51.4744 318.242 49.5994 318.242C47.8744 318.242 46.5694 319.352 46.5694 321.017C46.5694 322.172 47.2594 323.012 48.0694 323.567V323.627C47.0644 324.167 46.0444 325.187 46.0444 326.672C46.0444 328.367 47.5294 329.597 49.5544 329.597ZM50.3044 323.432C49.0144 322.922 47.8294 322.337 47.8294 321.017C47.8294 319.967 48.5644 319.247 49.5694 319.247C50.7544 319.247 51.4444 320.117 51.4444 321.197C51.4444 322.022 51.0544 322.772 50.3044 323.432ZM49.5844 328.562C48.2644 328.562 47.2744 327.707 47.2744 326.537C47.2744 325.487 47.8894 324.617 48.7894 324.047C50.3344 324.677 51.6844 325.232 51.6844 326.702C51.6844 327.797 50.8444 328.562 49.5844 328.562ZM57.6047 329.597C59.4497 329.597 61.2047 328.217 61.2047 325.817C61.2047 323.387 59.7197 322.307 57.8897 322.307C57.2297 322.307 56.7347 322.472 56.2397 322.742L56.5247 319.562H60.6797V318.392H55.3247L54.9797 323.537L55.7147 324.002C56.3447 323.582 56.8097 323.342 57.5447 323.342C58.9097 323.342 59.8097 324.287 59.8097 325.862C59.8097 327.452 58.7747 328.457 57.4697 328.457C56.2097 328.457 55.3997 327.872 54.7847 327.227L54.0947 328.127C54.8447 328.877 55.8947 329.597 57.6047 329.597ZM66.18 329.597C68.25 329.597 69.585 327.692 69.585 323.852C69.585 320.042 68.25 318.197 66.18 318.197C64.08 318.197 62.745 320.042 62.745 323.852C62.745 327.692 64.08 329.597 66.18 329.597ZM66.18 328.487C64.92 328.487 64.065 327.092 64.065 323.852C64.065 320.657 64.92 319.292 66.18 319.292C67.425 319.292 68.265 320.657 68.265 323.852C68.265 327.092 67.425 328.487 66.18 328.487ZM74.4853 316.742C73.7503 318.767 72.5053 320.717 71.0803 321.962C71.3653 322.112 71.8303 322.487 72.0553 322.682C73.4503 321.332 74.7853 319.247 75.6103 317.027L74.4853 316.742ZM74.2453 318.602L73.7053 319.697H83.9203V318.602H74.2453ZM73.5103 322.007V326.612H74.6353V323.057H83.5903V322.007H73.5103ZM71.0353 326.042V327.137H84.6253V326.042H71.0353ZM78.0103 319.172V330.602H79.1653V319.172H78.0103Z" fill="#404040"/>
<path d="M130.992 329.387H137.022V328.247H134.802V318.392H133.752C133.167 318.752 132.462 319.007 131.472 319.172V320.057H133.437V328.247H130.992V329.387ZM141.502 329.597C143.572 329.597 145.492 327.887 145.492 323.417C145.492 319.922 143.917 318.197 141.802 318.197C140.092 318.197 138.652 319.637 138.652 321.767C138.652 324.047 139.837 325.217 141.682 325.217C142.627 325.217 143.602 324.647 144.292 323.777L144.217 322.682C143.497 323.777 142.642 324.212 141.907 324.212C140.602 324.212 139.942 323.237 139.942 321.767C139.942 320.252 140.752 319.262 141.802 319.262C143.347 319.262 144.202 320.717 144.202 323.417C144.202 327.182 142.927 328.457 141.457 328.457C140.752 328.457 140.077 328.142 139.612 327.602L138.847 328.472C139.462 329.117 140.302 329.597 141.502 329.597ZM150.482 329.597C152.552 329.597 153.887 327.692 153.887 323.852C153.887 320.042 152.552 318.197 150.482 318.197C148.382 318.197 147.047 320.042 147.047 323.852C147.047 327.692 148.382 329.597 150.482 329.597ZM150.482 328.487C149.222 328.487 148.367 327.092 148.367 323.852C148.367 320.657 149.222 319.292 150.482 319.292C151.727 319.292 152.567 320.657 152.567 323.852C152.567 327.092 151.727 328.487 150.482 328.487ZM158.803 329.597C160.873 329.597 162.208 327.692 162.208 323.852C162.208 320.042 160.873 318.197 158.803 318.197C156.703 318.197 155.368 320.042 155.368 323.852C155.368 327.692 156.703 329.597 158.803 329.597ZM158.803 328.487C157.543 328.487 156.688 327.092 156.688 323.852C156.688 320.657 157.543 319.292 158.803 319.292C160.048 319.292 160.888 320.657 160.888 323.852C160.888 327.092 160.048 328.487 158.803 328.487Z" fill="#404040"/>
<path d="M219.755 329.387H225.785V328.247H223.565V318.392H222.515C221.93 318.752 221.225 319.007 220.235 319.172V320.057H222.2V328.247H219.755V329.387ZM230.265 329.597C232.335 329.597 234.255 327.887 234.255 323.417C234.255 319.922 232.68 318.197 230.565 318.197C228.855 318.197 227.415 319.637 227.415 321.767C227.415 324.047 228.6 325.217 230.445 325.217C231.39 325.217 232.365 324.647 233.055 323.777L232.98 322.682C232.26 323.777 231.405 324.212 230.67 324.212C229.365 324.212 228.705 323.237 228.705 321.767C228.705 320.252 229.515 319.262 230.565 319.262C232.11 319.262 232.965 320.717 232.965 323.417C232.965 327.182 231.69 328.457 230.22 328.457C229.515 328.457 228.84 328.142 228.375 327.602L227.61 328.472C228.225 329.117 229.065 329.597 230.265 329.597ZM238.991 329.597C240.836 329.597 242.591 328.217 242.591 325.817C242.591 323.387 241.106 322.307 239.276 322.307C238.616 322.307 238.121 322.472 237.626 322.742L237.911 319.562H242.066V318.392H236.711L236.366 323.537L237.101 324.002C237.731 323.582 238.196 323.342 238.931 323.342C240.296 323.342 241.196 324.287 241.196 325.862C241.196 327.452 240.161 328.457 238.856 328.457C237.596 328.457 236.786 327.872 236.171 327.227L235.481 328.127C236.231 328.877 237.281 329.597 238.991 329.597ZM247.566 329.597C249.636 329.597 250.971 327.692 250.971 323.852C250.971 320.042 249.636 318.197 247.566 318.197C245.466 318.197 244.131 320.042 244.131 323.852C244.131 327.692 245.466 329.597 247.566 329.597ZM247.566 328.487C246.306 328.487 245.451 327.092 245.451 323.852C245.451 320.657 246.306 319.292 247.566 319.292C248.811 319.292 249.651 320.657 249.651 323.852C249.651 327.092 248.811 328.487 247.566 328.487Z" fill="#404040"/>
<path d="M304.771 329.387H311.671V328.217H308.626C308.071 328.217 307.411 328.262 306.826 328.322C309.421 325.877 311.146 323.642 311.146 321.437C311.146 319.472 309.916 318.197 307.951 318.197C306.556 318.197 305.596 318.842 304.696 319.817L305.491 320.582C306.106 319.862 306.886 319.307 307.786 319.307C309.151 319.307 309.796 320.237 309.796 321.497C309.796 323.372 308.221 325.577 304.771 328.592V329.387ZM316.601 329.597C318.671 329.597 320.006 327.692 320.006 323.852C320.006 320.042 318.671 318.197 316.601 318.197C314.501 318.197 313.166 320.042 313.166 323.852C313.166 327.692 314.501 329.597 316.601 329.597ZM316.601 328.487C315.341 328.487 314.486 327.092 314.486 323.852C314.486 320.657 315.341 319.292 316.601 319.292C317.846 319.292 318.686 320.657 318.686 323.852C318.686 327.092 317.846 328.487 316.601 328.487ZM324.921 329.597C326.991 329.597 328.326 327.692 328.326 323.852C328.326 320.042 326.991 318.197 324.921 318.197C322.821 318.197 321.486 320.042 321.486 323.852C321.486 327.692 322.821 329.597 324.921 329.597ZM324.921 328.487C323.661 328.487 322.806 327.092 322.806 323.852C322.806 320.657 323.661 319.292 324.921 319.292C326.166 319.292 327.006 320.657 327.006 323.852C327.006 327.092 326.166 328.487 324.921 328.487ZM333.242 329.597C335.312 329.597 336.647 327.692 336.647 323.852C336.647 320.042 335.312 318.197 333.242 318.197C331.142 318.197 329.807 320.042 329.807 323.852C329.807 327.692 331.142 329.597 333.242 329.597ZM333.242 328.487C331.982 328.487 331.127 327.092 331.127 323.852C331.127 320.657 331.982 319.292 333.242 319.292C334.487 319.292 335.327 320.657 335.327 323.852C335.327 327.092 334.487 328.487 333.242 328.487Z" fill="#404040"/>
<path d="M5.56 68.8116V69.9216H17.38V68.8116H5.56ZM4.78 75.1866V76.3116H18.235V75.1866H4.78ZM6.61 70.9566C7.18 72.0666 7.765 73.5216 7.975 74.4066L9.055 74.0466C8.845 73.1616 8.23 71.7366 7.615 70.6416L6.61 70.9566ZM15.31 70.5816C14.95 71.6616 14.245 73.2066 13.69 74.1516L14.65 74.4666C15.235 73.5666 15.94 72.1266 16.51 70.9116L15.31 70.5816ZM10.885 69.2466V81.5916H12.04V69.2466H10.885ZM25.435 76.9266V77.9466H30.535V76.9266H25.435ZM25.78 73.5066V74.5266H30.28V73.5066H25.78ZM26.23 70.2816V71.3616H32.41V70.2816H26.23ZM32.02 70.2816V70.5516C31.81 77.2566 31.57 79.7466 31.06 80.2866C30.895 80.4816 30.715 80.5266 30.415 80.5266C30.055 80.5266 29.14 80.5266 28.135 80.4216C28.33 80.7516 28.48 81.2466 28.495 81.5616C29.41 81.6216 30.34 81.6366 30.85 81.5916C31.405 81.5316 31.75 81.3966 32.08 80.9616C32.695 80.2266 32.905 77.8116 33.13 70.8816C33.13 70.7316 33.145 70.2816 33.145 70.2816H32.02ZM26.83 67.8066C26.17 69.9816 25.09 72.1266 23.77 73.4766C24.055 73.6416 24.565 73.9416 24.805 74.1216C26.05 72.6666 27.235 70.4166 27.97 68.0916L26.83 67.8066ZM19.75 71.5716V72.6516H24.55V71.5716H19.75ZM21.7 68.1066V78.0966H22.78V68.1066H21.7ZM19.495 78.7866L19.93 79.9116C21.34 79.2216 23.215 78.3216 24.94 77.4516L24.655 76.4166C22.765 77.3166 20.785 78.2466 19.495 78.7866ZM39.1 75.5166V80.6766H40.135V76.4916H41.59V80.6766H42.475V76.4916H43.945V80.6766H44.845V76.4916H46.33V80.6766H47.395V75.5166H39.1ZM37.75 80.1666V81.1566H48.43V80.1666H37.75ZM35.335 68.7516C36.235 69.1866 37.345 69.9066 37.87 70.4466L38.53 69.5316C37.99 69.0066 36.88 68.3316 35.965 67.9266L35.335 68.7516ZM34.555 72.8016C35.485 73.2066 36.595 73.8666 37.135 74.3766L37.795 73.4466C37.225 72.9516 36.1 72.3216 35.185 71.9466L34.555 72.8016ZM34.915 80.7066L35.905 81.3966C36.67 80.0016 37.57 78.1416 38.23 76.5516L37.345 75.8766C36.61 77.5866 35.62 79.5516 34.915 80.7066ZM40.675 69.3816H45.775V73.5066H40.675V69.3816ZM39.655 68.4966V74.3916H46.855V68.4966H39.655ZM42.985 69.6516C42.79 70.7916 42.115 71.9766 40.975 72.6216C41.14 72.7566 41.38 73.0266 41.485 73.1766C42.76 72.4716 43.555 71.1066 43.81 69.7416L42.985 69.6516ZM42.655 71.1966C43.39 71.7966 44.32 72.6516 44.77 73.1766L45.355 72.6516C44.89 72.1416 43.96 71.3316 43.225 70.7616L42.655 71.1966ZM52.375 72.0516V72.9666H63.04V72.0516H52.375ZM52.585 76.4166V77.3466H61.165V76.4166H52.585ZM54.79 70.7466V75.4566H60.61V70.7466H59.515V74.5716H55.855V70.7466H54.79ZM60.865 76.4166V76.5816C59.47 79.1016 55.69 80.2116 51.865 80.5566C52.045 80.8116 52.24 81.2466 52.33 81.5016C56.41 81.0366 60.325 79.8216 62.005 76.7616L61.3 76.3716L61.09 76.4166H60.865ZM54.985 77.1816L54.01 77.5566C55.735 79.8966 58.945 81.1416 62.77 81.5916C62.905 81.3066 63.175 80.8566 63.415 80.6166C59.68 80.2716 56.47 79.1616 54.985 77.1816ZM51.415 69.2916V70.3416H63.22V69.2916H51.415ZM50.89 69.2916V73.3716C50.89 75.6216 50.77 78.8166 49.54 81.0816C49.825 81.1716 50.335 81.4116 50.56 81.5916C51.82 79.2216 52 75.7566 52 73.3716V69.2916H50.89ZM56.095 67.9866C56.425 68.6016 56.77 69.4416 56.905 69.9666L58.09 69.6366C57.955 69.1266 57.565 68.3316 57.22 67.7166L56.095 67.9866ZM67.585 83.3466L68.425 82.9566C67.135 80.8266 66.505 78.2916 66.505 75.7416C66.505 73.1916 67.135 70.6566 68.425 68.5266L67.585 68.1216C66.19 70.3716 65.365 72.8016 65.365 75.7416C65.365 78.6966 66.19 81.0966 67.585 83.3466ZM71.8734 73.2366C72.9984 73.2366 73.9884 72.3966 73.9884 71.1066C73.9884 69.7866 72.9984 68.9466 71.8734 68.9466C70.7484 68.9466 69.7584 69.7866 69.7584 71.1066C69.7584 72.3966 70.7484 73.2366 71.8734 73.2366ZM71.8734 72.4566C71.1234 72.4566 70.6134 71.8866 70.6134 71.1066C70.6134 70.2966 71.1234 69.7266 71.8734 69.7266C72.6084 69.7266 73.1484 70.2966 73.1484 71.1066C73.1484 71.8866 72.6084 72.4566 71.8734 72.4566ZM80.0934 80.6016C81.4734 80.6016 82.5534 80.0316 83.4234 79.0116L82.6134 78.1416C81.9234 78.9066 81.1584 79.3266 80.1234 79.3266C78.0384 79.3266 76.7484 77.6316 76.7484 74.8866C76.7484 72.1716 78.0984 70.4766 80.1834 70.4766C81.0834 70.4766 81.7884 70.8666 82.3734 71.4816L83.1684 70.5816C82.5234 69.8766 81.4734 69.2316 80.1534 69.2316C77.3484 69.2316 75.2634 71.3766 75.2634 74.9316C75.2634 78.5016 77.3034 80.6016 80.0934 80.6016ZM85.5534 83.3466C86.9334 81.0966 87.7584 78.6966 87.7584 75.7416C87.7584 72.8016 86.9334 70.3716 85.5534 68.1216L84.6984 68.5266C85.9884 70.6566 86.6184 73.1916 86.6184 75.7416C86.6184 78.2916 85.9884 80.8266 84.6984 82.9566L85.5534 83.3466ZM90.6517 69.8166V70.8066H102.712V69.8166H90.6517ZM91.3717 72.1266V73.0866H101.962V72.1266H91.3717ZM92.7667 80.2266V81.2316H102.982V80.2266H92.7667ZM89.9617 74.4516V75.4566H103.282V74.4516H89.9617ZM94.2067 76.5966V77.5866H101.992V76.5966H94.2067ZM96.0367 70.3116V75.1566H97.1917V70.3116H96.0367ZM97.2367 77.0766V80.6616H98.3767V77.0766H97.2367ZM92.6917 68.2266C93.1717 68.8266 93.6667 69.6216 93.8617 70.1766L94.8817 69.7116C94.6567 69.1866 94.1617 68.4066 93.6667 67.8366L92.6917 68.2266ZM99.4867 67.7766C99.2467 68.3616 98.7667 69.2166 98.3917 69.7716L99.3367 70.1016C99.7417 69.5916 100.237 68.8416 100.687 68.1216L99.4867 67.7766ZM93.1567 74.8716C92.6317 77.4666 91.5067 79.5666 89.7067 80.8266C89.9917 81.0066 90.4567 81.3966 90.6517 81.6066C92.4667 80.1816 93.7117 77.9316 94.3267 75.0516L93.1567 74.8716ZM112.882 79.7616C114.577 80.3316 116.332 81.0666 117.382 81.6216L118.312 80.8116C117.172 80.2566 115.312 79.5366 113.602 78.9966L112.882 79.7616ZM104.932 77.8416V78.8316H118.357V77.8416H104.932ZM105.892 75.1266V76.1166H117.472V75.1266H105.892ZM108.547 73.4616V78.2766H109.672V73.4616H108.547ZM111.022 68.8416V73.3266H112.132V68.8416H111.022ZM113.587 73.4616V78.2766H114.727V73.4616H113.587ZM107.482 71.4516H115.777V72.8166H107.482V71.4516ZM107.482 69.2766H115.777V70.6116H107.482V69.2766ZM106.402 68.3916V73.7016H116.917V68.3916H106.402ZM109.492 79.0116C108.517 79.6566 106.582 80.3766 105.037 80.7666C105.277 80.9916 105.592 81.3816 105.757 81.6216C107.347 81.2016 109.267 80.4516 110.497 79.6866L109.492 79.0116ZM125.407 77.5716C126.982 77.0316 128.002 75.8016 128.002 74.1816C128.002 73.1316 127.552 72.4416 126.712 72.4416C126.112 72.4416 125.572 72.8166 125.572 73.5216C125.572 74.2266 126.082 74.6016 126.697 74.6016C126.982 74.6016 127.282 74.5266 127.492 74.2566L126.682 73.1166L126.967 74.3766C126.967 75.5166 126.292 76.2816 125.062 76.7766L125.407 77.5716ZM139.597 70.1616C140.557 71.2716 141.532 72.8166 141.922 73.8516L143.002 73.2666C142.567 72.2466 141.607 70.7616 140.602 69.6666L139.597 70.1616ZM134.662 78.8016L135.067 79.9716C136.732 79.2516 139.012 78.2466 141.097 77.2866L140.842 76.1916C138.592 77.1816 136.192 78.2016 134.662 78.8016ZM143.662 76.8216C145.102 78.2916 146.902 80.3166 147.742 81.5616L148.702 80.6766C147.817 79.4466 145.957 77.4966 144.532 76.0866L143.662 76.8216ZM145.747 68.5716C145.072 75.0966 143.482 78.7716 138.292 80.6616C138.577 80.9016 139.027 81.3966 139.192 81.6366C144.442 79.4466 146.197 75.6216 146.962 68.6916L145.747 68.5716ZM136.492 68.6166L136.747 78.5316L137.902 78.4866L137.647 68.5716L136.492 68.6166ZM150.457 80.3916H156.487V79.2516H154.267V69.3966H153.217C152.632 69.7566 151.927 70.0116 150.937 70.1766V71.0616H152.902V79.2516H150.457V80.3916ZM160.967 80.6016C163.037 80.6016 164.957 78.8916 164.957 74.4216C164.957 70.9266 163.382 69.2016 161.267 69.2016C159.557 69.2016 158.117 70.6416 158.117 72.7716C158.117 75.0516 159.302 76.2216 161.147 76.2216C162.092 76.2216 163.067 75.6516 163.757 74.7816L163.682 73.6866C162.962 74.7816 162.107 75.2166 161.372 75.2166C160.067 75.2166 159.407 74.2416 159.407 72.7716C159.407 71.2566 160.217 70.2666 161.267 70.2666C162.812 70.2666 163.667 71.7216 163.667 74.4216C163.667 78.1866 162.392 79.4616 160.922 79.4616C160.217 79.4616 159.542 79.1466 159.077 78.6066L158.312 79.4766C158.927 80.1216 159.767 80.6016 160.967 80.6016ZM170.292 80.6016C171.987 80.6016 173.442 79.1616 173.442 77.0316C173.442 74.7216 172.242 73.5816 170.382 73.5816C169.497 73.5816 168.477 74.1216 167.802 75.0066L167.847 76.1016C168.582 75.0066 169.467 74.5866 170.172 74.5866C171.492 74.5866 172.152 75.5316 172.152 77.0316C172.152 78.5166 171.342 79.5216 170.292 79.5216C168.747 79.5216 167.892 77.9766 167.892 75.1566C167.892 71.5566 169.182 70.3416 170.727 70.3416C171.387 70.3416 172.062 70.6566 172.482 71.1666L173.247 70.3266C172.647 69.6816 171.807 69.2016 170.667 69.2016C168.537 69.2016 166.602 70.8516 166.602 75.1566C166.602 78.7866 168.177 80.6016 170.292 80.6016ZM178.268 80.6016C180.338 80.6016 181.673 78.6966 181.673 74.8566C181.673 71.0466 180.338 69.2016 178.268 69.2016C176.168 69.2016 174.833 71.0466 174.833 74.8566C174.833 78.6966 176.168 80.6016 178.268 80.6016ZM178.268 79.4916C177.008 79.4916 176.153 78.0966 176.153 74.8566C176.153 71.6616 177.008 70.2966 178.268 70.2966C179.513 70.2966 180.353 71.6616 180.353 74.8566C180.353 78.0966 179.513 79.4916 178.268 79.4916ZM183.108 76.7316H186.948V75.6816H183.108V76.7316ZM188.938 80.3916H194.968V79.2516H192.748V69.3966H191.698C191.113 69.7566 190.408 70.0116 189.418 70.1766V71.0616H191.383V79.2516H188.938V80.3916ZM199.448 80.6016C201.518 80.6016 203.438 78.8916 203.438 74.4216C203.438 70.9266 201.863 69.2016 199.748 69.2016C198.038 69.2016 196.598 70.6416 196.598 72.7716C196.598 75.0516 197.783 76.2216 199.628 76.2216C200.573 76.2216 201.548 75.6516 202.238 74.7816L202.163 73.6866C201.443 74.7816 200.588 75.2166 199.853 75.2166C198.548 75.2166 197.888 74.2416 197.888 72.7716C197.888 71.2566 198.698 70.2666 199.748 70.2666C201.293 70.2666 202.148 71.7216 202.148 74.4216C202.148 78.1866 200.873 79.4616 199.403 79.4616C198.698 79.4616 198.023 79.1466 197.558 78.6066L196.793 79.4766C197.408 80.1216 198.248 80.6016 199.448 80.6016ZM207.769 80.6016C209.839 80.6016 211.759 78.8916 211.759 74.4216C211.759 70.9266 210.184 69.2016 208.069 69.2016C206.359 69.2016 204.919 70.6416 204.919 72.7716C204.919 75.0516 206.104 76.2216 207.949 76.2216C208.894 76.2216 209.869 75.6516 210.559 74.7816L210.484 73.6866C209.764 74.7816 208.909 75.2166 208.174 75.2166C206.869 75.2166 206.209 74.2416 206.209 72.7716C206.209 71.2566 207.019 70.2666 208.069 70.2666C209.614 70.2666 210.469 71.7216 210.469 74.4216C210.469 78.1866 209.194 79.4616 207.724 79.4616C207.019 79.4616 206.344 79.1466 205.879 78.6066L205.114 79.4766C205.729 80.1216 206.569 80.6016 207.769 80.6016ZM216.749 80.6016C218.819 80.6016 220.154 78.6966 220.154 74.8566C220.154 71.0466 218.819 69.2016 216.749 69.2016C214.649 69.2016 213.314 71.0466 213.314 74.8566C213.314 78.6966 214.649 80.6016 216.749 80.6016ZM216.749 79.4916C215.489 79.4916 214.634 78.0966 214.634 74.8566C214.634 71.6616 215.489 70.2966 216.749 70.2966C217.994 70.2966 218.834 71.6616 218.834 74.8566C218.834 78.0966 217.994 79.4916 216.749 79.4916ZM225.054 67.7466C224.319 69.7716 223.074 71.7216 221.649 72.9666C221.934 73.1166 222.399 73.4916 222.624 73.6866C224.019 72.3366 225.354 70.2516 226.179 68.0316L225.054 67.7466ZM224.814 69.6066L224.274 70.7016H234.489V69.6066H224.814ZM224.079 73.0116V77.6166H225.204V74.0616H234.159V73.0116H224.079ZM221.604 77.0466V78.1416H235.194V77.0466H221.604ZM228.579 70.1766V81.6066H229.734V70.1766H228.579ZM239.049 75.7866V76.7766H249.264V75.7866H239.049ZM237.114 70.3716V71.4066H246.924V70.3716H237.114ZM241.344 73.0716V74.0766H248.214V73.0716H241.344ZM248.784 75.7866V75.9666C248.544 78.9516 248.259 80.1366 247.914 80.4816C247.779 80.6016 247.629 80.6316 247.344 80.6316C247.059 80.6316 246.339 80.6316 245.589 80.5416C245.769 80.8416 245.889 81.2766 245.904 81.5916C246.684 81.6216 247.434 81.6366 247.809 81.6066C248.259 81.5766 248.544 81.4716 248.829 81.1866C249.309 80.6916 249.594 79.4466 249.864 76.2816C249.894 76.1166 249.909 75.7866 249.909 75.7866H248.784ZM245.454 77.5866C245.904 78.2166 246.369 79.0866 246.564 79.6266L247.389 79.2816C247.194 78.7416 246.729 77.9016 246.249 77.2866L245.454 77.5866ZM238.974 68.2416C239.559 68.8716 240.189 69.7566 240.444 70.3416L241.494 69.8616C241.194 69.2916 240.534 68.4366 239.949 67.8366L238.974 68.2416ZM241.014 77.9616C241.269 78.9366 241.434 80.1666 241.404 80.9766L242.394 80.8416C242.394 80.0316 242.229 78.7866 241.929 77.8416L241.014 77.9616ZM243.219 77.8266C243.594 78.6516 243.954 79.7466 244.059 80.4666L244.989 80.2116C244.869 79.5066 244.494 78.4416 244.104 77.6166L243.219 77.8266ZM239.094 77.6166C238.794 78.7716 238.224 80.1066 237.384 80.9016L238.254 81.5166C239.169 80.6016 239.694 79.1766 240.039 77.9316L239.094 77.6166ZM243.519 67.7916C242.379 71.6766 240.069 75.5166 236.349 77.6316C236.544 77.8716 236.829 78.3216 236.964 78.5916C240.939 76.2366 243.294 72.2766 244.659 68.0766L243.519 67.7916ZM246.669 70.3716C246.504 71.3316 246.249 72.5316 246.039 73.3266L247.029 73.4616C247.254 72.6516 247.524 71.4066 247.734 70.3716H246.669ZM247.794 73.0716C247.644 74.0316 247.389 75.2466 247.164 76.0566L248.184 76.1766C248.394 75.3666 248.649 74.1066 248.859 73.0716H247.794ZM252.279 69.2466V70.2066H264.564V69.2466H252.279ZM252.759 80.2416V81.1866H264.114V80.2416H252.759ZM255.234 71.1966V72.0516H261.549V71.1966H255.234ZM255.234 73.0866V73.9416H261.549V73.0866H255.234ZM251.574 75.0216V75.9666H265.209V75.0216H251.574ZM254.724 77.7066V78.6366H262.089V77.7066H254.724ZM254.559 67.8066V75.5466H255.684V67.8066H254.559ZM261.159 67.8066V75.5466H262.284V67.8066H261.159ZM257.784 76.4466V80.7666H258.939V76.4466H257.784ZM255.354 75.2766C254.544 76.5966 252.939 77.8866 251.424 78.4866C251.679 78.6966 251.994 79.0866 252.159 79.3416C253.734 78.6066 255.384 77.1816 256.299 75.6366L255.354 75.2766ZM261.489 75.2766L260.604 75.6216C261.474 77.0916 263.064 78.4866 264.654 79.1616C264.819 78.8916 265.149 78.5016 265.404 78.2916C263.844 77.7366 262.284 76.5516 261.489 75.2766ZM267.609 68.6466C268.434 68.9766 269.484 69.5166 270.009 69.8916L270.609 69.0216C270.069 68.6466 269.004 68.1516 268.179 67.8816L267.609 68.6466ZM266.484 71.2116C267.294 71.4966 268.344 72.0066 268.869 72.3666L269.454 71.4966C268.899 71.1366 267.849 70.6866 267.054 70.4166L266.484 71.2116ZM266.904 75.9816L267.684 76.8516C268.599 75.8766 269.604 74.7066 270.459 73.6566L269.859 72.8916C268.884 74.0316 267.699 75.2466 266.904 75.9816ZM266.679 77.6316V78.6516H280.164V77.6316H266.679ZM272.784 76.5516V81.6066H273.939V76.5516H272.784ZM272.454 67.7166C271.794 69.2166 270.669 70.6716 269.484 71.6316C269.739 71.7816 270.189 72.1416 270.384 72.3366C271.554 71.3016 272.754 69.6816 273.504 68.0316L272.454 67.7166ZM271.644 75.2166V76.1466H279.744V75.2166H271.644ZM271.794 71.4216V72.1866H279.024V71.4216H271.794ZM271.794 73.2816V74.0616H279.039V73.2816H271.794ZM275.079 69.8166V75.7416H276.159V69.8166H275.079ZM274.599 68.1516C274.914 68.7216 275.244 69.4866 275.394 69.9516L276.534 69.6066C276.369 69.1416 275.994 68.4066 275.694 67.8666L274.599 68.1516ZM272.364 69.4116H271.944L271.269 70.1166V76.7916H272.364V70.2966H279.489V69.4116H272.364Z" fill="#404040"/>
<path d="M50 242.38L51.54 226.97L53.83 228.62L55.37 232.47L56.53 228.62L59.23 232.47L62.32 251.18H63.48L65.41 233.58L68.5 247.33L71.2 259.98L72.74 232.47L74.28 259.98L76.21 232.47L78.17 229.76L80.1 238.02L81.26 229.76L85.12 232.51L86.66 240.76L88.21 227L90.52 239.11L93.22 244.61H95.54L96.7 212.15L98.24 200.6L100.17 227H101.72L103.65 223.7L105.57 225.35L109.43 245.71L112.52 242.41L113.68 247.36L117.92 218.2L119.08 249.56L121.4 238.01L122.55 249.56L124.48 253.96L125.64 247.36L127.96 244.61L129.89 223.7L131.82 227L133.36 247.36L136.45 225.36L139.15 232.51L140.31 247.37L143.83 259.98L144.99 242.38L147.3 233.58L148.85 249.58L152.32 257.28L153.87 253.98L155.79 260.03L157.34 249.58L159.27 247.38L162.74 218.22L164.67 244.63L166.22 252.33L167.37 238.03L168.53 233.63L170.85 228.63L173.16 221.48L175.09 236.34L176.64 233.59H178.95L182.04 215.43L183.58 225.33H185.51L187.06 242.39L188.6 218.18L190.14 212.18L192.46 218.18L194 233.59L195.54 218.18L197.09 221.48L199.4 218.18L200.9 207.76L202.83 205.56L204.76 212.16L206.3 202.81H208.23L209.39 207.81L210.55 205.61L213.63 190.2L216.34 212.2L218.65 207.8L220.58 208.9L222.9 223.75L225.98 203.95L228.3 193.49L230.62 218.25L234.09 233.66L235.63 205.6L237.18 198.44L240.65 210L241.81 200.65L243.74 202.85L246.05 198.44L247.6 228.7L251.45 212.2H253.77L254.54 217.15L257.24 200.65L259.94 225.4L263.42 196.8L264.58 227.05L266.89 218.25L268.44 228.7L270.37 196.8L272.29 212.2L273.45 196.8L276.93 190.19L278.47 205.6L280.01 181.94L282.33 205.6L285.03 208.9L286.19 196.8L287.73 185.24H289.66L290.82 193.49L293.13 173.69L295.45 178.69V193.54L298.54 185.29L301.24 170.44L302.78 186.94L306.64 146.78L308.19 173.78L310.12 175.43L312.04 160.58L314.36 152.87L316.68 158.92L318.99 149.57L322.08 155.07L324.4 164.98L325.55 152.87L327.87 146.82L329.03 162.82L333.27 149.61L335.59 136.76V125.76L338.29 123L340.99 143.91L343.31 130.71" stroke="#285F92" stroke-width="2" stroke-linecap="round"/>
</svg>
