<svg width="530" height="372" viewBox="0 0 530 372" fill="none" xmlns="http://www.w3.org/2000/svg">
<circle cx="275.65" cy="301.727" r="4.65032" fill="#FAFAFA" stroke="#285F92" stroke-width="2"/>
<circle cx="445.245" cy="134.477" r="4.65032" fill="#FAFAFA" stroke="#285F92" stroke-width="2"/>
<path d="M393.66 118.836H400.56V117.666H397.515C396.96 117.666 396.3 117.711 395.715 117.771C398.31 115.326 400.035 113.091 400.035 110.886C400.035 108.921 398.805 107.646 396.84 107.646C395.445 107.646 394.485 108.291 393.585 109.266L394.38 110.031C394.995 109.311 395.775 108.756 396.675 108.756C398.04 108.756 398.685 109.686 398.685 110.946C398.685 112.821 397.11 115.026 393.66 118.041V118.836ZM405.49 119.046C407.56 119.046 408.895 117.141 408.895 113.301C408.895 109.491 407.56 107.646 405.49 107.646C403.39 107.646 402.055 109.491 402.055 113.301C402.055 117.141 403.39 119.046 405.49 119.046ZM405.49 117.936C404.23 117.936 403.375 116.541 403.375 113.301C403.375 110.106 404.23 108.741 405.49 108.741C406.735 108.741 407.575 110.106 407.575 113.301C407.575 116.541 406.735 117.936 405.49 117.936ZM410.961 118.836H416.991V117.696H414.771V107.841H413.721C413.136 108.201 412.431 108.456 411.441 108.621V109.506H413.406V117.696H410.961V118.836ZM422.131 119.046C424.201 119.046 425.536 117.141 425.536 113.301C425.536 109.491 424.201 107.646 422.131 107.646C420.031 107.646 418.696 109.491 418.696 113.301C418.696 117.141 420.031 119.046 422.131 119.046ZM422.131 117.936C420.871 117.936 420.016 116.541 420.016 113.301C420.016 110.106 420.871 108.741 422.131 108.741C423.376 108.741 424.216 110.106 424.216 113.301C424.216 116.541 423.376 117.936 422.131 117.936ZM430.436 106.191C429.701 108.216 428.456 110.166 427.031 111.411C427.316 111.561 427.781 111.936 428.006 112.131C429.401 110.781 430.736 108.696 431.561 106.476L430.436 106.191ZM430.196 108.051L429.656 109.146H439.871V108.051H430.196ZM429.461 111.456V116.061H430.586V112.506H439.541V111.456H429.461ZM426.986 115.491V116.586H440.576V115.491H426.986ZM433.961 108.621V120.051H435.116V108.621H433.961ZM441.971 115.176H445.811V114.126H441.971V115.176ZM447.801 118.836H453.831V117.696H451.611V107.841H450.561C449.976 108.201 449.271 108.456 448.281 108.621V109.506H450.246V117.696H447.801V118.836ZM458.717 119.046C460.562 119.046 462.317 117.666 462.317 115.266C462.317 112.836 460.832 111.756 459.002 111.756C458.342 111.756 457.847 111.921 457.352 112.191L457.637 109.011H461.792V107.841H456.437L456.092 112.986L456.827 113.451C457.457 113.031 457.922 112.791 458.657 112.791C460.022 112.791 460.922 113.736 460.922 115.311C460.922 116.901 459.887 117.906 458.582 117.906C457.322 117.906 456.512 117.321 455.897 116.676L455.207 117.576C455.957 118.326 457.007 119.046 458.717 119.046ZM465.192 119.046C465.747 119.046 466.197 118.611 466.197 117.996C466.197 117.366 465.747 116.946 465.192 116.946C464.652 116.946 464.217 117.366 464.217 117.996C464.217 118.611 464.652 119.046 465.192 119.046ZM470.252 118.836H471.677C471.857 114.546 472.322 111.981 474.902 108.666V107.841H468.032V109.011H473.357C471.197 112.011 470.447 114.681 470.252 118.836ZM479.127 119.046C481.197 119.046 483.117 117.336 483.117 112.866C483.117 109.371 481.542 107.646 479.427 107.646C477.717 107.646 476.277 109.086 476.277 111.216C476.277 113.496 477.462 114.666 479.307 114.666C480.252 114.666 481.227 114.096 481.917 113.226L481.842 112.131C481.122 113.226 480.267 113.661 479.532 113.661C478.227 113.661 477.567 112.686 477.567 111.216C477.567 109.701 478.377 108.711 479.427 108.711C480.972 108.711 481.827 110.166 481.827 112.866C481.827 116.631 480.552 117.906 479.082 117.906C478.377 117.906 477.702 117.591 477.237 117.051L476.472 117.921C477.087 118.566 477.927 119.046 479.127 119.046ZM487.313 110.496V111.411H497.978V110.496H487.313ZM487.523 114.861V115.791H496.103V114.861H487.523ZM489.728 109.191V113.901H495.548V109.191H494.453V113.016H490.793V109.191H489.728ZM495.803 114.861V115.026C494.408 117.546 490.628 118.656 486.803 119.001C486.983 119.256 487.178 119.691 487.268 119.946C491.348 119.481 495.263 118.266 496.943 115.206L496.238 114.816L496.028 114.861H495.803ZM489.923 115.626L488.948 116.001C490.673 118.341 493.883 119.586 497.708 120.036C497.843 119.751 498.113 119.301 498.353 119.061C494.618 118.716 491.408 117.606 489.923 115.626ZM486.353 107.736V108.786H498.158V107.736H486.353ZM485.828 107.736V111.816C485.828 114.066 485.708 117.261 484.478 119.526C484.763 119.616 485.273 119.856 485.498 120.036C486.758 117.666 486.938 114.201 486.938 111.816V107.736H485.828ZM491.033 106.431C491.363 107.046 491.708 107.886 491.843 108.411L493.028 108.081C492.893 107.571 492.503 106.776 492.158 106.161L491.033 106.431Z" fill="#404040"/>
<rect x="385" y="77" width="119.787" height="24.8614" fill="#D5B15A"/>
<path d="M408.775 96H411.01C411.205 91.665 411.535 89.385 414.115 86.235V84.9H406.75V86.745H411.745C409.615 89.685 408.985 92.16 408.775 96ZM419.273 96.21C421.523 96.21 423.023 94.245 423.023 90.405C423.023 86.58 421.523 84.705 419.273 84.705C417.008 84.705 415.508 86.58 415.508 90.405C415.508 94.245 417.008 96.21 419.273 96.21ZM419.273 94.485C418.313 94.485 417.593 93.525 417.593 90.405C417.593 87.3 418.313 86.4 419.273 86.4C420.233 86.4 420.938 87.3 420.938 90.405C420.938 93.525 420.233 94.485 419.273 94.485ZM427.415 83.205C426.77 85.155 425.6 87.075 424.25 88.245C424.685 88.5 425.45 89.1 425.795 89.415C427.13 88.065 428.45 85.905 429.245 83.67L427.415 83.205ZM427.73 84.915L426.86 86.655H437.27V84.915H427.73ZM426.665 88.455V93.285H428.48V90.135H436.925V88.455H426.665ZM424.295 92.4V94.14H438.095V92.4H424.295ZM431.075 85.815V97.35H432.935V85.815H431.075ZM440.945 83.715V88.575H442.685V84.975H449.66V88.575H451.49V83.715H440.945ZM443.165 85.56V86.625H449.18V85.56H443.165ZM443.165 87.195V88.32H449.135V87.195H443.165ZM439.445 88.92V90.36H452.9V88.92H439.445ZM446.285 90.915V92.295H451.22V90.915H446.285ZM441.755 90.945V92.19H445.16V90.945H441.755ZM441.755 92.805V94.05H445.16V92.805H441.755ZM448.16 92.16L446.72 92.565C447.755 94.905 449.54 96.585 452.12 97.335C452.36 96.915 452.825 96.255 453.185 95.94C450.785 95.37 449.015 93.99 448.16 92.16ZM450.815 90.915V91.17C450.14 93.495 448.19 95.205 445.82 95.91C446.15 96.255 446.585 96.9 446.78 97.32C449.495 96.33 451.625 94.425 452.54 91.275L451.43 90.855L451.13 90.915H450.815ZM439.295 95.055L439.46 96.57C441.05 96.42 443.195 96.21 445.235 95.97L445.205 94.59C443.045 94.785 440.795 94.965 439.295 95.055ZM444.245 89.385V97.35H445.955V89.385H444.245ZM440.63 89.415V95.52H442.265V89.415H440.63ZM454.505 84.66V86.175H467.81V84.66H454.505ZM458.3 87.96H464.135V88.77H458.3V87.96ZM456.5 86.745V89.985H466.04V86.745H456.5ZM454.925 90.585V97.35H456.665V92.055H466.955V90.585H454.925ZM465.665 90.585V95.7C465.665 95.895 465.575 95.94 465.365 95.955C465.17 95.955 464.36 95.97 463.76 95.925C463.97 96.285 464.21 96.825 464.3 97.23C465.35 97.245 466.16 97.23 466.715 97.035C467.285 96.825 467.48 96.48 467.48 95.7V90.585H465.665ZM459.95 83.61C460.175 84.27 460.49 85.17 460.61 85.71L462.56 85.17C462.41 84.66 462.065 83.79 461.795 83.16L459.95 83.61ZM458.795 92.595V93.84H462.785V94.71H458.795V95.955H464.375V92.595H458.795ZM457.805 92.595V96.57H459.47V92.595H457.805ZM473.825 90.81V96.15H475.445V92.325H476.285V96.15H477.605V92.325H478.46V96.15H479.795V92.325H480.65V96.15H482.345V90.81H473.825ZM472.595 95.355V96.915H483.275V95.355H472.595ZM469.895 84.66C470.78 85.065 471.92 85.74 472.445 86.25L473.495 84.765C472.925 84.27 471.77 83.67 470.885 83.325L469.895 84.66ZM469.1 88.725C470 89.1 471.125 89.745 471.65 90.225L472.7 88.74C472.115 88.26 470.975 87.675 470.09 87.36L469.1 88.725ZM469.37 96.105L470.975 97.185C471.74 95.715 472.55 93.975 473.21 92.37L471.785 91.29C471.035 93.06 470.06 94.95 469.37 96.105ZM475.97 85.245H480.065V88.695H475.97V85.245ZM474.35 83.91V90.03H481.775V83.91H474.35ZM477.545 85.35C477.395 86.295 476.885 87.255 475.955 87.765C476.18 87.945 476.525 88.335 476.69 88.56C477.8 87.945 478.475 86.73 478.715 85.485L477.545 85.35ZM477.395 86.865C477.98 87.375 478.76 88.095 479.135 88.545L479.96 87.78C479.57 87.36 478.775 86.685 478.19 86.205L477.395 86.865Z" fill="#FAFAFA"/>
<path d="M228.32 201.07H234.35V199.93H232.13V190.075H231.08C230.495 190.435 229.79 190.69 228.8 190.855V191.74H230.765V199.93H228.32V201.07ZM238.83 201.28C240.9 201.28 242.82 199.57 242.82 195.1C242.82 191.605 241.245 189.88 239.13 189.88C237.42 189.88 235.98 191.32 235.98 193.45C235.98 195.73 237.165 196.9 239.01 196.9C239.955 196.9 240.93 196.33 241.62 195.46L241.545 194.365C240.825 195.46 239.97 195.895 239.235 195.895C237.93 195.895 237.27 194.92 237.27 193.45C237.27 191.935 238.08 190.945 239.13 190.945C240.675 190.945 241.53 192.4 241.53 195.1C241.53 198.865 240.255 200.14 238.785 200.14C238.08 200.14 237.405 199.825 236.94 199.285L236.175 200.155C236.79 200.8 237.63 201.28 238.83 201.28ZM247.826 201.28C249.881 201.28 251.276 200.035 251.276 198.43C251.276 196.93 250.376 196.09 249.416 195.535V195.46C250.076 194.95 250.886 193.975 250.886 192.805C250.886 191.125 249.746 189.925 247.871 189.925C246.146 189.925 244.841 191.035 244.841 192.7C244.841 193.855 245.531 194.695 246.341 195.25V195.31C245.336 195.85 244.316 196.87 244.316 198.355C244.316 200.05 245.801 201.28 247.826 201.28ZM248.576 195.115C247.286 194.605 246.101 194.02 246.101 192.7C246.101 191.65 246.836 190.93 247.841 190.93C249.026 190.93 249.716 191.8 249.716 192.88C249.716 193.705 249.326 194.455 248.576 195.115ZM247.856 200.245C246.536 200.245 245.546 199.39 245.546 198.22C245.546 197.17 246.161 196.3 247.061 195.73C248.606 196.36 249.956 196.915 249.956 198.385C249.956 199.48 249.116 200.245 247.856 200.245ZM255.906 201.28C257.871 201.28 259.446 200.095 259.446 198.145C259.446 196.63 258.396 195.655 257.106 195.34V195.28C258.276 194.86 259.056 193.975 259.056 192.64C259.056 190.885 257.706 189.88 255.861 189.88C254.601 189.88 253.626 190.435 252.801 191.185L253.536 192.07C254.151 191.44 254.931 190.99 255.816 190.99C256.956 190.99 257.661 191.68 257.661 192.73C257.661 193.93 256.896 194.83 254.631 194.83V195.895C257.166 195.895 258.051 196.765 258.051 198.085C258.051 199.345 257.121 200.14 255.816 200.14C254.556 200.14 253.731 199.54 253.086 198.865L252.396 199.765C253.116 200.56 254.181 201.28 255.906 201.28ZM264.436 188.425C263.701 190.45 262.456 192.4 261.031 193.645C261.316 193.795 261.781 194.17 262.006 194.365C263.401 193.015 264.736 190.93 265.561 188.71L264.436 188.425ZM264.196 190.285L263.656 191.38H273.871V190.285H264.196ZM263.461 193.69V198.295H264.586V194.74H273.541V193.69H263.461ZM260.986 197.725V198.82H274.576V197.725H260.986ZM267.961 190.855V202.285H269.116V190.855H267.961ZM275.971 197.41H279.811V196.36H275.971V197.41ZM281.141 201.07H288.041V199.9H284.996C284.441 199.9 283.781 199.945 283.196 200.005C285.791 197.56 287.516 195.325 287.516 193.12C287.516 191.155 286.286 189.88 284.321 189.88C282.926 189.88 281.966 190.525 281.066 191.5L281.861 192.265C282.476 191.545 283.256 190.99 284.156 190.99C285.521 190.99 286.166 191.92 286.166 193.18C286.166 195.055 284.591 197.26 281.141 200.275V201.07ZM292.972 201.28C295.042 201.28 296.377 199.375 296.377 195.535C296.377 191.725 295.042 189.88 292.972 189.88C290.872 189.88 289.537 191.725 289.537 195.535C289.537 199.375 290.872 201.28 292.972 201.28ZM292.972 200.17C291.712 200.17 290.857 198.775 290.857 195.535C290.857 192.34 291.712 190.975 292.972 190.975C294.217 190.975 295.057 192.34 295.057 195.535C295.057 198.775 294.217 200.17 292.972 200.17ZM299.192 201.28C299.747 201.28 300.197 200.845 300.197 200.23C300.197 199.6 299.747 199.18 299.192 199.18C298.652 199.18 298.217 199.6 298.217 200.23C298.217 200.845 298.652 201.28 299.192 201.28ZM305.812 201.28C307.507 201.28 308.962 199.84 308.962 197.71C308.962 195.4 307.762 194.26 305.902 194.26C305.017 194.26 303.997 194.8 303.322 195.685L303.367 196.78C304.102 195.685 304.987 195.265 305.692 195.265C307.012 195.265 307.672 196.21 307.672 197.71C307.672 199.195 306.862 200.2 305.812 200.2C304.267 200.2 303.412 198.655 303.412 195.835C303.412 192.235 304.702 191.02 306.247 191.02C306.907 191.02 307.582 191.335 308.002 191.845L308.767 191.005C308.167 190.36 307.327 189.88 306.187 189.88C304.057 189.88 302.122 191.53 302.122 195.835C302.122 199.465 303.697 201.28 305.812 201.28ZM312.992 192.73V193.645H323.657V192.73H312.992ZM313.202 197.095V198.025H321.782V197.095H313.202ZM315.407 191.425V196.135H321.227V191.425H320.132V195.25H316.472V191.425H315.407ZM321.482 197.095V197.26C320.087 199.78 316.307 200.89 312.482 201.235C312.662 201.49 312.857 201.925 312.947 202.18C317.027 201.715 320.942 200.5 322.622 197.44L321.917 197.05L321.707 197.095H321.482ZM315.602 197.86L314.627 198.235C316.352 200.575 319.562 201.82 323.387 202.27C323.522 201.985 323.792 201.535 324.032 201.295C320.297 200.95 317.087 199.84 315.602 197.86ZM312.032 189.97V191.02H323.837V189.97H312.032ZM311.507 189.97V194.05C311.507 196.3 311.387 199.495 310.157 201.76C310.442 201.85 310.952 202.09 311.177 202.27C312.437 199.9 312.617 196.435 312.617 194.05V189.97H311.507ZM316.712 188.665C317.042 189.28 317.387 190.12 317.522 190.645L318.707 190.315C318.572 189.805 318.182 189.01 317.837 188.395L316.712 188.665Z" fill="#404040"/>
<rect x="216" y="158.209" width="119.787" height="24.8614" fill="#96B1BA"/>
<path d="M239.775 177.079H242.01C242.205 172.744 242.535 170.464 245.115 167.314V165.979H237.75V167.824H242.745C240.615 170.764 239.985 173.239 239.775 177.079ZM250.273 177.289C252.523 177.289 254.023 175.324 254.023 171.484C254.023 167.659 252.523 165.784 250.273 165.784C248.008 165.784 246.508 167.659 246.508 171.484C246.508 175.324 248.008 177.289 250.273 177.289ZM250.273 175.564C249.313 175.564 248.593 174.604 248.593 171.484C248.593 168.379 249.313 167.479 250.273 167.479C251.233 167.479 251.938 168.379 251.938 171.484C251.938 174.604 251.233 175.564 250.273 175.564ZM258.415 164.284C257.77 166.234 256.6 168.154 255.25 169.324C255.685 169.579 256.45 170.179 256.795 170.494C258.13 169.144 259.45 166.984 260.245 164.749L258.415 164.284ZM258.73 165.994L257.86 167.734H268.27V165.994H258.73ZM257.665 169.534V174.364H259.48V171.214H267.925V169.534H257.665ZM255.295 173.479V175.219H269.095V173.479H255.295ZM262.075 166.894V178.429H263.935V166.894H262.075ZM271.945 164.794V169.654H273.685V166.054H280.66V169.654H282.49V164.794H271.945ZM274.165 166.639V167.704H280.18V166.639H274.165ZM274.165 168.274V169.399H280.135V168.274H274.165ZM270.445 169.999V171.439H283.9V169.999H270.445ZM277.285 171.994V173.374H282.22V171.994H277.285ZM272.755 172.024V173.269H276.16V172.024H272.755ZM272.755 173.884V175.129H276.16V173.884H272.755ZM279.16 173.239L277.72 173.644C278.755 175.984 280.54 177.664 283.12 178.414C283.36 177.994 283.825 177.334 284.185 177.019C281.785 176.449 280.015 175.069 279.16 173.239ZM281.815 171.994V172.249C281.14 174.574 279.19 176.284 276.82 176.989C277.15 177.334 277.585 177.979 277.78 178.399C280.495 177.409 282.625 175.504 283.54 172.354L282.43 171.934L282.13 171.994H281.815ZM270.295 176.134L270.46 177.649C272.05 177.499 274.195 177.289 276.235 177.049L276.205 175.669C274.045 175.864 271.795 176.044 270.295 176.134ZM275.245 170.464V178.429H276.955V170.464H275.245ZM271.63 170.494V176.599H273.265V170.494H271.63ZM288.265 164.404C287.5 166.549 286.21 168.679 284.845 170.044C285.145 170.479 285.64 171.469 285.805 171.904C287.44 170.194 289 167.494 289.96 164.929L288.265 164.404ZM286.795 168.544V178.414H288.52V166.849L288.505 166.834L286.795 168.544ZM291.565 169.909V171.574H299.02V169.909H291.565ZM297.34 164.269C295.615 164.929 292.795 165.529 290.23 165.889C290.425 166.264 290.665 166.894 290.74 167.299C293.395 166.954 296.44 166.399 298.675 165.619L297.34 164.269ZM294.505 166.204C294.73 173.089 295.57 178.234 297.775 178.249C298.375 178.249 299.05 177.664 299.41 175.279C299.14 175.144 298.48 174.709 298.21 174.364C298.135 175.579 297.985 176.239 297.775 176.239C297.04 176.224 296.245 171.499 296.14 166.204H294.505ZM290.14 177.004C290.515 176.779 291.085 176.569 294.355 175.684C294.31 175.309 294.295 174.634 294.34 174.169L290.695 175.024L289.99 175.549L290.14 177.004ZM290.14 177.004C290.14 176.449 291.91 175.654 291.91 175.654V166.354L290.23 165.889V174.529C290.23 175.144 289.84 175.444 289.51 175.594C289.765 175.924 290.05 176.614 290.14 177.004ZM291.655 176.614V178.069H295.705V176.614H291.655ZM304.825 171.889V177.229H306.445V173.404H307.285V177.229H308.605V173.404H309.46V177.229H310.795V173.404H311.65V177.229H313.345V171.889H304.825ZM303.595 176.434V177.994H314.275V176.434H303.595ZM300.895 165.739C301.78 166.144 302.92 166.819 303.445 167.329L304.495 165.844C303.925 165.349 302.77 164.749 301.885 164.404L300.895 165.739ZM300.1 169.804C301 170.179 302.125 170.824 302.65 171.304L303.7 169.819C303.115 169.339 301.975 168.754 301.09 168.439L300.1 169.804ZM300.37 177.184L301.975 178.264C302.74 176.794 303.55 175.054 304.21 173.449L302.785 172.369C302.035 174.139 301.06 176.029 300.37 177.184ZM306.97 166.324H311.065V169.774H306.97V166.324ZM305.35 164.989V171.109H312.775V164.989H305.35ZM308.545 166.429C308.395 167.374 307.885 168.334 306.955 168.844C307.18 169.024 307.525 169.414 307.69 169.639C308.8 169.024 309.475 167.809 309.715 166.564L308.545 166.429ZM308.395 167.944C308.98 168.454 309.76 169.174 310.135 169.624L310.96 168.859C310.57 168.439 309.775 167.764 309.19 167.284L308.395 167.944Z" fill="#FAFAFA"/>
</svg>
