<svg width="469" height="329" viewBox="0 0 469 329" fill="none" xmlns="http://www.w3.org/2000/svg">
<circle cx="242" cy="267" r="4" fill="#FAFAFA" stroke="#285F92" stroke-width="2"/>
<circle cx="394" cy="119" r="4" fill="#FAFAFA" stroke="#285F92" stroke-width="2"/>
<path d="M341.66 105H348.56V103.83H345.515C344.96 103.83 344.3 103.875 343.715 103.935C346.31 101.49 348.035 99.255 348.035 97.05C348.035 95.085 346.805 93.81 344.84 93.81C343.445 93.81 342.485 94.455 341.585 95.43L342.38 96.195C342.995 95.475 343.775 94.92 344.675 94.92C346.04 94.92 346.685 95.85 346.685 97.11C346.685 98.985 345.11 101.19 341.66 104.205V105ZM353.49 105.21C355.56 105.21 356.895 103.305 356.895 99.465C356.895 95.655 355.56 93.81 353.49 93.81C351.39 93.81 350.055 95.655 350.055 99.465C350.055 103.305 351.39 105.21 353.49 105.21ZM353.49 104.1C352.23 104.1 351.375 102.705 351.375 99.465C351.375 96.27 352.23 94.905 353.49 94.905C354.735 94.905 355.575 96.27 355.575 99.465C355.575 102.705 354.735 104.1 353.49 104.1ZM358.961 105H364.991V103.86H362.771V94.005H361.721C361.136 94.365 360.431 94.62 359.441 94.785V95.67H361.406V103.86H358.961V105ZM370.131 105.21C372.201 105.21 373.536 103.305 373.536 99.465C373.536 95.655 372.201 93.81 370.131 93.81C368.031 93.81 366.696 95.655 366.696 99.465C366.696 103.305 368.031 105.21 370.131 105.21ZM370.131 104.1C368.871 104.1 368.016 102.705 368.016 99.465C368.016 96.27 368.871 94.905 370.131 94.905C371.376 94.905 372.216 96.27 372.216 99.465C372.216 102.705 371.376 104.1 370.131 104.1ZM378.436 92.355C377.701 94.38 376.456 96.33 375.031 97.575C375.316 97.725 375.781 98.1 376.006 98.295C377.401 96.945 378.736 94.86 379.561 92.64L378.436 92.355ZM378.196 94.215L377.656 95.31H387.871V94.215H378.196ZM377.461 97.62V102.225H378.586V98.67H387.541V97.62H377.461ZM374.986 101.655V102.75H388.576V101.655H374.986ZM381.961 94.785V106.215H383.116V94.785H381.961ZM389.971 101.34H393.811V100.29H389.971V101.34ZM395.801 105H401.831V103.86H399.611V94.005H398.561C397.976 94.365 397.271 94.62 396.281 94.785V95.67H398.246V103.86H395.801V105ZM406.717 105.21C408.562 105.21 410.317 103.83 410.317 101.43C410.317 99 408.832 97.92 407.002 97.92C406.342 97.92 405.847 98.085 405.352 98.355L405.637 95.175H409.792V94.005H404.437L404.092 99.15L404.827 99.615C405.457 99.195 405.922 98.955 406.657 98.955C408.022 98.955 408.922 99.9 408.922 101.475C408.922 103.065 407.887 104.07 406.582 104.07C405.322 104.07 404.512 103.485 403.897 102.84L403.207 103.74C403.957 104.49 405.007 105.21 406.717 105.21ZM413.192 105.21C413.747 105.21 414.197 104.775 414.197 104.16C414.197 103.53 413.747 103.11 413.192 103.11C412.652 103.11 412.217 103.53 412.217 104.16C412.217 104.775 412.652 105.21 413.192 105.21ZM418.252 105H419.677C419.857 100.71 420.322 98.145 422.902 94.83V94.005H416.032V95.175H421.357C419.197 98.175 418.447 100.845 418.252 105ZM427.127 105.21C429.197 105.21 431.117 103.5 431.117 99.03C431.117 95.535 429.542 93.81 427.427 93.81C425.717 93.81 424.277 95.25 424.277 97.38C424.277 99.66 425.462 100.83 427.307 100.83C428.252 100.83 429.227 100.26 429.917 99.39L429.842 98.295C429.122 99.39 428.267 99.825 427.532 99.825C426.227 99.825 425.567 98.85 425.567 97.38C425.567 95.865 426.377 94.875 427.427 94.875C428.972 94.875 429.827 96.33 429.827 99.03C429.827 102.795 428.552 104.07 427.082 104.07C426.377 104.07 425.702 103.755 425.237 103.215L424.472 104.085C425.087 104.73 425.927 105.21 427.127 105.21ZM435.313 96.66V97.575H445.978V96.66H435.313ZM435.523 101.025V101.955H444.103V101.025H435.523ZM437.728 95.355V100.065H443.548V95.355H442.453V99.18H438.793V95.355H437.728ZM443.803 101.025V101.19C442.408 103.71 438.628 104.82 434.803 105.165C434.983 105.42 435.178 105.855 435.268 106.11C439.348 105.645 443.263 104.43 444.943 101.37L444.238 100.98L444.028 101.025H443.803ZM437.923 101.79L436.948 102.165C438.673 104.505 441.883 105.75 445.708 106.2C445.843 105.915 446.113 105.465 446.353 105.225C442.618 104.88 439.408 103.77 437.923 101.79ZM434.353 93.9V94.95H446.158V93.9H434.353ZM433.828 93.9V97.98C433.828 100.23 433.708 103.425 432.478 105.69C432.763 105.78 433.273 106.02 433.498 106.2C434.758 103.83 434.938 100.365 434.938 97.98V93.9H433.828ZM439.033 92.595C439.363 93.21 439.708 94.05 439.843 94.575L441.028 94.245C440.893 93.735 440.503 92.94 440.158 92.325L439.033 92.595Z" fill="#404040"/>
<rect x="341" y="66" width="106" height="22" fill="#D5B15A"/>
<path d="M357.775 83H360.01C360.205 78.665 360.535 76.385 363.115 73.235V71.9H355.75V73.745H360.745C358.615 76.685 357.985 79.16 357.775 83ZM368.273 83.21C370.523 83.21 372.023 81.245 372.023 77.405C372.023 73.58 370.523 71.705 368.273 71.705C366.008 71.705 364.508 73.58 364.508 77.405C364.508 81.245 366.008 83.21 368.273 83.21ZM368.273 81.485C367.313 81.485 366.593 80.525 366.593 77.405C366.593 74.3 367.313 73.4 368.273 73.4C369.233 73.4 369.938 74.3 369.938 77.405C369.938 80.525 369.233 81.485 368.273 81.485ZM376.415 70.205C375.77 72.155 374.6 74.075 373.25 75.245C373.685 75.5 374.45 76.1 374.795 76.415C376.13 75.065 377.45 72.905 378.245 70.67L376.415 70.205ZM376.73 71.915L375.86 73.655H386.27V71.915H376.73ZM375.665 75.455V80.285H377.48V77.135H385.925V75.455H375.665ZM373.295 79.4V81.14H387.095V79.4H373.295ZM380.075 72.815V84.35H381.935V72.815H380.075ZM389.945 70.715V75.575H391.685V71.975H398.66V75.575H400.49V70.715H389.945ZM392.165 72.56V73.625H398.18V72.56H392.165ZM392.165 74.195V75.32H398.135V74.195H392.165ZM388.445 75.92V77.36H401.9V75.92H388.445ZM395.285 77.915V79.295H400.22V77.915H395.285ZM390.755 77.945V79.19H394.16V77.945H390.755ZM390.755 79.805V81.05H394.16V79.805H390.755ZM397.16 79.16L395.72 79.565C396.755 81.905 398.54 83.585 401.12 84.335C401.36 83.915 401.825 83.255 402.185 82.94C399.785 82.37 398.015 80.99 397.16 79.16ZM399.815 77.915V78.17C399.14 80.495 397.19 82.205 394.82 82.91C395.15 83.255 395.585 83.9 395.78 84.32C398.495 83.33 400.625 81.425 401.54 78.275L400.43 77.855L400.13 77.915H399.815ZM388.295 82.055L388.46 83.57C390.05 83.42 392.195 83.21 394.235 82.97L394.205 81.59C392.045 81.785 389.795 81.965 388.295 82.055ZM393.245 76.385V84.35H394.955V76.385H393.245ZM389.63 76.415V82.52H391.265V76.415H389.63ZM403.505 71.66V73.175H416.81V71.66H403.505ZM407.3 74.96H413.135V75.77H407.3V74.96ZM405.5 73.745V76.985H415.04V73.745H405.5ZM403.925 77.585V84.35H405.665V79.055H415.955V77.585H403.925ZM414.665 77.585V82.7C414.665 82.895 414.575 82.94 414.365 82.955C414.17 82.955 413.36 82.97 412.76 82.925C412.97 83.285 413.21 83.825 413.3 84.23C414.35 84.245 415.16 84.23 415.715 84.035C416.285 83.825 416.48 83.48 416.48 82.7V77.585H414.665ZM408.95 70.61C409.175 71.27 409.49 72.17 409.61 72.71L411.56 72.17C411.41 71.66 411.065 70.79 410.795 70.16L408.95 70.61ZM407.795 79.595V80.84H411.785V81.71H407.795V82.955H413.375V79.595H407.795ZM406.805 79.595V83.57H408.47V79.595H406.805ZM422.825 77.81V83.15H424.445V79.325H425.285V83.15H426.605V79.325H427.46V83.15H428.795V79.325H429.65V83.15H431.345V77.81H422.825ZM421.595 82.355V83.915H432.275V82.355H421.595ZM418.895 71.66C419.78 72.065 420.92 72.74 421.445 73.25L422.495 71.765C421.925 71.27 420.77 70.67 419.885 70.325L418.895 71.66ZM418.1 75.725C419 76.1 420.125 76.745 420.65 77.225L421.7 75.74C421.115 75.26 419.975 74.675 419.09 74.36L418.1 75.725ZM418.37 83.105L419.975 84.185C420.74 82.715 421.55 80.975 422.21 79.37L420.785 78.29C420.035 80.06 419.06 81.95 418.37 83.105ZM424.97 72.245H429.065V75.695H424.97V72.245ZM423.35 70.91V77.03H430.775V70.91H423.35ZM426.545 72.35C426.395 73.295 425.885 74.255 424.955 74.765C425.18 74.945 425.525 75.335 425.69 75.56C426.8 74.945 427.475 73.73 427.715 72.485L426.545 72.35ZM426.395 73.865C426.98 74.375 427.76 75.095 428.135 75.545L428.96 74.78C428.57 74.36 427.775 73.685 427.19 73.205L426.395 73.865Z" fill="#FAFAFA"/>
<path d="M194.32 180H200.35V178.86H198.13V169.005H197.08C196.495 169.365 195.79 169.62 194.8 169.785V170.67H196.765V178.86H194.32V180ZM204.83 180.21C206.9 180.21 208.82 178.5 208.82 174.03C208.82 170.535 207.245 168.81 205.13 168.81C203.42 168.81 201.98 170.25 201.98 172.38C201.98 174.66 203.165 175.83 205.01 175.83C205.955 175.83 206.93 175.26 207.62 174.39L207.545 173.295C206.825 174.39 205.97 174.825 205.235 174.825C203.93 174.825 203.27 173.85 203.27 172.38C203.27 170.865 204.08 169.875 205.13 169.875C206.675 169.875 207.53 171.33 207.53 174.03C207.53 177.795 206.255 179.07 204.785 179.07C204.08 179.07 203.405 178.755 202.94 178.215L202.175 179.085C202.79 179.73 203.63 180.21 204.83 180.21ZM213.826 180.21C215.881 180.21 217.276 178.965 217.276 177.36C217.276 175.86 216.376 175.02 215.416 174.465V174.39C216.076 173.88 216.886 172.905 216.886 171.735C216.886 170.055 215.746 168.855 213.871 168.855C212.146 168.855 210.841 169.965 210.841 171.63C210.841 172.785 211.531 173.625 212.341 174.18V174.24C211.336 174.78 210.316 175.8 210.316 177.285C210.316 178.98 211.801 180.21 213.826 180.21ZM214.576 174.045C213.286 173.535 212.101 172.95 212.101 171.63C212.101 170.58 212.836 169.86 213.841 169.86C215.026 169.86 215.716 170.73 215.716 171.81C215.716 172.635 215.326 173.385 214.576 174.045ZM213.856 179.175C212.536 179.175 211.546 178.32 211.546 177.15C211.546 176.1 212.161 175.23 213.061 174.66C214.606 175.29 215.956 175.845 215.956 177.315C215.956 178.41 215.116 179.175 213.856 179.175ZM221.906 180.21C223.871 180.21 225.446 179.025 225.446 177.075C225.446 175.56 224.396 174.585 223.106 174.27V174.21C224.276 173.79 225.056 172.905 225.056 171.57C225.056 169.815 223.706 168.81 221.861 168.81C220.601 168.81 219.626 169.365 218.801 170.115L219.536 171C220.151 170.37 220.931 169.92 221.816 169.92C222.956 169.92 223.661 170.61 223.661 171.66C223.661 172.86 222.896 173.76 220.631 173.76V174.825C223.166 174.825 224.051 175.695 224.051 177.015C224.051 178.275 223.121 179.07 221.816 179.07C220.556 179.07 219.731 178.47 219.086 177.795L218.396 178.695C219.116 179.49 220.181 180.21 221.906 180.21ZM230.436 167.355C229.701 169.38 228.456 171.33 227.031 172.575C227.316 172.725 227.781 173.1 228.006 173.295C229.401 171.945 230.736 169.86 231.561 167.64L230.436 167.355ZM230.196 169.215L229.656 170.31H239.871V169.215H230.196ZM229.461 172.62V177.225H230.586V173.67H239.541V172.62H229.461ZM226.986 176.655V177.75H240.576V176.655H226.986ZM233.961 169.785V181.215H235.116V169.785H233.961ZM241.971 176.34H245.811V175.29H241.971V176.34ZM247.141 180H254.041V178.83H250.996C250.441 178.83 249.781 178.875 249.196 178.935C251.791 176.49 253.516 174.255 253.516 172.05C253.516 170.085 252.286 168.81 250.321 168.81C248.926 168.81 247.966 169.455 247.066 170.43L247.861 171.195C248.476 170.475 249.256 169.92 250.156 169.92C251.521 169.92 252.166 170.85 252.166 172.11C252.166 173.985 250.591 176.19 247.141 179.205V180ZM258.972 180.21C261.042 180.21 262.377 178.305 262.377 174.465C262.377 170.655 261.042 168.81 258.972 168.81C256.872 168.81 255.537 170.655 255.537 174.465C255.537 178.305 256.872 180.21 258.972 180.21ZM258.972 179.1C257.712 179.1 256.857 177.705 256.857 174.465C256.857 171.27 257.712 169.905 258.972 169.905C260.217 169.905 261.057 171.27 261.057 174.465C261.057 177.705 260.217 179.1 258.972 179.1ZM265.192 180.21C265.747 180.21 266.197 179.775 266.197 179.16C266.197 178.53 265.747 178.11 265.192 178.11C264.652 178.11 264.217 178.53 264.217 179.16C264.217 179.775 264.652 180.21 265.192 180.21ZM271.812 180.21C273.507 180.21 274.962 178.77 274.962 176.64C274.962 174.33 273.762 173.19 271.902 173.19C271.017 173.19 269.997 173.73 269.322 174.615L269.367 175.71C270.102 174.615 270.987 174.195 271.692 174.195C273.012 174.195 273.672 175.14 273.672 176.64C273.672 178.125 272.862 179.13 271.812 179.13C270.267 179.13 269.412 177.585 269.412 174.765C269.412 171.165 270.702 169.95 272.247 169.95C272.907 169.95 273.582 170.265 274.002 170.775L274.767 169.935C274.167 169.29 273.327 168.81 272.187 168.81C270.057 168.81 268.122 170.46 268.122 174.765C268.122 178.395 269.697 180.21 271.812 180.21ZM278.992 171.66V172.575H289.657V171.66H278.992ZM279.202 176.025V176.955H287.782V176.025H279.202ZM281.407 170.355V175.065H287.227V170.355H286.132V174.18H282.472V170.355H281.407ZM287.482 176.025V176.19C286.087 178.71 282.307 179.82 278.482 180.165C278.662 180.42 278.857 180.855 278.947 181.11C283.027 180.645 286.942 179.43 288.622 176.37L287.917 175.98L287.707 176.025H287.482ZM281.602 176.79L280.627 177.165C282.352 179.505 285.562 180.75 289.387 181.2C289.522 180.915 289.792 180.465 290.032 180.225C286.297 179.88 283.087 178.77 281.602 176.79ZM278.032 168.9V169.95H289.837V168.9H278.032ZM277.507 168.9V172.98C277.507 175.23 277.387 178.425 276.157 180.69C276.442 180.78 276.952 181.02 277.177 181.2C278.437 178.83 278.617 175.365 278.617 172.98V168.9H277.507ZM282.712 167.595C283.042 168.21 283.387 169.05 283.522 169.575L284.707 169.245C284.572 168.735 284.182 167.94 283.837 167.325L282.712 167.595Z" fill="#404040"/>
<rect x="189" y="140" width="106" height="22" fill="#96B1BA"/>
<path d="M205.775 157H208.01C208.205 152.665 208.535 150.385 211.115 147.235V145.9H203.75V147.745H208.745C206.615 150.685 205.985 153.16 205.775 157ZM216.273 157.21C218.523 157.21 220.023 155.245 220.023 151.405C220.023 147.58 218.523 145.705 216.273 145.705C214.008 145.705 212.508 147.58 212.508 151.405C212.508 155.245 214.008 157.21 216.273 157.21ZM216.273 155.485C215.313 155.485 214.593 154.525 214.593 151.405C214.593 148.3 215.313 147.4 216.273 147.4C217.233 147.4 217.938 148.3 217.938 151.405C217.938 154.525 217.233 155.485 216.273 155.485ZM224.415 144.205C223.77 146.155 222.6 148.075 221.25 149.245C221.685 149.5 222.45 150.1 222.795 150.415C224.13 149.065 225.45 146.905 226.245 144.67L224.415 144.205ZM224.73 145.915L223.86 147.655H234.27V145.915H224.73ZM223.665 149.455V154.285H225.48V151.135H233.925V149.455H223.665ZM221.295 153.4V155.14H235.095V153.4H221.295ZM228.075 146.815V158.35H229.935V146.815H228.075ZM237.945 144.715V149.575H239.685V145.975H246.66V149.575H248.49V144.715H237.945ZM240.165 146.56V147.625H246.18V146.56H240.165ZM240.165 148.195V149.32H246.135V148.195H240.165ZM236.445 149.92V151.36H249.9V149.92H236.445ZM243.285 151.915V153.295H248.22V151.915H243.285ZM238.755 151.945V153.19H242.16V151.945H238.755ZM238.755 153.805V155.05H242.16V153.805H238.755ZM245.16 153.16L243.72 153.565C244.755 155.905 246.54 157.585 249.12 158.335C249.36 157.915 249.825 157.255 250.185 156.94C247.785 156.37 246.015 154.99 245.16 153.16ZM247.815 151.915V152.17C247.14 154.495 245.19 156.205 242.82 156.91C243.15 157.255 243.585 157.9 243.78 158.32C246.495 157.33 248.625 155.425 249.54 152.275L248.43 151.855L248.13 151.915H247.815ZM236.295 156.055L236.46 157.57C238.05 157.42 240.195 157.21 242.235 156.97L242.205 155.59C240.045 155.785 237.795 155.965 236.295 156.055ZM241.245 150.385V158.35H242.955V150.385H241.245ZM237.63 150.415V156.52H239.265V150.415H237.63ZM254.265 144.325C253.5 146.47 252.21 148.6 250.845 149.965C251.145 150.4 251.64 151.39 251.805 151.825C253.44 150.115 255 147.415 255.96 144.85L254.265 144.325ZM252.795 148.465V158.335H254.52V146.77L254.505 146.755L252.795 148.465ZM257.565 149.83V151.495H265.02V149.83H257.565ZM263.34 144.19C261.615 144.85 258.795 145.45 256.23 145.81C256.425 146.185 256.665 146.815 256.74 147.22C259.395 146.875 262.44 146.32 264.675 145.54L263.34 144.19ZM260.505 146.125C260.73 153.01 261.57 158.155 263.775 158.17C264.375 158.17 265.05 157.585 265.41 155.2C265.14 155.065 264.48 154.63 264.21 154.285C264.135 155.5 263.985 156.16 263.775 156.16C263.04 156.145 262.245 151.42 262.14 146.125H260.505ZM256.14 156.925C256.515 156.7 257.085 156.49 260.355 155.605C260.31 155.23 260.295 154.555 260.34 154.09L256.695 154.945L255.99 155.47L256.14 156.925ZM256.14 156.925C256.14 156.37 257.91 155.575 257.91 155.575V146.275L256.23 145.81V154.45C256.23 155.065 255.84 155.365 255.51 155.515C255.765 155.845 256.05 156.535 256.14 156.925ZM257.655 156.535V157.99H261.705V156.535H257.655ZM270.825 151.81V157.15H272.445V153.325H273.285V157.15H274.605V153.325H275.46V157.15H276.795V153.325H277.65V157.15H279.345V151.81H270.825ZM269.595 156.355V157.915H280.275V156.355H269.595ZM266.895 145.66C267.78 146.065 268.92 146.74 269.445 147.25L270.495 145.765C269.925 145.27 268.77 144.67 267.885 144.325L266.895 145.66ZM266.1 149.725C267 150.1 268.125 150.745 268.65 151.225L269.7 149.74C269.115 149.26 267.975 148.675 267.09 148.36L266.1 149.725ZM266.37 157.105L267.975 158.185C268.74 156.715 269.55 154.975 270.21 153.37L268.785 152.29C268.035 154.06 267.06 155.95 266.37 157.105ZM272.97 146.245H277.065V149.695H272.97V146.245ZM271.35 144.91V151.03H278.775V144.91H271.35ZM274.545 146.35C274.395 147.295 273.885 148.255 272.955 148.765C273.18 148.945 273.525 149.335 273.69 149.56C274.8 148.945 275.475 147.73 275.715 146.485L274.545 146.35ZM274.395 147.865C274.98 148.375 275.76 149.095 276.135 149.545L276.96 148.78C276.57 148.36 275.775 147.685 275.19 147.205L274.395 147.865Z" fill="#FAFAFA"/>
</svg>
