<svg width="105" height="31" viewBox="0 0 105 31" fill="none" xmlns="http://www.w3.org/2000/svg">
<path d="M7.20651 14.9939C7.20748 13.7811 7.53612 12.5912 8.15768 11.5498C8.77923 10.5085 9.67061 9.65438 10.7376 9.07789C11.8045 8.50139 13.0075 8.22389 14.2191 8.27473C15.4308 8.32557 16.6063 8.70287 17.6212 9.36672L17.8816 8.88177C17.8816 8.88177 7.91926 0 7.916 0C5.41323 3.58005 -3.47506 12.4553 1.47517 18.8766C1.89505 19.3914 2.41698 19.8136 3.00808 20.1166C4.28051 20.689 5.69526 20.867 7.06981 20.6276C7.83051 20.4615 8.56591 20.1956 9.25689 19.8367C8.60796 19.2088 8.09201 18.4568 7.73976 17.6254C7.3875 16.7939 7.20616 15.9001 7.20651 14.9972" fill="#EB6120"/>
<path d="M31.7718 16.8588L29.4936 14.7596L31.0851 11.505L28.7841 9.40253L27.1926 12.6571L24.9144 10.5579L23.3196 13.8125L25.6141 15.915L24.0226 19.1533L21.7249 17.0476L23.3164 13.793L18.786 9.66615L16.7063 13.5066C13.9985 18.5512 10.0702 21.1809 6.68866 21.604C5.63631 21.7466 4.56555 21.6593 3.55022 21.348C2.5349 21.0367 1.59918 20.5089 0.807617 19.8009C1.81781 22.7517 3.65469 25.35 6.09958 27.2865C13.5233 32.969 24.0454 31.6444 28.1559 23.9863L31.7718 16.8588Z" fill="#00479D"/>
<path d="M35.668 9.63354L33.9951 13.0378L31.5835 10.828L33.2564 7.42368L35.668 9.63354Z" fill="#00479D"/>
<path d="M24.6413 5.44164L22.8903 9.00867L20.3647 6.6914L22.1157 3.12762L24.6413 5.44164Z" fill="#00479D"/>
<path d="M28.918 4.1919L27.167 7.75568L24.6382 5.44166L26.3892 1.87463L28.918 4.1919Z" fill="#00479D"/>
<path d="M69.916 16.5365C69.1512 16.5365 65.1448 13.2624 65.1318 13.2461C65.0258 13.147 64.8864 13.0912 64.7412 13.0899H62.7885C62.6431 13.0902 62.5034 13.1461 62.3979 13.2461C62.3817 13.2461 58.3753 16.5365 57.6137 16.5365H56.3477L56.4974 17.8839H58.001C58.2342 17.9161 58.4711 17.8629 58.6682 17.7342L59.4981 17.0572H68.0251L68.855 17.7342C69.0521 17.8629 69.2891 17.9161 69.5222 17.8839H71.0226L71.1723 16.5365H69.916ZM60.9334 15.9084L63.0261 14.2355H64.5167C64.5167 14.2355 65.4931 15.0101 66.6061 15.9084H60.9334Z" fill="#00479D"/>
<path d="M58.6128 18.255V20.058C58.6194 20.5819 58.8213 21.0845 59.1791 21.4673C59.4215 21.7011 59.7098 21.882 60.0258 21.9985C60.3418 22.1151 60.6785 22.1647 61.0147 22.1442H66.528C66.8646 22.1649 67.2019 22.1155 67.5185 21.9989C67.835 21.8824 68.1239 21.7014 68.3668 21.4673C68.7251 21.0849 68.9272 20.5821 68.9331 20.058V18.255H58.6128ZM67.2993 20.6048C67.1604 20.7231 66.9994 20.8128 66.8257 20.8687C66.652 20.9245 66.469 20.9455 66.2871 20.9303H61.2588C61.0764 20.9455 60.8929 20.9247 60.7186 20.8688C60.5443 20.813 60.3828 20.7232 60.2433 20.6048C60.09 20.4367 60.0002 20.2202 59.9895 19.9929V19.342H67.5531V19.9929C67.5447 20.2207 67.4546 20.4379 67.2993 20.6048" fill="#00479D"/>
<path d="M44.8783 13.0704H40.3219V19.4885C40.3219 19.4885 40.2861 20.2859 41.0021 20.2859H43.8954C43.8579 20.5358 43.7362 20.7654 43.5505 20.9368C43.4091 21.0621 43.2442 21.158 43.0654 21.2189C42.8866 21.2799 42.6975 21.3045 42.509 21.2915H40.1787L40.4651 22.3493H42.509C42.8285 22.367 43.1481 22.3184 43.4478 22.2063C43.7475 22.0943 44.0207 21.9213 44.2502 21.6984C44.6543 21.2641 44.8798 20.6935 44.8816 20.1004L44.8783 13.0704ZM43.8076 15.1794H41.3894V14.0566H43.8076V15.1794ZM43.8076 17.2266H41.3894V16.1623H43.8076V17.2266ZM41.3894 18.2029H43.8076V19.2965H41.3894V18.2029Z" fill="#00479D"/>
<path d="M48.6372 21.7212L49.5257 22.3135L50.8275 20.1752L49.9423 19.5829L48.6372 21.7212Z" fill="#00479D"/>
<path d="M48.1134 19.5829L46.8115 21.7212L47.7 22.3135L49.0019 20.1752L48.1134 19.5829Z" fill="#00479D"/>
<path d="M46.2843 19.5829L44.9824 21.7212L45.8709 22.3135L47.176 20.1752L46.2843 19.5829Z" fill="#00479D"/>
<path d="M45.1877 19.0459C45.2304 19.1205 45.292 19.1826 45.3662 19.226C45.4405 19.2694 45.5248 19.2926 45.6108 19.2932H52.6082C52.6944 19.2936 52.7791 19.2709 52.8535 19.2274C52.928 19.1839 52.9893 19.1212 53.0313 19.0459C53.0744 18.97 53.097 18.8842 53.097 18.7969C53.097 18.7096 53.0744 18.6238 53.0313 18.5479L51.7522 16.3511H52.6147C52.7009 16.3515 52.7856 16.3287 52.8601 16.2852C52.9345 16.2417 52.9959 16.179 53.0378 16.1037C53.0809 16.029 53.1036 15.9443 53.1036 15.858C53.1036 15.7717 53.0809 15.687 53.0378 15.6123L51.5439 13.0509H50.3397L49.1193 15.1436L47.9021 13.0509H46.6946L45.1942 15.622C45.15 15.696 45.1261 15.7803 45.125 15.8664C45.1239 15.9525 45.1456 16.0374 45.188 16.1124C45.2303 16.1875 45.2917 16.25 45.3659 16.2936C45.4402 16.3372 45.5247 16.3604 45.6108 16.3608H46.4733L45.1942 18.5512C45.1512 18.6271 45.1285 18.7129 45.1285 18.8001C45.1285 18.8874 45.1512 18.9732 45.1942 19.0491M51.8466 18.4503H50.011L50.9353 16.9011L51.8466 18.4503ZM50.9353 13.9557L51.8466 15.5081H50.011L50.9353 13.9557ZM50.1249 16.3511L49.116 18.0825L48.1071 16.3511H50.1249ZM46.3724 15.5049L47.2934 13.9524L48.208 15.5049H46.3724ZM47.2934 16.8978L48.208 18.447H46.3724L47.2934 16.8978Z" fill="#00479D"/>
<path d="M51.7225 19.5927L50.834 20.1785C51.1594 20.8294 51.8429 21.8644 52.5524 22.2452L53.48 21.3957C52.7439 20.9593 52.1373 20.3347 51.7225 19.5862" fill="#00479D"/>
<path d="M102.566 20.5592C101.645 19.7326 101.329 19.4136 101.245 19.329H103.259C103.497 19.329 103.666 19.1956 103.734 18.8864C103.803 18.5772 103.774 18.3754 103.555 18.281L100.662 16.9141H103.045C103.266 16.9141 103.448 16.81 103.507 16.478C103.582 16.0582 103.507 15.9768 103.276 15.8466L100.698 14.3788H104.477V13.4024H92.5712V14.3788H96.4768L93.9447 15.8791C93.7462 15.9735 93.6518 16.1786 93.7136 16.5463C93.7754 16.9141 94.0618 16.9239 94.2767 16.9239H96.2066L93.4825 18.2908C93.2645 18.3852 93.2352 18.7334 93.2873 18.958C93.3393 19.1826 93.4435 19.329 93.6811 19.329H95.8421C95.7152 19.4527 95.3897 19.7749 94.4882 20.5658C94.0293 20.9758 93.2775 21.0279 92.3564 20.9531L92.5387 22.1865C93.7494 22.2809 94.5175 22.014 95.1847 21.4152C95.7252 20.9562 96.23 20.4568 96.6948 19.9214L95.9625 19.329H97.9478C97.9478 19.9799 97.9478 20.9075 97.9478 20.9303C97.9554 20.9815 97.9515 21.0339 97.9363 21.0834C97.9211 21.133 97.895 21.1785 97.86 21.2167C97.6842 21.4054 96.9812 21.3794 96.3726 21.3794L96.6981 22.4697C97.7233 22.4697 98.4002 22.4274 98.8591 21.988C98.9939 21.8312 99.0947 21.6481 99.1552 21.4504C99.2157 21.2526 99.2345 21.0445 99.2106 20.8392C99.2106 20.7871 99.2106 19.9474 99.2106 19.3453H101.131L100.418 19.9637C100.85 20.4976 101.334 20.9871 101.863 21.425C102.53 22.0238 103.302 22.2907 104.509 22.1963L104.691 20.9628C103.77 21.0377 103.015 20.9921 102.56 20.5755M95.7835 16.0191C95.7835 16.0191 97.8567 14.6261 98.2017 14.4146C98.3095 14.3559 98.4304 14.3252 98.5532 14.3252C98.676 14.3252 98.7968 14.3559 98.9047 14.4146L101.603 16.0191H95.7835ZM95.4743 18.4307L98.2049 16.9499C98.3183 16.8848 98.4468 16.8506 98.5776 16.8506C98.7084 16.8506 98.8368 16.8848 98.9502 16.9499L101.505 18.4307H95.4743Z" fill="#00479D"/>
<path d="M87.4385 20.8294C86.2636 20.8294 86.0163 20.351 85.9609 20.2728C85.8698 20.1036 85.1115 18.5186 84.6884 17.6366H87.9788V16.5984H86.2506C86.5647 16.302 86.8136 15.9435 86.9817 15.5457C87.1498 15.1479 87.2333 14.7195 87.227 14.2877V13.3992H82.5729V15.5016H79.3183V14.6457H82.088V13.6693H79.3183V12.8882H78.1825V13.6693H75.39V14.6457H78.1825V15.5179H74.0557V16.4943H76.0507C76.1354 16.8383 76.3005 17.1573 76.5324 17.4251H75.377V18.4015H78.2378V19.2021H75.377V20.1785H78.1955C78.1512 20.39 78.0524 20.5863 77.9091 20.748C77.7552 20.8941 77.5721 21.006 77.3718 21.0761C77.1715 21.1462 76.9586 21.1731 76.7472 21.1548H74.9669L75.1915 22.307H76.8937C77.2425 22.3286 77.5918 22.275 77.9181 22.1498C78.2443 22.0246 78.5398 21.8306 78.7846 21.5812C79.1201 21.1872 79.3188 20.695 79.3509 20.1785H82.075V19.2021H79.3574V18.3559H82.075V17.3795H80.9261C81.1568 17.1109 81.3217 16.7922 81.4078 16.4487H82.5729V22.3688H83.7088V18.2257L85.0952 21.0767L85.1115 21.0995C85.6615 22.0759 86.8625 22.1801 87.3246 22.1801H88.3628L88.5483 20.8424L87.4385 20.8294ZM78.7293 17.5227C78.3804 17.5378 78.0356 17.4428 77.7436 17.2512C77.4516 17.0597 77.2271 16.7812 77.102 16.4552H80.3273C80.2038 16.7791 79.9821 17.0562 79.6931 17.2476C79.4042 17.4391 79.0626 17.5353 78.7162 17.5227M85.9805 14.4113C85.9382 15.2543 85.5248 16.4389 83.8129 16.5919H83.6958V14.4113H85.9805Z" fill="#00479D"/>
<path d="M40.0166 25.7112H40.8172V28.0122C40.8172 28.6924 41.032 29.1351 41.6439 29.1351C42.2558 29.1351 42.4706 28.6924 42.4706 28.0122V25.7112H43.2712V28.2563C43.2712 29.3238 42.6658 29.7632 41.6439 29.7632C40.622 29.7632 40.0166 29.3238 40.0166 28.2563V25.7112Z" fill="#00479D"/>
<path d="M43.9414 26.769H44.6672V27.1693C44.7757 27.0136 44.9226 26.8886 45.0937 26.8065C45.2648 26.7244 45.4542 26.6879 45.6436 26.7007C46.3433 26.7007 46.6427 27.1921 46.6427 27.8528V29.7079H45.8942V28.1359C45.8942 27.7812 45.8942 27.293 45.3962 27.293C44.8429 27.293 44.7225 27.8918 44.7225 28.2694V29.7079H43.9414V26.769Z" fill="#00479D"/>
<path d="M47.3716 26.7691H48.1397V29.6982H47.3716V26.7691ZM47.3716 25.5031H48.1397V26.2321H47.3716V25.5031Z" fill="#00479D"/>
<path d="M49.106 27.3386H48.543V26.7788H49.106V26.1897L49.8708 25.9456V26.7788H50.551V27.3386H49.8708V28.7055C49.8708 28.9594 49.9392 29.1937 50.2321 29.1937C50.3529 29.1979 50.4729 29.171 50.5803 29.1156L50.6031 29.7177C50.4185 29.767 50.2279 29.7901 50.0368 29.786C49.91 29.7963 49.7825 29.7785 49.6633 29.7339C49.5442 29.6892 49.4363 29.6189 49.3474 29.5279C49.2586 29.4368 49.1909 29.3273 49.1491 29.2071C49.1074 29.0869 49.0927 28.959 49.106 28.8325V27.3386Z" fill="#00479D"/>
<path d="M51.6026 27.9504C51.597 27.8595 51.6106 27.7684 51.6425 27.683C51.6744 27.5977 51.7238 27.5199 51.7876 27.4549C51.8515 27.3899 51.9282 27.339 52.0129 27.3055C52.0977 27.272 52.1885 27.2566 52.2795 27.2604C52.7091 27.2604 52.8816 27.5859 52.9044 27.9504H51.6026ZM53.4186 28.9268C53.1244 29.1086 52.7879 29.2107 52.4422 29.2229C52.338 29.2333 52.2328 29.222 52.1331 29.1898C52.0334 29.1576 51.9415 29.1052 51.863 29.0359C51.7845 28.9665 51.7211 28.8818 51.6769 28.7868C51.6326 28.6919 51.6084 28.5889 51.6058 28.4842H53.6367C53.6367 27.4525 53.3308 26.7072 52.2372 26.7072C51.3259 26.7072 50.8735 27.4101 50.8735 28.2563C50.8735 29.2327 51.4398 29.7827 52.4097 29.7827C52.7616 29.7928 53.1102 29.7121 53.4219 29.5484L53.4186 28.9268Z" fill="#00479D"/>
<path d="M54.7565 28.2303C54.7565 27.8365 54.8965 27.293 55.3912 27.293C55.8859 27.293 56.0779 27.817 56.0779 28.2303C56.0779 28.6436 55.9119 29.1839 55.4009 29.1839C54.89 29.1839 54.75 28.6339 54.75 28.2303M56.0974 29.7079H56.8395V25.4281H56.0811V27.1107C55.9789 26.9762 55.8455 26.8686 55.6924 26.7972C55.5393 26.7257 55.3711 26.6926 55.2024 26.7006C54.3009 26.7006 53.9722 27.4199 53.9722 28.2303C53.9722 29.0407 54.2976 29.7762 55.2024 29.7762C55.3741 29.7858 55.5457 29.7546 55.703 29.685C55.8603 29.6154 55.9988 29.5095 56.1072 29.3759V29.3759L56.0974 29.7079Z" fill="#00479D"/>
<path d="M59.8008 26.3621H60.2467C60.6083 26.3621 60.9552 26.5058 61.2109 26.7616C61.4667 27.0173 61.6103 27.3641 61.6103 27.7258C61.6103 28.0875 61.4667 28.4343 61.2109 28.6901C60.9552 28.9458 60.6083 29.0895 60.2467 29.0895H59.8008V26.3621ZM59.0034 29.7176H60.0937C61.3142 29.7176 62.3914 29.3075 62.3914 27.7258C62.3914 26.1441 61.3142 25.734 60.0937 25.734H59.0034V29.7176Z" fill="#00479D"/>
<path d="M63.3968 28.8584C63.3968 28.406 63.9045 28.3474 64.2463 28.3474H64.5717C64.5864 28.5613 64.5304 28.774 64.4122 28.9528C64.3503 29.0365 64.2693 29.1041 64.1758 29.15C64.0824 29.1958 63.9793 29.2186 63.8752 29.2164C63.6018 29.2164 63.3903 29.1058 63.3903 28.8584M63.003 27.5794C63.2632 27.3768 63.5814 27.2628 63.911 27.2539C64.3602 27.2539 64.5619 27.4134 64.5619 27.8853H64.1389C63.8049 27.8732 63.4721 27.932 63.1625 28.0578C63.0043 28.1304 62.8718 28.2491 62.7823 28.3984C62.6929 28.5477 62.6507 28.7205 62.6613 28.8942C62.669 29.0198 62.7019 29.1425 62.7581 29.2551C62.8142 29.3677 62.8925 29.4678 62.9881 29.5495C63.0838 29.6312 63.1949 29.6928 63.3149 29.7306C63.4349 29.7684 63.5612 29.7817 63.6865 29.7697C63.8689 29.7714 64.0487 29.7255 64.2079 29.6365C64.3672 29.5474 64.5004 29.4183 64.5945 29.262V29.262C64.5945 29.409 64.6054 29.5559 64.627 29.7014H65.3007C65.2812 29.4735 65.2714 29.2652 65.2649 29.0504C65.2584 28.8356 65.2649 28.6111 65.2649 28.3149V27.9406C65.2649 27.0716 64.8939 26.7006 63.9989 26.7006C63.6469 26.7053 63.2994 26.7806 62.977 26.9219L63.003 27.5794Z" fill="#00479D"/>
<path d="M65.9585 26.7691H66.7233V29.6982H65.9585V26.7691ZM65.9585 25.5031H66.7233V26.2321H65.9585V25.5031Z" fill="#00479D"/>
<path d="M68.2267 25.4281H67.4619V29.7079H68.2267V25.4281Z" fill="#00479D"/>
<path d="M70.166 28.9171L70.8723 26.769H71.6501L70.5501 29.6982C70.3027 30.3491 70.127 31 69.3264 31C69.1433 30.999 68.9613 30.9716 68.7861 30.9186L68.8349 30.3556C68.9622 30.3955 69.0956 30.4121 69.2287 30.4044C69.297 30.408 69.3653 30.3968 69.4289 30.3716C69.4925 30.3464 69.5499 30.3078 69.5972 30.2583C69.6445 30.2089 69.6805 30.1498 69.7029 30.0852C69.7252 30.0205 69.7333 29.9518 69.7267 29.8837L68.6006 26.7951H69.4468L70.166 28.9171Z" fill="#00479D"/>
<path d="M73.1055 25.7243H74.0884L75.605 28.7055H75.6148V25.7243H76.3796V29.7079H75.4032L73.8833 26.73H73.8703V29.7079H73.1055V25.7243Z" fill="#00479D"/>
<path d="M77.5933 27.9504C77.5877 27.8592 77.6014 27.7678 77.6335 27.6822C77.6655 27.5966 77.7153 27.5187 77.7795 27.4537C77.8436 27.3886 77.9208 27.3377 78.0059 27.3044C78.091 27.2711 78.1822 27.2562 78.2735 27.2604C78.6998 27.2604 78.8723 27.5859 78.8951 27.9504H77.5933ZM79.4093 28.9268C79.1151 29.1086 78.7786 29.2107 78.433 29.2229C78.3287 29.2328 78.2235 29.2212 78.1238 29.1888C78.0242 29.1565 77.9322 29.1041 77.8536 29.0349C77.7749 28.9657 77.7113 28.8812 77.6665 28.7864C77.6217 28.6917 77.5968 28.5889 77.5933 28.4842H79.6242C79.6242 27.4525 79.3182 26.7072 78.2279 26.7072C77.3166 26.7072 76.8643 27.4101 76.8643 28.2563C76.8643 29.2327 77.4306 29.7827 78.4004 29.7827C78.7513 29.7933 79.099 29.7125 79.4093 29.5484V28.9268Z" fill="#00479D"/>
<path d="M79.7515 26.769H80.5619L81.2128 28.9431H81.2258L81.8181 26.769H82.7099L83.3478 28.9431H83.3608L83.9694 26.769H84.7017L83.8002 29.7079H82.8987L82.2575 27.4655H82.2477L81.6196 29.7079H80.7441L79.7515 26.769Z" fill="#00479D"/>
<path d="M86.817 27.3874C86.5982 27.302 86.3652 27.2589 86.1303 27.2604C85.9253 27.2604 85.6812 27.332 85.6812 27.5859C85.6812 28.0513 87.0123 27.7551 87.0123 28.8194C87.0123 29.5028 86.4004 29.7762 85.7788 29.7762C85.4859 29.7716 85.1949 29.729 84.9131 29.6493L84.9586 29.0211C85.1898 29.146 85.4478 29.213 85.7105 29.2164C85.9025 29.2164 86.2117 29.1448 86.2117 28.8584C86.2117 28.2791 84.8838 28.6729 84.8838 27.6119C84.8838 26.9805 85.4371 26.7006 86.0359 26.7006C86.3158 26.7043 86.5943 26.7403 86.8658 26.808L86.817 27.3874Z" fill="#00479D"/>
<path d="M91.8552 26.4956C91.5303 26.356 91.1803 26.284 90.8267 26.284C90.634 26.2711 90.4408 26.2995 90.26 26.3673C90.0792 26.4352 89.915 26.541 89.7784 26.6775C89.6419 26.8141 89.5361 26.9783 89.4682 27.1591C89.4004 27.3399 89.372 27.5331 89.3849 27.7258C89.3675 27.9111 89.3901 28.098 89.451 28.2738C89.5119 28.4496 89.6098 28.6103 89.7382 28.7451C89.8665 28.8799 90.0222 28.9856 90.1948 29.0551C90.3674 29.1246 90.5529 29.1563 90.7388 29.1481C90.9151 29.15 91.0909 29.1314 91.2628 29.0928V28.0513H90.4166V27.4264H92.0244V29.5679C91.6071 29.6944 91.1747 29.7645 90.7388 29.7762C89.437 29.7762 88.5518 29.1253 88.5518 27.7844C88.5518 26.4435 89.3849 25.6559 90.7388 25.6559C91.1345 25.6512 91.5285 25.7072 91.9072 25.8219L91.8552 26.4956Z" fill="#00479D"/>
<path d="M92.6722 26.7689H93.3492V27.4199C93.384 27.2261 93.4816 27.0492 93.6268 26.9163C93.7721 26.7834 93.957 26.7019 94.153 26.6843C94.2318 26.6807 94.3107 26.6884 94.3874 26.7071V27.4752C94.279 27.4311 94.1626 27.41 94.0456 27.4134C93.424 27.4134 93.424 28.1912 93.424 28.6143V29.6916H92.6592L92.6722 26.7689Z" fill="#00479D"/>
<path d="M95.2988 28.1652C95.2988 27.7258 95.5364 27.293 96.0344 27.293C96.5323 27.293 96.7764 27.7161 96.7764 28.1652C96.7764 28.6143 96.6235 29.1839 96.0344 29.1839C95.4453 29.1839 95.2988 28.6534 95.2988 28.1652ZM94.4982 28.2596C94.5164 28.6552 94.6864 29.0286 94.9728 29.3021C95.2592 29.5756 95.64 29.7283 96.036 29.7283C96.432 29.7283 96.8128 29.5756 97.0992 29.3021C97.3856 29.0286 97.5556 28.6552 97.5738 28.2596C97.5834 28.0517 97.5507 27.844 97.4777 27.6491C97.4047 27.4542 97.293 27.2761 97.1493 27.1256C97.0055 26.9751 96.8328 26.8553 96.6414 26.7735C96.4501 26.6916 96.2441 26.6494 96.036 26.6494C95.8279 26.6494 95.6219 26.6916 95.4306 26.7735C95.2392 26.8553 95.0665 26.9751 94.9227 27.1256C94.779 27.2761 94.6673 27.4542 94.5943 27.6491C94.5213 27.844 94.4886 28.0517 94.4982 28.2596" fill="#00479D"/>
<path d="M100.789 29.7079H100.063V29.3076C99.9474 29.4552 99.799 29.5743 99.6297 29.6555C99.4605 29.7368 99.2748 29.7781 99.0871 29.7763C98.3906 29.7763 98.0879 29.2848 98.0879 28.6242V26.769H98.8527V28.3378C98.8527 28.6958 98.8527 29.1839 99.3474 29.1839C99.9039 29.1839 100.021 28.5818 100.021 28.2076V26.769H100.789V29.7079Z" fill="#00479D"/>
<path d="M102.944 27.293C103.442 27.293 103.578 27.8365 103.578 28.2303C103.578 28.6241 103.438 29.1839 102.927 29.1839C102.416 29.1839 102.25 28.6469 102.25 28.2303C102.25 27.8137 102.446 27.293 102.934 27.293M101.489 30.9186H102.254V29.3857C102.354 29.5181 102.484 29.6241 102.635 29.6944C102.785 29.7648 102.95 29.7973 103.116 29.7892C104.037 29.7892 104.366 29.0472 104.366 28.2433C104.366 27.4394 104.04 26.7136 103.132 26.7136C102.951 26.7035 102.77 26.7433 102.609 26.8288C102.448 26.9143 102.314 27.0422 102.221 27.1986V27.1986V26.782H101.489V30.9186Z" fill="#00479D"/>
</svg>
