<svg width="120" height="36" viewBox="0 0 120 36" fill="none" xmlns="http://www.w3.org/2000/svg">
<rect width="120" height="36" fill="#F1F1F1"/>
<path d="M14.14 5.43506C12.3325 5.43438 10.5654 5.96982 9.06233 6.97364C7.55924 7.97747 6.38765 9.40456 5.69581 11.0744C5.00396 12.7442 4.82294 14.5817 5.17564 16.3544C5.52835 18.1272 6.39893 19.7554 7.67725 21.0333C8.95556 22.3111 10.5842 23.1811 12.357 23.5331C14.1299 23.8851 15.9673 23.7034 17.6369 23.0109C19.3064 22.3185 20.7331 21.1463 21.7363 19.6429C22.7396 18.1394 23.2744 16.3721 23.273 14.5647C23.2721 12.143 22.3095 9.82089 20.5968 8.10885C18.8841 6.39682 16.5616 5.43506 14.14 5.43506" fill="#7DB429"/>
<path d="M24.9238 3.42578C25.2148 3.45871 25.4843 3.59521 25.683 3.81034C25.8816 4.02547 25.9963 4.30489 26.006 4.59757C26.006 4.59757 25.9888 6.00372 25.5787 6.68611C25.5787 6.68611 24.6998 8.45758 23.2661 8.47826C23.2661 8.47826 24.8205 7.94751 25.3133 5.32477C25.4179 5.11904 25.4401 4.88114 25.3753 4.65961C25.3753 4.65961 24.8411 3.91173 24.9238 3.42578" fill="#76777A"/>
<path d="M26.7883 11.6731L27.867 17.632C27.867 17.632 27.9945 17.6595 28.901 16.0673C28.901 16.0673 29.6454 13.8271 30.9688 12.8586C31.3401 12.6565 31.7535 12.544 32.176 12.5303C32.5985 12.5165 33.0184 12.6018 33.402 12.7794C33.7622 12.9499 34.1418 13.0761 34.5324 13.155C34.5324 13.155 34.5841 13.7203 33.6605 13.7203C33.6605 13.7203 32.2819 13.1033 32.02 13.155C32.02 13.155 30.6621 12.9655 28.9699 17.3631C28.9699 17.3631 28.0704 19.7102 28.2496 21.4609L27.6361 21.8952C27.6361 21.8952 26.1507 15.4745 26.3265 12.0763C26.3265 12.0763 26.3782 11.4284 26.7883 11.6731Z" fill="#76777A"/>
<path d="M34.4945 10.0188C34.4945 10.0188 34.4394 8.64024 35.2011 8.67471C35.7367 8.80571 36.2361 9.05541 36.6624 9.40535C36.6624 9.40535 36.8174 8.12672 35.1459 7.89581C35.1459 7.89581 34.0224 7.70971 33.6191 9.25026C33.688 9.44203 33.8045 9.61316 33.9576 9.74759C34.1107 9.88202 34.2955 9.97535 34.4945 10.0188" fill="#76777A"/>
<path d="M34.9941 12.5519C34.9941 12.5519 35.3973 12.6071 35.2388 13.124C35.2388 13.124 34.8252 13.2998 34.7597 14.7921L34.6288 20.6717C34.6288 20.6717 34.6288 21.1956 34.9734 20.9888L35.5352 20.3409L35.8523 20.6476L35.3456 21.5334C35.3456 21.5334 34.8873 22.1468 34.4289 21.7746C34.2357 21.65 34.0744 21.4819 33.9577 21.2839C33.841 21.0858 33.7722 20.8632 33.7568 20.6338C33.7568 20.6338 33.7568 15.3711 33.9602 14.6956C33.9602 14.6956 33.9602 13.9374 34.9941 12.5519" fill="#76777A"/>
<path d="M39.5333 14.799C39.5333 14.799 37.0657 14.7232 35.4321 18.4247C35.4321 18.4247 34.7221 20.1479 36.1213 20.9991C36.4821 21.0819 36.8585 21.0647 37.2102 20.9493C37.5618 20.8339 37.8753 20.6247 38.1168 20.3443C38.323 20.1873 38.5568 20.0704 38.8061 19.9997C39.1125 19.9938 39.409 19.8904 39.6526 19.7044C39.8962 19.5185 40.0741 19.2597 40.1606 18.9658C40.4787 18.7197 40.7432 18.4112 40.9376 18.0591C41.132 17.707 41.2523 17.3189 41.291 16.9186C41.291 16.9186 41.1118 15.1954 39.5299 14.8094M40.3467 17.4631C40.2605 18.7176 37.4724 19.7757 37.4724 19.7757C35.9697 20.5649 36.3729 18.8382 36.3729 18.8382C36.7176 15.6985 39.6884 15.6296 39.6884 15.6296C40.7223 15.9742 40.3467 17.4631 40.3467 17.4631" fill="#76777A"/>
<path d="M40.1641 18.9554C40.1641 18.9554 39.4748 20.2099 40.3675 20.6132L39.0957 21.9917C39.0957 21.9917 39.7057 19.7722 38.9165 19.9652L40.1641 18.728V18.9554Z" fill="#76777A"/>
<path d="M34.019 31.8072C34.019 31.8072 33.9329 34.0095 35.1391 33.334C35.1391 33.334 38.7613 31.404 39.9228 22.1813L41.26 20.7855L41.4323 19.3483C41.4323 19.3483 32.9403 26.9925 34.019 31.8072ZM35.0943 32.7033C35.0943 32.7033 33.4435 29.4533 38.9061 22.8706C38.9061 22.8706 38.8888 28.4779 35.0943 32.7033Z" fill="#76777A"/>
<path d="M41.4838 21.8918C41.4838 21.8918 45.3197 15.9432 45.8263 14.5405C45.8263 14.5405 45.9676 19.0381 46.9843 19.2311C46.9843 19.2311 48.4628 20.203 49.7415 16.5257C49.7415 16.5257 47.5702 19.3793 47.2945 18.4109C47.2945 18.4109 46.4157 17.6837 46.5535 14.1545C46.5535 14.1545 46.4157 12.5106 45.399 13.9615C45.399 13.9615 43.2277 17.4424 42.5798 19.3311C42.5798 19.3311 41.8905 19.6757 42.1179 18.6418C42.1179 18.6418 44.7062 5.39025 44.5305 4.7113C44.5305 4.7113 44.8751 3.72217 45.1818 3.51883C45.1818 3.51883 45.1818 2.4849 44.5408 3.33617C44.5408 3.33617 44.1961 4.81814 44.1961 4.90775C44.1961 4.90775 42.0697 13.9133 41.2494 20.2892C41.2494 20.2892 40.3982 21.623 41.4907 21.8814" fill="#76777A"/>
<path d="M56.7589 11.8592C56.7589 11.8592 54.5015 11.0768 48.6184 14.0304C48.6184 14.0304 48.2737 14.9368 48.963 14.8197C49.0287 14.6789 49.0538 14.5225 49.0354 14.3682L49.2181 14.2786C49.2181 14.2786 52.1923 13.0964 52.7886 13.2688L53.5227 13.1757C54.045 12.8126 54.6421 12.5712 55.27 12.4692C55.27 12.4692 56.7658 12.1418 56.7416 11.8592" fill="#76777A"/>
<path d="M54.9355 4.84229C54.9355 4.84229 53.9705 5.51434 53.5259 7.56842C53.5259 7.56842 53.1502 11.9523 52.7229 12.5209L52.7504 13.0414L52.5126 15.1471C52.5126 15.1471 51.5269 22.4536 53.5948 21.8608C53.5948 21.8608 55.8763 21.5368 55.8315 19.1829C55.8315 19.1829 54.3496 21.5954 53.3122 20.9923C53.127 20.6679 53.0295 20.3009 53.0296 19.9273C53.0296 19.9273 53.3122 13.3378 53.7361 12.7725L53.774 12.2866C53.774 12.2866 54.291 7.85102 54.4082 7.25479C54.4082 7.25479 55.0664 5.02839 54.9492 4.84229" fill="#76777A"/>
<path d="M76.9755 19.4448V20.1617H70.3997V21.3507H69.7104V9.63282C69.7104 9.2937 69.8452 8.96848 70.085 8.72869C70.3247 8.4889 70.65 8.35419 70.9891 8.35419H76.6516V9.04347H70.9787C70.8252 9.04347 70.6779 9.10448 70.5693 9.21306C70.4607 9.32165 70.3997 9.46892 70.3997 9.62248V19.4173L76.9755 19.4448Z" fill="#76777A"/>
<path d="M71.082 14.5061H73.3705V18.1903H71.082V14.5061ZM71.6231 17.5872H72.7984V15.092H71.6231V17.5872Z" fill="#76777A"/>
<path d="M71.7812 10.2187H75.7378V13.6341H71.7812V10.2187ZM72.4326 13.031H75.0519V10.8218H72.4326V13.031Z" fill="#76777A"/>
<path d="M74.0527 14.5061H76.4652V18.1903H74.0527V14.5061ZM74.6111 17.5872H75.8794V15.092H74.6111V17.5872Z" fill="#76777A"/>
<path d="M80.1045 13.5687C80.1045 14.6026 80.4491 19.083 83.4578 21.2094C83.2703 21.4065 83.1008 21.6198 82.9512 21.847C80.5387 20.0652 79.8494 16.7946 79.7253 15.5849C79.6116 16.8428 78.85 20.0032 76.1962 21.847C76.0551 21.6408 75.9008 21.444 75.7344 21.2577C79.0257 19.0347 79.3566 14.6647 79.3566 13.5687V11.0562H78.1986C77.9063 12.2033 77.4685 13.3082 76.8958 14.3441C76.6811 14.1874 76.45 14.0545 76.2065 13.9478C77.2232 12.3762 77.7953 9.97405 78.1297 7.49951L78.8913 7.62703C78.7466 8.56101 78.588 9.46743 78.3674 10.3428H82.5859L82.7272 10.3118L83.22 10.4703C83.0348 11.7838 82.7537 13.082 82.3791 14.3545L81.7588 14.1649C82.0378 13.1458 82.2508 12.1097 82.3963 11.0631H80.1045V13.5687Z" fill="#76777A"/>
<path d="M92.3053 15.216C93.6322 17.7319 96.2721 19.8342 99.2154 20.6924C99.0155 20.8887 98.8449 21.1127 98.7088 21.3576C96.1023 20.4704 93.8549 18.76 92.3053 16.4843V21.878H91.5609V16.4671C90.0099 18.7227 87.8158 20.4592 85.2642 21.4506C85.1107 21.2145 84.9303 20.9971 84.7266 20.8027C87.6294 19.8211 90.0647 17.7972 91.5609 15.123V12.7105H85.216V12.0212H91.5609V10.3738H92.3053V12.0212H98.7398V12.7105H92.3053V15.216ZM88.1282 9.65002H85.1057V8.94005H88.1282V7.53046H88.8692V8.94005H93.129V9.65002H88.8692V11.0562H88.1282V9.65002ZM88.7106 13.3515C88.5846 13.8234 88.421 14.2844 88.2213 14.7301C88.888 15.3306 89.5025 15.9866 90.0582 16.6911L89.4723 17.0874C89.0123 16.4547 88.493 15.8673 87.9214 15.3332C87.4415 16.2507 86.7926 17.0692 86.0086 17.7457C85.8197 17.5818 85.618 17.4331 85.4055 17.3011C86.6912 16.2519 87.6018 14.814 88.0007 13.2033L88.7106 13.3515ZM94.9453 9.65002H92.3191V8.94005H94.9453V7.56147H95.6897V8.94005H98.9638V9.65002H95.6897V11.0734H94.9453V9.65002ZM96.3859 13.3205C96.2697 13.7769 96.1259 14.2257 95.9551 14.6646C96.8605 15.3883 97.7128 16.1761 98.5054 17.0219L97.9333 17.5113C97.2366 16.7119 96.4746 15.9718 95.6552 15.2987C95.3134 15.9862 94.8591 16.6117 94.3111 17.1495C94.1047 17.0064 93.8882 16.8785 93.6632 16.7669C94.6791 15.8089 95.3747 14.5608 95.6552 13.193L96.3859 13.3205Z" fill="#76777A"/>
<path d="M104.961 11.2148C104.54 11.9657 104.08 12.694 103.582 13.3964V21.8918H102.855V14.3545C102.283 15.1029 101.654 15.8058 100.973 16.4568C100.817 16.2364 100.641 16.03 100.449 15.8399C101.971 14.4232 103.257 12.7736 104.261 10.9528L104.961 11.2148ZM104.661 7.83037C103.574 9.21204 102.332 10.4644 100.959 11.5629C100.841 11.3566 100.697 11.1656 100.532 10.9942C101.816 9.99971 102.965 8.84101 103.947 7.54776L104.661 7.83037ZM104.316 20.9751C104.981 20.2169 105.533 18.9348 105.85 18.018L106.467 18.2558C106.101 19.2346 105.626 20.5167 104.964 21.3232L104.316 20.9751ZM115 16.6119H104.881V15.9467H114.986L115 16.6119ZM109.055 10.9632C109.134 10.5806 109.214 10.1257 109.293 9.61907H104.992V8.95391H109.389C109.469 8.4335 109.531 7.91998 109.579 7.49951L110.372 7.56155C110.306 7.9889 110.227 8.4783 110.147 8.94012H114.893V9.60528H110.023C109.927 10.0912 109.83 10.5531 109.737 10.9494H114.245V14.7405H105.75V10.9494L109.055 10.9632ZM108.314 11.5973H106.415V14.1132H108.314V11.5973ZM111.254 21.0095C111.795 21.0095 111.888 20.8372 111.943 19.4138C112.147 19.5402 112.371 19.6311 112.605 19.6827C112.529 21.3128 112.26 21.6747 111.326 21.6747H108.779C107.638 21.6747 107.325 21.4714 107.325 20.6132V17.956H108.014V20.6132C108.014 20.9578 108.124 21.0095 108.803 21.0095H111.254ZM109.451 16.8738C109.915 17.5185 110.343 18.1881 110.733 18.8796L110.134 19.1795C109.865 18.6625 109.324 17.7596 108.883 17.0944L109.451 16.8738ZM110.923 11.5973H108.917V14.1132H110.909L110.923 11.5973ZM111.54 14.1132H113.566V11.5973H111.54V14.1132ZM113.36 17.8009C113.954 18.7781 114.482 19.7935 114.941 20.8407L114.307 21.1405C113.864 20.0687 113.341 19.0318 112.743 18.0387L113.36 17.8009Z" fill="#76777A"/>
</svg>
