<svg width="120" height="36" viewBox="0 0 120 36" fill="none" xmlns="http://www.w3.org/2000/svg">
<rect width="120" height="36" fill="#F1F1F1"/>
<path d="M82.1823 7.48864H80.3618V7.23223H82.1823V7.48864ZM82.0105 11.1988H80.8182V11.486H80.5875V9.53989H82.0105V11.1988ZM80.6003 7.98863H82.0233V8.24504H80.6003V7.98863ZM80.6003 8.75785H82.0233V8.99631H80.6003V8.75785ZM80.8182 9.78348V10.9501H81.7797V9.78091L80.8182 9.78348ZM81.3003 7.12454C81.2284 6.85286 81.116 6.59354 80.9669 6.35532L81.1874 6.28352C81.3373 6.52264 81.453 6.78156 81.531 7.05274L81.3003 7.12454ZM85.6002 10.2835C85.352 10.4631 85.0856 10.6161 84.8053 10.7399C85.0798 11.0048 85.4167 11.1962 85.7848 11.2963C85.7155 11.3606 85.6551 11.4339 85.6053 11.5142C85.2469 11.395 84.9191 11.198 84.6457 10.9374C84.3722 10.6767 84.1597 10.3589 84.0233 10.0066H83.9387C83.7486 10.1769 83.5395 10.3249 83.3156 10.4476V11.1553L84.3182 10.945C84.3132 11.0256 84.3175 11.1064 84.331 11.186C83.2387 11.4424 83.09 11.4835 83.0079 11.5373C82.969 11.4564 82.9189 11.3813 82.8592 11.3142C82.927 11.2734 82.9822 11.2148 83.0189 11.1447C83.0555 11.0746 83.0721 10.9957 83.0669 10.9168V10.5655C82.8311 10.6816 82.5878 10.7818 82.3387 10.8655C82.2896 10.7921 82.2338 10.7235 82.172 10.6604C82.6795 10.5264 83.1595 10.3043 83.59 10.004H82.2387V9.77066H83.1874V9.37836H82.5644V9.16041H83.2105V8.77067H82.4413V8.5476H83.2105V8.19888H82.5644V7.23223H83.8207V8.19888H83.4592V8.55016H84.5028V8.19888H84.1951V7.23223H85.4771V8.19888H84.7643V8.55016H85.6079V8.77067H84.7643V9.15785H85.472V9.37579H84.7643V9.77066H85.731V10.004H84.2669C84.3602 10.213 84.4847 10.4067 84.6361 10.5783C84.9079 10.4373 85.2233 10.2578 85.4182 10.1271L85.6002 10.2835ZM85.6951 6.95018H82.331V6.71941H83.9387C83.8774 6.57141 83.8018 6.42972 83.7131 6.29634L83.9464 6.21942C84.059 6.37775 84.1504 6.55015 84.2182 6.73224H85.6951V6.95018ZM82.8208 8.00145H83.59V7.44248H82.8208V8.00145ZM83.472 9.17323H84.5156V8.77067H83.472V9.17323ZM83.472 9.78348H84.5156V9.37836H83.472V9.78348ZM84.4438 8.00145H85.2387V7.44248H84.4438V8.00145Z" fill="#75787B"/>
<path d="M88.6898 10.0809C88.6988 10.1674 88.7142 10.2531 88.736 10.3373C87.0103 11.0091 86.8206 11.0937 86.7155 11.1912C86.682 11.0903 86.64 10.9925 86.5898 10.8988C86.6616 10.8706 86.7565 10.7988 86.7565 10.5937V8.33734H88.4155V6.94505H86.6668V6.67069H88.6949V8.61682H87.0334V10.6681L88.6898 10.0809ZM91.3052 7.60145C91.195 8.46406 90.9171 9.29679 90.4872 10.0527C90.8144 10.5847 91.2856 11.0132 91.8462 11.2886C91.7664 11.3548 91.6979 11.4336 91.6436 11.5219C91.103 11.24 90.6452 10.8219 90.3154 10.3091C89.9125 10.8488 89.3845 11.2825 88.777 11.5732C88.7263 11.4804 88.6643 11.3943 88.5924 11.3168C89.2242 11.0443 89.767 10.6002 90.159 10.0348C89.8259 9.42743 89.5816 8.77552 89.4334 8.09888C89.3029 8.41063 89.1359 8.70584 88.936 8.97836C88.8628 8.90989 88.7857 8.84568 88.7052 8.78605C89.1847 8.17068 89.5283 7.22197 89.7308 6.2348L90.0154 6.28352C89.9458 6.63819 89.855 6.98838 89.7436 7.33222H91.7795V7.58863L91.3052 7.60145ZM89.6103 7.6835C89.7381 8.41329 89.9777 9.11901 90.3206 9.77578C90.6807 9.09893 90.9144 8.36211 91.0103 7.60145H89.6385L89.6103 7.6835Z" fill="#75787B"/>
<path d="M96.9231 10.004C96.5716 10.3762 96.1428 10.6668 95.6668 10.8553C96.4038 11.0837 97.1625 11.2349 97.9308 11.3065C97.8675 11.3832 97.8172 11.4699 97.7821 11.563C96.9442 11.4651 96.1191 11.2786 95.3206 11.0065C94.4522 11.2949 93.5558 11.4908 92.6463 11.5912C92.6028 11.5023 92.5531 11.4166 92.4976 11.3348C93.3326 11.2726 94.1582 11.1178 94.9591 10.8732C94.5296 10.7082 94.1276 10.4791 93.7668 10.1937C93.4706 10.426 93.1478 10.6223 92.8053 10.7783C92.7485 10.7002 92.6868 10.6257 92.6206 10.5553C93.2462 10.3237 93.7918 9.91687 94.1924 9.38349L94.4488 9.46554C94.3728 9.57883 94.287 9.68522 94.1924 9.78349H97.7154V10.0219L96.9231 10.004ZM93.0078 8.64504C92.9582 8.97441 92.8766 9.29815 92.7642 9.6117C92.7031 9.56753 92.6397 9.52645 92.5745 9.48862C92.6792 9.20147 92.749 8.90273 92.7822 8.59889L93.0078 8.64504ZM94.0873 8.47581C94.0693 8.40402 94.0463 8.31171 94.0181 8.21941C92.936 8.37838 92.7899 8.41171 92.7052 8.44761C92.6862 8.36029 92.6605 8.27456 92.6283 8.1912C92.7675 8.149 92.8902 8.06481 92.9796 7.95018C93.0565 7.88095 93.236 7.69377 93.436 7.45788C93.1937 7.46019 92.9526 7.49205 92.7181 7.55275C92.6975 7.46584 92.6718 7.38022 92.6411 7.29634C92.7129 7.28352 92.7822 7.21942 92.8719 7.11429C93.0906 6.83552 93.2796 6.53476 93.436 6.21687L93.6796 6.31174C93.5013 6.65047 93.2863 6.9686 93.0386 7.26044L93.5899 7.23224C93.7158 7.07467 93.8331 6.91032 93.9411 6.73994L94.1719 6.84506C93.85 7.30666 93.4842 7.73601 93.0796 8.1271L93.9232 8.01428C93.8693 7.87326 93.8104 7.7271 93.7514 7.60403L93.9514 7.55788C94.0878 7.83195 94.1969 8.1188 94.277 8.41427L94.0873 8.47581ZM93.3924 9.45529C93.3767 9.17806 93.3373 8.9027 93.2745 8.63222L93.4899 8.59889C93.5531 8.86445 93.596 9.13446 93.6181 9.40657L93.3924 9.45529ZM94.0232 8.54504C94.1117 8.78187 94.1811 9.02537 94.2309 9.27324L94.0232 9.33734C93.9742 9.08648 93.9064 8.83965 93.8206 8.59889L94.0232 8.54504ZM93.9642 10.0168C94.3698 10.3301 94.8247 10.5736 95.3103 10.7373C95.7714 10.5804 96.1954 10.3308 96.5565 10.004H93.9924L93.9642 10.0168ZM96.1462 6.93993H94.3181V6.72968H95.1283C95.0673 6.5773 94.9899 6.432 94.8975 6.29635L95.118 6.22456C95.2307 6.38367 95.3237 6.55586 95.395 6.73737H96.1257L96.1462 6.93993ZM96.0155 7.45275H94.4309V7.24762H96.0155V7.45275ZM96.0155 7.96556H94.4386V7.75531H96.0155V7.96556ZM94.477 9.3476V8.32197H95.9821V9.3476H94.477ZM94.695 9.14247H95.7565V8.53991H94.695V9.14247ZM97.6667 8.45274C97.6457 8.34943 97.6183 8.24752 97.5847 8.14761C96.4924 8.30658 96.3514 8.34761 96.2616 8.38863C96.2437 8.32966 96.2078 8.20658 96.177 8.13223C96.2796 8.13223 96.3924 8.0271 96.5283 7.89377C96.6859 7.74058 96.8341 7.57789 96.9719 7.40659C96.7311 7.41529 96.4916 7.44619 96.2565 7.4989C96.2324 7.41735 96.2024 7.33766 96.1667 7.26044C96.2645 7.22578 96.3494 7.16231 96.4103 7.07839C96.6288 6.80003 96.8171 6.4992 96.9719 6.18097L97.2103 6.28097C97.0333 6.61706 96.821 6.93337 96.577 7.22455L97.1514 7.18865C97.2788 7.02385 97.3977 6.85269 97.5078 6.67583L97.7437 6.78609C97.4243 7.25155 97.0639 7.68747 96.6667 8.08864L97.5129 7.97582C97.4662 7.84233 97.4087 7.71285 97.3411 7.58864L97.5488 7.54249C97.6966 7.81595 97.8062 8.10843 97.8744 8.41171L97.6667 8.45274ZM96.5821 8.59376C96.5318 8.90246 96.4607 9.20743 96.3693 9.50657L96.1667 9.38349C96.255 9.10882 96.3168 8.82635 96.3514 8.53991L96.5821 8.59376ZM96.9847 9.40657C96.9747 9.12829 96.9369 8.8517 96.8719 8.58094L97.0847 8.54504C97.1481 8.81462 97.1884 9.08912 97.2052 9.36554L96.9847 9.40657ZM97.6129 8.46299C97.7189 8.7419 97.8046 9.02811 97.8693 9.31939L97.6539 9.37837C97.6129 9.14247 97.5052 8.79119 97.4231 8.51684L97.6129 8.46299Z" fill="#75787B"/>
<path d="M100.769 9.95273C100.767 9.99593 100.761 10.0389 100.751 10.0809C100.669 10.9143 100.603 11.2476 100.454 11.363C100.408 11.4047 100.353 11.4361 100.294 11.4551C100.235 11.4741 100.172 11.4803 100.11 11.4732C99.8499 11.4879 99.5888 11.4879 99.3283 11.4732C99.3203 11.3816 99.2894 11.2935 99.2386 11.2168C99.5822 11.2476 99.9206 11.2527 100.028 11.2527C100.136 11.2527 100.2 11.2527 100.241 11.2014C100.344 11.1117 100.413 10.8425 100.48 10.1912H99.0386C99.1027 9.86555 99.1847 9.36556 99.2334 8.98608H100.485V8.23993H99.4232V8.18096C99.1899 8.30777 98.9452 8.4125 98.6924 8.49378C98.6506 8.41227 98.5951 8.33855 98.5283 8.27583C98.9752 8.13616 99.3987 7.93047 99.7847 7.66558C99.5675 7.43468 99.322 7.23222 99.054 7.06303L99.2334 6.90405C99.5154 7.07301 99.774 7.27817 100.003 7.5143C100.273 7.29954 100.504 7.03923 100.685 6.74508H99.2027V6.48867H100.851H100.905L101.077 6.58098C100.782 7.17536 100.318 7.66949 99.7437 8.00148H100.751V9.2271H99.436C99.4078 9.48351 99.3642 9.73992 99.3309 9.9553L100.769 9.95273ZM103.818 7.00918C103.535 7.27176 103.229 7.50939 102.905 7.71943C103.249 7.92968 103.622 8.08781 104.013 8.18865C103.949 8.25771 103.892 8.33237 103.841 8.41173C103.503 8.31238 103.178 8.17474 102.872 8.00148V8.95018C102.872 9.07838 102.89 9.11428 102.977 9.11428H103.513C103.604 9.1146 103.695 9.10861 103.785 9.09633C103.787 9.16669 103.793 9.23688 103.803 9.30659C103.708 9.3184 103.613 9.32268 103.518 9.31941H102.954C102.674 9.31941 102.615 9.21941 102.615 8.94505V8.22968H101.649V8.48608C101.653 8.70147 101.594 8.91339 101.479 9.09567C101.364 9.27794 101.199 9.42258 101.003 9.51171C100.947 9.44585 100.883 9.38727 100.813 9.33736C100.986 9.26989 101.135 9.15096 101.239 8.9965C101.343 8.84205 101.398 8.65947 101.395 8.47326V8.00148H102.733H102.864C102.179 7.61056 101.626 7.02515 101.274 6.31945L101.513 6.24252C101.65 6.52757 101.832 6.78895 102.051 7.01687C102.364 6.79564 102.656 6.54586 102.923 6.27073L103.141 6.42457C102.848 6.69887 102.536 6.95086 102.205 7.17841C102.357 7.32928 102.524 7.46497 102.703 7.58353C103.017 7.36732 103.314 7.12639 103.59 6.86303L103.818 7.00918ZM103.38 9.74248C103.193 10.1593 102.906 10.5232 102.544 10.8014C102.882 11.0194 103.195 11.2168 103.415 11.3758L103.267 11.563C103.036 11.3937 102.715 11.1784 102.349 10.9425C101.923 11.2185 101.455 11.4246 100.964 11.5527C100.935 11.4714 100.888 11.3972 100.828 11.3348C101.288 11.2304 101.728 11.0502 102.128 10.8014C101.79 10.5912 101.441 10.3861 101.131 10.204L101.274 10.0579C101.6 10.2399 101.967 10.4502 102.323 10.6681C102.604 10.4612 102.841 10.1995 103.018 9.89889H101.077V9.67069H103.167H103.213L103.38 9.74248Z" fill="#75787B"/>
<path d="M110 11.0784V11.3348H104.762V11.0784H107.236V9.39633H105.385V9.11941H107.241V7.68353H105.741C105.566 8.0531 105.343 8.39794 105.077 8.70916C105.023 8.66814 104.892 8.58609 104.821 8.54506C105.357 7.90814 105.738 7.15617 105.936 6.34765L106.226 6.40663C106.126 6.74963 106.005 7.08616 105.864 7.41431H107.241V6.22971H107.531V7.41431H109.744V7.67071H107.536V9.10659H109.536V9.38351H107.536V11.0784H110Z" fill="#75787B"/>
<path d="M52.987 27.1319H52.0024V25.8832H53.6152V19.2166H51.7486L52.2076 17.6782H54.0383V16.3423H47.2974V27.1704L46.7051 31.6601H47.9487L48.5615 27.1524V17.6833H50.8691L50.4281 19.2218H49.105V25.8883H50.7666V27.155H49.7409L48.6051 31.0011H49.8256L50.7589 27.8319V31.8472H51.9794V27.8396L52.8973 30.7473H54.1024L52.987 27.1319ZM50.2897 20.4782H52.4281V21.8012H50.2897V20.4782ZM50.2897 24.6166V23.0781H52.4281V24.6166H50.2897Z" fill="#75787B"/>
<path d="M56.585 19.0628H54.7901V28.7165H60.6259V19.0628H57.8901L58.2978 17.6833H61.3003V16.3423H54.4312V17.6833H56.9952L56.585 19.0628ZM59.3824 27.4114H56.0491V25.6422H59.3824V27.4114ZM59.3824 24.3345H56.0491V23.014H59.3824V24.3345ZM59.3824 20.3833V21.7243H56.0491V20.3859L59.3824 20.3833Z" fill="#75787B"/>
<path d="M58.3979 29.1448L59.9774 31.8473H61.4518L59.8749 29.1448H58.3979Z" fill="#75787B"/>
<path d="M54.0723 31.8473H55.5158L57.0594 29.1448H55.6004L54.0723 31.8473Z" fill="#75787B"/>
<path d="M108.879 16.0065H102.689V22.0628H108.879V16.0065ZM107.597 20.7398H103.961V17.3296H107.607L107.597 20.7398Z" fill="#75787B"/>
<path d="M99.7721 23.4218V21.7449H102.013V20.4039H99.7721V17.6834L101.469 17.3655V15.9501L96.5336 16.8809V18.3168L98.5003 17.9245V20.4039H96.2285V21.7449H98.5003V23.4039L96.2285 26.9269V29.332L98.5003 25.8269V31.8474H99.7721V25.6423L100.413 26.5321H101.857L99.7721 23.4218Z" fill="#75787B"/>
<path d="M87.9278 18.3167H92.9431V16.8988H81.1869V18.3167H86.2047V30.114H80.2817V31.5294H93.8508V30.114H87.9278V18.3167Z" fill="#75787B"/>
<path d="M106.438 30.2063V27.896H109.184V26.573H106.438V24.6166H109.577V23.2935H101.977V24.6166H105.115V26.573H102.351V27.896H105.115V30.2063H101.554V31.5293H110V30.2063H106.438Z" fill="#75787B"/>
<path d="M75.8975 28.1012V24.0192H66.2822V28.1012H70.4001V31.8473H71.795V28.1012H75.8975ZM67.572 25.2807H74.6155V26.8192H67.5796L67.572 25.2807Z" fill="#75787B"/>
<path d="M64.2539 31.5294H66.2205L69.4103 28.6423H67.4436L64.2539 31.5294Z" fill="#75787B"/>
<path d="M72.7842 28.6423L75.9739 31.5294H77.9405L74.7534 28.6423H72.7842Z" fill="#75787B"/>
<path d="M71.7945 22.1371V21.391H76.1534V16.0808H66.0433V21.391H70.4022V22.1371H64.21V23.5166H77.9842V22.1371H71.7945ZM67.3151 17.3475H74.8714V18.1167H67.3074L67.3151 17.3475ZM67.3151 19.3603H74.8714V20.1295H67.3074L67.3151 19.3603Z" fill="#75787B"/>
<path d="M17.2106 11.1747C18.3471 10.0381 18.3471 8.1955 17.2106 7.05899C16.0741 5.92247 14.2315 5.92247 13.0949 7.05899C11.9584 8.1955 11.9584 10.0381 13.0949 11.1747C14.2315 12.3112 16.0741 12.3112 17.2106 11.1747Z" fill="#00A9E0"/>
<path d="M27.6144 11.1735C28.7509 10.037 28.7509 8.19434 27.6144 7.05783C26.4779 5.92131 24.6353 5.92131 23.4988 7.05783C22.3622 8.19434 22.3622 10.037 23.4988 11.1735C24.6353 12.31 26.4779 12.31 27.6144 11.1735Z" fill="#00A9E0"/>
<path d="M39.01 11.1425C40.1281 9.98785 40.0985 8.14544 38.9439 7.02733C37.7893 5.90921 35.9468 5.93879 34.8287 7.09341C33.7106 8.24802 33.7402 10.0904 34.8948 11.2086C36.0494 12.3267 37.8918 12.2971 39.01 11.1425Z" fill="#ED8B00"/>
<path d="M25.0673 30.2268C24.9922 29.9524 24.9723 29.6658 25.0089 29.3837C25.0454 29.1015 25.1376 28.8294 25.2801 28.5832L27.1801 25.3243L24.4647 20.6423L25.8981 16.7193C26.0934 16.1758 26.0661 15.5772 25.8221 15.0537C25.5782 14.5303 25.1373 14.1244 24.5955 13.9244V13.9244C24.0514 13.7275 23.4515 13.754 22.9268 13.9981C22.4022 14.2421 21.9954 14.684 21.7955 15.227L20.0392 20.0526L20.0033 20.15L18.3981 24.5371L16.0238 20.4346L16.7392 16.3654C16.8412 15.7952 16.7125 15.2078 16.3814 14.7325C16.2175 14.4972 16.0088 14.2964 15.7673 14.1417C15.5258 13.987 15.2562 13.8813 14.9738 13.8308C14.4036 13.7288 13.8162 13.8575 13.3409 14.1886C12.8656 14.5197 12.5413 15.026 12.4392 15.5962L10.0342 29.2832C9.98364 29.5654 9.98921 29.8547 10.0505 30.1347C10.1118 30.4148 10.2277 30.68 10.3915 30.9152C10.5553 31.1504 10.7639 31.3511 11.0052 31.5058C11.2466 31.6604 11.5161 31.766 11.7982 31.8165C12.0804 31.867 12.3698 31.8614 12.6498 31.8001C12.9298 31.7388 13.195 31.6229 13.4302 31.4591C13.6655 31.2953 13.8661 31.0868 14.0208 30.8454C14.1754 30.6041 14.281 30.3346 14.3315 30.0524L14.8443 27.1217L16.9469 30.7652C17.2375 31.2654 17.7142 31.6303 18.2729 31.7802C18.8316 31.9301 19.427 31.8528 19.9289 31.5652C20.3737 31.3077 20.7127 30.9006 20.8853 30.4165L22.5058 25.9909L25.2699 30.7652C25.2903 30.8 25.3153 30.832 25.3442 30.8601C25.2184 30.6653 25.1249 30.4514 25.0673 30.2268V30.2268Z" fill="#00A9E0"/>
<path d="M39.2311 28.5756L34.7825 20.8552L36.9799 17.0655C37.1231 16.8173 37.2161 16.5434 37.2535 16.2593C37.2909 15.9752 37.272 15.6865 37.1978 15.4097C37.1237 15.1329 36.9957 14.8734 36.8213 14.6461C36.6468 14.4188 36.4293 14.228 36.1812 14.0848C35.933 13.9415 35.659 13.8485 35.3749 13.8111C35.0908 13.7737 34.8022 13.7926 34.5254 13.8668C34.2486 13.9409 33.9891 14.0689 33.7618 14.2433C33.5345 14.4178 33.3437 14.6353 33.2004 14.8835L30.4338 19.6603C30.3937 19.7207 30.3568 19.7831 30.3235 19.8475L25.2698 28.5653C24.9822 29.0673 24.9049 29.6626 25.0548 30.2213C25.2047 30.7801 25.5695 31.2568 26.0697 31.5474V31.5474C26.5713 31.8348 27.1662 31.912 27.7245 31.7621C28.2829 31.6122 28.7591 31.2474 29.0492 30.7474L32.2594 25.2141L35.4619 30.7576C35.5946 31.0247 35.7807 31.2617 36.0086 31.4541C36.2365 31.6464 36.5014 31.79 36.787 31.876C37.0725 31.962 37.3727 31.9885 37.6689 31.954C37.9651 31.9194 38.2511 31.8245 38.5092 31.675C38.7673 31.5256 38.9921 31.3249 39.1696 31.0852C39.347 30.8456 39.4735 30.5721 39.5412 30.2816C39.6088 29.9911 39.6162 29.6899 39.5629 29.3965C39.5095 29.1031 39.3966 28.8237 39.2311 28.5756V28.5756Z" fill="#ED8B00"/>
</svg>
