<svg width="50" height="34" viewBox="0 0 50 34" fill="none" xmlns="http://www.w3.org/2000/svg">
<path d="M16.2902 9.34164C16.3229 9.31331 16.3557 9.28497 16.3869 9.25507C16.445 9.20226 16.4799 9.12831 16.484 9.0495C16.4881 8.97068 16.461 8.89345 16.4087 8.8348C16.3564 8.77614 16.2831 8.74087 16.205 8.73674C16.127 8.7326 16.0505 8.75995 15.9924 8.81276L15.905 8.88989C15.8756 8.91542 15.8515 8.94654 15.8341 8.98147C15.8166 9.01641 15.8061 9.05448 15.8032 9.0935C15.8003 9.13253 15.8051 9.17175 15.8172 9.20892C15.8293 9.2461 15.8486 9.2805 15.8738 9.31016C15.8991 9.33982 15.93 9.36417 15.9646 9.3818C15.9992 9.39944 16.0369 9.41002 16.0756 9.41294C16.1142 9.41586 16.1531 9.41107 16.1899 9.39884C16.2267 9.38661 16.2608 9.36717 16.2902 9.34164V9.34164ZM14.5297 10.2436L14.6622 10.2152C14.7385 10.1973 14.8047 10.1495 14.846 10.0823C14.8874 10.0152 14.9007 9.93416 14.8829 9.85714C14.8651 9.78012 14.8177 9.71338 14.7512 9.67161C14.6847 9.62984 14.6044 9.61646 14.5281 9.63442L14.419 9.65803C14.3421 9.67285 14.2741 9.7179 14.2301 9.78329C14.1861 9.84867 14.1696 9.92903 14.1843 10.0067C14.199 10.0843 14.2436 10.1529 14.3084 10.1973C14.3732 10.2418 14.4528 10.2584 14.5297 10.2436V10.2436ZM12.5914 10.1853L12.7162 10.2074C12.7909 10.2146 12.8656 10.1929 12.9251 10.1468C12.9846 10.1006 13.0245 10.0333 13.0368 9.95858C13.049 9.88383 13.0327 9.80717 12.9912 9.74408C12.9496 9.68098 12.8859 9.63616 12.8129 9.61867L12.6944 9.59821C12.6172 9.58444 12.5378 9.60215 12.4736 9.64746C12.4095 9.69278 12.3657 9.76197 12.3521 9.83983C12.3384 9.91769 12.356 9.99783 12.4009 10.0626C12.4458 10.1274 12.5143 10.1716 12.5914 10.1853V10.1853ZM10.898 10.0689L11.0056 10.0437C11.0455 10.0376 11.0838 10.0233 11.1181 10.0017C11.1524 9.98015 11.182 9.95172 11.205 9.91819C11.2279 9.88466 11.2439 9.84673 11.2519 9.80675C11.2598 9.76676 11.2596 9.72555 11.2511 9.68567C11.2427 9.64578 11.2263 9.60804 11.2029 9.57479C11.1795 9.54154 11.1496 9.51347 11.1151 9.49231C11.0806 9.47114 11.0421 9.45733 11.0021 9.45172C10.9621 9.44612 10.9214 9.44883 10.8824 9.4597L10.7499 9.49118C10.6787 9.51517 10.6192 9.56553 10.5834 9.6321C10.5475 9.69866 10.5381 9.77646 10.5569 9.8498C10.5757 9.92313 10.6214 9.98653 10.6847 10.0272C10.748 10.0678 10.8242 10.0827 10.898 10.0689V10.0689ZM9.41196 10.9031L9.5024 10.8291C9.56443 10.7797 9.60446 10.7073 9.61367 10.6281C9.62288 10.5488 9.60052 10.4691 9.55152 10.4065C9.50251 10.3439 9.43087 10.3035 9.35235 10.2942C9.27383 10.2849 9.19487 10.3074 9.13284 10.3569L9.03304 10.4403C9.00335 10.4654 8.97885 10.4962 8.96094 10.5309C8.94302 10.5656 8.93206 10.6035 8.92865 10.6424C8.92178 10.7211 8.94615 10.7993 8.99639 10.8598C9.04664 10.9203 9.11865 10.9583 9.19659 10.9652C9.27452 10.9721 9.35199 10.9475 9.41196 10.8968V10.9031ZM8.20036 12.208C8.21751 12.1828 8.24246 12.1513 8.27052 12.1135C8.29407 12.0825 8.31134 12.0472 8.32135 12.0094C8.33135 11.9717 8.33389 11.9323 8.32882 11.8936C8.32375 11.8548 8.31117 11.8175 8.29181 11.7837C8.27244 11.7498 8.24666 11.7202 8.21595 11.6964C8.18523 11.6727 8.15018 11.6552 8.11279 11.6451C8.0754 11.635 8.03641 11.6325 7.99803 11.6376C7.95966 11.6427 7.92266 11.6554 7.88915 11.6749C7.85564 11.6945 7.82627 11.7205 7.80272 11.7515L7.72476 11.857C7.67865 11.9209 7.65956 12.0006 7.67169 12.0787C7.68383 12.1568 7.72619 12.2268 7.78947 12.2733C7.85274 12.3199 7.93175 12.3391 8.0091 12.3269C8.08644 12.3146 8.1558 12.2719 8.20191 12.208H8.20036ZM7.26475 13.782L7.32713 13.675C7.34709 13.6415 7.36033 13.6044 7.36608 13.5657C7.37183 13.5271 7.36998 13.4877 7.36064 13.4498C7.35131 13.4118 7.33465 13.3761 7.31165 13.3447C7.28864 13.3132 7.25972 13.2867 7.22655 13.2665C7.19338 13.2464 7.1566 13.233 7.11831 13.2272C7.08002 13.2214 7.04097 13.2233 7.0034 13.2327C6.96582 13.2421 6.93045 13.2589 6.89931 13.2822C6.86817 13.3054 6.84187 13.3346 6.8219 13.3681L6.75797 13.4751C6.72417 13.5426 6.71693 13.6204 6.7377 13.693C6.75847 13.7657 6.80571 13.8277 6.86992 13.8665C6.93413 13.9054 7.01054 13.9183 7.08379 13.9027C7.15705 13.887 7.2217 13.8439 7.26475 13.782V13.782Z" fill="#3CB4E5"/>
<path d="M17.5533 7.89326L17.5876 7.84446C17.6329 7.77996 17.6509 7.69994 17.6378 7.62201C17.6246 7.54408 17.5813 7.47462 17.5174 7.42891C17.4535 7.3832 17.3743 7.36498 17.2971 7.37826C17.2199 7.39155 17.1511 7.43524 17.1058 7.49974L17.0715 7.54854C17.0262 7.61304 17.0081 7.69305 17.0213 7.77098C17.0344 7.84891 17.0777 7.91837 17.1416 7.96409C17.2055 8.0098 17.2848 8.02802 17.362 8.01473C17.4392 8.00145 17.508 7.95775 17.5533 7.89326" fill="#3CB4E5"/>
<path d="M18.2804 7.1141L22.1584 1.48529L26.2002 10.1819L26.7351 9.92851L22.2582 0.296875L17.7954 6.77253L18.2804 7.1141Z" fill="#3CB4E5"/>
<path d="M2.44348 24.2093H3.87651V24.9822C3.35725 25.2529 2.80368 25.3301 2.16903 25.3301C0.902853 25.3301 0 24.8579 0 24.2739C0 23.6537 1.00577 23.2271 2.1129 23.2271C2.64901 23.2066 3.1826 23.3111 3.67223 23.5325L3.19196 23.8127C2.86474 23.6473 2.50208 23.5662 2.13629 23.5766C1.40028 23.5766 0.829565 23.8819 0.829565 24.2644C0.829565 24.6942 1.38937 24.9822 2.21114 24.9822C2.52159 24.9874 2.83047 24.9368 3.12335 24.8327V24.5352H2.4388L2.44348 24.2093Z" fill="#3CB4E5"/>
<path d="M8.60441 24.4843L9.63045 25.2917H8.69485L7.84969 24.5944C7.67972 24.6023 7.5082 24.6055 7.31328 24.5944V25.2886H6.54297V23.2864C8.43756 23.129 9.31079 23.4155 9.31079 23.916C9.31079 24.1789 8.98021 24.3898 8.60441 24.4843ZM7.31328 24.2607C8.1522 24.3032 8.51865 24.1443 8.51865 23.9082C8.51865 23.6721 8.13037 23.5461 7.31328 23.6091V24.2607Z" fill="#3CB4E5"/>
<path d="M14.6608 24.9642V25.2932H12.1035V23.2705H14.5985V23.5979H12.8738V24.1032H14.3006V24.4306H12.8738V24.9642H14.6608Z" fill="#3CB4E5"/>
<path d="M19.8957 24.9642V25.2932H17.3384V23.2705H19.8333V23.5979H18.1103V24.1032H19.537V24.4306H18.1103V24.9642H19.8957Z" fill="#3CB4E5"/>
<path d="M25.9194 23.2695V25.2938L25.7416 25.3205L23.3278 24.0912V25.2922H22.5684V23.2664L22.7461 23.2412L25.1506 24.4705V23.2695H25.9194Z" fill="#3CB4E5"/>
<path d="M31.1774 25.2932H28.7573V23.2705H29.5276V24.9642H31.1774V25.2932Z" fill="#3CB4E5"/>
<path d="M33.4727 25.2924L35.3283 23.2461H35.598L37.4412 25.2924H36.5913L36.2888 24.9634H34.6312L34.3287 25.2924H33.4727ZM34.9057 24.6407H36.0066L35.4592 23.9906L34.9057 24.6407Z" fill="#3CB4E5"/>
<path d="M43.2123 23.2695V25.2938L43.0346 25.3205L40.6207 24.0912V25.2922H39.8613V23.2664L40.0391 23.2412L42.4467 24.4705V23.2695H43.2123Z" fill="#3CB4E5"/>
<path d="M46.0454 23.2807C48.7166 23.0682 49.3902 23.7828 49.3902 24.2802C49.3902 24.7776 48.6994 25.4702 46.0454 25.2923V23.2807ZM46.8251 24.946C47.6125 24.9838 48.5715 24.8106 48.5715 24.277C48.5715 23.8316 47.9041 23.5482 46.8251 23.6096V24.946Z" fill="#3CB4E5"/>
<path d="M5.70703 20.4065V18.3791L5.87856 18.3555L7.63593 19.5155L9.38862 18.3555L9.55859 18.3791V20.4065H8.96604V19.0906L7.664 19.9657H7.60162L6.29958 19.1016V20.4065H5.70703Z" fill="#3CB4E5"/>
<path d="M15.1375 20.152V20.4055H12.6426V18.3828H15.0564V18.6394H13.2476V19.247H14.7492V19.5004H13.2476V20.152H15.1375Z" fill="#3CB4E5"/>
<path d="M20.3957 20.4055H18.0317V18.3828H18.6321V20.152H20.3957V20.4055Z" fill="#3CB4E5"/>
<path d="M25.4357 18.6394H24.249V20.4055H23.6502V18.6394H22.4683V18.3828H25.431L25.4357 18.6394Z" fill="#3CB4E5"/>
<path d="M28.2349 18.3828H28.8336V20.4055H28.2349V18.3828Z" fill="#3CB4E5"/>
<path d="M35.2395 18.3838V20.4128L35.1023 20.4316L32.5683 19.0323V20.4065H31.9805V18.3791L32.1177 18.3555L34.6516 19.7721V18.3917L35.2395 18.3838Z" fill="#3CB4E5"/>
<path d="M40.5487 19.3748H41.896V20.1383C41.3748 20.3689 40.8085 20.4766 40.2399 20.4531C38.9675 20.4531 38.0771 19.9808 38.0771 19.3984C38.0771 18.7846 39.0595 18.3501 40.1776 18.3501C40.7051 18.3302 41.2303 18.4314 41.7135 18.646C41.5934 18.7185 41.4609 18.7909 41.3424 18.8617C40.983 18.6939 40.5906 18.6105 40.1947 18.6177C39.3792 18.6177 38.7336 18.9577 38.7336 19.3922C38.7336 19.8533 39.3574 20.1792 40.2633 20.1792C40.6179 20.1868 40.9712 20.1336 41.3081 20.0218V19.633H40.5487V19.3748Z" fill="#3CB4E5"/>
<path d="M17.9448 14.7961H18.634L20.0468 12.4224C20.288 12.0013 20.592 11.6201 20.9481 11.2923C21.659 10.6024 22.6051 10.2142 23.5912 10.2077C23.9032 10.2088 24.2143 10.2436 24.519 10.3116V10.3116C24.7683 10.3805 25.0261 10.4134 25.2846 10.4092C25.9017 10.4045 26.5104 10.2643 27.0685 9.99839C27.8474 9.61888 28.5185 9.04651 29.0192 8.33461C29.7989 7.2737 31.0464 5.38484 32.1098 3.75569C32.8053 2.68848 33.4181 1.73775 33.758 1.2073L40.2839 14.7961H40.9403L33.8313 0L33.5475 0.445457L33.3916 0.683139C33.0485 1.21989 32.1691 2.58932 31.2085 4.05319C30.248 5.51706 29.2048 7.07852 28.5405 7.98832C28.0985 8.61974 27.5052 9.12772 26.8159 9.46478C26.3358 9.69361 25.8124 9.81496 25.2815 9.82052C25.0741 9.8239 24.8673 9.79794 24.6671 9.74339H24.6531H24.6406C24.2948 9.66699 23.942 9.62794 23.5881 9.62691C22.4421 9.63183 21.3423 10.0829 20.5177 10.8862C20.1275 11.2501 19.7946 11.6721 19.5307 12.1375L17.9448 14.7961Z" fill="#3CB4E5"/>
<path d="M4.00746 28.906C3.88583 29.5277 3.60827 30.033 2.89566 30.3226C2.83333 30.2225 2.75479 30.1336 2.66331 30.0598V32.6853C2.66331 32.8742 2.61809 32.9859 2.46684 33.0426C2.31558 33.0993 2.08948 33.1071 1.68717 33.1071C1.65843 32.9898 1.6116 32.8777 1.54839 32.775C1.84934 32.786 2.10975 32.786 2.18616 32.775C2.26257 32.764 2.29531 32.7482 2.29531 32.6806V31.7361H0.905945C0.852928 32.2257 0.731299 32.7419 0.459975 33.1213C0.36467 33.0473 0.259729 32.9869 0.148108 32.9418C0.536383 32.3894 0.576925 31.6102 0.576925 31.0215V30.0676C0.536383 30.1164 0.49584 30.1636 0.455297 30.2046C0.354551 30.1153 0.245396 30.0362 0.129395 29.9685C0.568314 29.5021 0.879929 28.9289 1.03381 28.3047L1.44859 28.3881C1.40805 28.5188 1.36283 28.651 1.31605 28.7769H1.99436L2.05829 28.7612L2.31246 28.9075C2.20586 29.1573 2.084 29.4002 1.94758 29.6348H2.67111V30.0613C2.91778 29.9734 3.13628 29.8197 3.30346 29.6166C3.47064 29.4134 3.58027 29.1684 3.62075 28.9075H2.84108V28.577H5.33601C5.33601 28.577 5.33601 28.6762 5.33601 28.725C5.28923 29.5923 5.24402 29.9291 5.11615 30.055C5.07641 30.0981 5.02805 30.1322 4.97429 30.155C4.92053 30.1778 4.86258 30.1888 4.80428 30.1873C4.68265 30.1983 4.44563 30.1873 4.20862 30.1873C4.19551 30.0731 4.16224 29.9622 4.11038 29.8599C4.33492 29.8819 4.55011 29.8819 4.6312 29.8819C4.71228 29.8819 4.75282 29.8819 4.78713 29.8347C4.85106 29.7654 4.90252 29.5199 4.94306 28.9123L4.00746 28.906ZM1.18039 29.0854C1.09662 29.2747 0.999702 29.4577 0.890351 29.6332H1.55775C1.65387 29.4562 1.73877 29.2733 1.81192 29.0854H1.18039ZM0.943368 31.0231C0.943368 31.149 0.943367 31.2907 0.930893 31.4323H1.46419V30.8169H0.943368V31.0231ZM0.943368 30.5225H1.46419V29.9433H0.943368V30.5225ZM1.77761 30.5225H2.29843V29.9433H1.77761V30.5225ZM2.29843 31.4323V30.8169H1.77761V31.4323H2.29843ZM5.49039 32.1013H4.3895V33.0851H3.97783V32.1013H2.76155V31.7645H3.97783V31.1175H3.33539C3.2548 31.3001 3.15382 31.4728 3.03444 31.6322C2.92654 31.5718 2.8145 31.5192 2.69918 31.4748C2.96356 31.1282 3.14549 30.7248 3.23091 30.2959L3.5958 30.3635C3.56149 30.5068 3.52095 30.6485 3.47417 30.7854H3.97783V30.2486H4.3895V30.7854H5.39215V31.1222H4.3895V31.7692H5.49039V32.1013Z" fill="#3CB4E5"/>
<path d="M12.6652 30.907C12.3814 31.4374 12.0102 32.0639 11.6968 32.533L11.3257 32.2796C11.6978 31.7601 12.0364 31.217 12.3393 30.6536L12.6652 30.907ZM12.2878 29.7532C12.0284 29.4338 11.7261 29.1524 11.3896 28.9174L11.6859 28.6639C12.0249 28.8924 12.3327 29.165 12.6012 29.4746L12.2878 29.7532ZM15.1258 31.4532C15.5385 31.9688 16.0665 32.3783 16.6664 32.6479C16.5514 32.7374 16.45 32.8435 16.3655 32.9627C15.7705 32.6372 15.2528 32.1849 14.8482 31.6373V33.1107H14.4256V31.6106C13.9625 32.2038 13.3615 32.6725 12.6761 32.9753C12.5905 32.8609 12.4939 32.7555 12.3876 32.6605C13.0483 32.4049 13.6353 31.9866 14.0951 31.4437H13.0347V29.6178H14.4256V29.1755H12.7338V28.8229H14.4256V28.3066H14.8482V28.8229H16.5448V29.1755H14.8482V29.6178H16.2844V31.4485L15.1258 31.4532ZM13.4292 30.3907H14.4256V29.9185H13.4292V30.3907ZM13.4292 31.1478H14.4256V30.6756H13.4292V31.1478ZM14.8482 29.9216V30.3938H15.8789V29.9216H14.8482ZM15.8789 30.6803H14.8482V31.1525H15.8789V30.6803Z" fill="#3CB4E5"/>
<path d="M27.4722 28.9745C27.2169 29.4859 26.8455 29.9292 26.3884 30.2684C26.8342 30.5338 27.3198 30.7242 27.8262 30.8319C27.7576 30.9435 27.7051 31.0643 27.6702 31.1908C27.1076 31.044 26.5717 30.8075 26.0828 30.4903C25.5496 30.8237 24.972 31.0786 24.3675 31.2475C24.3086 31.1234 24.2324 31.0084 24.1414 30.9059H24.1711C24.0775 30.7485 23.9153 30.4951 23.7719 30.2763V33.1096H23.3602V30.5061C23.2003 31.0464 22.9601 31.5591 22.6476 32.0266C22.5907 31.8931 22.5168 31.7677 22.4277 31.6536C22.7801 31.2223 23.1279 30.3943 23.2963 29.6844H22.5494V29.3161H23.3602V28.3056H23.7719V29.3161H24.3956V29.6844H23.7719V29.8041C23.9153 29.9615 24.3613 30.5203 24.4658 30.6572L24.2693 30.8728C24.7897 30.7357 25.2887 30.5264 25.7522 30.2511C25.5021 30.0526 25.2815 29.8188 25.0973 29.5569C24.9564 29.7389 24.7998 29.908 24.6295 30.0622C24.5508 29.9532 24.4615 29.8525 24.3629 29.7616C24.8177 29.3619 25.1716 28.8584 25.3951 28.293L25.7741 28.3874C25.7101 28.5448 25.6353 28.6912 25.5589 28.8392H27.1307L27.2055 28.8234L27.4722 28.9745ZM24.7558 31.1908H27.2929V33.0954H26.8656V32.8373H25.1675V33.1096H24.7558V31.1908ZM25.1675 31.5371V32.4815H26.8656V31.5371H25.1675ZM25.3234 29.2421C25.5171 29.5565 25.7691 29.8302 26.0657 30.048C26.3912 29.8155 26.6719 29.5248 26.8937 29.1902H25.353L25.3234 29.2421Z" fill="#3CB4E5"/>
<path d="M35.5094 28.6592C35.3363 29.0858 35.1273 29.6037 34.9308 30.0176C35.3534 30.4489 35.4517 30.833 35.4517 31.1541C35.4517 31.439 35.383 31.6641 35.2256 31.7696C35.1338 31.825 35.031 31.8594 34.9246 31.8703C34.7953 31.8775 34.6657 31.8775 34.5363 31.8703C34.5296 31.7474 34.4921 31.6282 34.4272 31.524C34.5387 31.534 34.6509 31.534 34.7624 31.524C34.8255 31.5263 34.8878 31.5099 34.9418 31.4768C34.9887 31.429 35.0242 31.3709 35.0453 31.307C35.0664 31.2431 35.0726 31.1752 35.0634 31.1085C35.0634 30.8298 34.9589 30.4662 34.5426 30.0507C34.711 29.6713 34.8841 29.218 34.9995 28.8654H34.2463V33.0918H33.8643V28.5223H35.1616L35.2318 28.5018L35.5094 28.6592ZM38.4238 31.2438C38.2341 31.6968 37.9128 32.081 37.5022 32.3457C37.9802 32.5551 38.4853 32.6951 39.0023 32.7612C38.9082 32.8578 38.8284 32.9676 38.7652 33.087C38.1991 32.9969 37.6501 32.8196 37.1373 32.5613C36.5834 32.8369 35.9923 33.0283 35.383 33.1295C35.3218 33.0117 35.2411 32.9053 35.1445 32.8147C35.7018 32.7301 36.2455 32.5713 36.7615 32.3425C36.5498 32.1997 36.3533 32.0352 36.1752 31.8514C36.0235 31.983 35.8607 32.101 35.6887 32.204C35.599 32.1037 35.5004 32.012 35.394 31.9301C35.5874 31.8283 35.7698 31.7065 35.9382 31.5665C35.8687 31.4654 35.8052 31.3603 35.7479 31.2517L36.0426 31.0785C36.0797 31.1672 36.1285 31.2503 36.1877 31.3257C36.378 31.1268 36.5312 30.8948 36.6399 30.641L37.0328 30.7212C36.9685 30.8671 36.8929 31.0076 36.8067 31.1415H38.0651L38.14 31.1258L38.4238 31.2438ZM36.9408 29.1393H35.7994V28.8119H36.9408V28.3066H37.3572V28.8119H38.5734V29.1393H37.3572V29.6603H38.9165V29.9909H37.8608V30.3545C37.8608 30.4757 37.8795 30.5119 37.9778 30.5119H38.5158C38.6201 30.5132 38.7243 30.5063 38.8276 30.4914C38.8276 30.5811 38.851 30.7181 38.8619 30.8062C38.7536 30.8278 38.6432 30.8368 38.5329 30.833H37.9528C37.5708 30.833 37.485 30.7008 37.485 30.3608V30.0019H36.7506C36.6461 30.5229 36.3904 30.8755 35.7012 31.0864C35.6379 30.9838 35.5596 30.8914 35.4688 30.8125C36.066 30.6551 36.2812 30.3923 36.3623 30.0019H35.4423V29.6713H36.9486L36.9408 29.1393ZM36.5635 31.4642C36.5182 31.5177 36.4715 31.5697 36.4247 31.6216C36.6266 31.8368 36.8614 32.018 37.1202 32.1583C37.413 31.9886 37.6628 31.7526 37.8499 31.4689L36.5635 31.4642Z" fill="#3CB4E5"/>
<path d="M46.0785 28.9394H44.9199V28.6073H46.0785V28.3066H46.5011V28.6073H47.301V28.9394H46.5011V29.207H46.0785V28.9394ZM45.5795 30.5135V33.1107H45.1741V29.3077H47.1373V30.5072L45.5795 30.5135ZM45.5795 29.569V29.8051H46.7553V29.5675L45.5795 29.569ZM46.7553 30.2632V30.0271H45.578V30.2632H46.7553ZM48.5625 32.884C48.3941 32.7581 47.8967 32.4527 47.5957 32.2843V33.0319H47.248V32.3C46.8838 32.5668 46.4787 32.7715 46.0489 32.906C45.9822 32.8124 45.9024 32.7292 45.8119 32.6589C46.2344 32.563 46.6378 32.3954 47.0048 32.1631H46.1705V31.2013H47.248V30.9904H45.9912V30.7496H47.248V30.4662H47.5957V30.7496H48.8993V30.9873H47.5957V31.1982H48.7247V32.1599H47.8218C48.1337 32.3173 48.6155 32.566 48.7574 32.6495L48.5625 32.884ZM46.4715 31.9317H47.2776V31.4264H46.4715V31.9317ZM46.8535 31.4799C46.9432 31.5777 47.0246 31.6831 47.0968 31.7947L46.9065 31.8782C46.8319 31.7597 46.7485 31.6471 46.657 31.5413L46.8535 31.4799ZM50.0002 28.6167V28.9489H48.8354V29.2212H48.4128V28.9394H47.5552V28.6073H48.4128V28.3066H48.8354V28.6073L50.0002 28.6167ZM48.4128 31.4264H47.5724V31.9317H48.4128V31.4264ZM49.7383 32.6683C49.7383 32.8635 49.6868 32.958 49.548 33.0162C49.4092 33.0744 49.1878 33.0792 48.8588 33.0792C48.8305 32.9644 48.7853 32.8546 48.7247 32.7533C48.957 32.7533 49.1707 32.7533 49.2408 32.7533C49.311 32.7533 49.3282 32.7313 49.3282 32.6683V30.5072H47.694V29.3077H49.7383V32.6683ZM47.747 31.8262C47.8404 31.716 47.9273 31.6004 48.0074 31.4799L48.221 31.5697C48.1244 31.6886 48.0202 31.8012 47.9092 31.9065L47.747 31.8262ZM48.0885 29.569V29.8051H49.3282V29.5675L48.0885 29.569ZM49.3282 30.2632V30.0271H48.0885V30.2632H49.3282Z" fill="#3CB4E5"/>
</svg>
