<svg width="120" height="36" viewBox="0 0 120 36" fill="none" xmlns="http://www.w3.org/2000/svg">
<rect width="120" height="36" fill="#F1F1F1"/>
<path d="M73.1857 17.3855C73.0507 17.3199 70.4744 17.7988 69.7918 17.8431C67.9644 17.9314 66.1484 17.5106 64.5462 16.6274C63.3692 15.9555 62.3428 15.049 61.5306 13.9641C61.3353 13.7292 61.0257 13.5454 60.8701 13.2777C60.6024 12.8102 60.6535 11.956 60.2943 11.5625L60.0441 11.4099L59.6323 11.3771L59.5049 11.4534C58.8185 11.8073 58.534 12.9071 58.0558 13.4699C56.8489 14.805 55.4903 15.9947 54.0076 17.0148C53.0235 17.6609 51.8776 18.0174 50.7006 18.0437C50.1847 18.1543 49.6556 18.1903 49.1295 18.1504C48.4556 17.9425 47.8159 17.6365 47.2312 17.2421C47.0787 17.1155 47.0192 16.9004 46.8545 16.7845C46.7292 16.7123 46.5872 16.6742 46.4426 16.6742C46.298 16.6742 46.156 16.7123 46.0308 16.7845C45.8235 16.9659 45.6547 17.187 45.5342 17.4347C45.4137 17.6824 45.3439 17.9517 45.3291 18.2267C45.299 18.7819 45.3685 19.338 45.5343 19.8687C45.541 20.1713 45.6111 20.469 45.7402 20.7428C46.5608 21.8555 48.8016 21.1325 50.0394 20.8953C50.3193 20.8358 50.8272 20.6131 51.1963 20.7809C51.6036 20.9655 51.2543 22.0157 51.1552 22.265C50.947 22.8027 50.857 24.0749 51.3954 24.3441L51.7935 24.4295C53.0222 24.7872 54.2653 24.3182 55.5367 24.1717C57.4571 24.0232 59.3842 23.9796 61.3094 24.0413C62.5464 24.174 63.5875 24.2251 64.7971 24.4303C65.6552 24.6828 66.5577 24.7468 67.4428 24.6179C68.7279 24.2244 67.4695 22.0179 68.0674 21.1149L68.104 21.0806C68.5121 20.7855 68.8667 21.1302 69.3861 21.1149C70.1693 21.1046 70.9424 20.9359 71.6589 20.6192C72.0059 20.4072 72.3064 19.9061 72.6107 19.6376C72.7792 19.476 73.8424 17.6928 73.1857 17.3855ZM57.8125 16.1713C58.0474 15.9379 58.4837 15.4407 58.8444 15.3682C59.871 15.1676 60.4933 16.2262 60.9555 16.6274L60.8701 16.8562C60.1372 16.9477 57.9155 17.3435 57.2314 17.0087L57.1101 16.7364C57.3054 16.516 57.5959 16.3742 57.8118 16.1721L57.8125 16.1713ZM64.8802 22.1438L64.6331 22.4489C63.9065 22.5973 63.1566 22.5887 62.4336 22.4237C61.4215 22.307 60.8709 22.471 59.6757 22.4237C58.5093 22.3885 57.342 22.4607 56.1888 22.6395C55.577 22.7527 54.9485 22.7387 54.3424 22.5983C53.916 22.4458 54.1273 21.6572 54.3782 21.4597C54.7779 21.1546 56.2849 21.166 56.9827 21.1142C57.869 21.0539 58.8673 21.0043 59.6757 21.0242C61.288 21.0608 63.5654 20.8045 64.6735 21.497C64.7765 21.5651 64.8531 21.6664 64.8906 21.7841C64.9281 21.9017 64.9241 22.0287 64.8795 22.1438H64.8802ZM62.9377 19.479C61.3658 19.5865 59.768 19.4416 58.1016 19.5553C57.1185 19.6247 55.1661 19.9053 54.2981 19.6369H54.2165C53.5454 19.2433 54.562 18.6797 54.8778 18.4875L55.4155 18.2633C55.6664 18.2496 55.8845 18.6538 56.0782 18.6835C56.8279 18.8155 57.8125 18.5241 58.6385 18.6073C58.8627 18.6309 61.7655 18.3457 61.7807 18.3426C62.0202 18.2465 62.249 17.8484 62.4847 17.8088C63.4244 18.1116 64.2699 18.6523 64.9389 19.3783C65.0465 19.7963 63.6615 19.4287 62.9377 19.4798V19.479Z" fill="#CB2529"/>
<path d="M104.787 21.6078C104.34 21.5798 103.891 21.6315 103.463 21.7604C102.561 21.8986 101.644 21.9199 100.737 21.8237C99.0257 21.4854 97.3658 20.9266 95.7985 20.1611C95.4166 19.9491 95.0608 19.6931 94.7384 19.3984L94.7331 19.0254C95.0999 18.3451 96.8686 18.8485 97.6854 18.6677C98.1746 18.5345 98.6715 18.4313 99.1734 18.3589C99.5737 18.3768 99.9746 18.3359 100.363 18.2376C101.255 17.7922 99.9978 16.0205 98.9018 16.3652C98.4442 16.5109 98.146 16.8122 97.7578 16.9281C97.0493 17.1401 95.1106 17.5672 95.8572 16.504C96.0591 16.2249 96.3326 16.0054 96.6489 15.8687C97.1725 15.561 97.7333 15.3216 98.3176 15.1564C98.7496 15.1079 99.1757 15.0169 99.5898 14.8849C100.015 14.5982 100.312 14.1582 100.42 13.657C100.456 13.0362 99.1032 13.1483 98.3924 13.2368C97.52 13.3779 96.6359 13.4328 95.7528 13.4007C94.8887 13.3245 92.9202 12.5763 91.963 12.8066C91.748 12.8569 91.6336 13.1353 91.4833 13.2551C91.3331 13.3748 90.9967 13.49 90.9594 13.702C90.932 14.131 90.9522 14.5617 91.0196 14.9863C91.0677 15.7025 90.774 15.4333 90.2669 15.2609C89.6161 15.1126 88.9428 15.0914 88.2839 15.1984L88.0627 15.2456C87.5136 15.3623 86.9512 15.4033 86.391 15.3677C86.124 15.315 86.0622 14.891 86.0775 14.891C86.1667 14.6294 86.1538 14.1413 86.4238 14.0337C86.5991 13.9961 86.7787 13.983 86.9576 13.9949C88.184 13.9087 89.0786 13.8553 89.5034 13.1231C89.656 12.8653 89.5736 12.3139 89.2784 12.2407C88.3419 11.9944 87.3466 12.8875 86.4566 12.5572C85.7999 12.3109 86.2331 11.4895 86.2834 11.3064C86.5282 10.4286 86.0066 10.2173 85.0815 10.2829C84.3897 10.331 84.4919 10.4614 84.2212 10.842C84.0892 11.0242 83.9451 12.5778 84.0892 12.3139C83.6713 13.0575 82.0026 12.1164 80.873 12.3803C80.5497 12.4565 80.2972 13.0377 80.0814 13.2429C79.8655 13.448 79.5651 13.7394 79.7832 14.094C80.0188 14.4753 80.4078 14.3892 80.9272 14.3037C81.8134 14.1604 84.225 13.8362 84.0968 14.7613C84.0518 15.1053 84.0885 15.4599 83.7086 15.54C82.2032 15.7134 80.6835 15.7265 79.1753 15.5789C78.6156 15.4116 78.0395 15.305 77.457 15.2609C77.1052 15.3071 76.7727 15.449 76.496 15.6712C76.1504 16.0287 75.87 16.444 75.6678 16.8983C75.6297 16.9637 75.609 17.0378 75.6075 17.1134C75.606 17.1891 75.6239 17.2639 75.6594 17.3307C75.6949 17.3975 75.7469 17.4542 75.8104 17.4953C75.874 17.5364 75.9469 17.5606 76.0224 17.5657C76.3611 17.5855 76.6875 17.3369 76.9887 17.2942C78.1655 17.1149 79.7267 16.6657 81.1659 16.9266C81.4427 16.9746 81.6235 17.4749 81.4809 17.7388C81.3978 17.8837 80.9409 17.9676 80.7289 18.0027C79.7656 18.1621 78.4409 17.674 77.7445 18.2117C77.6043 18.3078 77.488 18.4347 77.4046 18.5828C77.3212 18.7309 77.2729 18.8962 77.2633 19.0659L77.2221 19.287C77.2786 19.5059 77.6362 19.5868 77.9741 19.5753C78.5248 19.5486 79.1364 19.3534 79.684 19.2985C80.6084 19.2115 81.397 19.2115 82.3244 19.207C82.7052 19.166 83.0897 19.1742 83.4684 19.2314C83.5407 19.2651 83.603 19.3168 83.6495 19.3816C83.696 19.4463 83.725 19.522 83.7338 19.6013C83.7718 19.7262 83.7802 19.8582 83.7582 19.9869C83.7362 20.1156 83.6845 20.2374 83.6072 20.3426C83.3067 20.6743 80.0043 20.5447 79.2081 20.5981C77.9344 20.6881 77.454 20.3586 76.747 21.029C76.4709 21.2784 76.4587 21.379 76.7088 21.6544C76.8716 21.8889 77.102 22.0682 77.3693 22.1684C78.4744 22.4361 80.3559 21.9396 81.3291 21.8016C81.6342 21.7543 83.431 21.5163 83.6171 21.7947C83.6518 21.8832 83.6662 21.9783 83.6592 22.0731C83.6522 22.1679 83.624 22.2599 83.5767 22.3423C82.9399 23.7639 75.0134 22.5795 76.4671 24.8347C76.6802 25.1722 76.9897 25.4379 77.3556 25.5974C78.6521 26.0031 79.7367 25.287 80.5588 25.0521C82.0712 24.6288 84.0587 24.7356 84.9533 23.8318C85.2442 23.4747 85.41 23.0322 85.4254 22.5719C85.4514 22.2973 85.4513 21.6818 85.4758 21.6712C85.6695 21.6185 85.7419 21.6879 85.9471 21.6841C87.3016 21.675 88.5089 22.1181 89.2037 21.3585L89.4653 21.1052C90.0556 19.7042 86.243 20.862 85.4788 20.3609C85.5627 19.9986 85.4552 19.2931 85.7961 19.1406C86.6411 18.7532 89.1518 19.7599 89.6201 18.773C89.672 18.6877 89.6955 18.5881 89.6871 18.4886C89.6788 18.389 89.639 18.2948 89.5736 18.2193C89.0847 17.584 88.4296 17.8822 87.7668 17.4948C87.7943 17.2263 87.9544 16.7931 88.3282 16.7168C88.8544 16.6116 89.3151 16.7679 89.8245 16.7069C90.112 16.6673 90.5445 16.4377 90.88 16.5109C91.2972 16.5963 91.237 18.5701 91.1851 19.014C90.9884 20.5203 89.7856 24.3092 90.8709 25.4609C91.3766 26.0077 92.8027 25.978 92.5343 24.9705C92.3924 24.4313 92.2048 20.9603 92.7364 20.7354C93.0415 20.6057 93.088 20.6858 93.3366 20.7689C93.8908 21.0828 94.3732 21.5091 94.7529 22.0205C95.5496 22.7451 96.4406 23.3587 97.4017 23.8448C97.6976 23.9592 99.0246 24.9201 99.5372 25.1131C100.07 25.2217 100.624 25.1484 101.11 24.9049C102.161 24.3464 103.132 23.6494 103.998 22.8327C104.227 22.639 104.478 22.4742 104.692 22.2698C104.847 22.1394 105.244 21.7085 104.787 21.6078ZM86.5832 17.1775C86.3739 17.3823 86.1199 17.5356 85.8411 17.6252C84.7917 17.7749 83.728 17.7954 82.6737 17.6862C82.3526 17.552 82.6958 17.0623 82.8422 16.9525C83.3338 16.712 83.8762 16.594 84.4233 16.6085C84.8855 16.5849 85.4147 16.6085 85.8769 16.5887C86.5587 16.5612 87.1567 16.5872 86.5824 17.1767L86.5832 17.1775ZM93.1421 17.8189C92.8195 17.8563 92.8241 17.87 92.773 17.6824C92.8053 16.7888 92.9073 15.8991 93.0781 15.0214C93.7004 14.8937 94.3335 14.8251 94.9687 14.8163C95.0924 14.7961 95.2189 14.801 95.3406 14.8308C95.4623 14.8605 95.5768 14.9144 95.6773 14.9894C95.5377 15.6506 95.0069 16.0907 94.807 16.7031C94.7247 16.9487 94.8711 17.179 94.7247 17.3621C94.23 17.6094 93.6941 17.764 93.1437 17.8181L93.1421 17.8189Z" fill="#CB2529"/>
<path d="M38.9058 20.0844C38.9302 19.7335 38.9058 19.3827 39.0378 19.2576C39.294 19.0029 39.8249 19.1958 40.4495 19.2843C40.7812 19.3278 41.0253 19.6008 41.4943 19.5131C42.7322 19.3011 40.3503 16.708 40.2695 16.1055C40.1391 15.0698 41.8818 15.8424 42.0595 15.1461C42.3157 14.1447 41.3548 13.7046 41.0116 13.2203C40.5425 12.5392 39.6296 9.92099 38.6168 10.0018C38.4151 10.0491 38.2234 10.132 38.0509 10.2466C37.3318 10.7091 36.71 11.3076 36.2205 12.0084C36.0351 12.2372 35.7247 12.3898 35.5287 12.6186C35.2603 12.9236 34.4861 14.3895 34.1765 14.4658H33.8257C33.0744 14.3193 32.3423 10.7843 31.0801 10.5715C30.8133 10.5314 30.5406 10.5726 30.2976 10.6898C29.2878 11.1863 28.5114 12.4195 27.5946 13.0937C27.407 13.2363 27.2766 13.4476 27.0249 13.5391C26.6943 13.666 26.3366 13.7056 25.9862 13.6543L25.8962 13.4575L25.9396 13.3812C25.9396 12.7002 25.9442 12.1198 25.5057 11.8559C24.8772 11.486 23.8911 11.7613 23.1078 11.8223C22.7853 11.8021 22.4648 11.7569 22.1492 11.6873C21.6191 11.6523 21.0631 11.8254 20.4492 11.7682C19.6346 11.6919 18.6508 11.6713 17.7935 11.6073C17.4947 11.5391 17.1837 11.5439 16.8871 11.6215C16.5905 11.699 16.317 11.8469 16.0897 12.0527C15.9184 12.2153 15.7591 12.3901 15.6131 12.5759C15.353 12.9549 15.594 14.7159 15.6542 15.2223C15.6799 16.1093 15.6217 16.9966 15.4804 17.8726C15.3681 18.4286 15.2229 18.9774 15.0456 19.5162C14.9717 19.939 14.9878 20.3728 15.0929 20.789C15.198 21.2052 15.3898 21.5945 15.6558 21.9316L15.8769 22.0925C16.0892 22.1491 16.3109 22.1618 16.5283 22.1298C17.0225 22.0742 24.0375 20.5801 22.7143 22.1298C22.5181 22.3373 22.2817 22.5026 22.0195 22.6157C21.4777 22.7537 20.9226 22.8333 20.3637 22.8529C19.2342 23.0367 17.4191 22.9497 16.619 23.4569L16.5283 23.4966C16.2406 23.6604 15.9886 23.88 15.7869 24.1425C15.6085 24.3919 15.3217 25.9241 15.7869 26.0668C16.0367 26.0931 16.2891 26.0672 16.5283 25.9905C17.7557 25.8359 18.9659 25.567 20.1433 25.1874C21.1815 25.0212 22.2034 24.7661 23.1978 24.4247C23.8062 24.0754 24.3276 23.5931 24.7232 23.0138C25.1585 22.4118 25.4696 21.7292 25.6384 21.0057C25.6765 20.7311 25.5553 20.3887 25.6384 20.1263L25.7284 20.0012C26.0223 19.8997 26.3369 19.8735 26.6436 19.925C28.67 20.1614 26.8419 21.2215 26.4239 21.6524L26.2073 21.9781C25.7284 22.9512 26.9654 24.485 27.6435 23.8192C28.1384 23.3326 27.8387 22.2404 27.7739 21.4549L27.8135 21.1735C27.8345 20.7829 27.8793 20.394 27.9478 20.0089C28.0835 19.5619 29.3564 19.6275 29.7347 19.6504C30.2767 19.6236 30.8197 19.6768 31.3462 19.8083C31.845 20.0264 30.8459 21.2909 30.6499 21.6562C30.412 22.1016 29.9902 22.8254 30.3448 23.4653C30.8078 24.3042 31.7764 23.7498 31.9152 23.0214C31.9318 22.2851 31.902 21.5484 31.8259 20.8158C31.803 20.5273 31.8815 20.2399 32.0479 20.0032C32.2143 19.7664 32.4581 19.5953 32.7373 19.5192C33.3316 19.412 33.9416 19.4292 34.5289 19.5696C35.4479 19.7648 34.2566 20.9561 34.1811 21.2589C33.9537 22.1764 33.8792 23.1252 33.9607 24.067C34.0235 24.1762 34.1078 24.2716 34.2085 24.3474C34.3091 24.4232 34.424 24.4779 34.5463 24.5082C34.6687 24.5384 34.7958 24.5437 34.9202 24.5236C35.0446 24.5035 35.1636 24.4584 35.2702 24.3912C36.0168 23.8848 35.4525 21.1788 35.3152 20.3719C35.2702 20.1324 34.972 19.6092 35.184 19.2912C35.3365 19.0319 36.7284 19.1692 37.1463 19.1692C36.6887 19.1806 37.774 19.1554 37.8831 19.1692C38.9371 19.2782 38.3277 20.5496 38.1012 21.0911C37.8061 21.808 37.2676 24.6429 38.4063 24.8678C38.6262 24.8818 38.8469 24.856 39.0576 24.7916C39.4601 24.7702 39.8443 24.6166 40.1505 24.3546C40.9132 23.7551 41.1771 22.6683 41.9375 22.0604C42.1993 21.9021 42.4419 21.714 42.6605 21.4999C43.2218 20.4421 38.7922 21.8179 38.9058 20.0844ZM22.9744 19.7221C22.4077 20.0493 19.9923 19.7221 19.0542 19.8441C18.7553 19.8784 18.2969 20.1637 17.8744 20.0462C17.506 19.9334 17.6578 19.0548 17.9232 18.9198C18.6859 18.6952 19.4779 18.586 20.273 18.5956C20.9762 18.5377 22.7463 18.6841 23.0232 19.0372C23.1635 19.2248 23.2192 19.5795 22.9744 19.7221ZM22.8432 17.5958C22.4106 17.6483 21.9732 17.6483 21.5405 17.5958C20.3771 17.5226 19.2093 17.5624 18.0536 17.7147C17.9072 17.5195 17.869 17.4897 17.9682 17.235C18.1093 16.8537 18.3434 16.7972 18.7995 16.7111C19.4306 16.5851 20.0698 16.5033 20.7123 16.4662C21.2515 16.4533 22.9149 16.6112 23.1094 16.8735C23.1509 16.9361 23.177 17.0076 23.1857 17.0822C23.1944 17.1567 23.1854 17.2323 23.1594 17.3028C23.1334 17.3732 23.0911 17.4365 23.036 17.4876C22.981 17.5386 22.9146 17.5759 22.8424 17.5965L22.8432 17.5958ZM23.3694 14.9455L23.1078 15.2643C22.3047 15.5152 21.1943 15.1361 20.3172 15.2223C19.7523 15.3873 19.1611 15.4429 18.5753 15.3863C18.319 15.31 18.319 14.9096 18.3549 14.6618C18.409 14.3369 18.5074 14.015 18.7972 13.938C20.296 13.9608 21.7923 14.0695 23.2787 14.2636C23.5227 14.3628 23.4571 14.738 23.3687 14.9462L23.3694 14.9455ZM27.4116 16.9002C27.1866 17.4605 26.753 17.9117 26.202 18.1586C25.2105 18.4721 25.4866 16.6455 25.8092 16.5494C26.1012 16.5153 26.3971 16.5413 26.6787 16.6256C26.9458 16.6295 27.2053 16.7158 27.4215 16.8727L27.4116 16.9002ZM29.7759 18.2387C29.0895 18.315 28.7081 18.3081 28.596 18.0724C28.3802 17.6087 29.152 16.6424 29.6889 16.589C31.0793 16.4472 31.8008 18 29.7728 18.2387H29.7759ZM28.6837 14.9462C28.339 14.8044 28.6349 14.4238 28.773 14.2644C28.9255 14.0722 29.1246 13.9136 29.2916 13.7405C29.5171 13.5046 29.8048 13.3374 30.1214 13.2584C30.579 13.1982 31.3569 13.9967 31.2555 14.4238C31.1876 14.7121 29.1772 15.1377 28.6837 14.9462ZM34.48 17.3105C34.2337 17.595 33.966 18.3828 33.5176 18.4355L33.3925 18.3943C33.2232 18.3704 33.0683 18.2861 32.9562 18.1571C32.7551 17.8006 32.5937 17.4231 32.475 17.0314C32.3377 16.7431 31.7626 16.4716 31.8214 16.0628C31.8976 15.5808 33.0981 15.5808 33.6518 15.5419C34.1721 15.5284 34.6904 15.6106 35.1809 15.7844C35.5554 15.8889 35.8254 15.8828 35.7911 16.1947C35.7568 16.5067 34.7294 17.026 34.4778 17.3113L34.48 17.3105ZM37.6215 12.4485C38.3727 12.312 39.2849 13.1242 39.1468 13.6947C39.0774 13.9685 38.2614 14.1912 37.9708 14.2636C37.2707 14.4261 36.7841 14.359 36.6216 14.1813C36.2106 13.7267 37.2996 12.5133 37.6192 12.4492L37.6215 12.4485ZM38.6892 17.4158C38.6374 17.6095 38.3506 17.7109 37.9266 17.7552C37.1395 17.8314 36.7063 17.8101 36.6102 17.5592C36.4119 17.068 37.2485 16.088 37.4491 16.0636C37.8175 16.0163 38.8242 16.9002 38.6862 17.4173L38.6892 17.4158Z" fill="#CB2529"/>
</svg>
