<svg width="530" height="419" viewBox="0 0 530 419" fill="none" xmlns="http://www.w3.org/2000/svg">
<rect width="530" height="419" fill="#FAFAFA"/>
<path d="M21.3467 298.512H529.999" stroke="#C7C7C7"/>
<path d="M205.007 338.42L132.868 361.88L433.938 362.419L354.806 354.6L281.931 330.061L205.007 338.42Z" fill="#BBC6DA"/>
<path d="M134.73 353.046L58.8887 357.296V361.611H132.868L207.215 337.342L282.298 329.522L354.805 354.6L427.312 361.611H499.083V360.263L427.312 354.6L354.805 301.295L275.261 231.699L207.215 256.682L134.73 353.046Z" fill="#7791B6"/>
<path d="M21.3467 107.597H529.999" stroke="#C7C7C7"/>
<path d="M21.3467 234.874H529.999" stroke="#C7C7C7"/>
<path d="M21.3467 171.235H529.999" stroke="#C7C7C7"/>
<path d="M21.3467 362.151H529.999" stroke="#C7C7C7"/>
<path d="M488.589 376.01V377.165H502.044V376.01H488.589ZM494.679 370.415V384.2H495.879V370.415H494.679ZM506.559 371.195V372.29H514.389V371.195H506.559ZM506.559 374.81V375.89H514.449V374.81H506.559ZM506.439 378.44V379.52H514.374V378.44H506.439ZM505.869 371.195V375.83C505.869 378.245 505.614 381.29 503.199 383.405C503.439 383.57 503.889 383.975 504.054 384.215C506.634 381.965 507.009 378.425 507.009 375.83V371.195H505.869ZM513.894 371.195V382.535C513.894 382.865 513.774 382.97 513.429 382.985C513.084 382.985 511.854 383 510.609 382.955C510.804 383.27 511.014 383.81 511.089 384.14C512.709 384.14 513.699 384.125 514.284 383.93C514.854 383.735 515.064 383.345 515.064 382.55V371.195H513.894Z" fill="#404040"/>
<path d="M132.132 339.77L59.625 355.679V357.567L134.731 351.707L206.111 256.236L277.046 234.376L356.01 309.325L427.313 355.14L499.819 359.994V359.185L430.257 351.634L353.78 268.727L280.826 133.484L206.111 224.897L132.132 339.77Z" fill="#DCB7B7"/>
<path d="M59.2568 361.072H133.972L205.743 337.612L281.93 329.522L355.542 354.87L428.417 361.072H499.819" stroke="#DDE2EC" stroke-width="3" stroke-linecap="round"/>
<path d="M12.9465 368.377C15.0165 368.377 16.3515 366.472 16.3515 362.632C16.3515 358.822 15.0165 356.977 12.9465 356.977C10.8465 356.977 9.51147 358.822 9.51147 362.632C9.51147 366.472 10.8465 368.377 12.9465 368.377ZM12.9465 367.267C11.6865 367.267 10.8315 365.872 10.8315 362.632C10.8315 359.437 11.6865 358.072 12.9465 358.072C14.1915 358.072 15.0315 359.437 15.0315 362.632C15.0315 365.872 14.1915 367.267 12.9465 367.267Z" fill="#404040"/>
<path d="M4.97115 177.461C6.66615 177.461 8.12115 176.021 8.12115 173.891C8.12115 171.581 6.92115 170.441 5.06115 170.441C4.17615 170.441 3.15615 170.981 2.48115 171.866L2.52615 172.961C3.26115 171.866 4.14615 171.446 4.85115 171.446C6.17115 171.446 6.83115 172.391 6.83115 173.891C6.83115 175.376 6.02115 176.381 4.97115 176.381C3.42615 176.381 2.57115 174.836 2.57115 172.016C2.57115 168.416 3.86115 167.201 5.40615 167.201C6.06615 167.201 6.74115 167.516 7.16115 168.026L7.92615 167.186C7.32615 166.541 6.48615 166.061 5.34615 166.061C3.21615 166.061 1.28115 167.711 1.28115 172.016C1.28115 175.646 2.85615 177.461 4.97115 177.461ZM12.9465 177.461C15.0165 177.461 16.3515 175.556 16.3515 171.716C16.3515 167.906 15.0165 166.061 12.9465 166.061C10.8465 166.061 9.51147 167.906 9.51147 171.716C9.51147 175.556 10.8465 177.461 12.9465 177.461ZM12.9465 176.351C11.6865 176.351 10.8315 174.956 10.8315 171.716C10.8315 168.521 11.6865 167.156 12.9465 167.156C14.1915 167.156 15.0315 168.521 15.0315 171.716C15.0315 174.956 14.1915 176.351 12.9465 176.351Z" fill="#404040"/>
<path d="M5.54115 240.89H6.83115V229.895H5.31615L0.741154 236.96V237.86H8.30115V236.78H2.18115L4.68615 233.03C4.98615 232.49 5.28615 231.935 5.55615 231.395H5.63115C5.58615 231.965 5.54115 232.85 5.54115 233.405V240.89ZM12.9465 241.1C15.0165 241.1 16.3515 239.195 16.3515 235.355C16.3515 231.545 15.0165 229.7 12.9465 229.7C10.8465 229.7 9.51147 231.545 9.51147 235.355C9.51147 239.195 10.8465 241.1 12.9465 241.1ZM12.9465 239.99C11.6865 239.99 10.8315 238.595 10.8315 235.355C10.8315 232.16 11.6865 230.795 12.9465 230.795C14.1915 230.795 15.0315 232.16 15.0315 235.355C15.0315 238.595 14.1915 239.99 12.9465 239.99Z" fill="#404040"/>
<path d="M1.11615 304.528H8.01615V303.358H4.97115C4.41615 303.358 3.75615 303.403 3.17115 303.463C5.76615 301.018 7.49115 298.783 7.49115 296.578C7.49115 294.613 6.26115 293.338 4.29615 293.338C2.90115 293.338 1.94115 293.983 1.04115 294.958L1.83615 295.723C2.45115 295.003 3.23115 294.448 4.13115 294.448C5.49615 294.448 6.14115 295.378 6.14115 296.638C6.14115 298.513 4.56615 300.718 1.11615 303.733V304.528ZM12.9465 304.738C15.0165 304.738 16.3515 302.833 16.3515 298.993C16.3515 295.183 15.0165 293.338 12.9465 293.338C10.8465 293.338 9.51147 295.183 9.51147 298.993C9.51147 302.833 10.8465 304.738 12.9465 304.738ZM12.9465 303.628C11.6865 303.628 10.8315 302.233 10.8315 298.993C10.8315 295.798 11.6865 294.433 12.9465 294.433C14.1915 294.433 15.0315 295.798 15.0315 298.993C15.0315 302.233 14.1915 303.628 12.9465 303.628Z" fill="#404040"/>
<path d="M4.64115 113.824C6.69615 113.824 8.09115 112.579 8.09115 110.974C8.09115 109.474 7.19115 108.634 6.23115 108.079V108.004C6.89115 107.494 7.70115 106.519 7.70115 105.349C7.70115 103.669 6.56115 102.469 4.68615 102.469C2.96115 102.469 1.65615 103.579 1.65615 105.244C1.65615 106.399 2.34615 107.239 3.15615 107.794V107.854C2.15115 108.394 1.13115 109.414 1.13115 110.899C1.13115 112.594 2.61615 113.824 4.64115 113.824ZM5.39115 107.659C4.10115 107.149 2.91615 106.564 2.91615 105.244C2.91615 104.194 3.65115 103.474 4.65615 103.474C5.84115 103.474 6.53115 104.344 6.53115 105.424C6.53115 106.249 6.14115 106.999 5.39115 107.659ZM4.67115 112.789C3.35115 112.789 2.36115 111.934 2.36115 110.764C2.36115 109.714 2.97615 108.844 3.87615 108.274C5.42115 108.904 6.77115 109.459 6.77115 110.929C6.77115 112.024 5.93115 112.789 4.67115 112.789ZM12.9465 113.824C15.0165 113.824 16.3515 111.919 16.3515 108.079C16.3515 104.269 15.0165 102.424 12.9465 102.424C10.8465 102.424 9.51147 104.269 9.51147 108.079C9.51147 111.919 10.8465 113.824 12.9465 113.824ZM12.9465 112.714C11.6865 112.714 10.8315 111.319 10.8315 108.079C10.8315 104.884 11.6865 103.519 12.9465 103.519C14.1915 103.519 15.0315 104.884 15.0315 108.079C15.0315 111.319 14.1915 112.714 12.9465 112.714Z" fill="#404040"/>
<path d="M244.583 221.7H253.503V219.32H250.723V206.9H248.543C247.583 207.48 246.583 207.86 245.083 208.14V209.96H247.783V219.32H244.583V221.7ZM260.28 221.98C263 221.98 265.46 220.08 265.46 216.8C265.46 213.56 263.38 212.1 260.9 212.1C260.22 212.1 259.7 212.24 259.12 212.5L259.4 209.36H264.78V206.9H256.86L256.44 214.08L257.8 214.96C258.66 214.4 259.14 214.18 260.02 214.18C261.5 214.18 262.5 215.14 262.5 216.86C262.5 218.62 261.44 219.6 259.88 219.6C258.52 219.6 257.46 218.92 256.64 218.1L255.26 219.96C256.38 221.06 257.94 221.98 260.28 221.98ZM273.277 221.7H276.017V206.9H272.477L266.977 215.86V217.88H277.777V215.62H269.837L272.117 211.94C272.537 211.14 272.937 210.32 273.317 209.52H273.397C273.357 210.4 273.277 211.74 273.277 212.6V221.7ZM281.594 221.98C282.634 221.98 283.434 221.16 283.434 220.06C283.434 218.96 282.634 218.16 281.594 218.16C280.534 218.16 279.774 218.96 279.774 220.06C279.774 221.16 280.534 221.98 281.594 221.98ZM291.578 221.7H294.318V206.9H290.778L285.278 215.86V217.88H296.078V215.62H288.138L290.418 211.94C290.838 211.14 291.238 210.32 291.618 209.52H291.698C291.658 210.4 291.578 211.74 291.578 212.6V221.7ZM303.375 221.7H306.115V206.9H302.575L297.075 215.86V217.88H307.875V215.62H299.935L302.215 211.94C302.635 211.14 303.035 210.32 303.415 209.52H303.495C303.455 210.4 303.375 211.74 303.375 212.6V221.7Z" fill="white"/>
<path d="M262.978 304.804C265.25 304.804 267.362 302.932 267.362 298.292C267.362 294.404 265.538 292.596 263.282 292.596C261.362 292.596 259.762 294.116 259.762 296.468C259.762 298.932 261.09 300.164 263.058 300.164C264.002 300.164 265.058 299.588 265.746 298.676L265.65 297.332C264.962 298.404 264.13 298.82 263.394 298.82C262.162 298.82 261.474 297.956 261.474 296.468C261.474 294.916 262.274 294.004 263.298 294.004C264.738 294.004 265.65 295.348 265.65 298.292C265.65 302.036 264.386 303.284 262.898 303.284C262.162 303.284 261.442 302.932 260.962 302.404L259.97 303.54C260.642 304.244 261.618 304.804 262.978 304.804ZM268.903 304.58H276.519V303.012H273.575C272.999 303.012 272.247 303.076 271.639 303.14C274.135 300.74 275.959 298.388 275.959 296.132C275.959 293.988 274.567 292.596 272.407 292.596C270.871 292.596 269.831 293.252 268.807 294.356L269.863 295.364C270.487 294.644 271.255 294.068 272.183 294.068C273.495 294.068 274.167 294.948 274.167 296.212C274.167 298.148 272.391 300.436 268.903 303.508V304.58ZM279.724 304.804C280.412 304.804 280.956 304.26 280.956 303.508C280.956 302.74 280.412 302.212 279.724 302.212C279.02 302.212 278.492 302.74 278.492 303.508C278.492 304.26 279.02 304.804 279.724 304.804ZM287.513 304.58H289.241V292.804H287.097L282.425 300.18V301.428H290.745V299.988H284.281L286.585 296.452C286.921 295.844 287.241 295.22 287.529 294.628H287.609C287.561 295.268 287.513 296.276 287.513 296.9V304.58ZM296.638 304.58H298.366V292.804H296.222L291.55 300.18V301.428H299.87V299.988H293.406L295.71 296.452C296.046 295.844 296.366 295.22 296.654 294.628H296.734C296.686 295.268 296.638 296.276 296.638 296.9V304.58Z" fill="white"/>
<path d="M260.45 354.362H267.186V352.842H264.882V342.586H263.49C262.802 343.002 262.034 343.29 260.914 343.482V344.65H263.042V352.842H260.45V354.362ZM272.103 354.586C274.375 354.586 276.487 352.714 276.487 348.074C276.487 344.186 274.663 342.378 272.407 342.378C270.487 342.378 268.887 343.898 268.887 346.25C268.887 348.714 270.215 349.946 272.183 349.946C273.127 349.946 274.183 349.37 274.871 348.458L274.775 347.114C274.087 348.186 273.255 348.602 272.519 348.602C271.287 348.602 270.599 347.738 270.599 346.25C270.599 344.698 271.399 343.786 272.423 343.786C273.863 343.786 274.775 345.13 274.775 348.074C274.775 351.818 273.511 353.066 272.023 353.066C271.287 353.066 270.567 352.714 270.087 352.186L269.095 353.322C269.767 354.026 270.743 354.586 272.103 354.586ZM279.724 354.586C280.412 354.586 280.956 354.042 280.956 353.29C280.956 352.522 280.412 351.994 279.724 351.994C279.02 351.994 278.492 352.522 278.492 353.29C278.492 354.042 279.02 354.586 279.724 354.586ZM286.377 354.586C288.553 354.586 290.329 353.338 290.329 351.21C290.329 349.61 289.257 348.602 287.897 348.25V348.17C289.145 347.706 289.929 346.762 289.929 345.402C289.929 343.466 288.441 342.378 286.329 342.378C284.969 342.378 283.881 342.954 282.937 343.786L283.913 344.954C284.585 344.282 285.353 343.85 286.249 343.85C287.385 343.85 288.057 344.506 288.057 345.546C288.057 346.73 287.289 347.594 284.985 347.594V348.97C287.625 348.97 288.457 349.802 288.457 351.114C288.457 352.33 287.545 353.066 286.233 353.066C285.001 353.066 284.137 352.474 283.449 351.77L282.537 352.954C283.337 353.85 284.537 354.586 286.377 354.586ZM295.518 354.586C297.566 354.586 299.486 353.098 299.486 350.506C299.486 347.914 297.87 346.762 295.902 346.762C295.262 346.762 294.782 346.906 294.286 347.162L294.558 344.154H298.926V342.586H292.942L292.59 348.186L293.502 348.762C294.19 348.314 294.638 348.106 295.374 348.106C296.718 348.106 297.614 349.002 297.614 350.554C297.614 352.122 296.622 353.066 295.294 353.066C294.062 353.066 293.198 352.474 292.542 351.802L291.646 353.002C292.494 353.834 293.662 354.586 295.518 354.586Z" fill="white"/>
<path d="M47.4171 371.72V383.705H48.5421V372.8H58.5621V383.585H59.7321V371.72H47.4171ZM48.0171 381.485V382.58H59.2221V381.485H48.0171ZM51.3621 372.395C51.3171 376.355 51.1221 378.35 48.7221 379.49C48.9621 379.685 49.2921 380.09 49.4121 380.36C52.0971 379.055 52.3971 376.7 52.4721 372.395H51.3621ZM54.5721 372.59V377.495C54.5721 378.665 54.8121 379.145 55.8621 379.145C56.1021 379.145 57.2121 379.145 57.4971 379.145C57.8571 379.145 58.2321 379.145 58.4271 379.085C58.3821 378.8 58.3521 378.425 58.3371 378.125C58.1271 378.17 57.7071 378.185 57.4671 378.185C57.2271 378.185 56.2521 378.185 56.0121 378.185C55.6971 378.185 55.6371 378.02 55.6371 377.525V372.59H54.5721ZM64.8921 371.195V372.29H72.7221V371.195H64.8921ZM64.8921 374.81V375.89H72.7821V374.81H64.8921ZM64.7721 378.44V379.52H72.7071V378.44H64.7721ZM64.2021 371.195V375.83C64.2021 378.245 63.9471 381.29 61.5321 383.405C61.7721 383.57 62.2221 383.975 62.3871 384.215C64.9671 381.965 65.3421 378.425 65.3421 375.83V371.195H64.2021ZM72.2271 371.195V382.535C72.2271 382.865 72.1071 382.97 71.7621 382.985C71.4171 382.985 70.1871 383 68.9421 382.955C69.1371 383.27 69.3471 383.81 69.4221 384.14C71.0421 384.14 72.0321 384.125 72.6171 383.93C73.1871 383.735 73.3971 383.345 73.3971 382.55V371.195H72.2271Z" fill="#404040"/>
<path d="M121.493 371.87V372.98H132.833V371.87H121.493ZM120.548 382.265V383.39H133.898V382.265H120.548ZM125.888 372.26C125.468 375.59 124.688 380.225 124.088 382.91H125.318C125.873 380.3 126.638 375.68 127.133 372.26H125.888ZM122.318 376.235V377.33H130.613V376.235H122.318ZM130.178 376.235V376.385C130.088 377.87 129.833 380.84 129.578 382.925L130.733 383.015C131.003 380.93 131.273 378.14 131.378 376.265L130.508 376.19L130.313 376.235H130.178ZM138.503 371.195V372.29H146.333V371.195H138.503ZM138.503 374.81V375.89H146.393V374.81H138.503ZM138.383 378.44V379.52H146.318V378.44H138.383ZM137.813 371.195V375.83C137.813 378.245 137.558 381.29 135.143 383.405C135.383 383.57 135.833 383.975 135.998 384.215C138.578 381.965 138.953 378.425 138.953 375.83V371.195H137.813ZM145.838 371.195V382.535C145.838 382.865 145.718 382.97 145.373 382.985C145.028 382.985 143.798 383 142.553 382.955C142.748 383.27 142.958 383.81 143.033 384.14C144.653 384.14 145.643 384.125 146.228 383.93C146.798 383.735 147.008 383.345 147.008 382.55V371.195H145.838Z" fill="#404040"/>
<path d="M194.175 374.375V375.53H207.495V374.375H194.175ZM197.94 377.27C196.95 379.46 195.405 381.83 193.965 383.33C194.28 383.525 194.835 383.9 195.09 384.11C196.485 382.49 198.06 380 199.17 377.675L197.94 377.27ZM202.38 377.66C203.79 379.685 205.59 382.43 206.415 384.02L207.57 383.375C206.685 381.785 204.84 379.13 203.43 377.165L202.38 377.66ZM199.41 370.85C199.92 371.885 200.535 373.25 200.805 374.045L202.035 373.565C201.72 372.785 201.075 371.465 200.565 370.475L199.41 370.85ZM212.115 371.195V372.29H219.945V371.195H212.115ZM212.115 374.81V375.89H220.005V374.81H212.115ZM211.995 378.44V379.52H219.93V378.44H211.995ZM211.425 371.195V375.83C211.425 378.245 211.17 381.29 208.755 383.405C208.995 383.57 209.445 383.975 209.61 384.215C212.19 381.965 212.565 378.425 212.565 375.83V371.195H211.425ZM219.45 371.195V382.535C219.45 382.865 219.33 382.97 218.985 382.985C218.64 382.985 217.41 383 216.165 382.955C216.36 383.27 216.57 383.81 216.645 384.14C218.265 384.14 219.255 384.125 219.84 383.93C220.41 383.735 220.62 383.345 220.62 382.55V371.195H219.45Z" fill="#404040"/>
<path d="M267.665 376.385L267.845 377.51L280.91 375.425L280.73 374.285L267.665 376.385ZM271.895 370.73V380.87C271.895 382.685 272.57 383.345 274.325 383.345C274.73 383.345 277.37 383.345 277.985 383.345C278.72 383.345 279.425 383.315 279.725 383.24C279.665 382.97 279.605 382.46 279.56 382.145C279.215 382.22 278.495 382.265 277.985 382.265C277.37 382.265 274.865 382.265 274.265 382.265C273.38 382.265 273.095 381.905 273.095 380.945V370.73H271.895ZM285.725 371.195V372.29H293.555V371.195H285.725ZM285.725 374.81V375.89H293.615V374.81H285.725ZM285.605 378.44V379.52H293.54V378.44H285.605ZM285.035 371.195V375.83C285.035 378.245 284.78 381.29 282.365 383.405C282.605 383.57 283.055 383.975 283.22 384.215C285.8 381.965 286.175 378.425 286.175 375.83V371.195H285.035ZM293.06 371.195V382.535C293.06 382.865 292.94 382.97 292.595 382.985C292.25 382.985 291.02 383 289.775 382.955C289.97 383.27 290.18 383.81 290.255 384.14C291.875 384.14 292.865 384.125 293.45 383.93C294.02 383.735 294.23 383.345 294.23 382.55V371.195H293.06Z" fill="#404040"/>
<path d="M347.786 371.33V372.455H349.841V371.33H347.786ZM345.131 371.615C344.861 375.86 344.216 380.81 341.111 383.48C341.381 383.66 341.816 384.035 342.026 384.26C345.236 381.425 345.971 376.235 346.361 371.705L345.131 371.615ZM348.881 371.33V371.96H349.151C349.766 377.18 350.996 381.815 353.861 384.29C354.131 384.035 354.641 383.69 354.971 383.525C352.106 381.23 350.801 376.565 350.201 371.33H348.881ZM359.336 371.195V372.29H367.166V371.195H359.336ZM359.336 374.81V375.89H367.226V374.81H359.336ZM359.216 378.44V379.52H367.151V378.44H359.216ZM358.646 371.195V375.83C358.646 378.245 358.391 381.29 355.976 383.405C356.216 383.57 356.666 383.975 356.831 384.215C359.411 381.965 359.786 378.425 359.786 375.83V371.195H358.646ZM366.671 371.195V382.535C366.671 382.865 366.551 382.97 366.206 382.985C365.861 382.985 364.631 383 363.386 382.955C363.581 383.27 363.791 383.81 363.866 384.14C365.486 384.14 366.476 384.125 367.061 383.93C367.631 383.735 367.841 383.345 367.841 382.55V371.195H366.671Z" fill="#404040"/>
<path d="M419.448 370.565C419.433 376.01 419.553 380.96 414.648 383.315C414.948 383.525 415.323 383.93 415.488 384.215C420.603 381.605 420.618 376.31 420.663 370.565H419.448ZM415.338 374.255V375.38H424.638V374.255H415.338ZM423.948 374.255V382.25C423.948 383.63 424.323 383.99 425.478 383.99C425.718 383.99 427.023 383.99 427.278 383.99C428.388 383.99 428.688 383.315 428.793 381.215C428.478 381.125 427.998 380.915 427.728 380.705C427.683 382.52 427.608 382.88 427.188 382.88C426.903 382.88 425.853 382.88 425.643 382.88C425.178 382.88 425.103 382.79 425.103 382.25V374.255H423.948ZM432.948 371.195V372.29H440.778V371.195H432.948ZM432.948 374.81V375.89H440.838V374.81H432.948ZM432.828 378.44V379.52H440.763V378.44H432.828ZM432.258 371.195V375.83C432.258 378.245 432.003 381.29 429.588 383.405C429.828 383.57 430.278 383.975 430.443 384.215C433.023 381.965 433.398 378.425 433.398 375.83V371.195H432.258ZM440.283 371.195V382.535C440.283 382.865 440.163 382.97 439.818 382.985C439.473 382.985 438.243 383 436.998 382.955C437.193 383.27 437.403 383.81 437.478 384.14C439.098 384.14 440.088 384.125 440.673 383.93C441.243 383.735 441.453 383.345 441.453 382.55V371.195H440.283Z" fill="#404040"/>
<path d="M3.585 91.955L4.425 91.565C3.135 89.435 2.505 86.9 2.505 84.35C2.505 81.8 3.135 79.265 4.425 77.135L3.585 76.73C2.19 78.98 1.365 81.41 1.365 84.35C1.365 87.305 2.19 89.705 3.585 91.955ZM11.9984 79.88V87.905H13.0784V79.88H11.9984ZM8.74336 82.115H16.3934V83.195H8.74336V82.115ZM8.74336 80.255H16.3934V81.335H8.74336V80.255ZM7.66336 79.445V84.005H17.5184V79.445H7.66336ZM17.4434 84.935V89.045C17.4434 89.21 17.3984 89.255 17.2034 89.27C17.0234 89.285 16.4534 89.285 15.7484 89.27C15.8834 89.54 16.0334 89.915 16.0784 90.185C17.0534 90.185 17.6834 90.185 18.0584 90.035C18.4484 89.855 18.5384 89.585 18.5384 89.06V84.935H17.4434ZM8.72836 87.635L8.80336 88.625C10.5884 88.535 13.1834 88.4 15.6884 88.25L15.7034 87.335C13.1084 87.47 10.4534 87.575 8.72836 87.635ZM14.2784 86.405C14.9384 87.245 15.5834 88.385 15.8084 89.135L16.6934 88.835C16.4684 88.07 15.7934 86.945 15.1334 86.135L14.2784 86.405ZM9.32836 76.4V79.235H10.4234V76.4H9.32836ZM14.6084 76.4V79.235H15.7034V76.4H14.6084ZM5.95336 77.33V78.29H12.2684V77.33H5.95336ZM12.8384 77.33V78.29H19.1384V77.33H12.8384ZM6.08836 84.935V85.88H17.9534V84.935H6.08836ZM6.70336 84.38V90.2H7.78336V84.38H6.70336ZM20.2334 91.685H21.2234L25.7084 77.09H24.7334L20.2334 91.685ZM27.5024 77.42V78.53H39.3224V77.42H27.5024ZM26.7224 83.795V84.92H40.1774V83.795H26.7224ZM28.5524 79.565C29.1224 80.675 29.7074 82.13 29.9174 83.015L30.9974 82.655C30.7874 81.77 30.1724 80.345 29.5574 79.25L28.5524 79.565ZM37.2524 79.19C36.8924 80.27 36.1874 81.815 35.6324 82.76L36.5924 83.075C37.1774 82.175 37.8824 80.735 38.4524 79.52L37.2524 79.19ZM32.8274 77.855V90.2H33.9824V77.855H32.8274ZM41.9624 79.01V80.09H54.9674V79.01H41.9624ZM46.6424 82.505V83.6H52.6424V82.505H46.6424ZM52.3424 82.505V82.7C52.0724 86.735 51.7574 88.4 51.2924 88.835C51.1124 88.97 50.9174 89 50.5874 89C50.1824 89 49.1324 88.985 48.0374 88.895C48.2624 89.195 48.4274 89.66 48.4424 90.005C49.4624 90.065 50.4374 90.08 50.9774 90.05C51.5624 90.005 51.9224 89.9 52.2674 89.525C52.8674 88.925 53.1674 87.29 53.4674 83.045C53.4974 82.88 53.5124 82.505 53.5124 82.505H52.3424ZM46.0724 79.655C45.9074 83.195 45.6524 87.335 41.6324 89.345C41.9174 89.57 42.2774 89.96 42.4574 90.245C46.6874 88.01 47.1074 83.57 47.3024 79.655H46.0724ZM47.5424 76.73C47.9174 77.465 48.3824 78.425 48.5774 79.04L49.7174 78.545C49.4924 77.945 49.0424 77.015 48.6224 76.31L47.5424 76.73ZM65.0924 84.905C66.2774 86.51 67.7324 88.73 68.4224 90.11L69.5474 89.495C68.8274 88.16 67.3874 86.03 66.1574 84.425L65.0924 84.905ZM60.6824 76.85C59.7524 79.13 58.1774 81.35 56.4824 82.745C56.7824 82.955 57.2774 83.42 57.4874 83.66C59.1674 82.115 60.8324 79.7 61.9124 77.225L60.6824 76.85ZM58.3724 89.48C58.3724 89.195 59.2874 88.82 59.2874 88.82V88.79C61.1024 86.915 62.9174 84.23 64.4174 81.545L63.1574 81.005C61.8974 83.57 59.9474 86.27 59.3324 86.96C58.7624 87.665 58.3274 88.16 57.9224 88.265C58.0874 88.595 58.2974 89.225 58.3724 89.48ZM58.3724 89.48C58.9574 89.24 59.8124 89.195 68.2724 88.625C68.1974 88.37 68.0774 87.89 68.0174 87.56L59.1674 88.07L58.3424 88.52L58.3724 89.48ZM65.1524 76.775V77.45H65.4524C66.2474 79.895 67.7924 82.295 69.6074 83.66C69.8174 83.315 70.2224 82.835 70.4924 82.61C68.7224 81.44 67.2074 79.175 66.4874 76.775H65.1524ZM62.8274 76.775V77.93H66.1124V76.775H62.8274ZM74.3624 80.855H82.6724V82.76H74.3624V80.855ZM74.3624 78.02H82.6724V79.895H74.3624V78.02ZM73.2524 77V83.78H83.8424V77H73.2524ZM71.7524 88.73V89.78H85.1474V88.73H71.7524ZM72.7574 85.505V86.57H84.3374V85.505H72.7574ZM77.9474 77.645V83.615H77.8874V89.33H79.0874V83.615H79.0274V77.645H77.9474ZM87.4274 91.955C88.8074 89.705 89.6324 87.305 89.6324 84.35C89.6324 81.41 88.8074 78.98 87.4274 76.73L86.5724 77.135C87.8624 79.265 88.4924 81.8 88.4924 84.35C88.4924 86.9 87.8624 89.435 86.5724 91.565L87.4274 91.955Z" fill="#404040"/>
<path d="M266.204 409.955L267.044 409.565C265.754 407.435 265.124 404.9 265.124 402.35C265.124 399.8 265.754 397.265 267.044 395.135L266.204 394.73C264.809 396.98 263.984 399.41 263.984 402.35C263.984 405.305 264.809 407.705 266.204 409.955ZM271.482 395.195V396.29H279.312V395.195H271.482ZM271.482 398.81V399.89H279.372V398.81H271.482ZM271.362 402.44V403.52H279.297V402.44H271.362ZM270.792 395.195V399.83C270.792 402.245 270.537 405.29 268.122 407.405C268.362 407.57 268.812 407.975 268.977 408.215C271.557 405.965 271.932 402.425 271.932 399.83V395.195H270.792ZM278.817 395.195V406.535C278.817 406.865 278.697 406.97 278.352 406.985C278.007 406.985 276.777 407 275.532 406.955C275.727 407.27 275.937 407.81 276.012 408.14C277.632 408.14 278.622 408.125 279.207 407.93C279.777 407.735 279.987 407.345 279.987 406.55V395.195H278.817ZM286.647 394.46C285.807 396.74 284.412 398.99 282.927 400.445C283.137 400.7 283.452 401.3 283.572 401.555C285.192 399.875 286.737 397.34 287.712 394.79L286.647 394.46ZM285.057 398.33V408.185H286.167V397.25L286.152 397.235L285.057 398.33ZM288.777 400.55V401.615H294.672V400.55H288.777ZM294.297 400.55V400.775C294.102 404.975 293.892 406.505 293.577 406.88C293.427 407.045 293.307 407.06 293.067 407.06C292.812 407.06 292.227 407.06 291.582 407C291.762 407.285 291.852 407.72 291.882 408.035C292.557 408.08 293.202 408.08 293.577 408.035C293.997 408.005 294.267 407.885 294.537 407.57C294.972 407.045 295.167 405.47 295.377 401.06C295.392 400.91 295.392 400.55 295.392 400.55H294.297ZM290.547 401.09C290.307 404.165 289.422 406.19 287.232 407.315C287.472 407.51 287.847 407.945 287.997 408.155C290.307 406.79 291.357 404.615 291.672 401.15L290.547 401.09ZM291.717 394.925V396.005H294.087V394.925H291.717ZM290.082 395.135C289.557 397.1 288.582 398.855 287.277 399.98C287.502 400.205 287.877 400.715 288.012 400.955C289.437 399.65 290.562 397.655 291.192 395.405L290.082 395.135ZM293.052 394.925V395.54H293.322C293.847 397.67 294.942 399.77 296.307 400.985C296.472 400.625 296.817 400.115 297.042 399.845C295.782 398.885 294.747 396.98 294.312 394.925H293.052ZM299.172 409.955C300.552 407.705 301.377 405.305 301.377 402.35C301.377 399.41 300.552 396.98 299.172 394.73L298.317 395.135C299.607 397.265 300.237 399.8 300.237 402.35C300.237 404.9 299.607 407.435 298.317 409.565L299.172 409.955Z" fill="#404040"/>
<path d="M59.625 355.678L132.868 339.769L206.847 224.627L281.563 132.675L351.861 265.075L429.521 351.903L499.819 359.184" stroke="#9B051E" stroke-width="3" stroke-linecap="round"/>
<path d="M59.9932 357.297L134.73 352.153L207.583 255.344L277.045 234.375L355.118 309.325L427.313 355.14L499.083 360.263" stroke="#285F92" stroke-width="3" stroke-linecap="round"/>
<path d="M11.22 10.14V12.18H16.48V10.14H11.22ZM9.14 19.3V26.8H11.36V21.32H15.56V26.74H17.88V19.3H9.14ZM10.04 24.06V26.12H16.82V24.06H10.04ZM11.44 8C10.54 10.36 8.92 12.64 7.1 14.04C7.62 14.4 8.54 15.24 8.94 15.66C10.78 14.02 12.62 11.38 13.72 8.64L11.44 8ZM15.86 10.14V10.52C14.58 14.52 10.9 17.58 6.76 18.86C7.22 19.32 7.82 20.22 8.1 20.8C12.64 19.1 16.54 15.86 18.2 10.74L16.68 10.06L16.28 10.14H15.86ZM11.3 11.52L9.52 12.44C10.94 15.5 13.9 18.8 18.22 20.34C18.54 19.74 19.22 18.8 19.7 18.34C15.46 17.16 12.58 14.2 11.3 11.52ZM0.88 12.14V14.38H8.04V12.14H0.88ZM3.54 8.02V26.8H5.8V8.02H3.54ZM3.48 13.68C2.98 16.24 1.76 19.36 0.4 21.1C0.78 21.68 1.32 22.62 1.52 23.28C3.02 21.22 4.26 17.38 4.86 14.16L3.48 13.68ZM5.72 14.76L4.64 15.76C5.22 16.58 6.4 18.48 6.88 19.46L8.18 17.66C7.82 17.18 6.18 15.2 5.72 14.76ZM31.94 8.02V13.78H34.28V8.02H31.94ZM28.44 9.6V11.52H38.04V9.6H28.44ZM27.18 12.88V14.84H39.22V12.88H27.18ZM29.98 14.52C29.76 15.78 29.2 16.66 27.08 17.2C27.52 17.58 28.08 18.38 28.3 18.9C30.98 17.98 31.76 16.54 32.08 14.52H29.98ZM33.98 14.16V15.48C33.98 17.24 34.38 17.92 36.24 17.92C36.54 17.92 37.44 17.92 37.76 17.92C38.22 17.92 38.72 17.9 39.02 17.78C38.96 17.28 38.9 16.5 38.86 15.96C38.58 16.04 38.02 16.08 37.7 16.08C37.44 16.08 36.64 16.08 36.4 16.08C36.12 16.08 36.06 15.92 36.06 15.5V14.16H33.98ZM31.2 17.04C30.44 19.08 28.86 20.78 26.94 21.82C27.4 22.18 28.2 23.02 28.52 23.44C30.56 22.14 32.38 20.06 33.36 17.54L31.2 17.04ZM30.8 18.84V20.76H36.22V18.84H30.8ZM35.62 18.84V19.24C34.72 22.06 31.48 24.08 26.02 25C26.52 25.5 27.1 26.34 27.36 26.92C33.2 25.76 36.76 23.28 38.08 19.44L36.5 18.76L36.08 18.84H35.62ZM29.48 18.74L27.78 19.58C29.28 22.92 32.6 25.76 38.4 26.74C38.68 26.14 39.26 25.2 39.72 24.72C34.04 24.04 30.8 21.6 29.48 18.74ZM21.3 8.8V26.74H23.38V10.94H25.9V8.8H21.3ZM25.28 8.8V9.48C24.98 10.74 24.36 13.34 23.8 15.12C24.94 16.52 25.18 17.82 25.18 18.78C25.18 19.36 25.08 19.8 24.84 19.98C24.7 20.08 24.5 20.14 24.3 20.14C24.06 20.16 23.78 20.14 23.44 20.12C23.76 20.7 23.94 21.6 23.96 22.18C24.42 22.18 24.9 22.18 25.26 22.14C25.7 22.06 26.08 21.94 26.4 21.7C27.04 21.22 27.3 20.34 27.3 19.04C27.3 17.86 27.04 16.44 25.84 14.86C26.42 13.32 27.06 11.3 27.58 9.62L26 8.72L25.66 8.8H25.28ZM45.08 17.6V18.84H54.96V17.6H45.08ZM48.48 22.72C47.64 23.54 46 24.34 44.58 24.72C44.98 25.06 45.54 25.7 45.82 26.12C47.3 25.56 48.92 24.36 49.84 23.26L48.48 22.72ZM43.32 13.96V15.06H47.62V13.96H43.32ZM52.28 13.96V15.1H56.66V13.96H52.28ZM43.32 12.04V13.4H47.1V15.64H43.32V16.98H49.22V12.04H43.32ZM56.74 12.04H50.56V17.02H56.74V15.64H52.72V13.42H56.74V12.04ZM41.86 12.04V26.8H44.1V12.04H41.86ZM55.88 12.04V24.44C55.88 24.66 55.82 24.74 55.58 24.74C55.38 24.74 54.72 24.74 54.12 24.72C54.4 25.24 54.7 26.1 54.78 26.66C55.92 26.66 56.76 26.64 57.36 26.3C57.98 25.96 58.16 25.44 58.16 24.44V12.04H55.88ZM47.1 20.54H52.8V22.08H47.1V20.54ZM45.56 19.34V23.28H54.4V19.34H45.56ZM47.38 20.92C47.6 21.28 47.9 21.76 48.04 22.08L48.94 21.7C48.78 21.4 48.46 20.92 48.22 20.6L47.38 20.92ZM51.6 20.56C51.46 20.88 51.14 21.4 50.9 21.78L51.66 22.1C51.92 21.8 52.2 21.42 52.52 20.96L51.6 20.56ZM51 22.76L50.14 23.5C50.94 24.04 52.74 25.4 53.4 26.02L54.34 24.7C53.84 24.36 51.64 23.08 51 22.76ZM48.98 16.76V20.04H50.84V16.76H48.98ZM49.18 19.62V22.76H49V26.44H50.84V22.76H50.66V19.62H49.18ZM41.04 8.9V10.88H49.62V8.9H41.04ZM44.68 8V11.72H47.06V8H44.68ZM53.08 8V11.74H55.46V8H53.08ZM50.34 8.9V10.88H58.94V8.9H50.34ZM63.58 8.74V10.9H79.02V8.74H63.58ZM63.8 24.32V26.3H79.06V24.32H63.8ZM71.7 20.8V22.64H77.34V20.8H71.7ZM62 8.74V14.92C62 18.08 61.88 22.58 60.38 25.66C60.96 25.86 61.96 26.42 62.4 26.76C64.02 23.46 64.26 18.34 64.26 14.92V8.74H62ZM70.44 19.16V25.44H72.76V19.16H70.44ZM65.96 20.56V25.46H68.26V20.56H65.96ZM64.66 13.98V15.64H70.88V13.98H64.66ZM66.84 11.92V19.28H68.8V11.92H66.84ZM66.6 14.72C65.96 15.92 64.76 17.22 63.62 17.86C64.04 18.2 64.62 18.84 64.9 19.3C66.08 18.4 67.26 16.74 67.9 15.2L66.6 14.72ZM71.38 13.98V15.64H78.56V13.98H71.38ZM73.72 11.92V19.28H75.72V11.92H73.72ZM73.24 14.7C72.66 15.9 71.48 17.18 70.34 17.84C70.76 18.18 71.34 18.84 71.64 19.3C72.82 18.4 73.96 16.72 74.56 15.16L73.24 14.7ZM68.72 15.46L67.6 16.3C68.16 16.74 69.3 17.78 69.76 18.28L70.9 16.84C70.54 16.56 69.18 15.7 68.72 15.46ZM69.3 11.02C68.22 11.44 66.24 11.74 64.48 11.86C64.68 12.24 64.9 12.84 65 13.22C66.92 13.12 69.22 12.82 70.78 12.22L69.3 11.02ZM76.52 10.92C75.32 11.38 73.06 11.68 71.1 11.84C71.3 12.18 71.54 12.82 71.6 13.18C73.74 13.08 76.28 12.76 78 12.12L76.52 10.92ZM75.78 15.5L74.74 16.48C75.56 17.08 77.38 18.54 78.14 19.28L79.2 17.74C78.66 17.34 76.46 15.88 75.78 15.5ZM84.96 7.94C84.1 10.54 82.54 13.1 80.74 14.66C81.32 15 82.34 15.8 82.8 16.22C84.58 14.42 86.34 11.54 87.4 8.56L84.96 7.94ZM85.38 10.22L84.22 12.54H98.1V10.22H85.38ZM83.96 14.94V21.38H86.38V17.18H97.64V14.94H83.96ZM80.8 20.2V22.52H99.2V20.2H80.8ZM89.84 11.42V26.8H92.32V11.42H89.84ZM105.44 12.92V15.28H109.2V12.92H105.44ZM111.22 8.02V23.82C111.22 24.14 111.1 24.24 110.78 24.24C110.46 24.26 109.5 24.26 108.48 24.22C108.86 24.86 109.32 26.04 109.44 26.72C110.9 26.72 111.98 26.62 112.7 26.18C113.44 25.78 113.7 25.08 113.7 23.84V8.02H111.22ZM108.64 12.92V13.34C108.2 17.32 106.7 21.02 104.38 22.66C104.92 23.12 105.6 24.08 105.9 24.64C108.7 22.42 110.3 18.5 110.88 13.24L109.44 12.88L109.04 12.92H108.64ZM113.6 11.32L112.18 11.54C113.08 17.14 114.6 22 118.12 24.52C118.48 23.84 119.28 22.86 119.82 22.4C116.28 20.4 114.5 16.14 113.6 11.32ZM117.06 11.68C116.12 13.18 114.46 15.04 113.22 16.18L115.04 17.36C116.3 16.24 117.92 14.54 119.18 12.94L117.06 11.68ZM100.62 11.2C101.86 11.94 103.52 13.08 104.3 13.86L105.78 11.84C104.94 11.12 103.22 10.06 102 9.4L100.62 11.2ZM100.58 22.76L102.66 24.24C103.7 22.46 104.8 20.36 105.7 18.42L103.88 16.94C102.86 19.06 101.52 21.36 100.58 22.76ZM123 9.02V15.94C123 19.26 122.74 22.66 120.44 25.26C121.06 25.64 122.06 26.44 122.5 26.98C125.2 23.94 125.48 19.86 125.48 15.96V9.02H123ZM129.14 9.88V24.86H131.58V9.88H129.14ZM135.24 9V26.76H137.78V9H135.24ZM153.82 8.32V13.46H155.9V8.32H153.82ZM150.82 24.18L151.32 26.34C153.28 25.98 155.86 25.52 158.28 25.04L158.14 23.08C155.46 23.52 152.68 23.94 150.82 24.18ZM156.42 21.22C156.96 23 157.52 25.4 157.7 26.78L159.44 26.34C159.24 24.96 158.62 22.62 158.04 20.86L156.42 21.22ZM152.8 13.84H156.84V18.02H152.8V13.84ZM151.1 11.82V20.08H158.6V11.82H151.1ZM154 12.58V18.98H153.82V24.64H155.88V18.98H155.7V12.58H154ZM144.84 21.82V26.12H146.52V21.82H144.84ZM143.8 13.12H147.7V14.26H143.8V13.12ZM141.78 11.5V15.88H149.84V11.5H141.78ZM140.8 8.78V10.78H150.78V8.78H140.8ZM143.38 21.28V22.74H147.96V21.28H143.38ZM141.1 16.58V26.78H142.94V18.36H149.06V16.58H141.1ZM148.46 16.58V24.46C148.46 24.66 148.4 24.72 148.22 24.72C148.04 24.72 147.5 24.72 146.96 24.7C147.18 25.2 147.4 25.96 147.46 26.5C148.44 26.5 149.18 26.46 149.7 26.18C150.24 25.86 150.38 25.36 150.38 24.5V16.58H148.46ZM143.34 19.12C143.74 19.78 144.12 20.68 144.26 21.24L145.56 20.74C145.4 20.2 145 19.32 144.58 18.7L143.34 19.12ZM146.72 18.56C146.44 19.48 145.88 20.82 145.44 21.64L146.56 22.16C147.06 21.38 147.62 20.18 148.18 19.14L146.72 18.56ZM169.4 8.38V22.78C169.4 25.54 170.1 26.34 172.58 26.34C173.08 26.34 175.4 26.34 175.94 26.34C178.4 26.34 178.98 24.92 179.26 21.06C178.64 20.92 177.68 20.48 177.12 20.06C176.96 23.38 176.78 24.2 175.76 24.2C175.26 24.2 173.28 24.2 172.84 24.2C171.86 24.2 171.72 24 171.72 22.82V8.38H169.4ZM165.6 8.1C164.44 10.98 162.46 13.82 160.42 15.6C160.82 16.2 161.46 17.52 161.68 18.1C164.06 15.84 166.4 12.26 167.84 8.86L165.6 8.1ZM163.6 13.52V26.78H165.9V11.28L165.88 11.26L163.6 13.52ZM170.8 13.52V15.8H178.72V13.52H170.8ZM187.2 16.84V18.72H192.34V16.84H187.2ZM187.2 20.2V22.08H192.36V20.2H187.2ZM183.32 23.58V25.78H196.82V23.58H183.32ZM181.82 13.24V26.8H184.12V15.44H195.72V26.8H198.16V13.24H181.82ZM186.18 14.7V24.56H188.32V14.7H186.18ZM191.4 14.7V24.54H193.56V14.7H191.4ZM188.44 10.2C188.36 11.46 188.04 13.14 187.76 14.3L189.96 14.88C190.36 13.84 190.8 12.28 191.28 10.8L188.44 10.2ZM180.98 9.16V11.44H199.06V9.16H180.98ZM203.56 9.88V26.78H205.9V9.88H203.56ZM200.86 13.48V15.72H207.88V13.48H200.86ZM203.76 14.54C203.14 16.76 201.74 19.66 200.36 21.26C200.72 21.86 201.26 22.86 201.48 23.56C203 21.58 204.4 18.02 205.16 15.16L203.76 14.54ZM206.66 8.22C205.18 8.86 202.78 9.4 200.62 9.7C200.88 10.22 201.2 11.04 201.28 11.54C203.56 11.3 206.26 10.82 208.26 10.08L206.66 8.22ZM205.7 16.2L204.66 17.14C205.28 17.98 206.48 19.8 206.94 20.76L208.32 18.88C207.94 18.42 206.2 16.62 205.7 16.2ZM212.3 8.02V14.42H214.68V8.02H212.3ZM208.38 8.94V10.4H218.86V8.94H208.38ZM208.74 11.08V12.46H218.4V11.08H208.74ZM207.76 13.14V14.64H219.26V13.14H207.76ZM211.16 19H216.02V19.86H211.16V19ZM211.16 21.22H216.02V22.08H211.16V21.22ZM211.16 16.8H216.02V17.62H211.16V16.8ZM209 15.32V23.56H218.28V15.32H209ZM214.16 24.48C215.34 25.22 216.72 26.22 217.48 26.82L219.56 25.7C218.66 25.06 217.06 24.1 215.76 23.32L214.16 24.48ZM211.24 23.22C210.28 24 208.38 24.94 206.78 25.4C207.24 25.8 207.9 26.46 208.26 26.9C209.88 26.38 211.88 25.4 213.1 24.46L211.24 23.22Z" fill="#404040"/>
<rect y="50" width="20" height="6" fill="#DDE2EC"/>
<rect x="67" y="50" width="20" height="6" fill="#9B051E"/>
<rect x="134" y="50" width="20" height="6" fill="#285F92"/>
<path d="M94.616 59H101.056V57.908H98.214C97.696 57.908 97.08 57.95 96.534 58.006C98.956 55.724 100.566 53.638 100.566 51.58C100.566 49.746 99.418 48.556 97.584 48.556C96.282 48.556 95.386 49.158 94.546 50.068L95.288 50.782C95.862 50.11 96.59 49.592 97.43 49.592C98.704 49.592 99.306 50.46 99.306 51.636C99.306 53.386 97.836 55.444 94.616 58.258V59ZM105.658 59.196C107.59 59.196 108.836 57.418 108.836 53.834C108.836 50.278 107.59 48.556 105.658 48.556C103.698 48.556 102.452 50.278 102.452 53.834C102.452 57.418 103.698 59.196 105.658 59.196ZM105.658 58.16C104.482 58.16 103.684 56.858 103.684 53.834C103.684 50.852 104.482 49.578 105.658 49.578C106.82 49.578 107.604 50.852 107.604 53.834C107.604 56.858 106.82 58.16 105.658 58.16ZM110.763 59H116.391V57.936H114.319V48.738H113.339C112.793 49.074 112.135 49.312 111.211 49.466V50.292H113.045V57.936H110.763V59ZM117.913 59H124.353V57.908H121.511C120.993 57.908 120.377 57.95 119.831 58.006C122.253 55.724 123.863 53.638 123.863 51.58C123.863 49.746 122.715 48.556 120.881 48.556C119.579 48.556 118.683 49.158 117.843 50.068L118.585 50.782C119.159 50.11 119.887 49.592 120.727 49.592C122.001 49.592 122.603 50.46 122.603 51.636C122.603 53.386 121.133 55.444 117.913 58.258V59Z" fill="#404040"/>
<path d="M28.232 59H33.86V57.936H31.788V48.738H30.808C30.262 49.074 29.604 49.312 28.68 49.466V50.292H30.514V57.936H28.232V59ZM38.0416 59.196C39.9736 59.196 41.7656 57.6 41.7656 53.428C41.7656 50.166 40.2956 48.556 38.3216 48.556C36.7256 48.556 35.3816 49.9 35.3816 51.888C35.3816 54.016 36.4876 55.108 38.2096 55.108C39.0916 55.108 40.0016 54.576 40.6456 53.764L40.5756 52.742C39.9036 53.764 39.1056 54.17 38.4196 54.17C37.2016 54.17 36.5856 53.26 36.5856 51.888C36.5856 50.474 37.3416 49.55 38.3216 49.55C39.7636 49.55 40.5616 50.908 40.5616 53.428C40.5616 56.942 39.3716 58.132 37.9996 58.132C37.3416 58.132 36.7116 57.838 36.2776 57.334L35.5636 58.146C36.1376 58.748 36.9216 59.196 38.0416 59.196ZM46.4373 59.196C48.3553 59.196 49.6573 58.034 49.6573 56.536C49.6573 55.136 48.8173 54.352 47.9213 53.834V53.764C48.5373 53.288 49.2933 52.378 49.2933 51.286C49.2933 49.718 48.2293 48.598 46.4793 48.598C44.8693 48.598 43.6513 49.634 43.6513 51.188C43.6513 52.266 44.2953 53.05 45.0513 53.568V53.624C44.1133 54.128 43.1613 55.08 43.1613 56.466C43.1613 58.048 44.5473 59.196 46.4373 59.196ZM47.1373 53.442C45.9333 52.966 44.8273 52.42 44.8273 51.188C44.8273 50.208 45.5133 49.536 46.4513 49.536C47.5573 49.536 48.2013 50.348 48.2013 51.356C48.2013 52.126 47.8373 52.826 47.1373 53.442ZM46.4653 58.23C45.2333 58.23 44.3093 57.432 44.3093 56.34C44.3093 55.36 44.8833 54.548 45.7233 54.016C47.1653 54.604 48.4253 55.122 48.4253 56.494C48.4253 57.516 47.6413 58.23 46.4653 58.23ZM50.9129 59H57.3529V57.908H54.5109C53.9929 57.908 53.3769 57.95 52.8309 58.006C55.2529 55.724 56.8629 53.638 56.8629 51.58C56.8629 49.746 55.7149 48.556 53.8809 48.556C52.5789 48.556 51.6829 49.158 50.8429 50.068L51.5849 50.782C52.1589 50.11 52.8869 49.592 53.7269 49.592C55.0009 49.592 55.6029 50.46 55.6029 51.636C55.6029 53.386 54.1329 55.444 50.9129 58.258V59Z" fill="#404040"/>
<path d="M161.616 59H168.056V57.908H165.214C164.696 57.908 164.08 57.95 163.534 58.006C165.956 55.724 167.566 53.638 167.566 51.58C167.566 49.746 166.418 48.556 164.584 48.556C163.282 48.556 162.386 49.158 161.546 50.068L162.288 50.782C162.862 50.11 163.59 49.592 164.43 49.592C165.704 49.592 166.306 50.46 166.306 51.636C166.306 53.386 164.836 55.444 161.616 58.258V59ZM172.658 59.196C174.59 59.196 175.836 57.418 175.836 53.834C175.836 50.278 174.59 48.556 172.658 48.556C170.698 48.556 169.452 50.278 169.452 53.834C169.452 57.418 170.698 59.196 172.658 59.196ZM172.658 58.16C171.482 58.16 170.684 56.858 170.684 53.834C170.684 50.852 171.482 49.578 172.658 49.578C173.82 49.578 174.604 50.852 174.604 53.834C174.604 56.858 173.82 58.16 172.658 58.16ZM177.763 59H183.391V57.936H181.319V48.738H180.339C179.793 49.074 179.135 49.312 178.211 49.466V50.292H180.045V57.936H177.763V59ZM187.573 59.196C189.505 59.196 191.297 57.6 191.297 53.428C191.297 50.166 189.827 48.556 187.853 48.556C186.257 48.556 184.913 49.9 184.913 51.888C184.913 54.016 186.019 55.108 187.741 55.108C188.623 55.108 189.533 54.576 190.177 53.764L190.107 52.742C189.435 53.764 188.637 54.17 187.951 54.17C186.733 54.17 186.117 53.26 186.117 51.888C186.117 50.474 186.873 49.55 187.853 49.55C189.295 49.55 190.093 50.908 190.093 53.428C190.093 56.942 188.903 58.132 187.531 58.132C186.873 58.132 186.243 57.838 185.809 57.334L185.095 58.146C185.669 58.748 186.453 59.196 187.573 59.196Z" fill="#404040"/>
</svg>
