<svg width="362" height="306" viewBox="0 0 362 306" fill="none" xmlns="http://www.w3.org/2000/svg">
<rect width="362" height="306" fill="#FAFAFA"/>
<path d="M23.9199 215.579H362" stroke="#C7C7C7"/>
<path d="M145.991 242.105L98.043 257.698L298.151 258.056L245.555 252.859L197.118 236.549L145.991 242.105Z" fill="#BBC6DA"/>
<path d="M99.2799 251.825L48.8711 254.65V257.518H98.0419L147.457 241.387L197.362 236.19L245.554 252.858L293.747 257.518H341.45V256.622L293.747 252.858L245.554 217.428L192.684 171.171L147.457 187.776L99.2799 251.825Z" fill="#7791B6"/>
<path d="M23.9199 88.686H362" stroke="#C7C7C7"/>
<path d="M23.9199 173.281H362" stroke="#C7C7C7"/>
<path d="M23.9199 130.983H362" stroke="#C7C7C7"/>
<path d="M23.9199 257.877H362" stroke="#C7C7C7"/>
<path d="M320.42 270.805V271.96H333.875V270.805H320.42ZM326.51 265.21V278.995H327.71V265.21H326.51ZM338.39 265.99V267.085H346.22V265.99H338.39ZM338.39 269.605V270.685H346.28V269.605H338.39ZM338.27 273.235V274.315H346.205V273.235H338.27ZM337.7 265.99V270.625C337.7 273.04 337.445 276.085 335.03 278.2C335.27 278.365 335.72 278.77 335.885 279.01C338.465 276.76 338.84 273.22 338.84 270.625V265.99H337.7ZM345.725 265.99V277.33C345.725 277.66 345.605 277.765 345.26 277.78C344.915 277.78 343.685 277.795 342.44 277.75C342.635 278.065 342.845 278.605 342.92 278.935C344.54 278.935 345.53 278.92 346.115 278.725C346.685 278.53 346.895 278.14 346.895 277.345V265.99H345.725Z" fill="#404040"/>
<path d="M97.5536 243.001L49.3613 253.575V254.83L99.2809 250.935L146.724 187.48L193.871 172.95L246.356 222.766L293.747 253.217L341.94 256.443V255.905L295.705 250.887L244.873 195.782L196.384 105.892L146.724 166.65L97.5536 243.001Z" fill="#DCB7B7"/>
<path d="M49.1172 257.16H98.7772L146.48 241.567L197.119 236.19L246.045 253.038L294.482 257.16H341.94" stroke="#DDE2EC" stroke-width="3" stroke-linecap="round"/>
<path d="M15.312 263.277C17.382 263.277 18.717 261.372 18.717 257.532C18.717 253.722 17.382 251.877 15.312 251.877C13.212 251.877 11.877 253.722 11.877 257.532C11.877 261.372 13.212 263.277 15.312 263.277ZM15.312 262.167C14.052 262.167 13.197 260.772 13.197 257.532C13.197 254.337 14.052 252.972 15.312 252.972C16.557 252.972 17.397 254.337 17.397 257.532C17.397 260.772 16.557 262.167 15.312 262.167Z" fill="#404040"/>
<path d="M7.33671 136.384C9.03171 136.384 10.4867 134.944 10.4867 132.814C10.4867 130.504 9.28671 129.364 7.42671 129.364C6.54171 129.364 5.52171 129.904 4.84671 130.789L4.89171 131.884C5.62671 130.789 6.51171 130.369 7.21671 130.369C8.53671 130.369 9.19671 131.314 9.19671 132.814C9.19671 134.299 8.38671 135.304 7.33671 135.304C5.79171 135.304 4.93671 133.759 4.93671 130.939C4.93671 127.339 6.22671 126.124 7.77171 126.124C8.43171 126.124 9.10671 126.439 9.52671 126.949L10.2917 126.109C9.69171 125.464 8.85171 124.984 7.71171 124.984C5.58171 124.984 3.64671 126.634 3.64671 130.939C3.64671 134.569 5.22171 136.384 7.33671 136.384ZM15.312 136.384C17.382 136.384 18.717 134.479 18.717 130.639C18.717 126.829 17.382 124.984 15.312 124.984C13.212 124.984 11.877 126.829 11.877 130.639C11.877 134.479 13.212 136.384 15.312 136.384ZM15.312 135.274C14.052 135.274 13.197 133.879 13.197 130.639C13.197 127.444 14.052 126.079 15.312 126.079C16.557 126.079 17.397 127.444 17.397 130.639C17.397 133.879 16.557 135.274 15.312 135.274Z" fill="#404040"/>
<path d="M7.90671 178.472H9.19671V167.477H7.68171L3.10671 174.542V175.442H10.6667V174.362H4.54671L7.05171 170.612C7.35171 170.072 7.65171 169.517 7.92171 168.977H7.99671C7.95171 169.547 7.90671 170.432 7.90671 170.987V178.472ZM15.312 178.682C17.382 178.682 18.717 176.777 18.717 172.937C18.717 169.127 17.382 167.282 15.312 167.282C13.212 167.282 11.877 169.127 11.877 172.937C11.877 176.777 13.212 178.682 15.312 178.682ZM15.312 177.572C14.052 177.572 13.197 176.177 13.197 172.937C13.197 169.742 14.052 168.377 15.312 168.377C16.557 168.377 17.397 169.742 17.397 172.937C17.397 176.177 16.557 177.572 15.312 177.572Z" fill="#404040"/>
<path d="M3.48171 220.769H10.3817V219.599H7.33671C6.78171 219.599 6.12171 219.644 5.53671 219.704C8.13171 217.259 9.85671 215.024 9.85671 212.819C9.85671 210.854 8.62671 209.579 6.66171 209.579C5.26671 209.579 4.30671 210.224 3.40671 211.199L4.20171 211.964C4.81671 211.244 5.59671 210.689 6.49671 210.689C7.86171 210.689 8.50671 211.619 8.50671 212.879C8.50671 214.754 6.93171 216.959 3.48171 219.974V220.769ZM15.312 220.979C17.382 220.979 18.717 219.074 18.717 215.234C18.717 211.424 17.382 209.579 15.312 209.579C13.212 209.579 11.877 211.424 11.877 215.234C11.877 219.074 13.212 220.979 15.312 220.979ZM15.312 219.869C14.052 219.869 13.197 218.474 13.197 215.234C13.197 212.039 14.052 210.674 15.312 210.674C16.557 210.674 17.397 212.039 17.397 215.234C17.397 218.474 16.557 219.869 15.312 219.869Z" fill="#404040"/>
<path d="M7.00671 94.086C9.06171 94.086 10.4567 92.841 10.4567 91.236C10.4567 89.736 9.55671 88.896 8.59671 88.341V88.266C9.25671 87.756 10.0667 86.781 10.0667 85.611C10.0667 83.931 8.92671 82.731 7.05171 82.731C5.32671 82.731 4.02171 83.841 4.02171 85.506C4.02171 86.661 4.71171 87.501 5.52171 88.056V88.116C4.51671 88.656 3.49671 89.676 3.49671 91.161C3.49671 92.856 4.98171 94.086 7.00671 94.086ZM7.75671 87.921C6.46671 87.411 5.28171 86.826 5.28171 85.506C5.28171 84.456 6.01671 83.736 7.02171 83.736C8.20671 83.736 8.89671 84.606 8.89671 85.686C8.89671 86.511 8.50671 87.261 7.75671 87.921ZM7.03671 93.051C5.71671 93.051 4.72671 92.196 4.72671 91.026C4.72671 89.976 5.34171 89.106 6.24171 88.536C7.78671 89.166 9.13671 89.721 9.13671 91.191C9.13671 92.286 8.29671 93.051 7.03671 93.051ZM15.312 94.086C17.382 94.086 18.717 92.181 18.717 88.341C18.717 84.531 17.382 82.686 15.312 82.686C13.212 82.686 11.877 84.531 11.877 88.341C11.877 92.181 13.212 94.086 15.312 94.086ZM15.312 92.976C14.052 92.976 13.197 91.581 13.197 88.341C13.197 85.146 14.052 83.781 15.312 83.781C16.557 83.781 17.397 85.146 17.397 88.341C17.397 91.581 16.557 92.976 15.312 92.976Z" fill="#404040"/>
<path d="M161.746 165.94H169.774V163.798H167.272V152.62H165.31C164.446 153.142 163.546 153.484 162.196 153.736V155.374H164.626V163.798H161.746V165.94ZM175.873 166.192C178.321 166.192 180.535 164.482 180.535 161.53C180.535 158.614 178.663 157.3 176.431 157.3C175.819 157.3 175.351 157.426 174.829 157.66L175.081 154.834H179.923V152.62H172.795L172.417 159.082L173.641 159.874C174.415 159.37 174.847 159.172 175.639 159.172C176.971 159.172 177.871 160.036 177.871 161.584C177.871 163.168 176.917 164.05 175.513 164.05C174.289 164.05 173.335 163.438 172.597 162.7L171.355 164.374C172.363 165.364 173.767 166.192 175.873 166.192ZM187.57 165.94H190.036V152.62H186.85L181.9 160.684V162.502H191.62V160.468H184.474L186.526 157.156C186.904 156.436 187.264 155.698 187.606 154.978H187.678C187.642 155.77 187.57 156.976 187.57 157.75V165.94ZM195.055 166.192C195.991 166.192 196.711 165.454 196.711 164.464C196.711 163.474 195.991 162.754 195.055 162.754C194.101 162.754 193.417 163.474 193.417 164.464C193.417 165.454 194.101 166.192 195.055 166.192ZM204.041 165.94H206.507V152.62H203.321L198.371 160.684V162.502H208.091V160.468H200.945L202.997 157.156C203.375 156.436 203.735 155.698 204.077 154.978H204.149C204.113 155.77 204.041 156.976 204.041 157.75V165.94ZM214.658 165.94H217.124V152.62H213.938L208.988 160.684V162.502H218.708V160.468H211.562L213.614 157.156C213.992 156.436 214.352 155.698 214.694 154.978H214.766C214.73 155.77 214.658 156.976 214.658 157.75V165.94Z" fill="white"/>
<path d="M172.04 215.766C174.312 215.766 176.424 213.894 176.424 209.254C176.424 205.366 174.6 203.558 172.344 203.558C170.424 203.558 168.824 205.078 168.824 207.43C168.824 209.894 170.152 211.126 172.12 211.126C173.064 211.126 174.12 210.55 174.808 209.638L174.712 208.294C174.024 209.366 173.192 209.782 172.456 209.782C171.224 209.782 170.536 208.918 170.536 207.43C170.536 205.878 171.336 204.966 172.36 204.966C173.8 204.966 174.712 206.31 174.712 209.254C174.712 212.998 173.448 214.246 171.96 214.246C171.224 214.246 170.504 213.894 170.024 213.366L169.032 214.502C169.704 215.206 170.68 215.766 172.04 215.766ZM177.965 215.542H185.581V213.974H182.637C182.061 213.974 181.309 214.038 180.701 214.102C183.197 211.702 185.021 209.35 185.021 207.094C185.021 204.95 183.629 203.558 181.469 203.558C179.933 203.558 178.893 204.214 177.869 205.318L178.925 206.326C179.549 205.606 180.317 205.03 181.245 205.03C182.557 205.03 183.229 205.91 183.229 207.174C183.229 209.11 181.453 211.398 177.965 214.47V215.542ZM188.786 215.766C189.474 215.766 190.018 215.222 190.018 214.47C190.018 213.702 189.474 213.174 188.786 213.174C188.082 213.174 187.554 213.702 187.554 214.47C187.554 215.222 188.082 215.766 188.786 215.766ZM196.576 215.542H198.304V203.766H196.16L191.488 211.142V212.39H199.808V210.95H193.344L195.648 207.414C195.984 206.806 196.304 206.182 196.592 205.59H196.672C196.624 206.23 196.576 207.238 196.576 207.862V215.542ZM205.701 215.542H207.429V203.766H205.285L200.613 211.142V212.39H208.933V210.95H202.469L204.773 207.414C205.109 206.806 205.429 206.182 205.717 205.59H205.797C205.749 206.23 205.701 207.238 205.701 207.862V215.542Z" fill="white"/>
<path d="M168.458 254.467H175.194V252.947H172.89V242.691H171.498C170.81 243.107 170.042 243.395 168.922 243.587V244.755H171.05V252.947H168.458V254.467ZM180.111 254.691C182.383 254.691 184.495 252.819 184.495 248.179C184.495 244.291 182.671 242.483 180.415 242.483C178.495 242.483 176.895 244.003 176.895 246.355C176.895 248.819 178.223 250.051 180.191 250.051C181.135 250.051 182.191 249.475 182.879 248.563L182.783 247.219C182.095 248.291 181.263 248.707 180.527 248.707C179.295 248.707 178.607 247.843 178.607 246.355C178.607 244.803 179.407 243.891 180.431 243.891C181.871 243.891 182.783 245.235 182.783 248.179C182.783 251.923 181.519 253.171 180.031 253.171C179.295 253.171 178.575 252.819 178.095 252.291L177.103 253.427C177.775 254.131 178.751 254.691 180.111 254.691ZM187.732 254.691C188.42 254.691 188.964 254.147 188.964 253.395C188.964 252.627 188.42 252.099 187.732 252.099C187.028 252.099 186.5 252.627 186.5 253.395C186.5 254.147 187.028 254.691 187.732 254.691ZM194.386 254.691C196.562 254.691 198.338 253.443 198.338 251.315C198.338 249.715 197.266 248.707 195.906 248.355V248.275C197.154 247.811 197.938 246.867 197.938 245.507C197.938 243.571 196.45 242.483 194.338 242.483C192.978 242.483 191.89 243.059 190.946 243.891L191.922 245.059C192.594 244.387 193.362 243.955 194.258 243.955C195.394 243.955 196.066 244.611 196.066 245.651C196.066 246.835 195.298 247.699 192.994 247.699V249.075C195.634 249.075 196.466 249.907 196.466 251.219C196.466 252.435 195.554 253.171 194.242 253.171C193.01 253.171 192.146 252.579 191.458 251.875L190.546 253.059C191.346 253.955 192.546 254.691 194.386 254.691ZM203.527 254.691C205.575 254.691 207.495 253.203 207.495 250.611C207.495 248.019 205.879 246.867 203.911 246.867C203.271 246.867 202.791 247.011 202.295 247.267L202.567 244.259H206.935V242.691H200.951L200.599 248.291L201.511 248.867C202.199 248.419 202.647 248.211 203.383 248.211C204.727 248.211 205.623 249.107 205.623 250.659C205.623 252.227 204.631 253.171 203.303 253.171C202.071 253.171 201.207 252.579 200.551 251.907L199.655 253.107C200.503 253.939 201.671 254.691 203.527 254.691Z" fill="white"/>
<path d="M30.1105 266.515V278.5H31.2355V267.595H41.2555V278.38H42.4255V266.515H30.1105ZM30.7105 276.28V277.375H41.9155V276.28H30.7105ZM34.0555 267.19C34.0105 271.15 33.8155 273.145 31.4155 274.285C31.6555 274.48 31.9855 274.885 32.1055 275.155C34.7905 273.85 35.0905 271.495 35.1655 267.19H34.0555ZM37.2655 267.385V272.29C37.2655 273.46 37.5055 273.94 38.5555 273.94C38.7955 273.94 39.9055 273.94 40.1905 273.94C40.5505 273.94 40.9255 273.94 41.1205 273.88C41.0755 273.595 41.0455 273.22 41.0305 272.92C40.8205 272.965 40.4005 272.98 40.1605 272.98C39.9205 272.98 38.9455 272.98 38.7055 272.98C38.3905 272.98 38.3305 272.815 38.3305 272.32V267.385H37.2655ZM47.5855 265.99V267.085H55.4155V265.99H47.5855ZM47.5855 269.605V270.685H55.4755V269.605H47.5855ZM47.4655 273.235V274.315H55.4005V273.235H47.4655ZM46.8955 265.99V270.625C46.8955 273.04 46.6405 276.085 44.2255 278.2C44.4655 278.365 44.9155 278.77 45.0805 279.01C47.6605 276.76 48.0355 273.22 48.0355 270.625V265.99H46.8955ZM54.9205 265.99V277.33C54.9205 277.66 54.8005 277.765 54.4555 277.78C54.1105 277.78 52.8805 277.795 51.6355 277.75C51.8305 278.065 52.0405 278.605 52.1155 278.935C53.7355 278.935 54.7255 278.92 55.3105 278.725C55.8805 278.53 56.0905 278.14 56.0905 277.345V265.99H54.9205Z" fill="#404040"/>
<path d="M79.5022 266.665V267.775H90.8422V266.665H79.5022ZM78.5572 277.06V278.185H91.9072V277.06H78.5572ZM83.8972 267.055C83.4772 270.385 82.6972 275.02 82.0972 277.705H83.3272C83.8822 275.095 84.6472 270.475 85.1422 267.055H83.8972ZM80.3272 271.03V272.125H88.6222V271.03H80.3272ZM88.1872 271.03V271.18C88.0972 272.665 87.8422 275.635 87.5872 277.72L88.7422 277.81C89.0122 275.725 89.2822 272.935 89.3872 271.06L88.5172 270.985L88.3222 271.03H88.1872ZM96.5122 265.99V267.085H104.342V265.99H96.5122ZM96.5122 269.605V270.685H104.402V269.605H96.5122ZM96.3922 273.235V274.315H104.327V273.235H96.3922ZM95.8222 265.99V270.625C95.8222 273.04 95.5672 276.085 93.1522 278.2C93.3922 278.365 93.8422 278.77 94.0072 279.01C96.5872 276.76 96.9622 273.22 96.9622 270.625V265.99H95.8222ZM103.847 265.99V277.33C103.847 277.66 103.727 277.765 103.382 277.78C103.037 277.78 101.807 277.795 100.562 277.75C100.757 278.065 100.967 278.605 101.042 278.935C102.662 278.935 103.652 278.92 104.237 278.725C104.807 278.53 105.017 278.14 105.017 277.345V265.99H103.847Z" fill="#404040"/>
<path d="M127.498 269.17V270.325H140.818V269.17H127.498ZM131.263 272.065C130.273 274.255 128.728 276.625 127.288 278.125C127.603 278.32 128.158 278.695 128.413 278.905C129.808 277.285 131.383 274.795 132.493 272.47L131.263 272.065ZM135.703 272.455C137.113 274.48 138.913 277.225 139.738 278.815L140.893 278.17C140.008 276.58 138.163 273.925 136.753 271.96L135.703 272.455ZM132.733 265.645C133.243 266.68 133.858 268.045 134.128 268.84L135.358 268.36C135.043 267.58 134.398 266.26 133.888 265.27L132.733 265.645ZM145.438 265.99V267.085H153.268V265.99H145.438ZM145.438 269.605V270.685H153.328V269.605H145.438ZM145.318 273.235V274.315H153.253V273.235H145.318ZM144.748 265.99V270.625C144.748 273.04 144.493 276.085 142.078 278.2C142.318 278.365 142.768 278.77 142.933 279.01C145.513 276.76 145.888 273.22 145.888 270.625V265.99H144.748ZM152.773 265.99V277.33C152.773 277.66 152.653 277.765 152.308 277.78C151.963 277.78 150.733 277.795 149.488 277.75C149.683 278.065 149.893 278.605 149.968 278.935C151.588 278.935 152.578 278.92 153.163 278.725C153.733 278.53 153.943 278.14 153.943 277.345V265.99H152.773Z" fill="#404040"/>
<path d="M176.305 271.18L176.485 272.305L189.55 270.22L189.37 269.08L176.305 271.18ZM180.535 265.525V275.665C180.535 277.48 181.21 278.14 182.965 278.14C183.37 278.14 186.01 278.14 186.625 278.14C187.36 278.14 188.065 278.11 188.365 278.035C188.305 277.765 188.245 277.255 188.2 276.94C187.855 277.015 187.135 277.06 186.625 277.06C186.01 277.06 183.505 277.06 182.905 277.06C182.02 277.06 181.735 276.7 181.735 275.74V265.525H180.535ZM194.365 265.99V267.085H202.195V265.99H194.365ZM194.365 269.605V270.685H202.255V269.605H194.365ZM194.245 273.235V274.315H202.18V273.235H194.245ZM193.675 265.99V270.625C193.675 273.04 193.42 276.085 191.005 278.2C191.245 278.365 191.695 278.77 191.86 279.01C194.44 276.76 194.815 273.22 194.815 270.625V265.99H193.675ZM201.7 265.99V277.33C201.7 277.66 201.58 277.765 201.235 277.78C200.89 277.78 199.66 277.795 198.415 277.75C198.61 278.065 198.82 278.605 198.895 278.935C200.515 278.935 201.505 278.92 202.09 278.725C202.66 278.53 202.87 278.14 202.87 277.345V265.99H201.7Z" fill="#404040"/>
<path d="M231.74 266.125V267.25H233.795V266.125H231.74ZM229.085 266.41C228.815 270.655 228.17 275.605 225.065 278.275C225.335 278.455 225.77 278.83 225.98 279.055C229.19 276.22 229.925 271.03 230.315 266.5L229.085 266.41ZM232.835 266.125V266.755H233.105C233.72 271.975 234.95 276.61 237.815 279.085C238.085 278.83 238.595 278.485 238.925 278.32C236.06 276.025 234.755 271.36 234.155 266.125H232.835ZM243.29 265.99V267.085H251.12V265.99H243.29ZM243.29 269.605V270.685H251.18V269.605H243.29ZM243.17 273.235V274.315H251.105V273.235H243.17ZM242.6 265.99V270.625C242.6 273.04 242.345 276.085 239.93 278.2C240.17 278.365 240.62 278.77 240.785 279.01C243.365 276.76 243.74 273.22 243.74 270.625V265.99H242.6ZM250.625 265.99V277.33C250.625 277.66 250.505 277.765 250.16 277.78C249.815 277.78 248.585 277.795 247.34 277.75C247.535 278.065 247.745 278.605 247.82 278.935C249.44 278.935 250.43 278.92 251.015 278.725C251.585 278.53 251.795 278.14 251.795 277.345V265.99H250.625Z" fill="#404040"/>
<path d="M278.715 265.36C278.7 270.805 278.82 275.755 273.915 278.11C274.215 278.32 274.59 278.725 274.755 279.01C279.87 276.4 279.885 271.105 279.93 265.36H278.715ZM274.605 269.05V270.175H283.905V269.05H274.605ZM283.215 269.05V277.045C283.215 278.425 283.59 278.785 284.745 278.785C284.985 278.785 286.29 278.785 286.545 278.785C287.655 278.785 287.955 278.11 288.06 276.01C287.745 275.92 287.265 275.71 286.995 275.5C286.95 277.315 286.875 277.675 286.455 277.675C286.17 277.675 285.12 277.675 284.91 277.675C284.445 277.675 284.37 277.585 284.37 277.045V269.05H283.215ZM292.215 265.99V267.085H300.045V265.99H292.215ZM292.215 269.605V270.685H300.105V269.605H292.215ZM292.095 273.235V274.315H300.03V273.235H292.095ZM291.525 265.99V270.625C291.525 273.04 291.27 276.085 288.855 278.2C289.095 278.365 289.545 278.77 289.71 279.01C292.29 276.76 292.665 273.22 292.665 270.625V265.99H291.525ZM299.55 265.99V277.33C299.55 277.66 299.43 277.765 299.085 277.78C298.74 277.78 297.51 277.795 296.265 277.75C296.46 278.065 296.67 278.605 296.745 278.935C298.365 278.935 299.355 278.92 299.94 278.725C300.51 278.53 300.72 278.14 300.72 277.345V265.99H299.55Z" fill="#404040"/>
<path d="M3.585 74.5033L4.425 74.1133C3.135 71.9833 2.505 69.4483 2.505 66.8983C2.505 64.3483 3.135 61.8133 4.425 59.6833L3.585 59.2783C2.19 61.5283 1.365 63.9583 1.365 66.8983C1.365 69.8533 2.19 72.2533 3.585 74.5033ZM11.9984 62.4283V70.4533H13.0784V62.4283H11.9984ZM8.74336 64.6633H16.3934V65.7433H8.74336V64.6633ZM8.74336 62.8033H16.3934V63.8833H8.74336V62.8033ZM7.66336 61.9933V66.5533H17.5184V61.9933H7.66336ZM17.4434 67.4833V71.5933C17.4434 71.7583 17.3984 71.8033 17.2034 71.8183C17.0234 71.8333 16.4534 71.8333 15.7484 71.8183C15.8834 72.0883 16.0334 72.4633 16.0784 72.7333C17.0534 72.7333 17.6834 72.7333 18.0584 72.5833C18.4484 72.4033 18.5384 72.1333 18.5384 71.6083V67.4833H17.4434ZM8.72836 70.1833L8.80336 71.1733C10.5884 71.0833 13.1834 70.9483 15.6884 70.7983L15.7034 69.8833C13.1084 70.0183 10.4534 70.1233 8.72836 70.1833ZM14.2784 68.9533C14.9384 69.7933 15.5834 70.9333 15.8084 71.6833L16.6934 71.3833C16.4684 70.6183 15.7934 69.4933 15.1334 68.6833L14.2784 68.9533ZM9.32836 58.9483V61.7833H10.4234V58.9483H9.32836ZM14.6084 58.9483V61.7833H15.7034V58.9483H14.6084ZM5.95336 59.8783V60.8383H12.2684V59.8783H5.95336ZM12.8384 59.8783V60.8383H19.1384V59.8783H12.8384ZM6.08836 67.4833V68.4283H17.9534V67.4833H6.08836ZM6.70336 66.9283V72.7483H7.78336V66.9283H6.70336ZM20.2334 74.2333H21.2234L25.7084 59.6383H24.7334L20.2334 74.2333ZM27.5024 59.9683V61.0783H39.3224V59.9683H27.5024ZM26.7224 66.3433V67.4683H40.1774V66.3433H26.7224ZM28.5524 62.1133C29.1224 63.2233 29.7074 64.6783 29.9174 65.5633L30.9974 65.2033C30.7874 64.3183 30.1724 62.8933 29.5574 61.7983L28.5524 62.1133ZM37.2524 61.7383C36.8924 62.8183 36.1874 64.3633 35.6324 65.3083L36.5924 65.6233C37.1774 64.7233 37.8824 63.2833 38.4524 62.0683L37.2524 61.7383ZM32.8274 60.4033V72.7483H33.9824V60.4033H32.8274ZM41.9624 61.5583V62.6383H54.9674V61.5583H41.9624ZM46.6424 65.0533V66.1483H52.6424V65.0533H46.6424ZM52.3424 65.0533V65.2483C52.0724 69.2833 51.7574 70.9483 51.2924 71.3833C51.1124 71.5183 50.9174 71.5483 50.5874 71.5483C50.1824 71.5483 49.1324 71.5333 48.0374 71.4433C48.2624 71.7433 48.4274 72.2083 48.4424 72.5533C49.4624 72.6133 50.4374 72.6283 50.9774 72.5983C51.5624 72.5533 51.9224 72.4483 52.2674 72.0733C52.8674 71.4733 53.1674 69.8383 53.4674 65.5933C53.4974 65.4283 53.5124 65.0533 53.5124 65.0533H52.3424ZM46.0724 62.2033C45.9074 65.7433 45.6524 69.8833 41.6324 71.8933C41.9174 72.1183 42.2774 72.5083 42.4574 72.7933C46.6874 70.5583 47.1074 66.1183 47.3024 62.2033H46.0724ZM47.5424 59.2783C47.9174 60.0133 48.3824 60.9733 48.5774 61.5883L49.7174 61.0933C49.4924 60.4933 49.0424 59.5633 48.6224 58.8583L47.5424 59.2783ZM65.0924 67.4533C66.2774 69.0583 67.7324 71.2783 68.4224 72.6583L69.5474 72.0433C68.8274 70.7083 67.3874 68.5783 66.1574 66.9733L65.0924 67.4533ZM60.6824 59.3983C59.7524 61.6783 58.1774 63.8983 56.4824 65.2933C56.7824 65.5033 57.2774 65.9683 57.4874 66.2083C59.1674 64.6633 60.8324 62.2483 61.9124 59.7733L60.6824 59.3983ZM58.3724 72.0283C58.3724 71.7433 59.2874 71.3683 59.2874 71.3683V71.3383C61.1024 69.4633 62.9174 66.7783 64.4174 64.0933L63.1574 63.5533C61.8974 66.1183 59.9474 68.8183 59.3324 69.5083C58.7624 70.2133 58.3274 70.7083 57.9224 70.8133C58.0874 71.1433 58.2974 71.7733 58.3724 72.0283ZM58.3724 72.0283C58.9574 71.7883 59.8124 71.7433 68.2724 71.1733C68.1974 70.9183 68.0774 70.4383 68.0174 70.1083L59.1674 70.6183L58.3424 71.0683L58.3724 72.0283ZM65.1524 59.3233V59.9983H65.4524C66.2474 62.4433 67.7924 64.8433 69.6074 66.2083C69.8174 65.8633 70.2224 65.3833 70.4924 65.1583C68.7224 63.9883 67.2074 61.7233 66.4874 59.3233H65.1524ZM62.8274 59.3233V60.4783H66.1124V59.3233H62.8274ZM74.3624 63.4033H82.6724V65.3083H74.3624V63.4033ZM74.3624 60.5683H82.6724V62.4433H74.3624V60.5683ZM73.2524 59.5483V66.3283H83.8424V59.5483H73.2524ZM71.7524 71.2783V72.3283H85.1474V71.2783H71.7524ZM72.7574 68.0533V69.1183H84.3374V68.0533H72.7574ZM77.9474 60.1933V66.1633H77.8874V71.8783H79.0874V66.1633H79.0274V60.1933H77.9474ZM87.4274 74.5033C88.8074 72.2533 89.6324 69.8533 89.6324 66.8983C89.6324 63.9583 88.8074 61.5283 87.4274 59.2783L86.5724 59.6833C87.8624 61.8133 88.4924 64.3483 88.4924 66.8983C88.4924 69.4483 87.8624 71.9833 86.5724 74.1133L87.4274 74.5033Z" fill="#404040"/>
<path d="M174.436 304.105L175.276 303.715C173.986 301.585 173.356 299.05 173.356 296.5C173.356 293.95 173.986 291.415 175.276 289.285L174.436 288.88C173.041 291.13 172.216 293.56 172.216 296.5C172.216 299.455 173.041 301.855 174.436 304.105ZM179.714 289.345V290.44H187.544V289.345H179.714ZM179.714 292.96V294.04H187.604V292.96H179.714ZM179.594 296.59V297.67H187.529V296.59H179.594ZM179.024 289.345V293.98C179.024 296.395 178.769 299.44 176.354 301.555C176.594 301.72 177.044 302.125 177.209 302.365C179.789 300.115 180.164 296.575 180.164 293.98V289.345H179.024ZM187.049 289.345V300.685C187.049 301.015 186.929 301.12 186.584 301.135C186.239 301.135 185.009 301.15 183.764 301.105C183.959 301.42 184.169 301.96 184.244 302.29C185.864 302.29 186.854 302.275 187.439 302.08C188.009 301.885 188.219 301.495 188.219 300.7V289.345H187.049ZM194.879 288.61C194.039 290.89 192.644 293.14 191.159 294.595C191.369 294.85 191.684 295.45 191.804 295.705C193.424 294.025 194.969 291.49 195.944 288.94L194.879 288.61ZM193.289 292.48V302.335H194.399V291.4L194.384 291.385L193.289 292.48ZM197.009 294.7V295.765H202.904V294.7H197.009ZM202.529 294.7V294.925C202.334 299.125 202.124 300.655 201.809 301.03C201.659 301.195 201.539 301.21 201.299 301.21C201.044 301.21 200.459 301.21 199.814 301.15C199.994 301.435 200.084 301.87 200.114 302.185C200.789 302.23 201.434 302.23 201.809 302.185C202.229 302.155 202.499 302.035 202.769 301.72C203.204 301.195 203.399 299.62 203.609 295.21C203.624 295.06 203.624 294.7 203.624 294.7H202.529ZM198.779 295.24C198.539 298.315 197.654 300.34 195.464 301.465C195.704 301.66 196.079 302.095 196.229 302.305C198.539 300.94 199.589 298.765 199.904 295.3L198.779 295.24ZM199.949 289.075V290.155H202.319V289.075H199.949ZM198.314 289.285C197.789 291.25 196.814 293.005 195.509 294.13C195.734 294.355 196.109 294.865 196.244 295.105C197.669 293.8 198.794 291.805 199.424 289.555L198.314 289.285ZM201.284 289.075V289.69H201.554C202.079 291.82 203.174 293.92 204.539 295.135C204.704 294.775 205.049 294.265 205.274 293.995C204.014 293.035 202.979 291.13 202.544 289.075H201.284ZM207.404 304.105C208.784 301.855 209.609 299.455 209.609 296.5C209.609 293.56 208.784 291.13 207.404 288.88L206.549 289.285C207.839 291.415 208.469 293.95 208.469 296.5C208.469 299.05 207.839 301.585 206.549 303.715L207.404 304.105Z" fill="#404040"/>
<path d="M11.22 9.14V11.18H16.48V9.14H11.22ZM9.14 18.3V25.8H11.36V20.32H15.56V25.74H17.88V18.3H9.14ZM10.04 23.06V25.12H16.82V23.06H10.04ZM11.44 7C10.54 9.36 8.92 11.64 7.1 13.04C7.62 13.4 8.54 14.24 8.94 14.66C10.78 13.02 12.62 10.38 13.72 7.64L11.44 7ZM15.86 9.14V9.52C14.58 13.52 10.9 16.58 6.76 17.86C7.22 18.32 7.82 19.22 8.1 19.8C12.64 18.1 16.54 14.86 18.2 9.74L16.68 9.06L16.28 9.14H15.86ZM11.3 10.52L9.52 11.44C10.94 14.5 13.9 17.8 18.22 19.34C18.54 18.74 19.22 17.8 19.7 17.34C15.46 16.16 12.58 13.2 11.3 10.52ZM0.88 11.14V13.38H8.04V11.14H0.88ZM3.54 7.02V25.8H5.8V7.02H3.54ZM3.48 12.68C2.98 15.24 1.76 18.36 0.4 20.1C0.78 20.68 1.32 21.62 1.52 22.28C3.02 20.22 4.26 16.38 4.86 13.16L3.48 12.68ZM5.72 13.76L4.64 14.76C5.22 15.58 6.4 17.48 6.88 18.46L8.18 16.66C7.82 16.18 6.18 14.2 5.72 13.76ZM31.94 7.02V12.78H34.28V7.02H31.94ZM28.44 8.6V10.52H38.04V8.6H28.44ZM27.18 11.88V13.84H39.22V11.88H27.18ZM29.98 13.52C29.76 14.78 29.2 15.66 27.08 16.2C27.52 16.58 28.08 17.38 28.3 17.9C30.98 16.98 31.76 15.54 32.08 13.52H29.98ZM33.98 13.16V14.48C33.98 16.24 34.38 16.92 36.24 16.92C36.54 16.92 37.44 16.92 37.76 16.92C38.22 16.92 38.72 16.9 39.02 16.78C38.96 16.28 38.9 15.5 38.86 14.96C38.58 15.04 38.02 15.08 37.7 15.08C37.44 15.08 36.64 15.08 36.4 15.08C36.12 15.08 36.06 14.92 36.06 14.5V13.16H33.98ZM31.2 16.04C30.44 18.08 28.86 19.78 26.94 20.82C27.4 21.18 28.2 22.02 28.52 22.44C30.56 21.14 32.38 19.06 33.36 16.54L31.2 16.04ZM30.8 17.84V19.76H36.22V17.84H30.8ZM35.62 17.84V18.24C34.72 21.06 31.48 23.08 26.02 24C26.52 24.5 27.1 25.34 27.36 25.92C33.2 24.76 36.76 22.28 38.08 18.44L36.5 17.76L36.08 17.84H35.62ZM29.48 17.74L27.78 18.58C29.28 21.92 32.6 24.76 38.4 25.74C38.68 25.14 39.26 24.2 39.72 23.72C34.04 23.04 30.8 20.6 29.48 17.74ZM21.3 7.8V25.74H23.38V9.94H25.9V7.8H21.3ZM25.28 7.8V8.48C24.98 9.74 24.36 12.34 23.8 14.12C24.94 15.52 25.18 16.82 25.18 17.78C25.18 18.36 25.08 18.8 24.84 18.98C24.7 19.08 24.5 19.14 24.3 19.14C24.06 19.16 23.78 19.14 23.44 19.12C23.76 19.7 23.94 20.6 23.96 21.18C24.42 21.18 24.9 21.18 25.26 21.14C25.7 21.06 26.08 20.94 26.4 20.7C27.04 20.22 27.3 19.34 27.3 18.04C27.3 16.86 27.04 15.44 25.84 13.86C26.42 12.32 27.06 10.3 27.58 8.62L26 7.72L25.66 7.8H25.28ZM45.08 16.6V17.84H54.96V16.6H45.08ZM48.48 21.72C47.64 22.54 46 23.34 44.58 23.72C44.98 24.06 45.54 24.7 45.82 25.12C47.3 24.56 48.92 23.36 49.84 22.26L48.48 21.72ZM43.32 12.96V14.06H47.62V12.96H43.32ZM52.28 12.96V14.1H56.66V12.96H52.28ZM43.32 11.04V12.4H47.1V14.64H43.32V15.98H49.22V11.04H43.32ZM56.74 11.04H50.56V16.02H56.74V14.64H52.72V12.42H56.74V11.04ZM41.86 11.04V25.8H44.1V11.04H41.86ZM55.88 11.04V23.44C55.88 23.66 55.82 23.74 55.58 23.74C55.38 23.74 54.72 23.74 54.12 23.72C54.4 24.24 54.7 25.1 54.78 25.66C55.92 25.66 56.76 25.64 57.36 25.3C57.98 24.96 58.16 24.44 58.16 23.44V11.04H55.88ZM47.1 19.54H52.8V21.08H47.1V19.54ZM45.56 18.34V22.28H54.4V18.34H45.56ZM47.38 19.92C47.6 20.28 47.9 20.76 48.04 21.08L48.94 20.7C48.78 20.4 48.46 19.92 48.22 19.6L47.38 19.92ZM51.6 19.56C51.46 19.88 51.14 20.4 50.9 20.78L51.66 21.1C51.92 20.8 52.2 20.42 52.52 19.96L51.6 19.56ZM51 21.76L50.14 22.5C50.94 23.04 52.74 24.4 53.4 25.02L54.34 23.7C53.84 23.36 51.64 22.08 51 21.76ZM48.98 15.76V19.04H50.84V15.76H48.98ZM49.18 18.62V21.76H49V25.44H50.84V21.76H50.66V18.62H49.18ZM41.04 7.9V9.88H49.62V7.9H41.04ZM44.68 7V10.72H47.06V7H44.68ZM53.08 7V10.74H55.46V7H53.08ZM50.34 7.9V9.88H58.94V7.9H50.34ZM63.58 7.74V9.9H79.02V7.74H63.58ZM63.8 23.32V25.3H79.06V23.32H63.8ZM71.7 19.8V21.64H77.34V19.8H71.7ZM62 7.74V13.92C62 17.08 61.88 21.58 60.38 24.66C60.96 24.86 61.96 25.42 62.4 25.76C64.02 22.46 64.26 17.34 64.26 13.92V7.74H62ZM70.44 18.16V24.44H72.76V18.16H70.44ZM65.96 19.56V24.46H68.26V19.56H65.96ZM64.66 12.98V14.64H70.88V12.98H64.66ZM66.84 10.92V18.28H68.8V10.92H66.84ZM66.6 13.72C65.96 14.92 64.76 16.22 63.62 16.86C64.04 17.2 64.62 17.84 64.9 18.3C66.08 17.4 67.26 15.74 67.9 14.2L66.6 13.72ZM71.38 12.98V14.64H78.56V12.98H71.38ZM73.72 10.92V18.28H75.72V10.92H73.72ZM73.24 13.7C72.66 14.9 71.48 16.18 70.34 16.84C70.76 17.18 71.34 17.84 71.64 18.3C72.82 17.4 73.96 15.72 74.56 14.16L73.24 13.7ZM68.72 14.46L67.6 15.3C68.16 15.74 69.3 16.78 69.76 17.28L70.9 15.84C70.54 15.56 69.18 14.7 68.72 14.46ZM69.3 10.02C68.22 10.44 66.24 10.74 64.48 10.86C64.68 11.24 64.9 11.84 65 12.22C66.92 12.12 69.22 11.82 70.78 11.22L69.3 10.02ZM76.52 9.92C75.32 10.38 73.06 10.68 71.1 10.84C71.3 11.18 71.54 11.82 71.6 12.18C73.74 12.08 76.28 11.76 78 11.12L76.52 9.92ZM75.78 14.5L74.74 15.48C75.56 16.08 77.38 17.54 78.14 18.28L79.2 16.74C78.66 16.34 76.46 14.88 75.78 14.5ZM84.96 6.94C84.1 9.54 82.54 12.1 80.74 13.66C81.32 14 82.34 14.8 82.8 15.22C84.58 13.42 86.34 10.54 87.4 7.56L84.96 6.94ZM85.38 9.22L84.22 11.54H98.1V9.22H85.38ZM83.96 13.94V20.38H86.38V16.18H97.64V13.94H83.96ZM80.8 19.2V21.52H99.2V19.2H80.8ZM89.84 10.42V25.8H92.32V10.42H89.84ZM105.44 11.92V14.28H109.2V11.92H105.44ZM111.22 7.02V22.82C111.22 23.14 111.1 23.24 110.78 23.24C110.46 23.26 109.5 23.26 108.48 23.22C108.86 23.86 109.32 25.04 109.44 25.72C110.9 25.72 111.98 25.62 112.7 25.18C113.44 24.78 113.7 24.08 113.7 22.84V7.02H111.22ZM108.64 11.92V12.34C108.2 16.32 106.7 20.02 104.38 21.66C104.92 22.12 105.6 23.08 105.9 23.64C108.7 21.42 110.3 17.5 110.88 12.24L109.44 11.88L109.04 11.92H108.64ZM113.6 10.32L112.18 10.54C113.08 16.14 114.6 21 118.12 23.52C118.48 22.84 119.28 21.86 119.82 21.4C116.28 19.4 114.5 15.14 113.6 10.32ZM117.06 10.68C116.12 12.18 114.46 14.04 113.22 15.18L115.04 16.36C116.3 15.24 117.92 13.54 119.18 11.94L117.06 10.68ZM100.62 10.2C101.86 10.94 103.52 12.08 104.3 12.86L105.78 10.84C104.94 10.12 103.22 9.06 102 8.4L100.62 10.2ZM100.58 21.76L102.66 23.24C103.7 21.46 104.8 19.36 105.7 17.42L103.88 15.94C102.86 18.06 101.52 20.36 100.58 21.76ZM123 8.02V14.94C123 18.26 122.74 21.66 120.44 24.26C121.06 24.64 122.06 25.44 122.5 25.98C125.2 22.94 125.48 18.86 125.48 14.96V8.02H123ZM129.14 8.88V23.86H131.58V8.88H129.14ZM135.24 8V25.76H137.78V8H135.24ZM153.82 7.32V12.46H155.9V7.32H153.82ZM150.82 23.18L151.32 25.34C153.28 24.98 155.86 24.52 158.28 24.04L158.14 22.08C155.46 22.52 152.68 22.94 150.82 23.18ZM156.42 20.22C156.96 22 157.52 24.4 157.7 25.78L159.44 25.34C159.24 23.96 158.62 21.62 158.04 19.86L156.42 20.22ZM152.8 12.84H156.84V17.02H152.8V12.84ZM151.1 10.82V19.08H158.6V10.82H151.1ZM154 11.58V17.98H153.82V23.64H155.88V17.98H155.7V11.58H154ZM144.84 20.82V25.12H146.52V20.82H144.84ZM143.8 12.12H147.7V13.26H143.8V12.12ZM141.78 10.5V14.88H149.84V10.5H141.78ZM140.8 7.78V9.78H150.78V7.78H140.8ZM143.38 20.28V21.74H147.96V20.28H143.38ZM141.1 15.58V25.78H142.94V17.36H149.06V15.58H141.1ZM148.46 15.58V23.46C148.46 23.66 148.4 23.72 148.22 23.72C148.04 23.72 147.5 23.72 146.96 23.7C147.18 24.2 147.4 24.96 147.46 25.5C148.44 25.5 149.18 25.46 149.7 25.18C150.24 24.86 150.38 24.36 150.38 23.5V15.58H148.46ZM143.34 18.12C143.74 18.78 144.12 19.68 144.26 20.24L145.56 19.74C145.4 19.2 145 18.32 144.58 17.7L143.34 18.12ZM146.72 17.56C146.44 18.48 145.88 19.82 145.44 20.64L146.56 21.16C147.06 20.38 147.62 19.18 148.18 18.14L146.72 17.56ZM169.4 7.38V21.78C169.4 24.54 170.1 25.34 172.58 25.34C173.08 25.34 175.4 25.34 175.94 25.34C178.4 25.34 178.98 23.92 179.26 20.06C178.64 19.92 177.68 19.48 177.12 19.06C176.96 22.38 176.78 23.2 175.76 23.2C175.26 23.2 173.28 23.2 172.84 23.2C171.86 23.2 171.72 23 171.72 21.82V7.38H169.4ZM165.6 7.1C164.44 9.98 162.46 12.82 160.42 14.6C160.82 15.2 161.46 16.52 161.68 17.1C164.06 14.84 166.4 11.26 167.84 7.86L165.6 7.1ZM163.6 12.52V25.78H165.9V10.28L165.88 10.26L163.6 12.52ZM170.8 12.52V14.8H178.72V12.52H170.8ZM187.2 15.84V17.72H192.34V15.84H187.2ZM187.2 19.2V21.08H192.36V19.2H187.2ZM183.32 22.58V24.78H196.82V22.58H183.32ZM181.82 12.24V25.8H184.12V14.44H195.72V25.8H198.16V12.24H181.82ZM186.18 13.7V23.56H188.32V13.7H186.18ZM191.4 13.7V23.54H193.56V13.7H191.4ZM188.44 9.2C188.36 10.46 188.04 12.14 187.76 13.3L189.96 13.88C190.36 12.84 190.8 11.28 191.28 9.8L188.44 9.2ZM180.98 8.16V10.44H199.06V8.16H180.98ZM203.56 8.88V25.78H205.9V8.88H203.56ZM200.86 12.48V14.72H207.88V12.48H200.86ZM203.76 13.54C203.14 15.76 201.74 18.66 200.36 20.26C200.72 20.86 201.26 21.86 201.48 22.56C203 20.58 204.4 17.02 205.16 14.16L203.76 13.54ZM206.66 7.22C205.18 7.86 202.78 8.4 200.62 8.7C200.88 9.22 201.2 10.04 201.28 10.54C203.56 10.3 206.26 9.82 208.26 9.08L206.66 7.22ZM205.7 15.2L204.66 16.14C205.28 16.98 206.48 18.8 206.94 19.76L208.32 17.88C207.94 17.42 206.2 15.62 205.7 15.2ZM212.3 7.02V13.42H214.68V7.02H212.3ZM208.38 7.94V9.4H218.86V7.94H208.38ZM208.74 10.08V11.46H218.4V10.08H208.74ZM207.76 12.14V13.64H219.26V12.14H207.76ZM211.16 18H216.02V18.86H211.16V18ZM211.16 20.22H216.02V21.08H211.16V20.22ZM211.16 15.8H216.02V16.62H211.16V15.8ZM209 14.32V22.56H218.28V14.32H209ZM214.16 23.48C215.34 24.22 216.72 25.22 217.48 25.82L219.56 24.7C218.66 24.06 217.06 23.1 215.76 22.32L214.16 23.48ZM211.24 22.22C210.28 23 208.38 23.94 206.78 24.4C207.24 24.8 207.9 25.46 208.26 25.9C209.88 25.38 211.88 24.4 213.1 23.46L211.24 22.22Z" fill="#404040"/>
<rect x="2.91895" y="41.9639" width="13.2931" height="3.98794" fill="#DDE2EC"/>
<rect x="67.1455" y="41.9639" width="13.2931" height="3.98794" fill="#9B051E"/>
<rect x="131.371" y="41.9639" width="13.2931" height="3.98794" fill="#285F92"/>
<path d="M87.2234 50.0591H93.6634V48.9671H90.8214C90.3034 48.9671 89.6874 49.0091 89.1414 49.0651C91.5634 46.7831 93.1734 44.6971 93.1734 42.6391C93.1734 40.8051 92.0254 39.6151 90.1914 39.6151C88.8894 39.6151 87.9934 40.2171 87.1534 41.1271L87.8954 41.8411C88.4694 41.1691 89.1974 40.6511 90.0374 40.6511C91.3114 40.6511 91.9134 41.5191 91.9134 42.6951C91.9134 44.4451 90.4434 46.5031 87.2234 49.3171V50.0591ZM98.265 50.2551C100.197 50.2551 101.443 48.4771 101.443 44.8931C101.443 41.3371 100.197 39.6151 98.265 39.6151C96.305 39.6151 95.059 41.3371 95.059 44.8931C95.059 48.4771 96.305 50.2551 98.265 50.2551ZM98.265 49.2191C97.089 49.2191 96.291 47.9171 96.291 44.8931C96.291 41.9111 97.089 40.6371 98.265 40.6371C99.427 40.6371 100.211 41.9111 100.211 44.8931C100.211 47.9171 99.427 49.2191 98.265 49.2191ZM103.371 50.0591H108.999V48.9951H106.927V39.7971H105.947C105.401 40.1331 104.743 40.3711 103.819 40.5251V41.3511H105.653V48.9951H103.371V50.0591ZM110.52 50.0591H116.96V48.9671H114.118C113.6 48.9671 112.984 49.0091 112.438 49.0651C114.86 46.7831 116.47 44.6971 116.47 42.6391C116.47 40.8051 115.322 39.6151 113.488 39.6151C112.186 39.6151 111.29 40.2171 110.45 41.1271L111.192 41.8411C111.766 41.1691 112.494 40.6511 113.334 40.6511C114.608 40.6511 115.21 41.5191 115.21 42.6951C115.21 44.4451 113.74 46.5031 110.52 49.3171V50.0591Z" fill="#404040"/>
<path d="M23.6138 50.0591H29.2418V48.9951H27.1698V39.7971H26.1898C25.6438 40.1331 24.9858 40.3711 24.0618 40.5251V41.3511H25.8958V48.9951H23.6138V50.0591ZM33.4235 50.2551C35.3555 50.2551 37.1475 48.6591 37.1475 44.4871C37.1475 41.2251 35.6775 39.6151 33.7035 39.6151C32.1075 39.6151 30.7635 40.9591 30.7635 42.9471C30.7635 45.0751 31.8695 46.1671 33.5915 46.1671C34.4735 46.1671 35.3835 45.6351 36.0275 44.8231L35.9575 43.8011C35.2855 44.8231 34.4875 45.2291 33.8015 45.2291C32.5835 45.2291 31.9675 44.3191 31.9675 42.9471C31.9675 41.5331 32.7235 40.6091 33.7035 40.6091C35.1455 40.6091 35.9435 41.9671 35.9435 44.4871C35.9435 48.0011 34.7535 49.1911 33.3815 49.1911C32.7235 49.1911 32.0935 48.8971 31.6595 48.3931L30.9455 49.2051C31.5195 49.8071 32.3035 50.2551 33.4235 50.2551ZM41.8191 50.2551C43.7371 50.2551 45.0391 49.0931 45.0391 47.5951C45.0391 46.1951 44.1991 45.4111 43.3031 44.8931V44.8231C43.9191 44.3471 44.6751 43.4371 44.6751 42.3451C44.6751 40.7771 43.6111 39.6571 41.8611 39.6571C40.2511 39.6571 39.0331 40.6931 39.0331 42.2471C39.0331 43.3251 39.6771 44.1091 40.4331 44.6271V44.6831C39.4951 45.1871 38.5431 46.1391 38.5431 47.5251C38.5431 49.1071 39.9291 50.2551 41.8191 50.2551ZM42.5191 44.5011C41.3151 44.0251 40.2091 43.4791 40.2091 42.2471C40.2091 41.2671 40.8951 40.5951 41.8331 40.5951C42.9391 40.5951 43.5831 41.4071 43.5831 42.4151C43.5831 43.1851 43.2191 43.8851 42.5191 44.5011ZM41.8471 49.2891C40.6151 49.2891 39.6911 48.4911 39.6911 47.3991C39.6911 46.4191 40.2651 45.6071 41.1051 45.0751C42.5471 45.6631 43.8071 46.1811 43.8071 47.5531C43.8071 48.5751 43.0231 49.2891 41.8471 49.2891ZM46.2947 50.0591H52.7347V48.9671H49.8927C49.3747 48.9671 48.7587 49.0091 48.2127 49.0651C50.6347 46.7831 52.2447 44.6971 52.2447 42.6391C52.2447 40.8051 51.0967 39.6151 49.2627 39.6151C47.9607 39.6151 47.0647 40.2171 46.2247 41.1271L46.9667 41.8411C47.5407 41.1691 48.2687 40.6511 49.1087 40.6511C50.3827 40.6511 50.9847 41.5191 50.9847 42.6951C50.9847 44.4451 49.5147 46.5031 46.2947 49.3171V50.0591Z" fill="#404040"/>
<path d="M151.449 50.0591H157.889V48.9671H155.047C154.529 48.9671 153.913 49.0091 153.367 49.0651C155.789 46.7831 157.399 44.6971 157.399 42.6391C157.399 40.8051 156.251 39.6151 154.417 39.6151C153.115 39.6151 152.219 40.2171 151.379 41.1271L152.121 41.8411C152.695 41.1691 153.423 40.6511 154.263 40.6511C155.537 40.6511 156.139 41.5191 156.139 42.6951C156.139 44.4451 154.669 46.5031 151.449 49.3171V50.0591ZM162.491 50.2551C164.423 50.2551 165.669 48.4771 165.669 44.8931C165.669 41.3371 164.423 39.6151 162.491 39.6151C160.531 39.6151 159.285 41.3371 159.285 44.8931C159.285 48.4771 160.531 50.2551 162.491 50.2551ZM162.491 49.2191C161.315 49.2191 160.517 47.9171 160.517 44.8931C160.517 41.9111 161.315 40.6371 162.491 40.6371C163.653 40.6371 164.437 41.9111 164.437 44.8931C164.437 47.9171 163.653 49.2191 162.491 49.2191ZM167.596 50.0591H173.224V48.9951H171.152V39.7971H170.172C169.626 40.1331 168.968 40.3711 168.044 40.5251V41.3511H169.878V48.9951H167.596V50.0591ZM177.406 50.2551C179.338 50.2551 181.13 48.6591 181.13 44.4871C181.13 41.2251 179.66 39.6151 177.686 39.6151C176.09 39.6151 174.746 40.9591 174.746 42.9471C174.746 45.0751 175.852 46.1671 177.574 46.1671C178.456 46.1671 179.366 45.6351 180.01 44.8231L179.94 43.8011C179.268 44.8231 178.47 45.2291 177.784 45.2291C176.566 45.2291 175.95 44.3191 175.95 42.9471C175.95 41.5331 176.706 40.6091 177.686 40.6091C179.128 40.6091 179.926 41.9671 179.926 44.4871C179.926 48.0011 178.736 49.1911 177.364 49.1911C176.706 49.1911 176.076 48.8971 175.642 48.3931L174.928 49.2051C175.502 49.8071 176.286 50.2551 177.406 50.2551Z" fill="#404040"/>
<path d="M49.3613 253.575L98.0429 243.001L147.214 166.471L196.874 105.354L243.598 193.355L295.215 251.066L341.94 255.905" stroke="#9B051E" stroke-width="3" stroke-linecap="round"/>
<path d="M49.6064 254.651L99.2811 251.232L147.703 186.887L193.872 172.95L245.763 222.766L293.748 253.217L341.451 256.622" stroke="#285F92" stroke-width="3" stroke-linecap="round"/>
</svg>
