<svg width="620" height="452" viewBox="0 0 620 452" fill="none" xmlns="http://www.w3.org/2000/svg">
<rect width="620" height="452" fill="#FAFAFA"/>
<path d="M36.9248 327.381H607" stroke="#C7C7C7"/>
<path d="M242.763 372.109L161.913 398.402L499.338 399.006L410.651 390.242L328.976 362.74L242.763 372.109Z" fill="#BBC6DA"/>
<path d="M164 388.5L79 393.264V398.1H161.912L245.238 370.9L329.387 362.136L410.65 390.242L491.913 398.1H572.35V396.588L491.913 390.242L410.65 330.5L321.5 252.5L245.238 280.5L164 388.5Z" fill="#7791B6"/>
<path d="M36.9248 113.413H607" stroke="#C7C7C7"/>
<path d="M36.9248 256.059H607" stroke="#C7C7C7"/>
<path d="M36.9248 184.735H607" stroke="#C7C7C7"/>
<path d="M36.9248 398.705H607" stroke="#C7C7C7"/>
<path d="M562.3 415.01V416.165H575.755V415.01H562.3ZM568.39 409.415V423.2H569.59V409.415H568.39ZM580.27 410.195V411.29H588.1V410.195H580.27ZM580.27 413.81V414.89H588.16V413.81H580.27ZM580.15 417.44V418.52H588.085V417.44H580.15ZM579.58 410.195V414.83C579.58 417.245 579.325 420.29 576.91 422.405C577.15 422.57 577.6 422.975 577.765 423.215C580.345 420.965 580.72 417.425 580.72 414.83V410.195H579.58ZM587.605 410.195V421.535C587.605 421.865 587.485 421.97 587.14 421.985C586.795 421.985 585.565 422 584.32 421.955C584.515 422.27 584.725 422.81 584.8 423.14C586.42 423.14 587.41 423.125 587.995 422.93C588.565 422.735 588.775 422.345 588.775 421.55V410.195H587.605Z" fill="#404040"/>
<path d="M161.088 373.621L79.8252 391.452V393.567L164 387L244 280L323.5 255.5L412 339.5L491.913 390.847L573.175 396.287V395.38L495.213 386.918L409.5 294L327.738 142.426L244 244.877L161.088 373.621Z" fill="#DCB7B7"/>
<path d="M79.4126 397.495H163.15L243.588 371.203L328.975 362.136L411.475 390.545L493.15 397.495H573.175" stroke="#DDE2EC" stroke-width="3" stroke-linecap="round"/>
<path d="M28.011 404.846C30.081 404.846 31.416 402.941 31.416 399.101C31.416 395.291 30.081 393.446 28.011 393.446C25.911 393.446 24.576 395.291 24.576 399.101C24.576 402.941 25.911 404.846 28.011 404.846ZM28.011 403.736C26.751 403.736 25.896 402.341 25.896 399.101C25.896 395.906 26.751 394.541 28.011 394.541C29.256 394.541 30.096 395.906 30.096 399.101C30.096 402.341 29.256 403.736 28.011 403.736Z" fill="#404040"/>
<path d="M20.0357 190.877C21.7307 190.877 23.1857 189.437 23.1857 187.307C23.1857 184.997 21.9857 183.857 20.1257 183.857C19.2407 183.857 18.2207 184.397 17.5457 185.282L17.5907 186.377C18.3257 185.282 19.2107 184.862 19.9157 184.862C21.2357 184.862 21.8957 185.807 21.8957 187.307C21.8957 188.792 21.0857 189.797 20.0357 189.797C18.4907 189.797 17.6357 188.252 17.6357 185.432C17.6357 181.832 18.9257 180.617 20.4707 180.617C21.1307 180.617 21.8057 180.932 22.2257 181.442L22.9907 180.602C22.3907 179.957 21.5507 179.477 20.4107 179.477C18.2807 179.477 16.3457 181.127 16.3457 185.432C16.3457 189.062 17.9207 190.877 20.0357 190.877ZM28.011 190.877C30.081 190.877 31.416 188.972 31.416 185.132C31.416 181.322 30.081 179.477 28.011 179.477C25.911 179.477 24.576 181.322 24.576 185.132C24.576 188.972 25.911 190.877 28.011 190.877ZM28.011 189.767C26.751 189.767 25.896 188.372 25.896 185.132C25.896 181.937 26.751 180.572 28.011 180.572C29.256 180.572 30.096 181.937 30.096 185.132C30.096 188.372 29.256 189.767 28.011 189.767Z" fill="#404040"/>
<path d="M20.6057 261.99H21.8957V250.995H20.3807L15.8057 258.06V258.96H23.3657V257.88H17.2457L19.7507 254.13C20.0507 253.59 20.3507 253.035 20.6207 252.495H20.6957C20.6507 253.065 20.6057 253.95 20.6057 254.505V261.99ZM28.011 262.2C30.081 262.2 31.416 260.295 31.416 256.455C31.416 252.645 30.081 250.8 28.011 250.8C25.911 250.8 24.576 252.645 24.576 256.455C24.576 260.295 25.911 262.2 28.011 262.2ZM28.011 261.09C26.751 261.09 25.896 259.695 25.896 256.455C25.896 253.26 26.751 251.895 28.011 251.895C29.256 251.895 30.096 253.26 30.096 256.455C30.096 259.695 29.256 261.09 28.011 261.09Z" fill="#404040"/>
<path d="M16.1807 333.313H23.0807V332.143H20.0357C19.4807 332.143 18.8207 332.188 18.2357 332.248C20.8307 329.803 22.5557 327.568 22.5557 325.363C22.5557 323.398 21.3257 322.123 19.3607 322.123C17.9657 322.123 17.0057 322.768 16.1057 323.743L16.9007 324.508C17.5157 323.788 18.2957 323.233 19.1957 323.233C20.5607 323.233 21.2057 324.163 21.2057 325.423C21.2057 327.298 19.6307 329.503 16.1807 332.518V333.313ZM28.011 333.523C30.081 333.523 31.416 331.618 31.416 327.778C31.416 323.968 30.081 322.123 28.011 322.123C25.911 322.123 24.576 323.968 24.576 327.778C24.576 331.618 25.911 333.523 28.011 333.523ZM28.011 332.413C26.751 332.413 25.896 331.018 25.896 327.778C25.896 324.583 26.751 323.218 28.011 323.218C29.256 323.218 30.096 324.583 30.096 327.778C30.096 331.018 29.256 332.413 28.011 332.413Z" fill="#404040"/>
<path d="M19.7057 119.554C21.7607 119.554 23.1557 118.309 23.1557 116.704C23.1557 115.204 22.2557 114.364 21.2957 113.809V113.734C21.9557 113.224 22.7657 112.249 22.7657 111.079C22.7657 109.399 21.6257 108.199 19.7507 108.199C18.0257 108.199 16.7207 109.309 16.7207 110.974C16.7207 112.129 17.4107 112.969 18.2207 113.524V113.584C17.2157 114.124 16.1957 115.144 16.1957 116.629C16.1957 118.324 17.6807 119.554 19.7057 119.554ZM20.4557 113.389C19.1657 112.879 17.9807 112.294 17.9807 110.974C17.9807 109.924 18.7157 109.204 19.7207 109.204C20.9057 109.204 21.5957 110.074 21.5957 111.154C21.5957 111.979 21.2057 112.729 20.4557 113.389ZM19.7357 118.519C18.4157 118.519 17.4257 117.664 17.4257 116.494C17.4257 115.444 18.0407 114.574 18.9407 114.004C20.4857 114.634 21.8357 115.189 21.8357 116.659C21.8357 117.754 20.9957 118.519 19.7357 118.519ZM28.011 119.554C30.081 119.554 31.416 117.649 31.416 113.809C31.416 109.999 30.081 108.154 28.011 108.154C25.911 108.154 24.576 109.999 24.576 113.809C24.576 117.649 25.911 119.554 28.011 119.554ZM28.011 118.444C26.751 118.444 25.896 117.049 25.896 113.809C25.896 110.614 26.751 109.249 28.011 109.249C29.256 109.249 30.096 110.614 30.096 113.809C30.096 117.049 29.256 118.444 28.011 118.444Z" fill="#404040"/>
<path d="M290.876 240H299.796V237.62H297.016V225.2H294.836C293.876 225.78 292.876 226.16 291.376 226.44V228.26H294.076V237.62H290.876V240ZM306.573 240.28C309.293 240.28 311.753 238.38 311.753 235.1C311.753 231.86 309.673 230.4 307.193 230.4C306.513 230.4 305.993 230.54 305.413 230.8L305.693 227.66H311.073V225.2H303.153L302.733 232.38L304.093 233.26C304.953 232.7 305.433 232.48 306.313 232.48C307.793 232.48 308.793 233.44 308.793 235.16C308.793 236.92 307.733 237.9 306.173 237.9C304.813 237.9 303.753 237.22 302.933 236.4L301.553 238.26C302.673 239.36 304.233 240.28 306.573 240.28ZM319.57 240H322.31V225.2H318.77L313.27 234.16V236.18H324.07V233.92H316.13L318.41 230.24C318.83 229.44 319.23 228.62 319.61 227.82H319.69C319.65 228.7 319.57 230.04 319.57 230.9V240ZM327.886 240.28C328.926 240.28 329.726 239.46 329.726 238.36C329.726 237.26 328.926 236.46 327.886 236.46C326.826 236.46 326.066 237.26 326.066 238.36C326.066 239.46 326.826 240.28 327.886 240.28ZM337.87 240H340.61V225.2H337.07L331.57 234.16V236.18H342.37V233.92H334.43L336.71 230.24C337.13 229.44 337.53 228.62 337.91 227.82H337.99C337.95 228.7 337.87 230.04 337.87 230.9V240ZM349.667 240H352.407V225.2H348.867L343.367 234.16V236.18H354.167V233.92H346.227L348.507 230.24C348.927 229.44 349.327 228.62 349.707 227.82H349.787C349.747 228.7 349.667 230.04 349.667 230.9V240Z" fill="white"/>
<path d="M309.755 333.353C312.027 333.353 314.139 331.481 314.139 326.841C314.139 322.953 312.315 321.145 310.059 321.145C308.139 321.145 306.539 322.665 306.539 325.017C306.539 327.481 307.867 328.713 309.835 328.713C310.779 328.713 311.835 328.137 312.523 327.225L312.427 325.881C311.739 326.953 310.907 327.369 310.171 327.369C308.939 327.369 308.251 326.505 308.251 325.017C308.251 323.465 309.051 322.553 310.075 322.553C311.515 322.553 312.427 323.897 312.427 326.841C312.427 330.585 311.163 331.833 309.675 331.833C308.939 331.833 308.219 331.481 307.739 330.953L306.747 332.089C307.419 332.793 308.395 333.353 309.755 333.353ZM315.68 333.129H323.296V331.561H320.352C319.776 331.561 319.024 331.625 318.416 331.689C320.912 329.289 322.736 326.937 322.736 324.681C322.736 322.537 321.344 321.145 319.184 321.145C317.648 321.145 316.608 321.801 315.584 322.905L316.64 323.913C317.264 323.193 318.032 322.617 318.96 322.617C320.272 322.617 320.944 323.497 320.944 324.761C320.944 326.697 319.168 328.985 315.68 332.057V333.129ZM326.501 333.353C327.189 333.353 327.733 332.809 327.733 332.057C327.733 331.289 327.189 330.761 326.501 330.761C325.797 330.761 325.269 331.289 325.269 332.057C325.269 332.809 325.797 333.353 326.501 333.353ZM334.291 333.129H336.019V321.353H333.875L329.203 328.729V329.977H337.523V328.537H331.059L333.363 325.001C333.699 324.393 334.019 323.769 334.307 323.177H334.387C334.339 323.817 334.291 324.825 334.291 325.449V333.129ZM343.416 333.129H345.144V321.353H343L338.328 328.729V329.977H346.648V328.537H340.184L342.488 325.001C342.824 324.393 343.144 323.769 343.432 323.177H343.512C343.464 323.817 343.416 324.825 343.416 325.449V333.129Z" fill="white"/>
<path d="M307.227 388.923H313.963V387.403H311.659V377.147H310.267C309.579 377.563 308.811 377.851 307.691 378.043V379.211H309.819V387.403H307.227V388.923ZM318.88 389.147C321.152 389.147 323.264 387.275 323.264 382.635C323.264 378.747 321.44 376.939 319.184 376.939C317.264 376.939 315.664 378.459 315.664 380.811C315.664 383.275 316.992 384.507 318.96 384.507C319.904 384.507 320.96 383.931 321.648 383.019L321.552 381.675C320.864 382.747 320.032 383.163 319.296 383.163C318.064 383.163 317.376 382.299 317.376 380.811C317.376 379.259 318.176 378.347 319.2 378.347C320.64 378.347 321.552 379.691 321.552 382.635C321.552 386.379 320.288 387.627 318.8 387.627C318.064 387.627 317.344 387.275 316.864 386.747L315.872 387.883C316.544 388.587 317.52 389.147 318.88 389.147ZM326.501 389.147C327.189 389.147 327.733 388.603 327.733 387.851C327.733 387.083 327.189 386.555 326.501 386.555C325.797 386.555 325.269 387.083 325.269 387.851C325.269 388.603 325.797 389.147 326.501 389.147ZM333.155 389.147C335.331 389.147 337.107 387.899 337.107 385.771C337.107 384.171 336.035 383.163 334.675 382.811V382.731C335.923 382.267 336.707 381.323 336.707 379.963C336.707 378.027 335.219 376.939 333.107 376.939C331.747 376.939 330.659 377.515 329.715 378.347L330.691 379.515C331.363 378.843 332.131 378.411 333.027 378.411C334.163 378.411 334.835 379.067 334.835 380.107C334.835 381.291 334.067 382.155 331.763 382.155V383.531C334.403 383.531 335.235 384.363 335.235 385.675C335.235 386.891 334.323 387.627 333.011 387.627C331.779 387.627 330.915 387.035 330.227 386.331L329.315 387.515C330.115 388.411 331.315 389.147 333.155 389.147ZM342.296 389.147C344.344 389.147 346.264 387.659 346.264 385.067C346.264 382.475 344.648 381.323 342.68 381.323C342.04 381.323 341.56 381.467 341.064 381.723L341.336 378.715H345.704V377.147H339.72L339.368 382.747L340.28 383.323C340.968 382.875 341.416 382.667 342.152 382.667C343.496 382.667 344.392 383.563 344.392 385.115C344.392 386.683 343.4 387.627 342.072 387.627C340.84 387.627 339.976 387.035 339.32 386.363L338.424 387.563C339.272 388.395 340.44 389.147 342.296 389.147Z" fill="white"/>
<path d="M67.7951 410.72V422.705H68.9201V411.8H78.9401V422.585H80.1101V410.72H67.7951ZM68.3951 420.485V421.58H79.6001V420.485H68.3951ZM71.7401 411.395C71.6951 415.355 71.5001 417.35 69.1001 418.49C69.3401 418.685 69.6701 419.09 69.7901 419.36C72.4751 418.055 72.7751 415.7 72.8501 411.395H71.7401ZM74.9501 411.59V416.495C74.9501 417.665 75.1901 418.145 76.2401 418.145C76.4801 418.145 77.5901 418.145 77.8751 418.145C78.2351 418.145 78.6101 418.145 78.8051 418.085C78.7601 417.8 78.7301 417.425 78.7151 417.125C78.5051 417.17 78.0851 417.185 77.8451 417.185C77.6051 417.185 76.6301 417.185 76.3901 417.185C76.0751 417.185 76.0151 417.02 76.0151 416.525V411.59H74.9501ZM85.2701 410.195V411.29H93.1001V410.195H85.2701ZM85.2701 413.81V414.89H93.1601V413.81H85.2701ZM85.1501 417.44V418.52H93.0851V417.44H85.1501ZM84.5801 410.195V414.83C84.5801 417.245 84.3251 420.29 81.9101 422.405C82.1501 422.57 82.6001 422.975 82.7651 423.215C85.3451 420.965 85.7201 417.425 85.7201 414.83V410.195H84.5801ZM92.6051 410.195V421.535C92.6051 421.865 92.4851 421.97 92.1401 421.985C91.7951 421.985 90.5651 422 89.3201 421.955C89.5151 422.27 89.7251 422.81 89.8001 423.14C91.4201 423.14 92.4101 423.125 92.9951 422.93C93.5651 422.735 93.7751 422.345 93.7751 421.55V410.195H92.6051Z" fill="#404040"/>
<path d="M150.76 410.87V411.98H162.1V410.87H150.76ZM149.815 421.265V422.39H163.165V421.265H149.815ZM155.155 411.26C154.735 414.59 153.955 419.225 153.355 421.91H154.585C155.14 419.3 155.905 414.68 156.4 411.26H155.155ZM151.585 415.235V416.33H159.88V415.235H151.585ZM159.445 415.235V415.385C159.355 416.87 159.1 419.84 158.845 421.925L160 422.015C160.27 419.93 160.54 417.14 160.645 415.265L159.775 415.19L159.58 415.235H159.445ZM167.77 410.195V411.29H175.6V410.195H167.77ZM167.77 413.81V414.89H175.66V413.81H167.77ZM167.65 417.44V418.52H175.585V417.44H167.65ZM167.08 410.195V414.83C167.08 417.245 166.825 420.29 164.41 422.405C164.65 422.57 165.1 422.975 165.265 423.215C167.845 420.965 168.22 417.425 168.22 414.83V410.195H167.08ZM175.105 410.195V421.535C175.105 421.865 174.985 421.97 174.64 421.985C174.295 421.985 173.065 422 171.82 421.955C172.015 422.27 172.225 422.81 172.3 423.14C173.92 423.14 174.91 423.125 175.495 422.93C176.065 422.735 176.275 422.345 176.275 421.55V410.195H175.105Z" fill="#404040"/>
<path d="M232.33 413.375V414.53H245.65V413.375H232.33ZM236.095 416.27C235.105 418.46 233.56 420.83 232.12 422.33C232.435 422.525 232.99 422.9 233.245 423.11C234.64 421.49 236.215 419 237.325 416.675L236.095 416.27ZM240.535 416.66C241.945 418.685 243.745 421.43 244.57 423.02L245.725 422.375C244.84 420.785 242.995 418.13 241.585 416.165L240.535 416.66ZM237.565 409.85C238.075 410.885 238.69 412.25 238.96 413.045L240.19 412.565C239.875 411.785 239.23 410.465 238.72 409.475L237.565 409.85ZM250.27 410.195V411.29H258.1V410.195H250.27ZM250.27 413.81V414.89H258.16V413.81H250.27ZM250.15 417.44V418.52H258.085V417.44H250.15ZM249.58 410.195V414.83C249.58 417.245 249.325 420.29 246.91 422.405C247.15 422.57 247.6 422.975 247.765 423.215C250.345 420.965 250.72 417.425 250.72 414.83V410.195H249.58ZM257.605 410.195V421.535C257.605 421.865 257.485 421.97 257.14 421.985C256.795 421.985 255.565 422 254.32 421.955C254.515 422.27 254.725 422.81 254.8 423.14C256.42 423.14 257.41 423.125 257.995 422.93C258.565 422.735 258.775 422.345 258.775 421.55V410.195H257.605Z" fill="#404040"/>
<path d="M314.71 415.385L314.89 416.51L327.955 414.425L327.775 413.285L314.71 415.385ZM318.94 409.73V419.87C318.94 421.685 319.615 422.345 321.37 422.345C321.775 422.345 324.415 422.345 325.03 422.345C325.765 422.345 326.47 422.315 326.77 422.24C326.71 421.97 326.65 421.46 326.605 421.145C326.26 421.22 325.54 421.265 325.03 421.265C324.415 421.265 321.91 421.265 321.31 421.265C320.425 421.265 320.14 420.905 320.14 419.945V409.73H318.94ZM332.77 410.195V411.29H340.6V410.195H332.77ZM332.77 413.81V414.89H340.66V413.81H332.77ZM332.65 417.44V418.52H340.585V417.44H332.65ZM332.08 410.195V414.83C332.08 417.245 331.825 420.29 329.41 422.405C329.65 422.57 330.1 422.975 330.265 423.215C332.845 420.965 333.22 417.425 333.22 414.83V410.195H332.08ZM340.105 410.195V421.535C340.105 421.865 339.985 421.97 339.64 421.985C339.295 421.985 338.065 422 336.82 421.955C337.015 422.27 337.225 422.81 337.3 423.14C338.92 423.14 339.91 423.125 340.495 422.93C341.065 422.735 341.275 422.345 341.275 421.55V410.195H340.105Z" fill="#404040"/>
<path d="M403.72 410.33V411.455H405.775V410.33H403.72ZM401.065 410.615C400.795 414.86 400.15 419.81 397.045 422.48C397.315 422.66 397.75 423.035 397.96 423.26C401.17 420.425 401.905 415.235 402.295 410.705L401.065 410.615ZM404.815 410.33V410.96H405.085C405.7 416.18 406.93 420.815 409.795 423.29C410.065 423.035 410.575 422.69 410.905 422.525C408.04 420.23 406.735 415.565 406.135 410.33H404.815ZM415.27 410.195V411.29H423.1V410.195H415.27ZM415.27 413.81V414.89H423.16V413.81H415.27ZM415.15 417.44V418.52H423.085V417.44H415.15ZM414.58 410.195V414.83C414.58 417.245 414.325 420.29 411.91 422.405C412.15 422.57 412.6 422.975 412.765 423.215C415.345 420.965 415.72 417.425 415.72 414.83V410.195H414.58ZM422.605 410.195V421.535C422.605 421.865 422.485 421.97 422.14 421.985C421.795 421.985 420.565 422 419.32 421.955C419.515 422.27 419.725 422.81 419.8 423.14C421.42 423.14 422.41 423.125 422.995 422.93C423.565 422.735 423.775 422.345 423.775 421.55V410.195H422.605Z" fill="#404040"/>
<path d="M484.27 409.565C484.255 415.01 484.375 419.96 479.47 422.315C479.77 422.525 480.145 422.93 480.31 423.215C485.425 420.605 485.44 415.31 485.485 409.565H484.27ZM480.16 413.255V414.38H489.46V413.255H480.16ZM488.77 413.255V421.25C488.77 422.63 489.145 422.99 490.3 422.99C490.54 422.99 491.845 422.99 492.1 422.99C493.21 422.99 493.51 422.315 493.615 420.215C493.3 420.125 492.82 419.915 492.55 419.705C492.505 421.52 492.43 421.88 492.01 421.88C491.725 421.88 490.675 421.88 490.465 421.88C490 421.88 489.925 421.79 489.925 421.25V413.255H488.77ZM497.77 410.195V411.29H505.6V410.195H497.77ZM497.77 413.81V414.89H505.66V413.81H497.77ZM497.65 417.44V418.52H505.585V417.44H497.65ZM497.08 410.195V414.83C497.08 417.245 496.825 420.29 494.41 422.405C494.65 422.57 495.1 422.975 495.265 423.215C497.845 420.965 498.22 417.425 498.22 414.83V410.195H497.08ZM505.105 410.195V421.535C505.105 421.865 504.985 421.97 504.64 421.985C504.295 421.985 503.065 422 501.82 421.955C502.015 422.27 502.225 422.81 502.3 423.14C503.92 423.14 504.91 423.125 505.495 422.93C506.065 422.735 506.275 422.345 506.275 421.55V410.195H505.105Z" fill="#404040"/>
<path d="M16.585 96.955L17.425 96.565C16.135 94.435 15.505 91.9 15.505 89.35C15.505 86.8 16.135 84.265 17.425 82.135L16.585 81.73C15.19 83.98 14.365 86.41 14.365 89.35C14.365 92.305 15.19 94.705 16.585 96.955ZM24.9984 84.88V92.905H26.0784V84.88H24.9984ZM21.7434 87.115H29.3934V88.195H21.7434V87.115ZM21.7434 85.255H29.3934V86.335H21.7434V85.255ZM20.6634 84.445V89.005H30.5184V84.445H20.6634ZM30.4434 89.935V94.045C30.4434 94.21 30.3984 94.255 30.2034 94.27C30.0234 94.285 29.4534 94.285 28.7484 94.27C28.8834 94.54 29.0334 94.915 29.0784 95.185C30.0534 95.185 30.6834 95.185 31.0584 95.035C31.4484 94.855 31.5384 94.585 31.5384 94.06V89.935H30.4434ZM21.7284 92.635L21.8034 93.625C23.5884 93.535 26.1834 93.4 28.6884 93.25L28.7034 92.335C26.1084 92.47 23.4534 92.575 21.7284 92.635ZM27.2784 91.405C27.9384 92.245 28.5834 93.385 28.8084 94.135L29.6934 93.835C29.4684 93.07 28.7934 91.945 28.1334 91.135L27.2784 91.405ZM22.3284 81.4V84.235H23.4234V81.4H22.3284ZM27.6084 81.4V84.235H28.7034V81.4H27.6084ZM18.9534 82.33V83.29H25.2684V82.33H18.9534ZM25.8384 82.33V83.29H32.1384V82.33H25.8384ZM19.0884 89.935V90.88H30.9534V89.935H19.0884ZM19.7034 89.38V95.2H20.7834V89.38H19.7034ZM33.2334 96.685H34.2234L38.7084 82.09H37.7334L33.2334 96.685ZM40.5024 82.42V83.53H52.3224V82.42H40.5024ZM39.7224 88.795V89.92H53.1774V88.795H39.7224ZM41.5524 84.565C42.1224 85.675 42.7074 87.13 42.9174 88.015L43.9974 87.655C43.7874 86.77 43.1724 85.345 42.5574 84.25L41.5524 84.565ZM50.2524 84.19C49.8924 85.27 49.1874 86.815 48.6324 87.76L49.5924 88.075C50.1774 87.175 50.8824 85.735 51.4524 84.52L50.2524 84.19ZM45.8274 82.855V95.2H46.9824V82.855H45.8274ZM54.9624 84.01V85.09H67.9674V84.01H54.9624ZM59.6424 87.505V88.6H65.6424V87.505H59.6424ZM65.3424 87.505V87.7C65.0724 91.735 64.7574 93.4 64.2924 93.835C64.1124 93.97 63.9174 94 63.5874 94C63.1824 94 62.1324 93.985 61.0374 93.895C61.2624 94.195 61.4274 94.66 61.4424 95.005C62.4624 95.065 63.4374 95.08 63.9774 95.05C64.5624 95.005 64.9224 94.9 65.2674 94.525C65.8674 93.925 66.1674 92.29 66.4674 88.045C66.4974 87.88 66.5124 87.505 66.5124 87.505H65.3424ZM59.0724 84.655C58.9074 88.195 58.6524 92.335 54.6324 94.345C54.9174 94.57 55.2774 94.96 55.4574 95.245C59.6874 93.01 60.1074 88.57 60.3024 84.655H59.0724ZM60.5424 81.73C60.9174 82.465 61.3824 83.425 61.5774 84.04L62.7174 83.545C62.4924 82.945 62.0424 82.015 61.6224 81.31L60.5424 81.73ZM78.0924 89.905C79.2774 91.51 80.7324 93.73 81.4224 95.11L82.5474 94.495C81.8274 93.16 80.3874 91.03 79.1574 89.425L78.0924 89.905ZM73.6824 81.85C72.7524 84.13 71.1774 86.35 69.4824 87.745C69.7824 87.955 70.2774 88.42 70.4874 88.66C72.1674 87.115 73.8324 84.7 74.9124 82.225L73.6824 81.85ZM71.3724 94.48C71.3724 94.195 72.2874 93.82 72.2874 93.82V93.79C74.1024 91.915 75.9174 89.23 77.4174 86.545L76.1574 86.005C74.8974 88.57 72.9474 91.27 72.3324 91.96C71.7624 92.665 71.3274 93.16 70.9224 93.265C71.0874 93.595 71.2974 94.225 71.3724 94.48ZM71.3724 94.48C71.9574 94.24 72.8124 94.195 81.2724 93.625C81.1974 93.37 81.0774 92.89 81.0174 92.56L72.1674 93.07L71.3424 93.52L71.3724 94.48ZM78.1524 81.775V82.45H78.4524C79.2474 84.895 80.7924 87.295 82.6074 88.66C82.8174 88.315 83.2224 87.835 83.4924 87.61C81.7224 86.44 80.2074 84.175 79.4874 81.775H78.1524ZM75.8274 81.775V82.93H79.1124V81.775H75.8274ZM87.3624 85.855H95.6724V87.76H87.3624V85.855ZM87.3624 83.02H95.6724V84.895H87.3624V83.02ZM86.2524 82V88.78H96.8424V82H86.2524ZM84.7524 93.73V94.78H98.1474V93.73H84.7524ZM85.7574 90.505V91.57H97.3374V90.505H85.7574ZM90.9474 82.645V88.615H90.8874V94.33H92.0874V88.615H92.0274V82.645H90.9474ZM100.427 96.955C101.807 94.705 102.632 92.305 102.632 89.35C102.632 86.41 101.807 83.98 100.427 81.73L99.5724 82.135C100.862 84.265 101.492 86.8 101.492 89.35C101.492 91.9 100.862 94.435 99.5724 96.565L100.427 96.955Z" fill="#404040"/>
<path d="M313.34 448.58L314.18 448.19C312.89 446.06 312.26 443.525 312.26 440.975C312.26 438.425 312.89 435.89 314.18 433.76L313.34 433.355C311.945 435.605 311.12 438.035 311.12 440.975C311.12 443.93 311.945 446.33 313.34 448.58ZM318.618 433.82V434.915H326.448V433.82H318.618ZM318.618 437.435V438.515H326.508V437.435H318.618ZM318.498 441.065V442.145H326.433V441.065H318.498ZM317.928 433.82V438.455C317.928 440.87 317.673 443.915 315.258 446.03C315.498 446.195 315.948 446.6 316.113 446.84C318.693 444.59 319.068 441.05 319.068 438.455V433.82H317.928ZM325.953 433.82V445.16C325.953 445.49 325.833 445.595 325.488 445.61C325.143 445.61 323.913 445.625 322.668 445.58C322.863 445.895 323.073 446.435 323.148 446.765C324.768 446.765 325.758 446.75 326.343 446.555C326.913 446.36 327.123 445.97 327.123 445.175V433.82H325.953ZM333.783 433.085C332.943 435.365 331.548 437.615 330.063 439.07C330.273 439.325 330.588 439.925 330.708 440.18C332.328 438.5 333.873 435.965 334.848 433.415L333.783 433.085ZM332.193 436.955V446.81H333.303V435.875L333.288 435.86L332.193 436.955ZM335.913 439.175V440.24H341.808V439.175H335.913ZM341.433 439.175V439.4C341.238 443.6 341.028 445.13 340.713 445.505C340.563 445.67 340.443 445.685 340.203 445.685C339.948 445.685 339.363 445.685 338.718 445.625C338.898 445.91 338.988 446.345 339.018 446.66C339.693 446.705 340.338 446.705 340.713 446.66C341.133 446.63 341.403 446.51 341.673 446.195C342.108 445.67 342.303 444.095 342.513 439.685C342.528 439.535 342.528 439.175 342.528 439.175H341.433ZM337.683 439.715C337.443 442.79 336.558 444.815 334.368 445.94C334.608 446.135 334.983 446.57 335.133 446.78C337.443 445.415 338.493 443.24 338.808 439.775L337.683 439.715ZM338.853 433.55V434.63H341.223V433.55H338.853ZM337.218 433.76C336.693 435.725 335.718 437.48 334.413 438.605C334.638 438.83 335.013 439.34 335.148 439.58C336.573 438.275 337.698 436.28 338.328 434.03L337.218 433.76ZM340.188 433.55V434.165H340.458C340.983 436.295 342.078 438.395 343.443 439.61C343.608 439.25 343.953 438.74 344.178 438.47C342.918 437.51 341.883 435.605 341.448 433.55H340.188ZM346.308 448.58C347.688 446.33 348.513 443.93 348.513 440.975C348.513 438.035 347.688 435.605 346.308 433.355L345.453 433.76C346.743 435.89 347.373 438.425 347.373 440.975C347.373 443.525 346.743 446.06 345.453 448.19L346.308 448.58Z" fill="#404040"/>
<path d="M79.8252 391.451L161.913 373.62L244.825 244.574L328.563 141.519L407.35 289.906L494.388 387.22L573.175 395.38" stroke="#9B051E" stroke-width="3" stroke-linecap="round"/>
<path d="M80.2378 393.265L164 387.5L245.65 279L323.5 255.5L411 339.5L491.913 390.847L572.35 396.589" stroke="#285F92" stroke-width="3" stroke-linecap="round"/>
<path d="M24.22 12.14V14.18H29.48V12.14H24.22ZM22.14 21.3V28.8H24.36V23.32H28.56V28.74H30.88V21.3H22.14ZM23.04 26.06V28.12H29.82V26.06H23.04ZM24.44 10C23.54 12.36 21.92 14.64 20.1 16.04C20.62 16.4 21.54 17.24 21.94 17.66C23.78 16.02 25.62 13.38 26.72 10.64L24.44 10ZM28.86 12.14V12.52C27.58 16.52 23.9 19.58 19.76 20.86C20.22 21.32 20.82 22.22 21.1 22.8C25.64 21.1 29.54 17.86 31.2 12.74L29.68 12.06L29.28 12.14H28.86ZM24.3 13.52L22.52 14.44C23.94 17.5 26.9 20.8 31.22 22.34C31.54 21.74 32.22 20.8 32.7 20.34C28.46 19.16 25.58 16.2 24.3 13.52ZM13.88 14.14V16.38H21.04V14.14H13.88ZM16.54 10.02V28.8H18.8V10.02H16.54ZM16.48 15.68C15.98 18.24 14.76 21.36 13.4 23.1C13.78 23.68 14.32 24.62 14.52 25.28C16.02 23.22 17.26 19.38 17.86 16.16L16.48 15.68ZM18.72 16.76L17.64 17.76C18.22 18.58 19.4 20.48 19.88 21.46L21.18 19.66C20.82 19.18 19.18 17.2 18.72 16.76ZM44.94 10.02V15.78H47.28V10.02H44.94ZM41.44 11.6V13.52H51.04V11.6H41.44ZM40.18 14.88V16.84H52.22V14.88H40.18ZM42.98 16.52C42.76 17.78 42.2 18.66 40.08 19.2C40.52 19.58 41.08 20.38 41.3 20.9C43.98 19.98 44.76 18.54 45.08 16.52H42.98ZM46.98 16.16V17.48C46.98 19.24 47.38 19.92 49.24 19.92C49.54 19.92 50.44 19.92 50.76 19.92C51.22 19.92 51.72 19.9 52.02 19.78C51.96 19.28 51.9 18.5 51.86 17.96C51.58 18.04 51.02 18.08 50.7 18.08C50.44 18.08 49.64 18.08 49.4 18.08C49.12 18.08 49.06 17.92 49.06 17.5V16.16H46.98ZM44.2 19.04C43.44 21.08 41.86 22.78 39.94 23.82C40.4 24.18 41.2 25.02 41.52 25.44C43.56 24.14 45.38 22.06 46.36 19.54L44.2 19.04ZM43.8 20.84V22.76H49.22V20.84H43.8ZM48.62 20.84V21.24C47.72 24.06 44.48 26.08 39.02 27C39.52 27.5 40.1 28.34 40.36 28.92C46.2 27.76 49.76 25.28 51.08 21.44L49.5 20.76L49.08 20.84H48.62ZM42.48 20.74L40.78 21.58C42.28 24.92 45.6 27.76 51.4 28.74C51.68 28.14 52.26 27.2 52.72 26.72C47.04 26.04 43.8 23.6 42.48 20.74ZM34.3 10.8V28.74H36.38V12.94H38.9V10.8H34.3ZM38.28 10.8V11.48C37.98 12.74 37.36 15.34 36.8 17.12C37.94 18.52 38.18 19.82 38.18 20.78C38.18 21.36 38.08 21.8 37.84 21.98C37.7 22.08 37.5 22.14 37.3 22.14C37.06 22.16 36.78 22.14 36.44 22.12C36.76 22.7 36.94 23.6 36.96 24.18C37.42 24.18 37.9 24.18 38.26 24.14C38.7 24.06 39.08 23.94 39.4 23.7C40.04 23.22 40.3 22.34 40.3 21.04C40.3 19.86 40.04 18.44 38.84 16.86C39.42 15.32 40.06 13.3 40.58 11.62L39 10.72L38.66 10.8H38.28ZM58.08 19.6V20.84H67.96V19.6H58.08ZM61.48 24.72C60.64 25.54 59 26.34 57.58 26.72C57.98 27.06 58.54 27.7 58.82 28.12C60.3 27.56 61.92 26.36 62.84 25.26L61.48 24.72ZM56.32 15.96V17.06H60.62V15.96H56.32ZM65.28 15.96V17.1H69.66V15.96H65.28ZM56.32 14.04V15.4H60.1V17.64H56.32V18.98H62.22V14.04H56.32ZM69.74 14.04H63.56V19.02H69.74V17.64H65.72V15.42H69.74V14.04ZM54.86 14.04V28.8H57.1V14.04H54.86ZM68.88 14.04V26.44C68.88 26.66 68.82 26.74 68.58 26.74C68.38 26.74 67.72 26.74 67.12 26.72C67.4 27.24 67.7 28.1 67.78 28.66C68.92 28.66 69.76 28.64 70.36 28.3C70.98 27.96 71.16 27.44 71.16 26.44V14.04H68.88ZM60.1 22.54H65.8V24.08H60.1V22.54ZM58.56 21.34V25.28H67.4V21.34H58.56ZM60.38 22.92C60.6 23.28 60.9 23.76 61.04 24.08L61.94 23.7C61.78 23.4 61.46 22.92 61.22 22.6L60.38 22.92ZM64.6 22.56C64.46 22.88 64.14 23.4 63.9 23.78L64.66 24.1C64.92 23.8 65.2 23.42 65.52 22.96L64.6 22.56ZM64 24.76L63.14 25.5C63.94 26.04 65.74 27.4 66.4 28.02L67.34 26.7C66.84 26.36 64.64 25.08 64 24.76ZM61.98 18.76V22.04H63.84V18.76H61.98ZM62.18 21.62V24.76H62V28.44H63.84V24.76H63.66V21.62H62.18ZM54.04 10.9V12.88H62.62V10.9H54.04ZM57.68 10V13.72H60.06V10H57.68ZM66.08 10V13.74H68.46V10H66.08ZM63.34 10.9V12.88H71.94V10.9H63.34ZM76.58 10.74V12.9H92.02V10.74H76.58ZM76.8 26.32V28.3H92.06V26.32H76.8ZM84.7 22.8V24.64H90.34V22.8H84.7ZM75 10.74V16.92C75 20.08 74.88 24.58 73.38 27.66C73.96 27.86 74.96 28.42 75.4 28.76C77.02 25.46 77.26 20.34 77.26 16.92V10.74H75ZM83.44 21.16V27.44H85.76V21.16H83.44ZM78.96 22.56V27.46H81.26V22.56H78.96ZM77.66 15.98V17.64H83.88V15.98H77.66ZM79.84 13.92V21.28H81.8V13.92H79.84ZM79.6 16.72C78.96 17.92 77.76 19.22 76.62 19.86C77.04 20.2 77.62 20.84 77.9 21.3C79.08 20.4 80.26 18.74 80.9 17.2L79.6 16.72ZM84.38 15.98V17.64H91.56V15.98H84.38ZM86.72 13.92V21.28H88.72V13.92H86.72ZM86.24 16.7C85.66 17.9 84.48 19.18 83.34 19.84C83.76 20.18 84.34 20.84 84.64 21.3C85.82 20.4 86.96 18.72 87.56 17.16L86.24 16.7ZM81.72 17.46L80.6 18.3C81.16 18.74 82.3 19.78 82.76 20.28L83.9 18.84C83.54 18.56 82.18 17.7 81.72 17.46ZM82.3 13.02C81.22 13.44 79.24 13.74 77.48 13.86C77.68 14.24 77.9 14.84 78 15.22C79.92 15.12 82.22 14.82 83.78 14.22L82.3 13.02ZM89.52 12.92C88.32 13.38 86.06 13.68 84.1 13.84C84.3 14.18 84.54 14.82 84.6 15.18C86.74 15.08 89.28 14.76 91 14.12L89.52 12.92ZM88.78 17.5L87.74 18.48C88.56 19.08 90.38 20.54 91.14 21.28L92.2 19.74C91.66 19.34 89.46 17.88 88.78 17.5ZM97.96 9.94C97.1 12.54 95.54 15.1 93.74 16.66C94.32 17 95.34 17.8 95.8 18.22C97.58 16.42 99.34 13.54 100.4 10.56L97.96 9.94ZM98.38 12.22L97.22 14.54H111.1V12.22H98.38ZM96.96 16.94V23.38H99.38V19.18H110.64V16.94H96.96ZM93.8 22.2V24.52H112.2V22.2H93.8ZM102.84 13.42V28.8H105.32V13.42H102.84ZM118.44 14.92V17.28H122.2V14.92H118.44ZM124.22 10.02V25.82C124.22 26.14 124.1 26.24 123.78 26.24C123.46 26.26 122.5 26.26 121.48 26.22C121.86 26.86 122.32 28.04 122.44 28.72C123.9 28.72 124.98 28.62 125.7 28.18C126.44 27.78 126.7 27.08 126.7 25.84V10.02H124.22ZM121.64 14.92V15.34C121.2 19.32 119.7 23.02 117.38 24.66C117.92 25.12 118.6 26.08 118.9 26.64C121.7 24.42 123.3 20.5 123.88 15.24L122.44 14.88L122.04 14.92H121.64ZM126.6 13.32L125.18 13.54C126.08 19.14 127.6 24 131.12 26.52C131.48 25.84 132.28 24.86 132.82 24.4C129.28 22.4 127.5 18.14 126.6 13.32ZM130.06 13.68C129.12 15.18 127.46 17.04 126.22 18.18L128.04 19.36C129.3 18.24 130.92 16.54 132.18 14.94L130.06 13.68ZM113.62 13.2C114.86 13.94 116.52 15.08 117.3 15.86L118.78 13.84C117.94 13.12 116.22 12.06 115 11.4L113.62 13.2ZM113.58 24.76L115.66 26.24C116.7 24.46 117.8 22.36 118.7 20.42L116.88 18.94C115.86 21.06 114.52 23.36 113.58 24.76ZM136 11.02V17.94C136 21.26 135.74 24.66 133.44 27.26C134.06 27.64 135.06 28.44 135.5 28.98C138.2 25.94 138.48 21.86 138.48 17.96V11.02H136ZM142.14 11.88V26.86H144.58V11.88H142.14ZM148.24 11V28.76H150.78V11H148.24ZM166.82 10.32V15.46H168.9V10.32H166.82ZM163.82 26.18L164.32 28.34C166.28 27.98 168.86 27.52 171.28 27.04L171.14 25.08C168.46 25.52 165.68 25.94 163.82 26.18ZM169.42 23.22C169.96 25 170.52 27.4 170.7 28.78L172.44 28.34C172.24 26.96 171.62 24.62 171.04 22.86L169.42 23.22ZM165.8 15.84H169.84V20.02H165.8V15.84ZM164.1 13.82V22.08H171.6V13.82H164.1ZM167 14.58V20.98H166.82V26.64H168.88V20.98H168.7V14.58H167ZM157.84 23.82V28.12H159.52V23.82H157.84ZM156.8 15.12H160.7V16.26H156.8V15.12ZM154.78 13.5V17.88H162.84V13.5H154.78ZM153.8 10.78V12.78H163.78V10.78H153.8ZM156.38 23.28V24.74H160.96V23.28H156.38ZM154.1 18.58V28.78H155.94V20.36H162.06V18.58H154.1ZM161.46 18.58V26.46C161.46 26.66 161.4 26.72 161.22 26.72C161.04 26.72 160.5 26.72 159.96 26.7C160.18 27.2 160.4 27.96 160.46 28.5C161.44 28.5 162.18 28.46 162.7 28.18C163.24 27.86 163.38 27.36 163.38 26.5V18.58H161.46ZM156.34 21.12C156.74 21.78 157.12 22.68 157.26 23.24L158.56 22.74C158.4 22.2 158 21.32 157.58 20.7L156.34 21.12ZM159.72 20.56C159.44 21.48 158.88 22.82 158.44 23.64L159.56 24.16C160.06 23.38 160.62 22.18 161.18 21.14L159.72 20.56ZM182.4 10.38V24.78C182.4 27.54 183.1 28.34 185.58 28.34C186.08 28.34 188.4 28.34 188.94 28.34C191.4 28.34 191.98 26.92 192.26 23.06C191.64 22.92 190.68 22.48 190.12 22.06C189.96 25.38 189.78 26.2 188.76 26.2C188.26 26.2 186.28 26.2 185.84 26.2C184.86 26.2 184.72 26 184.72 24.82V10.38H182.4ZM178.6 10.1C177.44 12.98 175.46 15.82 173.42 17.6C173.82 18.2 174.46 19.52 174.68 20.1C177.06 17.84 179.4 14.26 180.84 10.86L178.6 10.1ZM176.6 15.52V28.78H178.9V13.28L178.88 13.26L176.6 15.52ZM183.8 15.52V17.8H191.72V15.52H183.8ZM200.2 18.84V20.72H205.34V18.84H200.2ZM200.2 22.2V24.08H205.36V22.2H200.2ZM196.32 25.58V27.78H209.82V25.58H196.32ZM194.82 15.24V28.8H197.12V17.44H208.72V28.8H211.16V15.24H194.82ZM199.18 16.7V26.56H201.32V16.7H199.18ZM204.4 16.7V26.54H206.56V16.7H204.4ZM201.44 12.2C201.36 13.46 201.04 15.14 200.76 16.3L202.96 16.88C203.36 15.84 203.8 14.28 204.28 12.8L201.44 12.2ZM193.98 11.16V13.44H212.06V11.16H193.98ZM216.56 11.88V28.78H218.9V11.88H216.56ZM213.86 15.48V17.72H220.88V15.48H213.86ZM216.76 16.54C216.14 18.76 214.74 21.66 213.36 23.26C213.72 23.86 214.26 24.86 214.48 25.56C216 23.58 217.4 20.02 218.16 17.16L216.76 16.54ZM219.66 10.22C218.18 10.86 215.78 11.4 213.62 11.7C213.88 12.22 214.2 13.04 214.28 13.54C216.56 13.3 219.26 12.82 221.26 12.08L219.66 10.22ZM218.7 18.2L217.66 19.14C218.28 19.98 219.48 21.8 219.94 22.76L221.32 20.88C220.94 20.42 219.2 18.62 218.7 18.2ZM225.3 10.02V16.42H227.68V10.02H225.3ZM221.38 10.94V12.4H231.86V10.94H221.38ZM221.74 13.08V14.46H231.4V13.08H221.74ZM220.76 15.14V16.64H232.26V15.14H220.76ZM224.16 21H229.02V21.86H224.16V21ZM224.16 23.22H229.02V24.08H224.16V23.22ZM224.16 18.8H229.02V19.62H224.16V18.8ZM222 17.32V25.56H231.28V17.32H222ZM227.16 26.48C228.34 27.22 229.72 28.22 230.48 28.82L232.56 27.7C231.66 27.06 230.06 26.1 228.76 25.32L227.16 26.48ZM224.24 25.22C223.28 26 221.38 26.94 219.78 27.4C220.24 27.8 220.9 28.46 221.26 28.9C222.88 28.38 224.88 27.4 226.1 26.46L224.24 25.22Z" fill="#404040"/>
<rect x="13" y="52" width="20" height="6" fill="#DDE2EC"/>
<rect x="80" y="52" width="20" height="6" fill="#9B051E"/>
<rect x="147" y="52" width="20" height="6" fill="#285F92"/>
<path d="M107.616 61H114.056V59.908H111.214C110.696 59.908 110.08 59.95 109.534 60.006C111.956 57.724 113.566 55.638 113.566 53.58C113.566 51.746 112.418 50.556 110.584 50.556C109.282 50.556 108.386 51.158 107.546 52.068L108.288 52.782C108.862 52.11 109.59 51.592 110.43 51.592C111.704 51.592 112.306 52.46 112.306 53.636C112.306 55.386 110.836 57.444 107.616 60.258V61ZM118.658 61.196C120.59 61.196 121.836 59.418 121.836 55.834C121.836 52.278 120.59 50.556 118.658 50.556C116.698 50.556 115.452 52.278 115.452 55.834C115.452 59.418 116.698 61.196 118.658 61.196ZM118.658 60.16C117.482 60.16 116.684 58.858 116.684 55.834C116.684 52.852 117.482 51.578 118.658 51.578C119.82 51.578 120.604 52.852 120.604 55.834C120.604 58.858 119.82 60.16 118.658 60.16ZM123.763 61H129.391V59.936H127.319V50.738H126.339C125.793 51.074 125.135 51.312 124.211 51.466V52.292H126.045V59.936H123.763V61ZM130.913 61H137.353V59.908H134.511C133.993 59.908 133.377 59.95 132.831 60.006C135.253 57.724 136.863 55.638 136.863 53.58C136.863 51.746 135.715 50.556 133.881 50.556C132.579 50.556 131.683 51.158 130.843 52.068L131.585 52.782C132.159 52.11 132.887 51.592 133.727 51.592C135.001 51.592 135.603 52.46 135.603 53.636C135.603 55.386 134.133 57.444 130.913 60.258V61Z" fill="#404040"/>
<path d="M41.232 61H46.86V59.936H44.788V50.738H43.808C43.262 51.074 42.604 51.312 41.68 51.466V52.292H43.514V59.936H41.232V61ZM51.0416 61.196C52.9736 61.196 54.7656 59.6 54.7656 55.428C54.7656 52.166 53.2956 50.556 51.3216 50.556C49.7256 50.556 48.3816 51.9 48.3816 53.888C48.3816 56.016 49.4876 57.108 51.2096 57.108C52.0916 57.108 53.0016 56.576 53.6456 55.764L53.5756 54.742C52.9036 55.764 52.1056 56.17 51.4196 56.17C50.2016 56.17 49.5856 55.26 49.5856 53.888C49.5856 52.474 50.3416 51.55 51.3216 51.55C52.7636 51.55 53.5616 52.908 53.5616 55.428C53.5616 58.942 52.3716 60.132 50.9996 60.132C50.3416 60.132 49.7116 59.838 49.2776 59.334L48.5636 60.146C49.1376 60.748 49.9216 61.196 51.0416 61.196ZM59.4373 61.196C61.3553 61.196 62.6573 60.034 62.6573 58.536C62.6573 57.136 61.8173 56.352 60.9213 55.834V55.764C61.5373 55.288 62.2933 54.378 62.2933 53.286C62.2933 51.718 61.2293 50.598 59.4793 50.598C57.8693 50.598 56.6513 51.634 56.6513 53.188C56.6513 54.266 57.2953 55.05 58.0513 55.568V55.624C57.1133 56.128 56.1613 57.08 56.1613 58.466C56.1613 60.048 57.5473 61.196 59.4373 61.196ZM60.1373 55.442C58.9333 54.966 57.8273 54.42 57.8273 53.188C57.8273 52.208 58.5133 51.536 59.4513 51.536C60.5573 51.536 61.2013 52.348 61.2013 53.356C61.2013 54.126 60.8373 54.826 60.1373 55.442ZM59.4653 60.23C58.2333 60.23 57.3093 59.432 57.3093 58.34C57.3093 57.36 57.8833 56.548 58.7233 56.016C60.1653 56.604 61.4253 57.122 61.4253 58.494C61.4253 59.516 60.6413 60.23 59.4653 60.23ZM63.9129 61H70.3529V59.908H67.5109C66.9929 59.908 66.3769 59.95 65.8309 60.006C68.2529 57.724 69.8629 55.638 69.8629 53.58C69.8629 51.746 68.7149 50.556 66.8809 50.556C65.5789 50.556 64.6829 51.158 63.8429 52.068L64.5849 52.782C65.1589 52.11 65.8869 51.592 66.7269 51.592C68.0009 51.592 68.6029 52.46 68.6029 53.636C68.6029 55.386 67.1329 57.444 63.9129 60.258V61Z" fill="#404040"/>
<path d="M174.616 61H181.056V59.908H178.214C177.696 59.908 177.08 59.95 176.534 60.006C178.956 57.724 180.566 55.638 180.566 53.58C180.566 51.746 179.418 50.556 177.584 50.556C176.282 50.556 175.386 51.158 174.546 52.068L175.288 52.782C175.862 52.11 176.59 51.592 177.43 51.592C178.704 51.592 179.306 52.46 179.306 53.636C179.306 55.386 177.836 57.444 174.616 60.258V61ZM185.658 61.196C187.59 61.196 188.836 59.418 188.836 55.834C188.836 52.278 187.59 50.556 185.658 50.556C183.698 50.556 182.452 52.278 182.452 55.834C182.452 59.418 183.698 61.196 185.658 61.196ZM185.658 60.16C184.482 60.16 183.684 58.858 183.684 55.834C183.684 52.852 184.482 51.578 185.658 51.578C186.82 51.578 187.604 52.852 187.604 55.834C187.604 58.858 186.82 60.16 185.658 60.16ZM190.763 61H196.391V59.936H194.319V50.738H193.339C192.793 51.074 192.135 51.312 191.211 51.466V52.292H193.045V59.936H190.763V61ZM200.573 61.196C202.505 61.196 204.297 59.6 204.297 55.428C204.297 52.166 202.827 50.556 200.853 50.556C199.257 50.556 197.913 51.9 197.913 53.888C197.913 56.016 199.019 57.108 200.741 57.108C201.623 57.108 202.533 56.576 203.177 55.764L203.107 54.742C202.435 55.764 201.637 56.17 200.951 56.17C199.733 56.17 199.117 55.26 199.117 53.888C199.117 52.474 199.873 51.55 200.853 51.55C202.295 51.55 203.093 52.908 203.093 55.428C203.093 58.942 201.903 60.132 200.531 60.132C199.873 60.132 199.243 59.838 198.809 59.334L198.095 60.146C198.669 60.748 199.453 61.196 200.573 61.196Z" fill="#404040"/>
</svg>
