<svg width="620" height="420" viewBox="0 0 620 420" fill="none" xmlns="http://www.w3.org/2000/svg">
<g clip-path="url(#clip0_2086_101)">
<rect width="620" height="420" fill="#FAFAFA"/>
<path d="M36.9248 303.381H607" stroke="#C7C7C7"/>
<path d="M242.763 348.109L161.913 374.402L499.338 375.006L410.651 366.242L328.976 338.74L242.763 348.109Z" fill="#BBC6DA"/>
<path d="M164 364.5L79 369.264V374.1H161.912L245.238 346.9L329.387 338.136L410.65 366.242L491.913 374.1H572.35V372.588L491.913 366.242L410.65 306.5L321.5 228.5L245.238 256.5L164 364.5Z" fill="#7791B6"/>
<path d="M36.9248 89.4126H607" stroke="#C7C7C7"/>
<path d="M36.9248 232.059H607" stroke="#C7C7C7"/>
<path d="M36.9248 160.735H607" stroke="#C7C7C7"/>
<path d="M36.9248 374.705H607" stroke="#C7C7C7"/>
<path d="M562.3 386.776V387.931H575.755V386.776H562.3ZM568.39 381.181V394.966H569.59V381.181H568.39ZM580.27 381.961V383.056H588.1V381.961H580.27ZM580.27 385.576V386.656H588.16V385.576H580.27ZM580.15 389.206V390.286H588.085V389.206H580.15ZM579.58 381.961V386.596C579.58 389.011 579.325 392.056 576.91 394.171C577.15 394.336 577.6 394.741 577.765 394.981C580.345 392.731 580.72 389.191 580.72 386.596V381.961H579.58ZM587.605 381.961V393.301C587.605 393.631 587.485 393.736 587.14 393.751C586.795 393.751 585.565 393.766 584.32 393.721C584.515 394.036 584.725 394.576 584.8 394.906C586.42 394.906 587.41 394.891 587.995 394.696C588.565 394.501 588.775 394.111 588.775 393.316V381.961H587.605Z" fill="#404040"/>
<path d="M161.088 349.621L79.8252 367.452V369.567L164 363L244 256L323.5 231.5L412 315.5L491.913 366.847L573.175 372.287V371.38L495.213 362.918L409.5 270L327.738 118.426L244 220.877L161.088 349.621Z" fill="#DCB7B7"/>
<path d="M79.8252 367.451L161.913 349.62L244.825 220.574L328.563 117.519L407.35 265.906L494.388 363.22L573.175 371.38" stroke="#9B051E" stroke-width="3" stroke-linecap="round"/>
<path d="M80.2378 369.265L164 363.5L245.65 255L323.5 231.5L411 315.5L491.913 366.847L572.35 372.589" stroke="#285F92" stroke-width="3" stroke-linecap="round"/>
<path d="M79.4126 373.495H163.15L243.588 347.203L328.975 338.136L411.475 366.545L493.15 373.495H573.175" stroke="#DDE2EC" stroke-width="3" stroke-linecap="round"/>
<path d="M28.011 380.846C30.081 380.846 31.416 378.941 31.416 375.101C31.416 371.291 30.081 369.446 28.011 369.446C25.911 369.446 24.576 371.291 24.576 375.101C24.576 378.941 25.911 380.846 28.011 380.846ZM28.011 379.736C26.751 379.736 25.896 378.341 25.896 375.101C25.896 371.906 26.751 370.541 28.011 370.541C29.256 370.541 30.096 371.906 30.096 375.101C30.096 378.341 29.256 379.736 28.011 379.736Z" fill="#404040"/>
<path d="M20.0357 166.877C21.7307 166.877 23.1857 165.437 23.1857 163.307C23.1857 160.997 21.9857 159.857 20.1257 159.857C19.2407 159.857 18.2207 160.397 17.5457 161.282L17.5907 162.377C18.3257 161.282 19.2107 160.862 19.9157 160.862C21.2357 160.862 21.8957 161.807 21.8957 163.307C21.8957 164.792 21.0857 165.797 20.0357 165.797C18.4907 165.797 17.6357 164.252 17.6357 161.432C17.6357 157.832 18.9257 156.617 20.4707 156.617C21.1307 156.617 21.8057 156.932 22.2257 157.442L22.9907 156.602C22.3907 155.957 21.5507 155.477 20.4107 155.477C18.2807 155.477 16.3457 157.127 16.3457 161.432C16.3457 165.062 17.9207 166.877 20.0357 166.877ZM28.011 166.877C30.081 166.877 31.416 164.972 31.416 161.132C31.416 157.322 30.081 155.477 28.011 155.477C25.911 155.477 24.576 157.322 24.576 161.132C24.576 164.972 25.911 166.877 28.011 166.877ZM28.011 165.767C26.751 165.767 25.896 164.372 25.896 161.132C25.896 157.937 26.751 156.572 28.011 156.572C29.256 156.572 30.096 157.937 30.096 161.132C30.096 164.372 29.256 165.767 28.011 165.767Z" fill="#404040"/>
<path d="M20.6057 237.99H21.8957V226.995H20.3807L15.8057 234.06V234.96H23.3657V233.88H17.2457L19.7507 230.13C20.0507 229.59 20.3507 229.035 20.6207 228.495H20.6957C20.6507 229.065 20.6057 229.95 20.6057 230.505V237.99ZM28.011 238.2C30.081 238.2 31.416 236.295 31.416 232.455C31.416 228.645 30.081 226.8 28.011 226.8C25.911 226.8 24.576 228.645 24.576 232.455C24.576 236.295 25.911 238.2 28.011 238.2ZM28.011 237.09C26.751 237.09 25.896 235.695 25.896 232.455C25.896 229.26 26.751 227.895 28.011 227.895C29.256 227.895 30.096 229.26 30.096 232.455C30.096 235.695 29.256 237.09 28.011 237.09Z" fill="#404040"/>
<path d="M16.1807 309.313H23.0807V308.143H20.0357C19.4807 308.143 18.8207 308.188 18.2357 308.248C20.8307 305.803 22.5557 303.568 22.5557 301.363C22.5557 299.398 21.3257 298.123 19.3607 298.123C17.9657 298.123 17.0057 298.768 16.1057 299.743L16.9007 300.508C17.5157 299.788 18.2957 299.233 19.1957 299.233C20.5607 299.233 21.2057 300.163 21.2057 301.423C21.2057 303.298 19.6307 305.503 16.1807 308.518V309.313ZM28.011 309.523C30.081 309.523 31.416 307.618 31.416 303.778C31.416 299.968 30.081 298.123 28.011 298.123C25.911 298.123 24.576 299.968 24.576 303.778C24.576 307.618 25.911 309.523 28.011 309.523ZM28.011 308.413C26.751 308.413 25.896 307.018 25.896 303.778C25.896 300.583 26.751 299.218 28.011 299.218C29.256 299.218 30.096 300.583 30.096 303.778C30.096 307.018 29.256 308.413 28.011 308.413Z" fill="#404040"/>
<path d="M19.7057 95.5542C21.7607 95.5542 23.1557 94.3092 23.1557 92.7042C23.1557 91.2042 22.2557 90.3642 21.2957 89.8092V89.7342C21.9557 89.2242 22.7657 88.2492 22.7657 87.0792C22.7657 85.3992 21.6257 84.1992 19.7507 84.1992C18.0257 84.1992 16.7207 85.3092 16.7207 86.9742C16.7207 88.1292 17.4107 88.9692 18.2207 89.5242V89.5842C17.2157 90.1242 16.1957 91.1442 16.1957 92.6292C16.1957 94.3242 17.6807 95.5542 19.7057 95.5542ZM20.4557 89.3892C19.1657 88.8792 17.9807 88.2942 17.9807 86.9742C17.9807 85.9242 18.7157 85.2042 19.7207 85.2042C20.9057 85.2042 21.5957 86.0742 21.5957 87.1542C21.5957 87.9792 21.2057 88.7292 20.4557 89.3892ZM19.7357 94.5192C18.4157 94.5192 17.4257 93.6642 17.4257 92.4942C17.4257 91.4442 18.0407 90.5742 18.9407 90.0042C20.4857 90.6342 21.8357 91.1892 21.8357 92.6592C21.8357 93.7542 20.9957 94.5192 19.7357 94.5192ZM28.011 95.5542C30.081 95.5542 31.416 93.6492 31.416 89.8092C31.416 85.9992 30.081 84.1542 28.011 84.1542C25.911 84.1542 24.576 85.9992 24.576 89.8092C24.576 93.6492 25.911 95.5542 28.011 95.5542ZM28.011 94.4442C26.751 94.4442 25.896 93.0492 25.896 89.8092C25.896 86.6142 26.751 85.2492 28.011 85.2492C29.256 85.2492 30.096 86.6142 30.096 89.8092C30.096 93.0492 29.256 94.4442 28.011 94.4442Z" fill="#404040"/>
<path d="M290.876 216H299.796V213.62H297.016V201.2H294.836C293.876 201.78 292.876 202.16 291.376 202.44V204.26H294.076V213.62H290.876V216ZM306.573 216.28C309.293 216.28 311.753 214.38 311.753 211.1C311.753 207.86 309.673 206.4 307.193 206.4C306.513 206.4 305.993 206.54 305.413 206.8L305.693 203.66H311.073V201.2H303.153L302.733 208.38L304.093 209.26C304.953 208.7 305.433 208.48 306.313 208.48C307.793 208.48 308.793 209.44 308.793 211.16C308.793 212.92 307.733 213.9 306.173 213.9C304.813 213.9 303.753 213.22 302.933 212.4L301.553 214.26C302.673 215.36 304.233 216.28 306.573 216.28ZM319.57 216H322.31V201.2H318.77L313.27 210.16V212.18H324.07V209.92H316.13L318.41 206.24C318.83 205.44 319.23 204.62 319.61 203.82H319.69C319.65 204.7 319.57 206.04 319.57 206.9V216ZM327.886 216.28C328.926 216.28 329.726 215.46 329.726 214.36C329.726 213.26 328.926 212.46 327.886 212.46C326.826 212.46 326.066 213.26 326.066 214.36C326.066 215.46 326.826 216.28 327.886 216.28ZM337.87 216H340.61V201.2H337.07L331.57 210.16V212.18H342.37V209.92H334.43L336.71 206.24C337.13 205.44 337.53 204.62 337.91 203.82H337.99C337.95 204.7 337.87 206.04 337.87 206.9V216ZM349.667 216H352.407V201.2H348.867L343.367 210.16V212.18H354.167V209.92H346.227L348.507 206.24C348.927 205.44 349.327 204.62 349.707 203.82H349.787C349.747 204.7 349.667 206.04 349.667 206.9V216Z" fill="white"/>
<path d="M309.755 309.353C312.027 309.353 314.139 307.481 314.139 302.841C314.139 298.953 312.315 297.145 310.059 297.145C308.139 297.145 306.539 298.665 306.539 301.017C306.539 303.481 307.867 304.713 309.835 304.713C310.779 304.713 311.835 304.137 312.523 303.225L312.427 301.881C311.739 302.953 310.907 303.369 310.171 303.369C308.939 303.369 308.251 302.505 308.251 301.017C308.251 299.465 309.051 298.553 310.075 298.553C311.515 298.553 312.427 299.897 312.427 302.841C312.427 306.585 311.163 307.833 309.675 307.833C308.939 307.833 308.219 307.481 307.739 306.953L306.747 308.089C307.419 308.793 308.395 309.353 309.755 309.353ZM315.68 309.129H323.296V307.561H320.352C319.776 307.561 319.024 307.625 318.416 307.689C320.912 305.289 322.736 302.937 322.736 300.681C322.736 298.537 321.344 297.145 319.184 297.145C317.648 297.145 316.608 297.801 315.584 298.905L316.64 299.913C317.264 299.193 318.032 298.617 318.96 298.617C320.272 298.617 320.944 299.497 320.944 300.761C320.944 302.697 319.168 304.985 315.68 308.057V309.129ZM326.501 309.353C327.189 309.353 327.733 308.809 327.733 308.057C327.733 307.289 327.189 306.761 326.501 306.761C325.797 306.761 325.269 307.289 325.269 308.057C325.269 308.809 325.797 309.353 326.501 309.353ZM334.291 309.129H336.019V297.353H333.875L329.203 304.729V305.977H337.523V304.537H331.059L333.363 301.001C333.699 300.393 334.019 299.769 334.307 299.177H334.387C334.339 299.817 334.291 300.825 334.291 301.449V309.129ZM343.416 309.129H345.144V297.353H343L338.328 304.729V305.977H346.648V304.537H340.184L342.488 301.001C342.824 300.393 343.144 299.769 343.432 299.177H343.512C343.464 299.817 343.416 300.825 343.416 301.449V309.129Z" fill="white"/>
<path d="M307.227 364.923H313.963V363.403H311.659V353.147H310.267C309.579 353.563 308.811 353.851 307.691 354.043V355.211H309.819V363.403H307.227V364.923ZM318.88 365.147C321.152 365.147 323.264 363.275 323.264 358.635C323.264 354.747 321.44 352.939 319.184 352.939C317.264 352.939 315.664 354.459 315.664 356.811C315.664 359.275 316.992 360.507 318.96 360.507C319.904 360.507 320.96 359.931 321.648 359.019L321.552 357.675C320.864 358.747 320.032 359.163 319.296 359.163C318.064 359.163 317.376 358.299 317.376 356.811C317.376 355.259 318.176 354.347 319.2 354.347C320.64 354.347 321.552 355.691 321.552 358.635C321.552 362.379 320.288 363.627 318.8 363.627C318.064 363.627 317.344 363.275 316.864 362.747L315.872 363.883C316.544 364.587 317.52 365.147 318.88 365.147ZM326.501 365.147C327.189 365.147 327.733 364.603 327.733 363.851C327.733 363.083 327.189 362.555 326.501 362.555C325.797 362.555 325.269 363.083 325.269 363.851C325.269 364.603 325.797 365.147 326.501 365.147ZM333.155 365.147C335.331 365.147 337.107 363.899 337.107 361.771C337.107 360.171 336.035 359.163 334.675 358.811V358.731C335.923 358.267 336.707 357.323 336.707 355.963C336.707 354.027 335.219 352.939 333.107 352.939C331.747 352.939 330.659 353.515 329.715 354.347L330.691 355.515C331.363 354.843 332.131 354.411 333.027 354.411C334.163 354.411 334.835 355.067 334.835 356.107C334.835 357.291 334.067 358.155 331.763 358.155V359.531C334.403 359.531 335.235 360.363 335.235 361.675C335.235 362.891 334.323 363.627 333.011 363.627C331.779 363.627 330.915 363.035 330.227 362.331L329.315 363.515C330.115 364.411 331.315 365.147 333.155 365.147ZM342.296 365.147C344.344 365.147 346.264 363.659 346.264 361.067C346.264 358.475 344.648 357.323 342.68 357.323C342.04 357.323 341.56 357.467 341.064 357.723L341.336 354.715H345.704V353.147H339.72L339.368 358.747L340.28 359.323C340.968 358.875 341.416 358.667 342.152 358.667C343.496 358.667 344.392 359.563 344.392 361.115C344.392 362.683 343.4 363.627 342.072 363.627C340.84 363.627 339.976 363.035 339.32 362.363L338.424 363.563C339.272 364.395 340.44 365.147 342.296 365.147Z" fill="white"/>
<path d="M67.7951 382.486V394.471H68.9201V383.566H78.9401V394.351H80.1101V382.486H67.7951ZM68.3951 392.251V393.346H79.6001V392.251H68.3951ZM71.7401 383.161C71.6951 387.121 71.5001 389.116 69.1001 390.256C69.3401 390.451 69.6701 390.856 69.7901 391.126C72.4751 389.821 72.7751 387.466 72.8501 383.161H71.7401ZM74.9501 383.356V388.261C74.9501 389.431 75.1901 389.911 76.2401 389.911C76.4801 389.911 77.5901 389.911 77.8751 389.911C78.2351 389.911 78.6101 389.911 78.8051 389.851C78.7601 389.566 78.7301 389.191 78.7151 388.891C78.5051 388.936 78.0851 388.951 77.8451 388.951C77.6051 388.951 76.6301 388.951 76.3901 388.951C76.0751 388.951 76.0151 388.786 76.0151 388.291V383.356H74.9501ZM85.2701 381.961V383.056H93.1001V381.961H85.2701ZM85.2701 385.576V386.656H93.1601V385.576H85.2701ZM85.1501 389.206V390.286H93.0851V389.206H85.1501ZM84.5801 381.961V386.596C84.5801 389.011 84.3251 392.056 81.9101 394.171C82.1501 394.336 82.6001 394.741 82.7651 394.981C85.3451 392.731 85.7201 389.191 85.7201 386.596V381.961H84.5801ZM92.6051 381.961V393.301C92.6051 393.631 92.4851 393.736 92.1401 393.751C91.7951 393.751 90.5651 393.766 89.3201 393.721C89.5151 394.036 89.7251 394.576 89.8001 394.906C91.4201 394.906 92.4101 394.891 92.9951 394.696C93.5651 394.501 93.7751 394.111 93.7751 393.316V381.961H92.6051Z" fill="#404040"/>
<path d="M150.76 382.636V383.746H162.1V382.636H150.76ZM149.815 393.031V394.156H163.165V393.031H149.815ZM155.155 383.026C154.735 386.356 153.955 390.991 153.355 393.676H154.585C155.14 391.066 155.905 386.446 156.4 383.026H155.155ZM151.585 387.001V388.096H159.88V387.001H151.585ZM159.445 387.001V387.151C159.355 388.636 159.1 391.606 158.845 393.691L160 393.781C160.27 391.696 160.54 388.906 160.645 387.031L159.775 386.956L159.58 387.001H159.445ZM167.77 381.961V383.056H175.6V381.961H167.77ZM167.77 385.576V386.656H175.66V385.576H167.77ZM167.65 389.206V390.286H175.585V389.206H167.65ZM167.08 381.961V386.596C167.08 389.011 166.825 392.056 164.41 394.171C164.65 394.336 165.1 394.741 165.265 394.981C167.845 392.731 168.22 389.191 168.22 386.596V381.961H167.08ZM175.105 381.961V393.301C175.105 393.631 174.985 393.736 174.64 393.751C174.295 393.751 173.065 393.766 171.82 393.721C172.015 394.036 172.225 394.576 172.3 394.906C173.92 394.906 174.91 394.891 175.495 394.696C176.065 394.501 176.275 394.111 176.275 393.316V381.961H175.105Z" fill="#404040"/>
<path d="M232.33 385.141V386.296H245.65V385.141H232.33ZM236.095 388.036C235.105 390.226 233.56 392.596 232.12 394.096C232.435 394.291 232.99 394.666 233.245 394.876C234.64 393.256 236.215 390.766 237.325 388.441L236.095 388.036ZM240.535 388.426C241.945 390.451 243.745 393.196 244.57 394.786L245.725 394.141C244.84 392.551 242.995 389.896 241.585 387.931L240.535 388.426ZM237.565 381.616C238.075 382.651 238.69 384.016 238.96 384.811L240.19 384.331C239.875 383.551 239.23 382.231 238.72 381.241L237.565 381.616ZM250.27 381.961V383.056H258.1V381.961H250.27ZM250.27 385.576V386.656H258.16V385.576H250.27ZM250.15 389.206V390.286H258.085V389.206H250.15ZM249.58 381.961V386.596C249.58 389.011 249.325 392.056 246.91 394.171C247.15 394.336 247.6 394.741 247.765 394.981C250.345 392.731 250.72 389.191 250.72 386.596V381.961H249.58ZM257.605 381.961V393.301C257.605 393.631 257.485 393.736 257.14 393.751C256.795 393.751 255.565 393.766 254.32 393.721C254.515 394.036 254.725 394.576 254.8 394.906C256.42 394.906 257.41 394.891 257.995 394.696C258.565 394.501 258.775 394.111 258.775 393.316V381.961H257.605Z" fill="#404040"/>
<path d="M314.71 387.151L314.89 388.276L327.955 386.191L327.775 385.051L314.71 387.151ZM318.94 381.496V391.636C318.94 393.451 319.615 394.111 321.37 394.111C321.775 394.111 324.415 394.111 325.03 394.111C325.765 394.111 326.47 394.081 326.77 394.006C326.71 393.736 326.65 393.226 326.605 392.911C326.26 392.986 325.54 393.031 325.03 393.031C324.415 393.031 321.91 393.031 321.31 393.031C320.425 393.031 320.14 392.671 320.14 391.711V381.496H318.94ZM332.77 381.961V383.056H340.6V381.961H332.77ZM332.77 385.576V386.656H340.66V385.576H332.77ZM332.65 389.206V390.286H340.585V389.206H332.65ZM332.08 381.961V386.596C332.08 389.011 331.825 392.056 329.41 394.171C329.65 394.336 330.1 394.741 330.265 394.981C332.845 392.731 333.22 389.191 333.22 386.596V381.961H332.08ZM340.105 381.961V393.301C340.105 393.631 339.985 393.736 339.64 393.751C339.295 393.751 338.065 393.766 336.82 393.721C337.015 394.036 337.225 394.576 337.3 394.906C338.92 394.906 339.91 394.891 340.495 394.696C341.065 394.501 341.275 394.111 341.275 393.316V381.961H340.105Z" fill="#404040"/>
<path d="M403.72 382.096V383.221H405.775V382.096H403.72ZM401.065 382.381C400.795 386.626 400.15 391.576 397.045 394.246C397.315 394.426 397.75 394.801 397.96 395.026C401.17 392.191 401.905 387.001 402.295 382.471L401.065 382.381ZM404.815 382.096V382.726H405.085C405.7 387.946 406.93 392.581 409.795 395.056C410.065 394.801 410.575 394.456 410.905 394.291C408.04 391.996 406.735 387.331 406.135 382.096H404.815ZM415.27 381.961V383.056H423.1V381.961H415.27ZM415.27 385.576V386.656H423.16V385.576H415.27ZM415.15 389.206V390.286H423.085V389.206H415.15ZM414.58 381.961V386.596C414.58 389.011 414.325 392.056 411.91 394.171C412.15 394.336 412.6 394.741 412.765 394.981C415.345 392.731 415.72 389.191 415.72 386.596V381.961H414.58ZM422.605 381.961V393.301C422.605 393.631 422.485 393.736 422.14 393.751C421.795 393.751 420.565 393.766 419.32 393.721C419.515 394.036 419.725 394.576 419.8 394.906C421.42 394.906 422.41 394.891 422.995 394.696C423.565 394.501 423.775 394.111 423.775 393.316V381.961H422.605Z" fill="#404040"/>
<path d="M484.27 381.331C484.255 386.776 484.375 391.726 479.47 394.081C479.77 394.291 480.145 394.696 480.31 394.981C485.425 392.371 485.44 387.076 485.485 381.331H484.27ZM480.16 385.021V386.146H489.46V385.021H480.16ZM488.77 385.021V393.016C488.77 394.396 489.145 394.756 490.3 394.756C490.54 394.756 491.845 394.756 492.1 394.756C493.21 394.756 493.51 394.081 493.615 391.981C493.3 391.891 492.82 391.681 492.55 391.471C492.505 393.286 492.43 393.646 492.01 393.646C491.725 393.646 490.675 393.646 490.465 393.646C490 393.646 489.925 393.556 489.925 393.016V385.021H488.77ZM497.77 381.961V383.056H505.6V381.961H497.77ZM497.77 385.576V386.656H505.66V385.576H497.77ZM497.65 389.206V390.286H505.585V389.206H497.65ZM497.08 381.961V386.596C497.08 389.011 496.825 392.056 494.41 394.171C494.65 394.336 495.1 394.741 495.265 394.981C497.845 392.731 498.22 389.191 498.22 386.596V381.961H497.08ZM505.105 381.961V393.301C505.105 393.631 504.985 393.736 504.64 393.751C504.295 393.751 503.065 393.766 501.82 393.721C502.015 394.036 502.225 394.576 502.3 394.906C503.92 394.906 504.91 394.891 505.495 394.696C506.065 394.501 506.275 394.111 506.275 393.316V381.961H505.105Z" fill="#404040"/>
<path d="M16.585 72.955L17.425 72.565C16.135 70.435 15.505 67.9 15.505 65.35C15.505 62.8 16.135 60.265 17.425 58.135L16.585 57.73C15.19 59.98 14.365 62.41 14.365 65.35C14.365 68.305 15.19 70.705 16.585 72.955ZM24.9984 60.88V68.905H26.0784V60.88H24.9984ZM21.7434 63.115H29.3934V64.195H21.7434V63.115ZM21.7434 61.255H29.3934V62.335H21.7434V61.255ZM20.6634 60.445V65.005H30.5184V60.445H20.6634ZM30.4434 65.935V70.045C30.4434 70.21 30.3984 70.255 30.2034 70.27C30.0234 70.285 29.4534 70.285 28.7484 70.27C28.8834 70.54 29.0334 70.915 29.0784 71.185C30.0534 71.185 30.6834 71.185 31.0584 71.035C31.4484 70.855 31.5384 70.585 31.5384 70.06V65.935H30.4434ZM21.7284 68.635L21.8034 69.625C23.5884 69.535 26.1834 69.4 28.6884 69.25L28.7034 68.335C26.1084 68.47 23.4534 68.575 21.7284 68.635ZM27.2784 67.405C27.9384 68.245 28.5834 69.385 28.8084 70.135L29.6934 69.835C29.4684 69.07 28.7934 67.945 28.1334 67.135L27.2784 67.405ZM22.3284 57.4V60.235H23.4234V57.4H22.3284ZM27.6084 57.4V60.235H28.7034V57.4H27.6084ZM18.9534 58.33V59.29H25.2684V58.33H18.9534ZM25.8384 58.33V59.29H32.1384V58.33H25.8384ZM19.0884 65.935V66.88H30.9534V65.935H19.0884ZM19.7034 65.38V71.2H20.7834V65.38H19.7034ZM33.2334 72.685H34.2234L38.7084 58.09H37.7334L33.2334 72.685ZM40.5024 58.42V59.53H52.3224V58.42H40.5024ZM39.7224 64.795V65.92H53.1774V64.795H39.7224ZM41.5524 60.565C42.1224 61.675 42.7074 63.13 42.9174 64.015L43.9974 63.655C43.7874 62.77 43.1724 61.345 42.5574 60.25L41.5524 60.565ZM50.2524 60.19C49.8924 61.27 49.1874 62.815 48.6324 63.76L49.5924 64.075C50.1774 63.175 50.8824 61.735 51.4524 60.52L50.2524 60.19ZM45.8274 58.855V71.2H46.9824V58.855H45.8274ZM54.9624 60.01V61.09H67.9674V60.01H54.9624ZM59.6424 63.505V64.6H65.6424V63.505H59.6424ZM65.3424 63.505V63.7C65.0724 67.735 64.7574 69.4 64.2924 69.835C64.1124 69.97 63.9174 70 63.5874 70C63.1824 70 62.1324 69.985 61.0374 69.895C61.2624 70.195 61.4274 70.66 61.4424 71.005C62.4624 71.065 63.4374 71.08 63.9774 71.05C64.5624 71.005 64.9224 70.9 65.2674 70.525C65.8674 69.925 66.1674 68.29 66.4674 64.045C66.4974 63.88 66.5124 63.505 66.5124 63.505H65.3424ZM59.0724 60.655C58.9074 64.195 58.6524 68.335 54.6324 70.345C54.9174 70.57 55.2774 70.96 55.4574 71.245C59.6874 69.01 60.1074 64.57 60.3024 60.655H59.0724ZM60.5424 57.73C60.9174 58.465 61.3824 59.425 61.5774 60.04L62.7174 59.545C62.4924 58.945 62.0424 58.015 61.6224 57.31L60.5424 57.73ZM78.0924 65.905C79.2774 67.51 80.7324 69.73 81.4224 71.11L82.5474 70.495C81.8274 69.16 80.3874 67.03 79.1574 65.425L78.0924 65.905ZM73.6824 57.85C72.7524 60.13 71.1774 62.35 69.4824 63.745C69.7824 63.955 70.2774 64.42 70.4874 64.66C72.1674 63.115 73.8324 60.7 74.9124 58.225L73.6824 57.85ZM71.3724 70.48C71.3724 70.195 72.2874 69.82 72.2874 69.82V69.79C74.1024 67.915 75.9174 65.23 77.4174 62.545L76.1574 62.005C74.8974 64.57 72.9474 67.27 72.3324 67.96C71.7624 68.665 71.3274 69.16 70.9224 69.265C71.0874 69.595 71.2974 70.225 71.3724 70.48ZM71.3724 70.48C71.9574 70.24 72.8124 70.195 81.2724 69.625C81.1974 69.37 81.0774 68.89 81.0174 68.56L72.1674 69.07L71.3424 69.52L71.3724 70.48ZM78.1524 57.775V58.45H78.4524C79.2474 60.895 80.7924 63.295 82.6074 64.66C82.8174 64.315 83.2224 63.835 83.4924 63.61C81.7224 62.44 80.2074 60.175 79.4874 57.775H78.1524ZM75.8274 57.775V58.93H79.1124V57.775H75.8274ZM87.3624 61.855H95.6724V63.76H87.3624V61.855ZM87.3624 59.02H95.6724V60.895H87.3624V59.02ZM86.2524 58V64.78H96.8424V58H86.2524ZM84.7524 69.73V70.78H98.1474V69.73H84.7524ZM85.7574 66.505V67.57H97.3374V66.505H85.7574ZM90.9474 58.645V64.615H90.8874V70.33H92.0874V64.615H92.0274V58.645H90.9474ZM100.427 72.955C101.807 70.705 102.632 68.305 102.632 65.35C102.632 62.41 101.807 59.98 100.427 57.73L99.5724 58.135C100.862 60.265 101.492 62.8 101.492 65.35C101.492 67.9 100.862 70.435 99.5724 72.565L100.427 72.955Z" fill="#404040"/>
<path d="M313.34 420.346L314.18 419.956C312.89 417.826 312.26 415.291 312.26 412.741C312.26 410.191 312.89 407.656 314.18 405.526L313.34 405.121C311.945 407.371 311.12 409.801 311.12 412.741C311.12 415.696 311.945 418.096 313.34 420.346ZM318.618 405.586V406.681H326.448V405.586H318.618ZM318.618 409.201V410.281H326.508V409.201H318.618ZM318.498 412.831V413.911H326.433V412.831H318.498ZM317.928 405.586V410.221C317.928 412.636 317.673 415.681 315.258 417.796C315.498 417.961 315.948 418.366 316.113 418.606C318.693 416.356 319.068 412.816 319.068 410.221V405.586H317.928ZM325.953 405.586V416.926C325.953 417.256 325.833 417.361 325.488 417.376C325.143 417.376 323.913 417.391 322.668 417.346C322.863 417.661 323.073 418.201 323.148 418.531C324.768 418.531 325.758 418.516 326.343 418.321C326.913 418.126 327.123 417.736 327.123 416.941V405.586H325.953ZM333.783 404.851C332.943 407.131 331.548 409.381 330.063 410.836C330.273 411.091 330.588 411.691 330.708 411.946C332.328 410.266 333.873 407.731 334.848 405.181L333.783 404.851ZM332.193 408.721V418.576H333.303V407.641L333.288 407.626L332.193 408.721ZM335.913 410.941V412.006H341.808V410.941H335.913ZM341.433 410.941V411.166C341.238 415.366 341.028 416.896 340.713 417.271C340.563 417.436 340.443 417.451 340.203 417.451C339.948 417.451 339.363 417.451 338.718 417.391C338.898 417.676 338.988 418.111 339.018 418.426C339.693 418.471 340.338 418.471 340.713 418.426C341.133 418.396 341.403 418.276 341.673 417.961C342.108 417.436 342.303 415.861 342.513 411.451C342.528 411.301 342.528 410.941 342.528 410.941H341.433ZM337.683 411.481C337.443 414.556 336.558 416.581 334.368 417.706C334.608 417.901 334.983 418.336 335.133 418.546C337.443 417.181 338.493 415.006 338.808 411.541L337.683 411.481ZM338.853 405.316V406.396H341.223V405.316H338.853ZM337.218 405.526C336.693 407.491 335.718 409.246 334.413 410.371C334.638 410.596 335.013 411.106 335.148 411.346C336.573 410.041 337.698 408.046 338.328 405.796L337.218 405.526ZM340.188 405.316V405.931H340.458C340.983 408.061 342.078 410.161 343.443 411.376C343.608 411.016 343.953 410.506 344.178 410.236C342.918 409.276 341.883 407.371 341.448 405.316H340.188ZM346.308 420.346C347.688 418.096 348.513 415.696 348.513 412.741C348.513 409.801 347.688 407.371 346.308 405.121L345.453 405.526C346.743 407.656 347.373 410.191 347.373 412.741C347.373 415.291 346.743 417.826 345.453 419.956L346.308 420.346Z" fill="#404040"/>
<path d="M24.22 10.14V12.18H29.48V10.14H24.22ZM22.14 19.3V26.8H24.36V21.32H28.56V26.74H30.88V19.3H22.14ZM23.04 24.06V26.12H29.82V24.06H23.04ZM24.44 8C23.54 10.36 21.92 12.64 20.1 14.04C20.62 14.4 21.54 15.24 21.94 15.66C23.78 14.02 25.62 11.38 26.72 8.64L24.44 8ZM28.86 10.14V10.52C27.58 14.52 23.9 17.58 19.76 18.86C20.22 19.32 20.82 20.22 21.1 20.8C25.64 19.1 29.54 15.86 31.2 10.74L29.68 10.06L29.28 10.14H28.86ZM24.3 11.52L22.52 12.44C23.94 15.5 26.9 18.8 31.22 20.34C31.54 19.74 32.22 18.8 32.7 18.34C28.46 17.16 25.58 14.2 24.3 11.52ZM13.88 12.14V14.38H21.04V12.14H13.88ZM16.54 8.02V26.8H18.8V8.02H16.54ZM16.48 13.68C15.98 16.24 14.76 19.36 13.4 21.1C13.78 21.68 14.32 22.62 14.52 23.28C16.02 21.22 17.26 17.38 17.86 14.16L16.48 13.68ZM18.72 14.76L17.64 15.76C18.22 16.58 19.4 18.48 19.88 19.46L21.18 17.66C20.82 17.18 19.18 15.2 18.72 14.76ZM44.94 8.02V13.78H47.28V8.02H44.94ZM41.44 9.6V11.52H51.04V9.6H41.44ZM40.18 12.88V14.84H52.22V12.88H40.18ZM42.98 14.52C42.76 15.78 42.2 16.66 40.08 17.2C40.52 17.58 41.08 18.38 41.3 18.9C43.98 17.98 44.76 16.54 45.08 14.52H42.98ZM46.98 14.16V15.48C46.98 17.24 47.38 17.92 49.24 17.92C49.54 17.92 50.44 17.92 50.76 17.92C51.22 17.92 51.72 17.9 52.02 17.78C51.96 17.28 51.9 16.5 51.86 15.96C51.58 16.04 51.02 16.08 50.7 16.08C50.44 16.08 49.64 16.08 49.4 16.08C49.12 16.08 49.06 15.92 49.06 15.5V14.16H46.98ZM44.2 17.04C43.44 19.08 41.86 20.78 39.94 21.82C40.4 22.18 41.2 23.02 41.52 23.44C43.56 22.14 45.38 20.06 46.36 17.54L44.2 17.04ZM43.8 18.84V20.76H49.22V18.84H43.8ZM48.62 18.84V19.24C47.72 22.06 44.48 24.08 39.02 25C39.52 25.5 40.1 26.34 40.36 26.92C46.2 25.76 49.76 23.28 51.08 19.44L49.5 18.76L49.08 18.84H48.62ZM42.48 18.74L40.78 19.58C42.28 22.92 45.6 25.76 51.4 26.74C51.68 26.14 52.26 25.2 52.72 24.72C47.04 24.04 43.8 21.6 42.48 18.74ZM34.3 8.8V26.74H36.38V10.94H38.9V8.8H34.3ZM38.28 8.8V9.48C37.98 10.74 37.36 13.34 36.8 15.12C37.94 16.52 38.18 17.82 38.18 18.78C38.18 19.36 38.08 19.8 37.84 19.98C37.7 20.08 37.5 20.14 37.3 20.14C37.06 20.16 36.78 20.14 36.44 20.12C36.76 20.7 36.94 21.6 36.96 22.18C37.42 22.18 37.9 22.18 38.26 22.14C38.7 22.06 39.08 21.94 39.4 21.7C40.04 21.22 40.3 20.34 40.3 19.04C40.3 17.86 40.04 16.44 38.84 14.86C39.42 13.32 40.06 11.3 40.58 9.62L39 8.72L38.66 8.8H38.28ZM58.08 17.6V18.84H67.96V17.6H58.08ZM61.48 22.72C60.64 23.54 59 24.34 57.58 24.72C57.98 25.06 58.54 25.7 58.82 26.12C60.3 25.56 61.92 24.36 62.84 23.26L61.48 22.72ZM56.32 13.96V15.06H60.62V13.96H56.32ZM65.28 13.96V15.1H69.66V13.96H65.28ZM56.32 12.04V13.4H60.1V15.64H56.32V16.98H62.22V12.04H56.32ZM69.74 12.04H63.56V17.02H69.74V15.64H65.72V13.42H69.74V12.04ZM54.86 12.04V26.8H57.1V12.04H54.86ZM68.88 12.04V24.44C68.88 24.66 68.82 24.74 68.58 24.74C68.38 24.74 67.72 24.74 67.12 24.72C67.4 25.24 67.7 26.1 67.78 26.66C68.92 26.66 69.76 26.64 70.36 26.3C70.98 25.96 71.16 25.44 71.16 24.44V12.04H68.88ZM60.1 20.54H65.8V22.08H60.1V20.54ZM58.56 19.34V23.28H67.4V19.34H58.56ZM60.38 20.92C60.6 21.28 60.9 21.76 61.04 22.08L61.94 21.7C61.78 21.4 61.46 20.92 61.22 20.6L60.38 20.92ZM64.6 20.56C64.46 20.88 64.14 21.4 63.9 21.78L64.66 22.1C64.92 21.8 65.2 21.42 65.52 20.96L64.6 20.56ZM64 22.76L63.14 23.5C63.94 24.04 65.74 25.4 66.4 26.02L67.34 24.7C66.84 24.36 64.64 23.08 64 22.76ZM61.98 16.76V20.04H63.84V16.76H61.98ZM62.18 19.62V22.76H62V26.44H63.84V22.76H63.66V19.62H62.18ZM54.04 8.9V10.88H62.62V8.9H54.04ZM57.68 8V11.72H60.06V8H57.68ZM66.08 8V11.74H68.46V8H66.08ZM63.34 8.9V10.88H71.94V8.9H63.34ZM76.58 8.74V10.9H92.02V8.74H76.58ZM76.8 24.32V26.3H92.06V24.32H76.8ZM84.7 20.8V22.64H90.34V20.8H84.7ZM75 8.74V14.92C75 18.08 74.88 22.58 73.38 25.66C73.96 25.86 74.96 26.42 75.4 26.76C77.02 23.46 77.26 18.34 77.26 14.92V8.74H75ZM83.44 19.16V25.44H85.76V19.16H83.44ZM78.96 20.56V25.46H81.26V20.56H78.96ZM77.66 13.98V15.64H83.88V13.98H77.66ZM79.84 11.92V19.28H81.8V11.92H79.84ZM79.6 14.72C78.96 15.92 77.76 17.22 76.62 17.86C77.04 18.2 77.62 18.84 77.9 19.3C79.08 18.4 80.26 16.74 80.9 15.2L79.6 14.72ZM84.38 13.98V15.64H91.56V13.98H84.38ZM86.72 11.92V19.28H88.72V11.92H86.72ZM86.24 14.7C85.66 15.9 84.48 17.18 83.34 17.84C83.76 18.18 84.34 18.84 84.64 19.3C85.82 18.4 86.96 16.72 87.56 15.16L86.24 14.7ZM81.72 15.46L80.6 16.3C81.16 16.74 82.3 17.78 82.76 18.28L83.9 16.84C83.54 16.56 82.18 15.7 81.72 15.46ZM82.3 11.02C81.22 11.44 79.24 11.74 77.48 11.86C77.68 12.24 77.9 12.84 78 13.22C79.92 13.12 82.22 12.82 83.78 12.22L82.3 11.02ZM89.52 10.92C88.32 11.38 86.06 11.68 84.1 11.84C84.3 12.18 84.54 12.82 84.6 13.18C86.74 13.08 89.28 12.76 91 12.12L89.52 10.92ZM88.78 15.5L87.74 16.48C88.56 17.08 90.38 18.54 91.14 19.28L92.2 17.74C91.66 17.34 89.46 15.88 88.78 15.5ZM97.96 7.94C97.1 10.54 95.54 13.1 93.74 14.66C94.32 15 95.34 15.8 95.8 16.22C97.58 14.42 99.34 11.54 100.4 8.56L97.96 7.94ZM98.38 10.22L97.22 12.54H111.1V10.22H98.38ZM96.96 14.94V21.38H99.38V17.18H110.64V14.94H96.96ZM93.8 20.2V22.52H112.2V20.2H93.8ZM102.84 11.42V26.8H105.32V11.42H102.84ZM118.44 12.92V15.28H122.2V12.92H118.44ZM124.22 8.02V23.82C124.22 24.14 124.1 24.24 123.78 24.24C123.46 24.26 122.5 24.26 121.48 24.22C121.86 24.86 122.32 26.04 122.44 26.72C123.9 26.72 124.98 26.62 125.7 26.18C126.44 25.78 126.7 25.08 126.7 23.84V8.02H124.22ZM121.64 12.92V13.34C121.2 17.32 119.7 21.02 117.38 22.66C117.92 23.12 118.6 24.08 118.9 24.64C121.7 22.42 123.3 18.5 123.88 13.24L122.44 12.88L122.04 12.92H121.64ZM126.6 11.32L125.18 11.54C126.08 17.14 127.6 22 131.12 24.52C131.48 23.84 132.28 22.86 132.82 22.4C129.28 20.4 127.5 16.14 126.6 11.32ZM130.06 11.68C129.12 13.18 127.46 15.04 126.22 16.18L128.04 17.36C129.3 16.24 130.92 14.54 132.18 12.94L130.06 11.68ZM113.62 11.2C114.86 11.94 116.52 13.08 117.3 13.86L118.78 11.84C117.94 11.12 116.22 10.06 115 9.4L113.62 11.2ZM113.58 22.76L115.66 24.24C116.7 22.46 117.8 20.36 118.7 18.42L116.88 16.94C115.86 19.06 114.52 21.36 113.58 22.76ZM136 9.02V15.94C136 19.26 135.74 22.66 133.44 25.26C134.06 25.64 135.06 26.44 135.5 26.98C138.2 23.94 138.48 19.86 138.48 15.96V9.02H136ZM142.14 9.88V24.86H144.58V9.88H142.14ZM148.24 9V26.76H150.78V9H148.24ZM166.82 8.32V13.46H168.9V8.32H166.82ZM163.82 24.18L164.32 26.34C166.28 25.98 168.86 25.52 171.28 25.04L171.14 23.08C168.46 23.52 165.68 23.94 163.82 24.18ZM169.42 21.22C169.96 23 170.52 25.4 170.7 26.78L172.44 26.34C172.24 24.96 171.62 22.62 171.04 20.86L169.42 21.22ZM165.8 13.84H169.84V18.02H165.8V13.84ZM164.1 11.82V20.08H171.6V11.82H164.1ZM167 12.58V18.98H166.82V24.64H168.88V18.98H168.7V12.58H167ZM157.84 21.82V26.12H159.52V21.82H157.84ZM156.8 13.12H160.7V14.26H156.8V13.12ZM154.78 11.5V15.88H162.84V11.5H154.78ZM153.8 8.78V10.78H163.78V8.78H153.8ZM156.38 21.28V22.74H160.96V21.28H156.38ZM154.1 16.58V26.78H155.94V18.36H162.06V16.58H154.1ZM161.46 16.58V24.46C161.46 24.66 161.4 24.72 161.22 24.72C161.04 24.72 160.5 24.72 159.96 24.7C160.18 25.2 160.4 25.96 160.46 26.5C161.44 26.5 162.18 26.46 162.7 26.18C163.24 25.86 163.38 25.36 163.38 24.5V16.58H161.46ZM156.34 19.12C156.74 19.78 157.12 20.68 157.26 21.24L158.56 20.74C158.4 20.2 158 19.32 157.58 18.7L156.34 19.12ZM159.72 18.56C159.44 19.48 158.88 20.82 158.44 21.64L159.56 22.16C160.06 21.38 160.62 20.18 161.18 19.14L159.72 18.56ZM182.4 8.38V22.78C182.4 25.54 183.1 26.34 185.58 26.34C186.08 26.34 188.4 26.34 188.94 26.34C191.4 26.34 191.98 24.92 192.26 21.06C191.64 20.92 190.68 20.48 190.12 20.06C189.96 23.38 189.78 24.2 188.76 24.2C188.26 24.2 186.28 24.2 185.84 24.2C184.86 24.2 184.72 24 184.72 22.82V8.38H182.4ZM178.6 8.1C177.44 10.98 175.46 13.82 173.42 15.6C173.82 16.2 174.46 17.52 174.68 18.1C177.06 15.84 179.4 12.26 180.84 8.86L178.6 8.1ZM176.6 13.52V26.78H178.9V11.28L178.88 11.26L176.6 13.52ZM183.8 13.52V15.8H191.72V13.52H183.8ZM200.2 16.84V18.72H205.34V16.84H200.2ZM200.2 20.2V22.08H205.36V20.2H200.2ZM196.32 23.58V25.78H209.82V23.58H196.32ZM194.82 13.24V26.8H197.12V15.44H208.72V26.8H211.16V13.24H194.82ZM199.18 14.7V24.56H201.32V14.7H199.18ZM204.4 14.7V24.54H206.56V14.7H204.4ZM201.44 10.2C201.36 11.46 201.04 13.14 200.76 14.3L202.96 14.88C203.36 13.84 203.8 12.28 204.28 10.8L201.44 10.2ZM193.98 9.16V11.44H212.06V9.16H193.98ZM216.56 9.88V26.78H218.9V9.88H216.56ZM213.86 13.48V15.72H220.88V13.48H213.86ZM216.76 14.54C216.14 16.76 214.74 19.66 213.36 21.26C213.72 21.86 214.26 22.86 214.48 23.56C216 21.58 217.4 18.02 218.16 15.16L216.76 14.54ZM219.66 8.22C218.18 8.86 215.78 9.4 213.62 9.7C213.88 10.22 214.2 11.04 214.28 11.54C216.56 11.3 219.26 10.82 221.26 10.08L219.66 8.22ZM218.7 16.2L217.66 17.14C218.28 17.98 219.48 19.8 219.94 20.76L221.32 18.88C220.94 18.42 219.2 16.62 218.7 16.2ZM225.3 8.02V14.42H227.68V8.02H225.3ZM221.38 8.94V10.4H231.86V8.94H221.38ZM221.74 11.08V12.46H231.4V11.08H221.74ZM220.76 13.14V14.64H232.26V13.14H220.76ZM224.16 19H229.02V19.86H224.16V19ZM224.16 21.22H229.02V22.08H224.16V21.22ZM224.16 16.8H229.02V17.62H224.16V16.8ZM222 15.32V23.56H231.28V15.32H222ZM227.16 24.48C228.34 25.22 229.72 26.22 230.48 26.82L232.56 25.7C231.66 25.06 230.06 24.1 228.76 23.32L227.16 24.48ZM224.24 23.22C223.28 24 221.38 24.94 219.78 25.4C220.24 25.8 220.9 26.46 221.26 26.9C222.88 26.38 224.88 25.4 226.1 24.46L224.24 23.22Z" fill="#404040"/>
<rect x="13" y="39" width="20" height="6" fill="#DDE2EC"/>
<rect x="80" y="39" width="20" height="6" fill="#9B051E"/>
<rect x="147" y="39" width="20" height="6" fill="#285F92"/>
<path d="M107.616 48H114.056V46.908H111.214C110.696 46.908 110.08 46.95 109.534 47.006C111.956 44.724 113.566 42.638 113.566 40.58C113.566 38.746 112.418 37.556 110.584 37.556C109.282 37.556 108.386 38.158 107.546 39.068L108.288 39.782C108.862 39.11 109.59 38.592 110.43 38.592C111.704 38.592 112.306 39.46 112.306 40.636C112.306 42.386 110.836 44.444 107.616 47.258V48ZM118.658 48.196C120.59 48.196 121.836 46.418 121.836 42.834C121.836 39.278 120.59 37.556 118.658 37.556C116.698 37.556 115.452 39.278 115.452 42.834C115.452 46.418 116.698 48.196 118.658 48.196ZM118.658 47.16C117.482 47.16 116.684 45.858 116.684 42.834C116.684 39.852 117.482 38.578 118.658 38.578C119.82 38.578 120.604 39.852 120.604 42.834C120.604 45.858 119.82 47.16 118.658 47.16ZM123.763 48H129.391V46.936H127.319V37.738H126.339C125.793 38.074 125.135 38.312 124.211 38.466V39.292H126.045V46.936H123.763V48ZM130.913 48H137.353V46.908H134.511C133.993 46.908 133.377 46.95 132.831 47.006C135.253 44.724 136.863 42.638 136.863 40.58C136.863 38.746 135.715 37.556 133.881 37.556C132.579 37.556 131.683 38.158 130.843 39.068L131.585 39.782C132.159 39.11 132.887 38.592 133.727 38.592C135.001 38.592 135.603 39.46 135.603 40.636C135.603 42.386 134.133 44.444 130.913 47.258V48Z" fill="#404040"/>
<path d="M41.232 48H46.86V46.936H44.788V37.738H43.808C43.262 38.074 42.604 38.312 41.68 38.466V39.292H43.514V46.936H41.232V48ZM51.0416 48.196C52.9736 48.196 54.7656 46.6 54.7656 42.428C54.7656 39.166 53.2956 37.556 51.3216 37.556C49.7256 37.556 48.3816 38.9 48.3816 40.888C48.3816 43.016 49.4876 44.108 51.2096 44.108C52.0916 44.108 53.0016 43.576 53.6456 42.764L53.5756 41.742C52.9036 42.764 52.1056 43.17 51.4196 43.17C50.2016 43.17 49.5856 42.26 49.5856 40.888C49.5856 39.474 50.3416 38.55 51.3216 38.55C52.7636 38.55 53.5616 39.908 53.5616 42.428C53.5616 45.942 52.3716 47.132 50.9996 47.132C50.3416 47.132 49.7116 46.838 49.2776 46.334L48.5636 47.146C49.1376 47.748 49.9216 48.196 51.0416 48.196ZM59.4373 48.196C61.3553 48.196 62.6573 47.034 62.6573 45.536C62.6573 44.136 61.8173 43.352 60.9213 42.834V42.764C61.5373 42.288 62.2933 41.378 62.2933 40.286C62.2933 38.718 61.2293 37.598 59.4793 37.598C57.8693 37.598 56.6513 38.634 56.6513 40.188C56.6513 41.266 57.2953 42.05 58.0513 42.568V42.624C57.1133 43.128 56.1613 44.08 56.1613 45.466C56.1613 47.048 57.5473 48.196 59.4373 48.196ZM60.1373 42.442C58.9333 41.966 57.8273 41.42 57.8273 40.188C57.8273 39.208 58.5133 38.536 59.4513 38.536C60.5573 38.536 61.2013 39.348 61.2013 40.356C61.2013 41.126 60.8373 41.826 60.1373 42.442ZM59.4653 47.23C58.2333 47.23 57.3093 46.432 57.3093 45.34C57.3093 44.36 57.8833 43.548 58.7233 43.016C60.1653 43.604 61.4253 44.122 61.4253 45.494C61.4253 46.516 60.6413 47.23 59.4653 47.23ZM63.9129 48H70.3529V46.908H67.5109C66.9929 46.908 66.3769 46.95 65.8309 47.006C68.2529 44.724 69.8629 42.638 69.8629 40.58C69.8629 38.746 68.7149 37.556 66.8809 37.556C65.5789 37.556 64.6829 38.158 63.8429 39.068L64.5849 39.782C65.1589 39.11 65.8869 38.592 66.7269 38.592C68.0009 38.592 68.6029 39.46 68.6029 40.636C68.6029 42.386 67.1329 44.444 63.9129 47.258V48Z" fill="#404040"/>
<path d="M174.616 48H181.056V46.908H178.214C177.696 46.908 177.08 46.95 176.534 47.006C178.956 44.724 180.566 42.638 180.566 40.58C180.566 38.746 179.418 37.556 177.584 37.556C176.282 37.556 175.386 38.158 174.546 39.068L175.288 39.782C175.862 39.11 176.59 38.592 177.43 38.592C178.704 38.592 179.306 39.46 179.306 40.636C179.306 42.386 177.836 44.444 174.616 47.258V48ZM185.658 48.196C187.59 48.196 188.836 46.418 188.836 42.834C188.836 39.278 187.59 37.556 185.658 37.556C183.698 37.556 182.452 39.278 182.452 42.834C182.452 46.418 183.698 48.196 185.658 48.196ZM185.658 47.16C184.482 47.16 183.684 45.858 183.684 42.834C183.684 39.852 184.482 38.578 185.658 38.578C186.82 38.578 187.604 39.852 187.604 42.834C187.604 45.858 186.82 47.16 185.658 47.16ZM190.763 48H196.391V46.936H194.319V37.738H193.339C192.793 38.074 192.135 38.312 191.211 38.466V39.292H193.045V46.936H190.763V48ZM200.573 48.196C202.505 48.196 204.297 46.6 204.297 42.428C204.297 39.166 202.827 37.556 200.853 37.556C199.257 37.556 197.913 38.9 197.913 40.888C197.913 43.016 199.019 44.108 200.741 44.108C201.623 44.108 202.533 43.576 203.177 42.764L203.107 41.742C202.435 42.764 201.637 43.17 200.951 43.17C199.733 43.17 199.117 42.26 199.117 40.888C199.117 39.474 199.873 38.55 200.853 38.55C202.295 38.55 203.093 39.908 203.093 42.428C203.093 45.942 201.903 47.132 200.531 47.132C199.873 47.132 199.243 46.838 198.809 46.334L198.095 47.146C198.669 47.748 199.453 48.196 200.573 48.196Z" fill="#404040"/>
</g>
<defs>
<clipPath id="clip0_2086_101">
<rect width="620" height="420" fill="white"/>
</clipPath>
</defs>
</svg>
